ISO-10303-21;
HEADER;
/* Generated by software containing ST-Developer
 * from STEP Tools, Inc. (www.steptools.com) 
 */
/* OPTION: using custom renumber hook */

FILE_DESCRIPTION(
/* description */ ('STEP AP242 Edition 2',
'CAx-IF Rec.Pracs.---Representation and Presentation of Product Manufa
cturing Information (PMI)---4.0---2014-10-13',
'CAx-IF Rec.Pracs.---3D Tessellated Geometry---0.4---2014-09-14','2;1',
'CAx-IF Rec.Pracs.---User Defined Attributes---1.5---2016-08-15'),
/* implementation_level */ '2;1');

FILE_NAME(
/* name */ 'Assembly 1 - (AXLE) Drive input gear 2',
/* time_stamp */ '2026-08-06T04:40:22Z',
/* author */ (''),
/* organization */ (''),
/* preprocessor_version */ 'ST-DEVELOPER v20',
/* originating_system */ 'ONSHAPE BY PTC INC, 1.218',
/* authorisation */ '  ');

FILE_SCHEMA (('AP242_MANAGED_MODEL_BASED_3D_ENGINEERING_MIM_LF { 1 0 10303 442 3 1 4 }'));
ENDSEC;

DATA;
#10=SHAPE_REPRESENTATION_RELATIONSHIP('','',#157,#11);
#11=ADVANCED_BREP_SHAPE_REPRESENTATION('',(#155),#243);
#12=ORIENTED_EDGE('',*,*,#48,.F.);
#13=ORIENTED_EDGE('',*,*,#49,.F.);
#14=ORIENTED_EDGE('',*,*,#50,.F.);
#15=ORIENTED_EDGE('',*,*,#51,.F.);
#16=ORIENTED_EDGE('',*,*,#52,.F.);
#17=ORIENTED_EDGE('',*,*,#53,.F.);
#18=ORIENTED_EDGE('',*,*,#54,.T.);
#19=ORIENTED_EDGE('',*,*,#55,.T.);
#20=ORIENTED_EDGE('',*,*,#56,.F.);
#21=ORIENTED_EDGE('',*,*,#50,.T.);
#22=ORIENTED_EDGE('',*,*,#56,.T.);
#23=ORIENTED_EDGE('',*,*,#57,.T.);
#24=ORIENTED_EDGE('',*,*,#58,.F.);
#25=ORIENTED_EDGE('',*,*,#51,.T.);
#26=ORIENTED_EDGE('',*,*,#58,.T.);
#27=ORIENTED_EDGE('',*,*,#59,.T.);
#28=ORIENTED_EDGE('',*,*,#60,.F.);
#29=ORIENTED_EDGE('',*,*,#52,.T.);
#30=ORIENTED_EDGE('',*,*,#60,.T.);
#31=ORIENTED_EDGE('',*,*,#61,.T.);
#32=ORIENTED_EDGE('',*,*,#62,.F.);
#33=ORIENTED_EDGE('',*,*,#53,.T.);
#34=ORIENTED_EDGE('',*,*,#62,.T.);
#35=ORIENTED_EDGE('',*,*,#63,.T.);
#36=ORIENTED_EDGE('',*,*,#64,.F.);
#37=ORIENTED_EDGE('',*,*,#48,.T.);
#38=ORIENTED_EDGE('',*,*,#64,.T.);
#39=ORIENTED_EDGE('',*,*,#65,.T.);
#40=ORIENTED_EDGE('',*,*,#54,.F.);
#41=ORIENTED_EDGE('',*,*,#49,.T.);
#42=ORIENTED_EDGE('',*,*,#65,.F.);
#43=ORIENTED_EDGE('',*,*,#63,.F.);
#44=ORIENTED_EDGE('',*,*,#61,.F.);
#45=ORIENTED_EDGE('',*,*,#59,.F.);
#46=ORIENTED_EDGE('',*,*,#57,.F.);
#47=ORIENTED_EDGE('',*,*,#55,.F.);
#48=EDGE_CURVE('',#66,#67,#78,.T.);
#49=EDGE_CURVE('',#68,#66,#79,.T.);
#50=EDGE_CURVE('',#69,#68,#80,.T.);
#51=EDGE_CURVE('',#70,#69,#81,.T.);
#52=EDGE_CURVE('',#71,#70,#82,.T.);
#53=EDGE_CURVE('',#67,#71,#83,.T.);
#54=EDGE_CURVE('',#68,#72,#84,.T.);
#55=EDGE_CURVE('',#72,#73,#85,.T.);
#56=EDGE_CURVE('',#69,#73,#86,.T.);
#57=EDGE_CURVE('',#73,#74,#87,.T.);
#58=EDGE_CURVE('',#70,#74,#88,.T.);
#59=EDGE_CURVE('',#74,#75,#89,.T.);
#60=EDGE_CURVE('',#71,#75,#90,.T.);
#61=EDGE_CURVE('',#75,#76,#91,.T.);
#62=EDGE_CURVE('',#67,#76,#92,.T.);
#63=EDGE_CURVE('',#76,#77,#93,.T.);
#64=EDGE_CURVE('',#66,#77,#94,.T.);
#65=EDGE_CURVE('',#77,#72,#95,.T.);
#66=VERTEX_POINT('',#206);
#67=VERTEX_POINT('',#207);
#68=VERTEX_POINT('',#209);
#69=VERTEX_POINT('',#211);
#70=VERTEX_POINT('',#213);
#71=VERTEX_POINT('',#215);
#72=VERTEX_POINT('',#219);
#73=VERTEX_POINT('',#221);
#74=VERTEX_POINT('',#225);
#75=VERTEX_POINT('',#229);
#76=VERTEX_POINT('',#233);
#77=VERTEX_POINT('',#237);
#78=LINE('',#205,#96);
#79=LINE('',#208,#97);
#80=LINE('',#210,#98);
#81=LINE('',#212,#99);
#82=LINE('',#214,#100);
#83=LINE('',#216,#101);
#84=LINE('',#218,#102);
#85=LINE('',#220,#103);
#86=LINE('',#222,#104);
#87=LINE('',#224,#105);
#88=LINE('',#226,#106);
#89=LINE('',#228,#107);
#90=LINE('',#230,#108);
#91=LINE('',#232,#109);
#92=LINE('',#234,#110);
#93=LINE('',#236,#111);
#94=LINE('',#238,#112);
#95=LINE('',#240,#113);
#96=VECTOR('',#171,1.);
#97=VECTOR('',#172,1.);
#98=VECTOR('',#173,1.);
#99=VECTOR('',#174,1.);
#100=VECTOR('',#175,1.);
#101=VECTOR('',#176,1.);
#102=VECTOR('',#179,1.);
#103=VECTOR('',#180,1.);
#104=VECTOR('',#181,1.);
#105=VECTOR('',#184,1.);
#106=VECTOR('',#185,1.);
#107=VECTOR('',#188,1.);
#108=VECTOR('',#189,1.);
#109=VECTOR('',#192,1.);
#110=VECTOR('',#193,1.);
#111=VECTOR('',#196,1.);
#112=VECTOR('',#197,1.);
#113=VECTOR('',#200,1.);
#114=EDGE_LOOP('',(#12,#13,#14,#15,#16,#17));
#115=EDGE_LOOP('',(#18,#19,#20,#21));
#116=EDGE_LOOP('',(#22,#23,#24,#25));
#117=EDGE_LOOP('',(#26,#27,#28,#29));
#118=EDGE_LOOP('',(#30,#31,#32,#33));
#119=EDGE_LOOP('',(#34,#35,#36,#37));
#120=EDGE_LOOP('',(#38,#39,#40,#41));
#121=EDGE_LOOP('',(#42,#43,#44,#45,#46,#47));
#122=FACE_BOUND('',#114,.T.);
#123=FACE_BOUND('',#115,.T.);
#124=FACE_BOUND('',#116,.T.);
#125=FACE_BOUND('',#117,.T.);
#126=FACE_BOUND('',#118,.T.);
#127=FACE_BOUND('',#119,.T.);
#128=FACE_BOUND('',#120,.T.);
#129=FACE_BOUND('',#121,.T.);
#130=PLANE('',#159);
#131=PLANE('',#160);
#132=PLANE('',#161);
#133=PLANE('',#162);
#134=PLANE('',#163);
#135=PLANE('',#164);
#136=PLANE('',#165);
#137=PLANE('',#166);
#138=ADVANCED_FACE('',(#122),#130,.F.);
#139=ADVANCED_FACE('',(#123),#131,.T.);
#140=ADVANCED_FACE('',(#124),#132,.T.);
#141=ADVANCED_FACE('',(#125),#133,.T.);
#142=ADVANCED_FACE('',(#126),#134,.T.);
#143=ADVANCED_FACE('',(#127),#135,.T.);
#144=ADVANCED_FACE('',(#128),#136,.T.);
#145=ADVANCED_FACE('',(#129),#137,.T.);
#146=CLOSED_SHELL('',(#138,#139,#140,#141,#142,#143,#144,#145));
#147=STYLED_ITEM('',(#148),#155);
#148=PRESENTATION_STYLE_ASSIGNMENT((#149));
#149=SURFACE_STYLE_USAGE(.BOTH.,#150);
#150=SURFACE_SIDE_STYLE('',(#151));
#151=SURFACE_STYLE_FILL_AREA(#152);
#152=FILL_AREA_STYLE('',(#153));
#153=FILL_AREA_STYLE_COLOUR('',#154);
#154=COLOUR_RGB('',0.0862745098039216,0.31764705882353,0.690196078431373);
#155=MANIFOLD_SOLID_BREP('(AXLE) Drive input gear 2',#146);
#156=SHAPE_DEFINITION_REPRESENTATION(#248,#157);
#157=SHAPE_REPRESENTATION('(AXLE) Drive input gear 2',(#158),#243);
#158=AXIS2_PLACEMENT_3D('',#203,#167,#168);
#159=AXIS2_PLACEMENT_3D('',#204,#169,#170);
#160=AXIS2_PLACEMENT_3D('',#217,#177,#178);
#161=AXIS2_PLACEMENT_3D('',#223,#182,#183);
#162=AXIS2_PLACEMENT_3D('',#227,#186,#187);
#163=AXIS2_PLACEMENT_3D('',#231,#190,#191);
#164=AXIS2_PLACEMENT_3D('',#235,#194,#195);
#165=AXIS2_PLACEMENT_3D('',#239,#198,#199);
#166=AXIS2_PLACEMENT_3D('',#241,#201,#202);
#167=DIRECTION('',(0.,0.,1.));
#168=DIRECTION('',(1.,0.,0.));
#169=DIRECTION('',(0.,0.,-1.));
#170=DIRECTION('',(1.,0.,0.));
#171=DIRECTION('',(0.866025403784441,-0.5,0.));
#172=DIRECTION('',(0.866025403784436,0.5,0.));
#173=DIRECTION('',(-4.41857234922694E-15,1.,0.));
#174=DIRECTION('',(-0.866025403784441,0.5,0.));
#175=DIRECTION('',(-0.866025403784437,-0.5,0.));
#176=DIRECTION('',(3.53485787938156E-15,-1.,0.));
#177=DIRECTION('',(-1.,-4.41857234922694E-15,0.));
#178=DIRECTION('',(4.41857234922694E-15,-1.,0.));
#179=DIRECTION('',(0.,0.,-1.));
#180=DIRECTION('',(4.41857234922694E-15,-1.,0.));
#181=DIRECTION('',(0.,0.,-1.));
#182=DIRECTION('',(-0.5,-0.866025403784441,0.));
#183=DIRECTION('',(0.866025403784441,-0.5,0.));
#184=DIRECTION('',(0.866025403784441,-0.5,0.));
#185=DIRECTION('',(0.,0.,-1.));
#186=DIRECTION('',(0.5,-0.866025403784437,0.));
#187=DIRECTION('',(0.866025403784437,0.5,0.));
#188=DIRECTION('',(0.866025403784437,0.5,0.));
#189=DIRECTION('',(0.,0.,-1.));
#190=DIRECTION('',(1.,3.53485787938156E-15,0.));
#191=DIRECTION('',(-3.53485787938156E-15,1.,0.));
#192=DIRECTION('',(-3.53485787938156E-15,1.,0.));
#193=DIRECTION('',(0.,0.,-1.));
#194=DIRECTION('',(0.5,0.866025403784441,0.));
#195=DIRECTION('',(-0.866025403784441,0.5,0.));
#196=DIRECTION('',(-0.866025403784441,0.5,0.));
#197=DIRECTION('',(0.,0.,-1.));
#198=DIRECTION('',(-0.5,0.866025403784436,0.));
#199=DIRECTION('',(-0.866025403784436,-0.5,0.));
#200=DIRECTION('',(-0.866025403784436,-0.5,0.));
#201=DIRECTION('',(0.,0.,-1.));
#202=DIRECTION('',(1.,0.,0.));
#203=CARTESIAN_POINT('',(0.,0.,0.));
#204=CARTESIAN_POINT('',(0.,-0.01125,-0.052));
#205=CARTESIAN_POINT('',(0.0182,-0.0116460636271329,-0.052));
#206=CARTESIAN_POINT('',(0.0165,-0.0106645681695105,-0.052));
#207=CARTESIAN_POINT('',(0.0199,-0.0126275590847553,-0.052));
#208=CARTESIAN_POINT('',(0.0148,-0.0116460636271329,-0.052));
#209=CARTESIAN_POINT('',(0.0131,-0.0126275590847553,-0.052));
#210=CARTESIAN_POINT('',(0.0131,-0.01459055,-0.052));
#211=CARTESIAN_POINT('',(0.0131,-0.0165535409152448,-0.052));
#212=CARTESIAN_POINT('',(0.0148,-0.0175350363728671,-0.052));
#213=CARTESIAN_POINT('',(0.0165,-0.0185165318304894,-0.052));
#214=CARTESIAN_POINT('',(0.0182,-0.0175350363728671,-0.052));
#215=CARTESIAN_POINT('',(0.0199,-0.0165535409152447,-0.052));
#216=CARTESIAN_POINT('',(0.0199,-0.01459055,-0.052));
#217=CARTESIAN_POINT('',(0.0131,-0.01459055,-0.052));
#218=CARTESIAN_POINT('',(0.0131,-0.0126275590847553,-0.052));
#219=CARTESIAN_POINT('',(0.0131,-0.0126275590847553,-0.0759999920719316));
#220=CARTESIAN_POINT('',(0.0131,-0.0145905499999983,-0.0759999920719316));
#221=CARTESIAN_POINT('',(0.0131,-0.0165535409152448,-0.0759999920719316));
#222=CARTESIAN_POINT('',(0.0131,-0.0165535409152448,-0.052));
#223=CARTESIAN_POINT('',(0.0148,-0.0175350363728671,-0.052));
#224=CARTESIAN_POINT('',(0.0147999999999978,-0.0175350363728658,-0.0759999920719316));
#225=CARTESIAN_POINT('',(0.0165,-0.0185165318304894,-0.0759999920719316));
#226=CARTESIAN_POINT('',(0.0165,-0.0185165318304894,-0.052));
#227=CARTESIAN_POINT('',(0.0182,-0.0175350363728671,-0.052));
#228=CARTESIAN_POINT('',(0.0181999999999993,-0.0175350363728675,-0.0759999920719316));
#229=CARTESIAN_POINT('',(0.0199,-0.0165535409152447,-0.0759999920719316));
#230=CARTESIAN_POINT('',(0.0199,-0.0165535409152447,-0.052));
#231=CARTESIAN_POINT('',(0.0199,-0.01459055,-0.052));
#232=CARTESIAN_POINT('',(0.0199,-0.0145905499999983,-0.0759999920719316));
#233=CARTESIAN_POINT('',(0.0199,-0.0126275590847553,-0.0759999920719316));
#234=CARTESIAN_POINT('',(0.0199,-0.0126275590847553,-0.052));
#235=CARTESIAN_POINT('',(0.0182,-0.0116460636271329,-0.052));
#236=CARTESIAN_POINT('',(0.0181999999999977,-0.0116460636271316,-0.0759999920719316));
#237=CARTESIAN_POINT('',(0.0165,-0.0106645681695105,-0.0759999920719316));
#238=CARTESIAN_POINT('',(0.0165,-0.0106645681695105,-0.052));
#239=CARTESIAN_POINT('',(0.0148,-0.0116460636271329,-0.052));
#240=CARTESIAN_POINT('',(0.0147999999999992,-0.0116460636271334,-0.0759999920719316));
#241=CARTESIAN_POINT('',(0.016499999999998,-0.0145905499999983,-0.0759999920719316));
#242=MECHANICAL_DESIGN_GEOMETRIC_PRESENTATION_REPRESENTATION('',(#147),
#243);
#243=(
GEOMETRIC_REPRESENTATION_CONTEXT(3)
GLOBAL_UNCERTAINTY_ASSIGNED_CONTEXT((#244))
GLOBAL_UNIT_ASSIGNED_CONTEXT((#247,#246,#245))
REPRESENTATION_CONTEXT('(AXLE) Drive input gear 2',
'TOP_LEVEL_ASSEMBLY_PART')
);
#244=UNCERTAINTY_MEASURE_WITH_UNIT(LENGTH_MEASURE(1.E-8),#247,
'DISTANCE_ACCURACY_VALUE','Maximum Tolerance applied to model');
#245=(
NAMED_UNIT(*)
SI_UNIT($,.STERADIAN.)
SOLID_ANGLE_UNIT()
);
#246=(
NAMED_UNIT(*)
PLANE_ANGLE_UNIT()
SI_UNIT($,.RADIAN.)
);
#247=(
LENGTH_UNIT()
NAMED_UNIT(*)
SI_UNIT($,.METRE.)
);
#248=PRODUCT_DEFINITION_SHAPE('','',#249);
#249=PRODUCT_DEFINITION('','',#251,#250);
#250=PRODUCT_DEFINITION_CONTEXT('',#257,'design');
#251=PRODUCT_DEFINITION_FORMATION_WITH_SPECIFIED_SOURCE('','',#253,
 .NOT_KNOWN.);
#252=PRODUCT_RELATED_PRODUCT_CATEGORY('','',(#253));
#253=PRODUCT('(AXLE) Drive input gear 2','(AXLE) Drive input gear 2',
'(AXLE) Drive input gear 2',(#255));
#254=PRODUCT_CATEGORY('','');
#255=PRODUCT_CONTEXT('',#257,'mechanical');
#256=APPLICATION_PROTOCOL_DEFINITION('international standard',
'ap242_managed_model_based_3d_engineering',2020,#257);
#257=APPLICATION_CONTEXT('managed model based 3d engineering');
ENDSEC;
END-ISO-10303-21;
