ISO-10303-21;
HEADER;
/* Generated by software containing ST-Developer
 * from STEP Tools, Inc. (www.steptools.com) 
 */
/* OPTION: using custom renumber hook */

FILE_DESCRIPTION(
/* description */ ('STEP AP242 Edition 2',
'CAx-IF Rec.Pracs.---Representation and Presentation of Product Manufa
cturing Information (PMI)---4.0---2014-10-13',
'CAx-IF Rec.Pracs.---3D Tessellated Geometry---0.4---2014-09-14','2;1',
'CAx-IF Rec.Pracs.---User Defined Attributes---1.5---2016-08-15'),
/* implementation_level */ '2;1');

FILE_NAME(
/* name */ 'Assembly 1 - (POD) (AXLE) Drive Input gear 2',
/* time_stamp */ '2026-08-06T04:33:16Z',
/* author */ (''),
/* organization */ (''),
/* preprocessor_version */ 'ST-DEVELOPER v20',
/* originating_system */ 'ONSHAPE BY PTC INC, 1.218',
/* authorisation */ '  ');

FILE_SCHEMA (('AP242_MANAGED_MODEL_BASED_3D_ENGINEERING_MIM_LF { 1 0 10303 442 3 1 4 }'));
ENDSEC;

DATA;
#10=SHAPE_REPRESENTATION_RELATIONSHIP('','',#179,#11);
#11=ADVANCED_BREP_SHAPE_REPRESENTATION('',(#177),#283);
#12=CYLINDRICAL_SURFACE('',#191,0.00205);
#13=CIRCLE('',#188,0.00205);
#14=CIRCLE('',#190,0.00205);
#15=ORIENTED_EDGE('',*,*,#55,.T.);
#16=ORIENTED_EDGE('',*,*,#56,.F.);
#17=ORIENTED_EDGE('',*,*,#57,.F.);
#18=ORIENTED_EDGE('',*,*,#58,.F.);
#19=ORIENTED_EDGE('',*,*,#59,.T.);
#20=ORIENTED_EDGE('',*,*,#60,.F.);
#21=ORIENTED_EDGE('',*,*,#55,.F.);
#22=ORIENTED_EDGE('',*,*,#61,.F.);
#23=ORIENTED_EDGE('',*,*,#62,.T.);
#24=ORIENTED_EDGE('',*,*,#63,.F.);
#25=ORIENTED_EDGE('',*,*,#59,.F.);
#26=ORIENTED_EDGE('',*,*,#64,.F.);
#27=ORIENTED_EDGE('',*,*,#65,.T.);
#28=ORIENTED_EDGE('',*,*,#66,.F.);
#29=ORIENTED_EDGE('',*,*,#62,.F.);
#30=ORIENTED_EDGE('',*,*,#67,.F.);
#31=ORIENTED_EDGE('',*,*,#68,.T.);
#32=ORIENTED_EDGE('',*,*,#69,.F.);
#33=ORIENTED_EDGE('',*,*,#65,.F.);
#34=ORIENTED_EDGE('',*,*,#70,.F.);
#35=ORIENTED_EDGE('',*,*,#57,.T.);
#36=ORIENTED_EDGE('',*,*,#71,.F.);
#37=ORIENTED_EDGE('',*,*,#68,.F.);
#38=ORIENTED_EDGE('',*,*,#72,.F.);
#39=ORIENTED_EDGE('',*,*,#73,.F.);
#40=ORIENTED_EDGE('',*,*,#72,.T.);
#41=ORIENTED_EDGE('',*,*,#70,.T.);
#42=ORIENTED_EDGE('',*,*,#67,.T.);
#43=ORIENTED_EDGE('',*,*,#64,.T.);
#44=ORIENTED_EDGE('',*,*,#61,.T.);
#45=ORIENTED_EDGE('',*,*,#58,.T.);
#46=ORIENTED_EDGE('',*,*,#74,.T.);
#47=ORIENTED_EDGE('',*,*,#74,.F.);
#48=ORIENTED_EDGE('',*,*,#73,.T.);
#49=ORIENTED_EDGE('',*,*,#66,.T.);
#50=ORIENTED_EDGE('',*,*,#69,.T.);
#51=ORIENTED_EDGE('',*,*,#71,.T.);
#52=ORIENTED_EDGE('',*,*,#56,.T.);
#53=ORIENTED_EDGE('',*,*,#60,.T.);
#54=ORIENTED_EDGE('',*,*,#63,.T.);
#55=EDGE_CURVE('',#75,#76,#89,.T.);
#56=EDGE_CURVE('',#77,#76,#90,.T.);
#57=EDGE_CURVE('',#78,#77,#91,.T.);
#58=EDGE_CURVE('',#75,#78,#92,.T.);
#59=EDGE_CURVE('',#79,#80,#93,.T.);
#60=EDGE_CURVE('',#76,#80,#94,.T.);
#61=EDGE_CURVE('',#79,#75,#95,.T.);
#62=EDGE_CURVE('',#81,#82,#96,.T.);
#63=EDGE_CURVE('',#80,#82,#97,.T.);
#64=EDGE_CURVE('',#81,#79,#98,.T.);
#65=EDGE_CURVE('',#83,#84,#99,.T.);
#66=EDGE_CURVE('',#82,#84,#100,.T.);
#67=EDGE_CURVE('',#83,#81,#101,.T.);
#68=EDGE_CURVE('',#85,#86,#102,.T.);
#69=EDGE_CURVE('',#84,#86,#103,.T.);
#70=EDGE_CURVE('',#85,#83,#104,.T.);
#71=EDGE_CURVE('',#86,#77,#105,.T.);
#72=EDGE_CURVE('',#78,#85,#106,.T.);
#73=EDGE_CURVE('',#87,#87,#13,.T.);
#74=EDGE_CURVE('',#88,#88,#14,.T.);
#75=VERTEX_POINT('',#240);
#76=VERTEX_POINT('',#241);
#77=VERTEX_POINT('',#243);
#78=VERTEX_POINT('',#245);
#79=VERTEX_POINT('',#249);
#80=VERTEX_POINT('',#250);
#81=VERTEX_POINT('',#255);
#82=VERTEX_POINT('',#256);
#83=VERTEX_POINT('',#261);
#84=VERTEX_POINT('',#262);
#85=VERTEX_POINT('',#267);
#86=VERTEX_POINT('',#268);
#87=VERTEX_POINT('',#276);
#88=VERTEX_POINT('',#279);
#89=LINE('',#239,#107);
#90=LINE('',#242,#108);
#91=LINE('',#244,#109);
#92=LINE('',#246,#110);
#93=LINE('',#248,#111);
#94=LINE('',#251,#112);
#95=LINE('',#252,#113);
#96=LINE('',#254,#114);
#97=LINE('',#257,#115);
#98=LINE('',#258,#116);
#99=LINE('',#260,#117);
#100=LINE('',#263,#118);
#101=LINE('',#264,#119);
#102=LINE('',#266,#120);
#103=LINE('',#269,#121);
#104=LINE('',#270,#122);
#105=LINE('',#272,#123);
#106=LINE('',#273,#124);
#107=VECTOR('',#197,1.);
#108=VECTOR('',#198,1.);
#109=VECTOR('',#199,1.);
#110=VECTOR('',#200,1.);
#111=VECTOR('',#203,1.);
#112=VECTOR('',#204,1.);
#113=VECTOR('',#205,1.);
#114=VECTOR('',#208,1.);
#115=VECTOR('',#209,1.);
#116=VECTOR('',#210,1.);
#117=VECTOR('',#213,1.);
#118=VECTOR('',#214,1.);
#119=VECTOR('',#215,1.);
#120=VECTOR('',#218,1.);
#121=VECTOR('',#219,1.);
#122=VECTOR('',#220,1.);
#123=VECTOR('',#223,1.);
#124=VECTOR('',#224,1.);
#125=EDGE_LOOP('',(#15,#16,#17,#18));
#126=EDGE_LOOP('',(#19,#20,#21,#22));
#127=EDGE_LOOP('',(#23,#24,#25,#26));
#128=EDGE_LOOP('',(#27,#28,#29,#30));
#129=EDGE_LOOP('',(#31,#32,#33,#34));
#130=EDGE_LOOP('',(#35,#36,#37,#38));
#131=EDGE_LOOP('',(#39));
#132=EDGE_LOOP('',(#40,#41,#42,#43,#44,#45));
#133=EDGE_LOOP('',(#46));
#134=EDGE_LOOP('',(#47));
#135=EDGE_LOOP('',(#48));
#136=EDGE_LOOP('',(#49,#50,#51,#52,#53,#54));
#137=FACE_BOUND('',#125,.T.);
#138=FACE_BOUND('',#126,.T.);
#139=FACE_BOUND('',#127,.T.);
#140=FACE_BOUND('',#128,.T.);
#141=FACE_BOUND('',#129,.T.);
#142=FACE_BOUND('',#130,.T.);
#143=FACE_BOUND('',#131,.T.);
#144=FACE_BOUND('',#132,.T.);
#145=FACE_BOUND('',#133,.T.);
#146=FACE_BOUND('',#134,.T.);
#147=FACE_BOUND('',#135,.T.);
#148=FACE_BOUND('',#136,.T.);
#149=PLANE('',#181);
#150=PLANE('',#182);
#151=PLANE('',#183);
#152=PLANE('',#184);
#153=PLANE('',#185);
#154=PLANE('',#186);
#155=PLANE('',#187);
#156=PLANE('',#189);
#157=PLANE('',#192);
#158=ADVANCED_FACE('',(#137),#149,.F.);
#159=ADVANCED_FACE('',(#138),#150,.F.);
#160=ADVANCED_FACE('',(#139),#151,.F.);
#161=ADVANCED_FACE('',(#140),#152,.F.);
#162=ADVANCED_FACE('',(#141),#153,.F.);
#163=ADVANCED_FACE('',(#142),#154,.F.);
#164=ADVANCED_FACE('',(#143,#144),#155,.T.);
#165=ADVANCED_FACE('',(#145),#156,.T.);
#166=ADVANCED_FACE('',(#146,#147),#12,.F.);
#167=ADVANCED_FACE('',(#148),#157,.T.);
#168=CLOSED_SHELL('',(#158,#159,#160,#161,#162,#163,#164,#165,#166,#167));
#169=STYLED_ITEM('',(#170),#177);
#170=PRESENTATION_STYLE_ASSIGNMENT((#171));
#171=SURFACE_STYLE_USAGE(.BOTH.,#172);
#172=SURFACE_SIDE_STYLE('',(#173));
#173=SURFACE_STYLE_FILL_AREA(#174);
#174=FILL_AREA_STYLE('',(#175));
#175=FILL_AREA_STYLE_COLOUR('',#176);
#176=COLOUR_RGB('',0.301960784313725,0.301960784313725,0.301960784313725);
#177=MANIFOLD_SOLID_BREP('(POD) (AXLE) Drive Input gear 2',#168);
#178=SHAPE_DEFINITION_REPRESENTATION(#288,#179);
#179=SHAPE_REPRESENTATION('(POD) (AXLE) Drive Input gear 2',(#180),#283);
#180=AXIS2_PLACEMENT_3D('',#237,#193,#194);
#181=AXIS2_PLACEMENT_3D('',#238,#195,#196);
#182=AXIS2_PLACEMENT_3D('',#247,#201,#202);
#183=AXIS2_PLACEMENT_3D('',#253,#206,#207);
#184=AXIS2_PLACEMENT_3D('',#259,#211,#212);
#185=AXIS2_PLACEMENT_3D('',#265,#216,#217);
#186=AXIS2_PLACEMENT_3D('',#271,#221,#222);
#187=AXIS2_PLACEMENT_3D('',#274,#225,#226);
#188=AXIS2_PLACEMENT_3D('',#275,#227,#228);
#189=AXIS2_PLACEMENT_3D('',#277,#229,#230);
#190=AXIS2_PLACEMENT_3D('',#278,#231,#232);
#191=AXIS2_PLACEMENT_3D('',#280,#233,#234);
#192=AXIS2_PLACEMENT_3D('',#281,#235,#236);
#193=DIRECTION('',(0.,0.,1.));
#194=DIRECTION('',(1.,0.,0.));
#195=DIRECTION('',(-0.866025403784439,-0.5,0.));
#196=DIRECTION('',(0.5,-0.866025403784439,0.));
#197=DIRECTION('',(0.,0.,1.));
#198=DIRECTION('',(-0.500000000000014,0.866025403784431,0.));
#199=DIRECTION('',(0.,0.,1.));
#200=DIRECTION('',(0.5,-0.866025403784439,0.));
#201=DIRECTION('',(0.,-1.,0.));
#202=DIRECTION('',(0.,0.,-1.));
#203=DIRECTION('',(0.,0.,1.));
#204=DIRECTION('',(-1.,-1.5906860457217E-14,0.));
#205=DIRECTION('',(1.,0.,0.));
#206=DIRECTION('',(0.866025403784439,-0.5,0.));
#207=DIRECTION('',(0.5,0.866025403784439,0.));
#208=DIRECTION('',(0.,0.,1.));
#209=DIRECTION('',(-0.499999999999986,-0.866025403784447,0.));
#210=DIRECTION('',(0.5,0.866025403784439,0.));
#211=DIRECTION('',(0.866025403784439,0.5,0.));
#212=DIRECTION('',(-0.5,0.866025403784439,0.));
#213=DIRECTION('',(0.,0.,1.));
#214=DIRECTION('',(0.500000000000014,-0.86602540378443,0.));
#215=DIRECTION('',(-0.5,0.866025403784439,0.));
#216=DIRECTION('',(0.,1.,0.));
#217=DIRECTION('',(0.,0.,1.));
#218=DIRECTION('',(0.,0.,1.));
#219=DIRECTION('',(1.,1.5906860457217E-14,0.));
#220=DIRECTION('',(-1.,0.,0.));
#221=DIRECTION('',(-0.866025403784439,0.5,0.));
#222=DIRECTION('',(-0.5,-0.866025403784439,0.));
#223=DIRECTION('',(0.499999999999986,0.866025403784447,0.));
#224=DIRECTION('',(-0.5,-0.866025403784439,0.));
#225=DIRECTION('',(0.,0.,-1.));
#226=DIRECTION('',(1.,0.,0.));
#227=DIRECTION('',(0.,0.,-1.));
#228=DIRECTION('',(-1.,0.,0.));
#229=DIRECTION('',(0.,0.,-1.));
#230=DIRECTION('',(1.,0.,0.));
#231=DIRECTION('',(0.,0.,-1.));
#232=DIRECTION('',(-1.,0.,0.));
#233=DIRECTION('',(0.,0.,-1.));
#234=DIRECTION('',(-1.,0.,0.));
#235=DIRECTION('',(0.,0.,1.));
#236=DIRECTION('',(1.,0.,0.));
#237=CARTESIAN_POINT('',(0.,0.,0.));
#238=CARTESIAN_POINT('',(0.00294448637286709,-0.0143,0.001));
#239=CARTESIAN_POINT('',(0.00196299091524473,-0.0126,0.001));
#240=CARTESIAN_POINT('',(0.00196299091524473,-0.0126,-0.00932257));
#241=CARTESIAN_POINT('',(0.00196299091524463,-0.0126,0.01634775));
#242=CARTESIAN_POINT('',(0.00294448637286702,-0.0143,0.01634775));
#243=CARTESIAN_POINT('',(0.00392598183048941,-0.016,0.01634775));
#244=CARTESIAN_POINT('',(0.00392598183048946,-0.016,0.001));
#245=CARTESIAN_POINT('',(0.00392598183048946,-0.016,-0.00932257));
#246=CARTESIAN_POINT('',(0.00294448637286709,-0.0143,-0.00932257));
#247=CARTESIAN_POINT('',(-4.33680868994202E-19,-0.0126,0.001));
#248=CARTESIAN_POINT('',(-0.00196299091524473,-0.0126,0.001));
#249=CARTESIAN_POINT('',(-0.00196299091524473,-0.0126,-0.00932257));
#250=CARTESIAN_POINT('',(-0.00196299091524483,-0.0126,0.01634775));
#251=CARTESIAN_POINT('',(-9.6710833785707E-17,-0.0126,0.01634775));
#252=CARTESIAN_POINT('',(-4.33680868994202E-19,-0.0126,-0.00932257));
#253=CARTESIAN_POINT('',(-0.00294448637286709,-0.0143,0.001));
#254=CARTESIAN_POINT('',(-0.00392598183048946,-0.016,0.001));
#255=CARTESIAN_POINT('',(-0.00392598183048946,-0.016,-0.00932257));
#256=CARTESIAN_POINT('',(-0.0039259818304895,-0.016,0.01634775));
#257=CARTESIAN_POINT('',(-0.00294448637286716,-0.0143,0.01634775));
#258=CARTESIAN_POINT('',(-0.00294448637286709,-0.0143,-0.00932257));
#259=CARTESIAN_POINT('',(-0.00294448637286709,-0.0177,0.001));
#260=CARTESIAN_POINT('',(-0.00196299091524473,-0.0194,0.001));
#261=CARTESIAN_POINT('',(-0.00196299091524473,-0.0194,-0.00932257));
#262=CARTESIAN_POINT('',(-0.00196299091524472,-0.0194,0.01634775));
#263=CARTESIAN_POINT('',(-0.00294448637286711,-0.0177,0.01634775));
#264=CARTESIAN_POINT('',(-0.00294448637286709,-0.0177,-0.00932257));
#265=CARTESIAN_POINT('',(0.,-0.0194,0.001));
#266=CARTESIAN_POINT('',(0.00196299091524473,-0.0194,0.001));
#267=CARTESIAN_POINT('',(0.00196299091524473,-0.0194,-0.00932257));
#268=CARTESIAN_POINT('',(0.00196299091524473,-0.0194,0.01634775));
#269=CARTESIAN_POINT('',(0.,-0.0194,0.01634775));
#270=CARTESIAN_POINT('',(0.,-0.0194,-0.00932257));
#271=CARTESIAN_POINT('',(0.00294448637286709,-0.0177,0.001));
#272=CARTESIAN_POINT('',(0.00294448637286707,-0.0177,0.01634775));
#273=CARTESIAN_POINT('',(0.00294448637286709,-0.0177,-0.00932257));
#274=CARTESIAN_POINT('',(0.,-0.010661632842379,-0.00932257));
#275=CARTESIAN_POINT('',(0.,-0.016,-0.00932257));
#276=CARTESIAN_POINT('',(-0.00205,-0.016,-0.00932257));
#277=CARTESIAN_POINT('',(-8.67361737988404E-19,-0.016,0.00317743));
#278=CARTESIAN_POINT('',(0.,-0.016,0.00317743));
#279=CARTESIAN_POINT('',(-0.00205,-0.016,0.00317743));
#280=CARTESIAN_POINT('',(0.,-0.016,0.00317743));
#281=CARTESIAN_POINT('',(0.,-0.0072,0.01634775));
#282=MECHANICAL_DESIGN_GEOMETRIC_PRESENTATION_REPRESENTATION('',(#169),
#283);
#283=(
GEOMETRIC_REPRESENTATION_CONTEXT(3)
GLOBAL_UNCERTAINTY_ASSIGNED_CONTEXT((#284))
GLOBAL_UNIT_ASSIGNED_CONTEXT((#287,#286,#285))
REPRESENTATION_CONTEXT('(POD) (AXLE) Drive Input gear 2',
'TOP_LEVEL_ASSEMBLY_PART')
);
#284=UNCERTAINTY_MEASURE_WITH_UNIT(LENGTH_MEASURE(1.E-8),#287,
'DISTANCE_ACCURACY_VALUE','Maximum Tolerance applied to model');
#285=(
NAMED_UNIT(*)
SI_UNIT($,.STERADIAN.)
SOLID_ANGLE_UNIT()
);
#286=(
NAMED_UNIT(*)
PLANE_ANGLE_UNIT()
SI_UNIT($,.RADIAN.)
);
#287=(
LENGTH_UNIT()
NAMED_UNIT(*)
SI_UNIT($,.METRE.)
);
#288=PRODUCT_DEFINITION_SHAPE('','',#289);
#289=PRODUCT_DEFINITION('','',#291,#290);
#290=PRODUCT_DEFINITION_CONTEXT('',#297,'design');
#291=PRODUCT_DEFINITION_FORMATION_WITH_SPECIFIED_SOURCE('','',#293,
 .NOT_KNOWN.);
#292=PRODUCT_RELATED_PRODUCT_CATEGORY('','',(#293));
#293=PRODUCT('(POD) (AXLE) Drive Input gear 2',
'(POD) (AXLE) Drive Input gear 2','(POD) (AXLE) Drive Input gear 2',(#295));
#294=PRODUCT_CATEGORY('','');
#295=PRODUCT_CONTEXT('',#297,'mechanical');
#296=APPLICATION_PROTOCOL_DEFINITION('international standard',
'ap242_managed_model_based_3d_engineering',2020,#297);
#297=APPLICATION_CONTEXT('managed model based 3d engineering');
ENDSEC;
END-ISO-10303-21;
