ISO-10303-21;
HEADER;
/* Generated by software containing ST-Developer
 * from STEP Tools, Inc. (www.steptools.com) 
 */
/* OPTION: using custom renumber hook */

FILE_DESCRIPTION(
/* description */ ('STEP AP242 Edition 2',
'CAx-IF Rec.Pracs.---Representation and Presentation of Product Manufa
cturing Information (PMI)---4.0---2014-10-13',
'CAx-IF Rec.Pracs.---3D Tessellated Geometry---0.4---2014-09-14','2;1',
'CAx-IF Rec.Pracs.---User Defined Attributes---1.5---2016-08-15'),
/* implementation_level */ '2;1');

FILE_NAME(
/* name */ 'Assembly 1 - Base plate 2',
/* time_stamp */ '2026-08-06T04:41:20Z',
/* author */ (''),
/* organization */ (''),
/* preprocessor_version */ 'ST-DEVELOPER v20',
/* originating_system */ 'ONSHAPE BY PTC INC, 1.218',
/* authorisation */ '  ');

FILE_SCHEMA (('AP242_MANAGED_MODEL_BASED_3D_ENGINEERING_MIM_LF { 1 0 10303 442 3 1 4 }'));
ENDSEC;

DATA;
#10=SHAPE_REPRESENTATION_RELATIONSHIP('','',#411,#11);
#11=ADVANCED_BREP_SHAPE_REPRESENTATION('',(#409),#691);
#12=PLANE('',#419);
#13=PLANE('',#432);
#14=PLANE('',#433);
#15=PLANE('',#440);
#16=PLANE('',#455);
#17=PLANE('',#457);
#18=PLANE('',#459);
#19=LINE('',#587,#39);
#20=LINE('',#591,#40);
#21=LINE('',#601,#41);
#22=LINE('',#605,#42);
#23=LINE('',#609,#43);
#24=LINE('',#610,#44);
#25=LINE('',#614,#45);
#26=LINE('',#632,#46);
#27=LINE('',#634,#47);
#28=LINE('',#636,#48);
#29=LINE('',#638,#49);
#30=LINE('',#640,#50);
#31=LINE('',#647,#51);
#32=LINE('',#661,#52);
#33=LINE('',#665,#53);
#34=LINE('',#669,#54);
#35=LINE('',#680,#55);
#36=LINE('',#682,#56);
#37=LINE('',#684,#57);
#38=LINE('',#686,#58);
#39=VECTOR('',#468,1.);
#40=VECTOR('',#471,1.);
#41=VECTOR('',#482,1.);
#42=VECTOR('',#485,1.);
#43=VECTOR('',#488,1.);
#44=VECTOR('',#489,1.);
#45=VECTOR('',#492,1.);
#46=VECTOR('',#511,1.);
#47=VECTOR('',#512,1.);
#48=VECTOR('',#515,1.);
#49=VECTOR('',#516,1.);
#50=VECTOR('',#517,1.);
#51=VECTOR('',#528,1.);
#52=VECTOR('',#543,1.);
#53=VECTOR('',#546,1.);
#54=VECTOR('',#549,1.);
#55=VECTOR('',#566,1.);
#56=VECTOR('',#569,1.);
#57=VECTOR('',#572,1.);
#58=VECTOR('',#575,1.);
#59=ORIENTED_EDGE('',*,*,#155,.T.);
#60=ORIENTED_EDGE('',*,*,#156,.T.);
#61=ORIENTED_EDGE('',*,*,#157,.F.);
#62=ORIENTED_EDGE('',*,*,#158,.T.);
#63=ORIENTED_EDGE('',*,*,#159,.T.);
#64=ORIENTED_EDGE('',*,*,#160,.T.);
#65=ORIENTED_EDGE('',*,*,#161,.F.);
#66=ORIENTED_EDGE('',*,*,#162,.F.);
#67=ORIENTED_EDGE('',*,*,#163,.F.);
#68=ORIENTED_EDGE('',*,*,#164,.T.);
#69=ORIENTED_EDGE('',*,*,#165,.F.);
#70=ORIENTED_EDGE('',*,*,#166,.T.);
#71=ORIENTED_EDGE('',*,*,#155,.F.);
#72=ORIENTED_EDGE('',*,*,#167,.T.);
#73=ORIENTED_EDGE('',*,*,#168,.F.);
#74=ORIENTED_EDGE('',*,*,#169,.T.);
#75=ORIENTED_EDGE('',*,*,#170,.F.);
#76=ORIENTED_EDGE('',*,*,#171,.F.);
#77=ORIENTED_EDGE('',*,*,#172,.F.);
#78=ORIENTED_EDGE('',*,*,#159,.F.);
#79=ORIENTED_EDGE('',*,*,#173,.T.);
#80=ORIENTED_EDGE('',*,*,#174,.T.);
#81=ORIENTED_EDGE('',*,*,#175,.T.);
#82=ORIENTED_EDGE('',*,*,#176,.T.);
#83=ORIENTED_EDGE('',*,*,#177,.T.);
#84=ORIENTED_EDGE('',*,*,#178,.T.);
#85=ORIENTED_EDGE('',*,*,#179,.F.);
#86=ORIENTED_EDGE('',*,*,#167,.F.);
#87=ORIENTED_EDGE('',*,*,#158,.F.);
#88=ORIENTED_EDGE('',*,*,#180,.F.);
#89=ORIENTED_EDGE('',*,*,#169,.F.);
#90=ORIENTED_EDGE('',*,*,#181,.F.);
#91=ORIENTED_EDGE('',*,*,#182,.T.);
#92=ORIENTED_EDGE('',*,*,#175,.F.);
#93=ORIENTED_EDGE('',*,*,#183,.T.);
#94=ORIENTED_EDGE('',*,*,#181,.T.);
#95=ORIENTED_EDGE('',*,*,#168,.T.);
#96=ORIENTED_EDGE('',*,*,#179,.T.);
#97=ORIENTED_EDGE('',*,*,#184,.T.);
#98=ORIENTED_EDGE('',*,*,#185,.F.);
#99=ORIENTED_EDGE('',*,*,#161,.T.);
#100=ORIENTED_EDGE('',*,*,#180,.T.);
#101=ORIENTED_EDGE('',*,*,#186,.T.);
#102=ORIENTED_EDGE('',*,*,#187,.F.);
#103=ORIENTED_EDGE('',*,*,#188,.F.);
#104=ORIENTED_EDGE('',*,*,#189,.F.);
#105=ORIENTED_EDGE('',*,*,#160,.F.);
#106=ORIENTED_EDGE('',*,*,#190,.T.);
#107=ORIENTED_EDGE('',*,*,#191,.T.);
#108=ORIENTED_EDGE('',*,*,#157,.T.);
#109=ORIENTED_EDGE('',*,*,#192,.F.);
#110=ORIENTED_EDGE('',*,*,#193,.T.);
#111=ORIENTED_EDGE('',*,*,#194,.F.);
#112=ORIENTED_EDGE('',*,*,#195,.T.);
#113=ORIENTED_EDGE('',*,*,#196,.T.);
#114=ORIENTED_EDGE('',*,*,#186,.F.);
#115=ORIENTED_EDGE('',*,*,#182,.F.);
#116=ORIENTED_EDGE('',*,*,#184,.F.);
#117=ORIENTED_EDGE('',*,*,#178,.F.);
#118=ORIENTED_EDGE('',*,*,#183,.F.);
#119=ORIENTED_EDGE('',*,*,#197,.F.);
#120=ORIENTED_EDGE('',*,*,#198,.F.);
#121=ORIENTED_EDGE('',*,*,#174,.F.);
#122=ORIENTED_EDGE('',*,*,#191,.F.);
#123=ORIENTED_EDGE('',*,*,#173,.F.);
#124=ORIENTED_EDGE('',*,*,#190,.F.);
#125=ORIENTED_EDGE('',*,*,#189,.T.);
#126=ORIENTED_EDGE('',*,*,#172,.T.);
#127=ORIENTED_EDGE('',*,*,#188,.T.);
#128=ORIENTED_EDGE('',*,*,#171,.T.);
#129=ORIENTED_EDGE('',*,*,#187,.T.);
#130=ORIENTED_EDGE('',*,*,#170,.T.);
#131=ORIENTED_EDGE('',*,*,#192,.T.);
#132=ORIENTED_EDGE('',*,*,#156,.F.);
#133=ORIENTED_EDGE('',*,*,#166,.F.);
#134=ORIENTED_EDGE('',*,*,#199,.T.);
#135=ORIENTED_EDGE('',*,*,#193,.F.);
#136=ORIENTED_EDGE('',*,*,#199,.F.);
#137=ORIENTED_EDGE('',*,*,#165,.T.);
#138=ORIENTED_EDGE('',*,*,#200,.T.);
#139=ORIENTED_EDGE('',*,*,#194,.T.);
#140=ORIENTED_EDGE('',*,*,#200,.F.);
#141=ORIENTED_EDGE('',*,*,#164,.F.);
#142=ORIENTED_EDGE('',*,*,#201,.T.);
#143=ORIENTED_EDGE('',*,*,#195,.F.);
#144=ORIENTED_EDGE('',*,*,#201,.F.);
#145=ORIENTED_EDGE('',*,*,#163,.T.);
#146=ORIENTED_EDGE('',*,*,#202,.T.);
#147=ORIENTED_EDGE('',*,*,#196,.F.);
#148=ORIENTED_EDGE('',*,*,#202,.F.);
#149=ORIENTED_EDGE('',*,*,#162,.T.);
#150=ORIENTED_EDGE('',*,*,#185,.T.);
#151=ORIENTED_EDGE('',*,*,#176,.F.);
#152=ORIENTED_EDGE('',*,*,#197,.T.);
#153=ORIENTED_EDGE('',*,*,#177,.F.);
#154=ORIENTED_EDGE('',*,*,#198,.T.);
#155=EDGE_CURVE('',#203,#204,#241,.T.);
#156=EDGE_CURVE('',#204,#205,#19,.T.);
#157=EDGE_CURVE('',#206,#205,#242,.T.);
#158=EDGE_CURVE('',#206,#203,#20,.T.);
#159=EDGE_CURVE('',#207,#207,#243,.F.);
#160=EDGE_CURVE('',#208,#208,#244,.F.);
#161=EDGE_CURVE('',#209,#210,#245,.T.);
#162=EDGE_CURVE('',#211,#209,#21,.T.);
#163=EDGE_CURVE('',#212,#211,#246,.T.);
#164=EDGE_CURVE('',#212,#213,#22,.T.);
#165=EDGE_CURVE('',#214,#213,#247,.T.);
#166=EDGE_CURVE('',#214,#204,#23,.T.);
#167=EDGE_CURVE('',#203,#215,#24,.T.);
#168=EDGE_CURVE('',#216,#215,#248,.T.);
#169=EDGE_CURVE('',#216,#210,#25,.T.);
#170=EDGE_CURVE('',#217,#217,#249,.T.);
#171=EDGE_CURVE('',#218,#218,#250,.T.);
#172=EDGE_CURVE('',#219,#219,#251,.T.);
#173=EDGE_CURVE('',#220,#220,#252,.T.);
#174=EDGE_CURVE('',#221,#221,#253,.T.);
#175=EDGE_CURVE('',#222,#222,#254,.T.);
#176=EDGE_CURVE('',#223,#223,#255,.T.);
#177=EDGE_CURVE('',#224,#224,#256,.T.);
#178=EDGE_CURVE('',#206,#225,#26,.T.);
#179=EDGE_CURVE('',#215,#225,#27,.F.);
#180=EDGE_CURVE('',#210,#226,#28,.F.);
#181=EDGE_CURVE('',#227,#216,#29,.T.);
#182=EDGE_CURVE('',#227,#226,#30,.T.);
#183=EDGE_CURVE('',#228,#228,#257,.T.);
#184=EDGE_CURVE('',#225,#227,#258,.F.);
#185=EDGE_CURVE('',#209,#229,#31,.T.);
#186=EDGE_CURVE('',#226,#229,#259,.F.);
#187=EDGE_CURVE('',#230,#230,#260,.T.);
#188=EDGE_CURVE('',#231,#231,#261,.T.);
#189=EDGE_CURVE('',#232,#232,#262,.T.);
#190=EDGE_CURVE('',#233,#233,#263,.T.);
#191=EDGE_CURVE('',#234,#234,#264,.T.);
#192=EDGE_CURVE('',#235,#205,#32,.T.);
#193=EDGE_CURVE('',#235,#236,#265,.T.);
#194=EDGE_CURVE('',#237,#236,#33,.T.);
#195=EDGE_CURVE('',#237,#238,#266,.T.);
#196=EDGE_CURVE('',#238,#229,#34,.T.);
#197=EDGE_CURVE('',#239,#239,#267,.T.);
#198=EDGE_CURVE('',#240,#240,#268,.T.);
#199=EDGE_CURVE('',#214,#235,#35,.T.);
#200=EDGE_CURVE('',#213,#236,#36,.T.);
#201=EDGE_CURVE('',#212,#237,#37,.T.);
#202=EDGE_CURVE('',#211,#238,#38,.T.);
#203=VERTEX_POINT('',#585);
#204=VERTEX_POINT('',#586);
#205=VERTEX_POINT('',#588);
#206=VERTEX_POINT('',#590);
#207=VERTEX_POINT('',#594);
#208=VERTEX_POINT('',#596);
#209=VERTEX_POINT('',#599);
#210=VERTEX_POINT('',#600);
#211=VERTEX_POINT('',#602);
#212=VERTEX_POINT('',#604);
#213=VERTEX_POINT('',#606);
#214=VERTEX_POINT('',#608);
#215=VERTEX_POINT('',#611);
#216=VERTEX_POINT('',#613);
#217=VERTEX_POINT('',#616);
#218=VERTEX_POINT('',#618);
#219=VERTEX_POINT('',#620);
#220=VERTEX_POINT('',#622);
#221=VERTEX_POINT('',#624);
#222=VERTEX_POINT('',#626);
#223=VERTEX_POINT('',#628);
#224=VERTEX_POINT('',#630);
#225=VERTEX_POINT('',#633);
#226=VERTEX_POINT('',#637);
#227=VERTEX_POINT('',#639);
#228=VERTEX_POINT('',#643);
#229=VERTEX_POINT('',#648);
#230=VERTEX_POINT('',#652);
#231=VERTEX_POINT('',#654);
#232=VERTEX_POINT('',#656);
#233=VERTEX_POINT('',#658);
#234=VERTEX_POINT('',#660);
#235=VERTEX_POINT('',#662);
#236=VERTEX_POINT('',#664);
#237=VERTEX_POINT('',#666);
#238=VERTEX_POINT('',#668);
#239=VERTEX_POINT('',#671);
#240=VERTEX_POINT('',#673);
#241=CIRCLE('',#414,0.0375);
#242=CIRCLE('',#415,0.0375);
#243=CIRCLE('',#417,0.00705);
#244=CIRCLE('',#418,0.00705);
#245=CIRCLE('',#420,0.0035);
#246=CIRCLE('',#421,0.01);
#247=CIRCLE('',#422,0.01);
#248=CIRCLE('',#423,0.0035);
#249=CIRCLE('',#424,0.00705);
#250=CIRCLE('',#425,0.00705);
#251=CIRCLE('',#426,0.00705);
#252=CIRCLE('',#427,0.00225);
#253=CIRCLE('',#428,0.00225);
#254=CIRCLE('',#429,0.00225);
#255=CIRCLE('',#430,0.00705);
#256=CIRCLE('',#431,0.00705);
#257=CIRCLE('',#435,0.00225);
#258=CIRCLE('',#437,0.0035);
#259=CIRCLE('',#439,0.0035);
#260=CIRCLE('',#441,0.00705);
#261=CIRCLE('',#442,0.00705);
#262=CIRCLE('',#443,0.00705);
#263=CIRCLE('',#444,0.00225);
#264=CIRCLE('',#445,0.00225);
#265=CIRCLE('',#446,0.01);
#266=CIRCLE('',#447,0.01);
#267=CIRCLE('',#448,0.00705);
#268=CIRCLE('',#449,0.00705);
#269=EDGE_LOOP('',(#59,#60,#61,#62));
#270=EDGE_LOOP('',(#63));
#271=EDGE_LOOP('',(#64));
#272=EDGE_LOOP('',(#65,#66,#67,#68,#69,#70,#71,#72,#73,#74));
#273=EDGE_LOOP('',(#75));
#274=EDGE_LOOP('',(#76));
#275=EDGE_LOOP('',(#77));
#276=EDGE_LOOP('',(#78));
#277=EDGE_LOOP('',(#79));
#278=EDGE_LOOP('',(#80));
#279=EDGE_LOOP('',(#81));
#280=EDGE_LOOP('',(#82));
#281=EDGE_LOOP('',(#83));
#282=EDGE_LOOP('',(#84,#85,#86,#87));
#283=EDGE_LOOP('',(#88,#89,#90,#91));
#284=EDGE_LOOP('',(#92));
#285=EDGE_LOOP('',(#93));
#286=EDGE_LOOP('',(#94,#95,#96,#97));
#287=EDGE_LOOP('',(#98,#99,#100,#101));
#288=EDGE_LOOP('',(#102));
#289=EDGE_LOOP('',(#103));
#290=EDGE_LOOP('',(#104));
#291=EDGE_LOOP('',(#105));
#292=EDGE_LOOP('',(#106));
#293=EDGE_LOOP('',(#107));
#294=EDGE_LOOP('',(#108,#109,#110,#111,#112,#113,#114,#115,#116,#117));
#295=EDGE_LOOP('',(#118));
#296=EDGE_LOOP('',(#119));
#297=EDGE_LOOP('',(#120));
#298=EDGE_LOOP('',(#121));
#299=EDGE_LOOP('',(#122));
#300=EDGE_LOOP('',(#123));
#301=EDGE_LOOP('',(#124));
#302=EDGE_LOOP('',(#125));
#303=EDGE_LOOP('',(#126));
#304=EDGE_LOOP('',(#127));
#305=EDGE_LOOP('',(#128));
#306=EDGE_LOOP('',(#129));
#307=EDGE_LOOP('',(#130));
#308=EDGE_LOOP('',(#131,#132,#133,#134));
#309=EDGE_LOOP('',(#135,#136,#137,#138));
#310=EDGE_LOOP('',(#139,#140,#141,#142));
#311=EDGE_LOOP('',(#143,#144,#145,#146));
#312=EDGE_LOOP('',(#147,#148,#149,#150));
#313=EDGE_LOOP('',(#151));
#314=EDGE_LOOP('',(#152));
#315=EDGE_LOOP('',(#153));
#316=EDGE_LOOP('',(#154));
#317=FACE_BOUND('',#269,.T.);
#318=FACE_BOUND('',#270,.T.);
#319=FACE_BOUND('',#271,.T.);
#320=FACE_BOUND('',#272,.T.);
#321=FACE_BOUND('',#273,.T.);
#322=FACE_BOUND('',#274,.T.);
#323=FACE_BOUND('',#275,.T.);
#324=FACE_BOUND('',#276,.T.);
#325=FACE_BOUND('',#277,.T.);
#326=FACE_BOUND('',#278,.T.);
#327=FACE_BOUND('',#279,.T.);
#328=FACE_BOUND('',#280,.T.);
#329=FACE_BOUND('',#281,.T.);
#330=FACE_BOUND('',#282,.T.);
#331=FACE_BOUND('',#283,.T.);
#332=FACE_BOUND('',#284,.T.);
#333=FACE_BOUND('',#285,.T.);
#334=FACE_BOUND('',#286,.T.);
#335=FACE_BOUND('',#287,.T.);
#336=FACE_BOUND('',#288,.T.);
#337=FACE_BOUND('',#289,.T.);
#338=FACE_BOUND('',#290,.T.);
#339=FACE_BOUND('',#291,.T.);
#340=FACE_BOUND('',#292,.T.);
#341=FACE_BOUND('',#293,.T.);
#342=FACE_BOUND('',#294,.T.);
#343=FACE_BOUND('',#295,.T.);
#344=FACE_BOUND('',#296,.T.);
#345=FACE_BOUND('',#297,.T.);
#346=FACE_BOUND('',#298,.T.);
#347=FACE_BOUND('',#299,.T.);
#348=FACE_BOUND('',#300,.T.);
#349=FACE_BOUND('',#301,.T.);
#350=FACE_BOUND('',#302,.T.);
#351=FACE_BOUND('',#303,.T.);
#352=FACE_BOUND('',#304,.T.);
#353=FACE_BOUND('',#305,.T.);
#354=FACE_BOUND('',#306,.T.);
#355=FACE_BOUND('',#307,.T.);
#356=FACE_BOUND('',#308,.T.);
#357=FACE_BOUND('',#309,.T.);
#358=FACE_BOUND('',#310,.T.);
#359=FACE_BOUND('',#311,.T.);
#360=FACE_BOUND('',#312,.T.);
#361=FACE_BOUND('',#313,.T.);
#362=FACE_BOUND('',#314,.T.);
#363=FACE_BOUND('',#315,.T.);
#364=FACE_BOUND('',#316,.T.);
#365=CYLINDRICAL_SURFACE('',#413,0.0375);
#366=CYLINDRICAL_SURFACE('',#416,0.00705);
#367=CYLINDRICAL_SURFACE('',#434,0.00225);
#368=CYLINDRICAL_SURFACE('',#436,0.0035);
#369=CYLINDRICAL_SURFACE('',#438,0.0035);
#370=CYLINDRICAL_SURFACE('',#450,0.00225);
#371=CYLINDRICAL_SURFACE('',#451,0.00225);
#372=CYLINDRICAL_SURFACE('',#452,0.00705);
#373=CYLINDRICAL_SURFACE('',#453,0.00705);
#374=CYLINDRICAL_SURFACE('',#454,0.00705);
#375=CYLINDRICAL_SURFACE('',#456,0.01);
#376=CYLINDRICAL_SURFACE('',#458,0.01);
#377=CYLINDRICAL_SURFACE('',#460,0.00705);
#378=CYLINDRICAL_SURFACE('',#461,0.00705);
#379=ADVANCED_FACE('',(#317),#365,.T.);
#380=ADVANCED_FACE('',(#318,#319),#366,.F.);
#381=ADVANCED_FACE('',(#320,#321,#322,#323,#324,#325,#326,#327,#328,#329),
#12,.T.);
#382=ADVANCED_FACE('',(#330),#13,.F.);
#383=ADVANCED_FACE('',(#331),#14,.F.);
#384=ADVANCED_FACE('',(#332,#333),#367,.F.);
#385=ADVANCED_FACE('',(#334),#368,.T.);
#386=ADVANCED_FACE('',(#335),#369,.T.);
#387=ADVANCED_FACE('',(#336,#337,#338,#339,#340,#341,#342,#343,#344,#345),
#15,.T.);
#388=ADVANCED_FACE('',(#346,#347),#370,.F.);
#389=ADVANCED_FACE('',(#348,#349),#371,.F.);
#390=ADVANCED_FACE('',(#350,#351),#372,.F.);
#391=ADVANCED_FACE('',(#352,#353),#373,.F.);
#392=ADVANCED_FACE('',(#354,#355),#374,.F.);
#393=ADVANCED_FACE('',(#356),#16,.F.);
#394=ADVANCED_FACE('',(#357),#375,.T.);
#395=ADVANCED_FACE('',(#358),#17,.F.);
#396=ADVANCED_FACE('',(#359),#376,.T.);
#397=ADVANCED_FACE('',(#360),#18,.T.);
#398=ADVANCED_FACE('',(#361,#362),#377,.F.);
#399=ADVANCED_FACE('',(#363,#364),#378,.F.);
#400=CLOSED_SHELL('',(#379,#380,#381,#382,#383,#384,#385,#386,#387,#388,
#389,#390,#391,#392,#393,#394,#395,#396,#397,#398,#399));
#401=STYLED_ITEM('',(#402),#409);
#402=PRESENTATION_STYLE_ASSIGNMENT((#403));
#403=SURFACE_STYLE_USAGE(.BOTH.,#404);
#404=SURFACE_SIDE_STYLE('',(#405));
#405=SURFACE_STYLE_FILL_AREA(#406);
#406=FILL_AREA_STYLE('',(#407));
#407=FILL_AREA_STYLE_COLOUR('',#408);
#408=COLOUR_RGB('',0.301960784313725,0.301960784313725,0.301960784313725);
#409=MANIFOLD_SOLID_BREP('Base plate 2',#400);
#410=SHAPE_DEFINITION_REPRESENTATION(#696,#411);
#411=SHAPE_REPRESENTATION('Base plate 2',(#412),#691);
#412=AXIS2_PLACEMENT_3D('',#582,#462,#463);
#413=AXIS2_PLACEMENT_3D('',#583,#464,#465);
#414=AXIS2_PLACEMENT_3D('',#584,#466,#467);
#415=AXIS2_PLACEMENT_3D('',#589,#469,#470);
#416=AXIS2_PLACEMENT_3D('',#592,#472,#473);
#417=AXIS2_PLACEMENT_3D('',#593,#474,#475);
#418=AXIS2_PLACEMENT_3D('',#595,#476,#477);
#419=AXIS2_PLACEMENT_3D('',#597,#478,#479);
#420=AXIS2_PLACEMENT_3D('',#598,#480,#481);
#421=AXIS2_PLACEMENT_3D('',#603,#483,#484);
#422=AXIS2_PLACEMENT_3D('',#607,#486,#487);
#423=AXIS2_PLACEMENT_3D('',#612,#490,#491);
#424=AXIS2_PLACEMENT_3D('',#615,#493,#494);
#425=AXIS2_PLACEMENT_3D('',#617,#495,#496);
#426=AXIS2_PLACEMENT_3D('',#619,#497,#498);
#427=AXIS2_PLACEMENT_3D('',#621,#499,#500);
#428=AXIS2_PLACEMENT_3D('',#623,#501,#502);
#429=AXIS2_PLACEMENT_3D('',#625,#503,#504);
#430=AXIS2_PLACEMENT_3D('',#627,#505,#506);
#431=AXIS2_PLACEMENT_3D('',#629,#507,#508);
#432=AXIS2_PLACEMENT_3D('',#631,#509,#510);
#433=AXIS2_PLACEMENT_3D('',#635,#513,#514);
#434=AXIS2_PLACEMENT_3D('',#641,#518,#519);
#435=AXIS2_PLACEMENT_3D('',#642,#520,#521);
#436=AXIS2_PLACEMENT_3D('',#644,#522,#523);
#437=AXIS2_PLACEMENT_3D('',#645,#524,#525);
#438=AXIS2_PLACEMENT_3D('',#646,#526,#527);
#439=AXIS2_PLACEMENT_3D('',#649,#529,#530);
#440=AXIS2_PLACEMENT_3D('',#650,#531,#532);
#441=AXIS2_PLACEMENT_3D('',#651,#533,#534);
#442=AXIS2_PLACEMENT_3D('',#653,#535,#536);
#443=AXIS2_PLACEMENT_3D('',#655,#537,#538);
#444=AXIS2_PLACEMENT_3D('',#657,#539,#540);
#445=AXIS2_PLACEMENT_3D('',#659,#541,#542);
#446=AXIS2_PLACEMENT_3D('',#663,#544,#545);
#447=AXIS2_PLACEMENT_3D('',#667,#547,#548);
#448=AXIS2_PLACEMENT_3D('',#670,#550,#551);
#449=AXIS2_PLACEMENT_3D('',#672,#552,#553);
#450=AXIS2_PLACEMENT_3D('',#674,#554,#555);
#451=AXIS2_PLACEMENT_3D('',#675,#556,#557);
#452=AXIS2_PLACEMENT_3D('',#676,#558,#559);
#453=AXIS2_PLACEMENT_3D('',#677,#560,#561);
#454=AXIS2_PLACEMENT_3D('',#678,#562,#563);
#455=AXIS2_PLACEMENT_3D('',#679,#564,#565);
#456=AXIS2_PLACEMENT_3D('',#681,#567,#568);
#457=AXIS2_PLACEMENT_3D('',#683,#570,#571);
#458=AXIS2_PLACEMENT_3D('',#685,#573,#574);
#459=AXIS2_PLACEMENT_3D('',#687,#576,#577);
#460=AXIS2_PLACEMENT_3D('',#688,#578,#579);
#461=AXIS2_PLACEMENT_3D('',#689,#580,#581);
#462=DIRECTION('',(0.,0.,1.));
#463=DIRECTION('',(1.,0.,0.));
#464=DIRECTION('',(0.,0.,-1.));
#465=DIRECTION('',(1.,0.,0.));
#466=DIRECTION('',(0.,0.,1.));
#467=DIRECTION('',(1.,0.,0.));
#468=DIRECTION('',(0.,0.,1.));
#469=DIRECTION('',(0.,0.,1.));
#470=DIRECTION('',(1.,0.,0.));
#471=DIRECTION('',(0.,0.,-1.));
#472=DIRECTION('',(0.,0.,1.));
#473=DIRECTION('',(-1.,0.,0.));
#474=DIRECTION('',(0.,0.,1.));
#475=DIRECTION('',(1.,0.,0.));
#476=DIRECTION('',(0.,0.,-1.));
#477=DIRECTION('',(-1.,0.,0.));
#478=DIRECTION('',(0.,0.,-1.));
#479=DIRECTION('',(1.,0.,0.));
#480=DIRECTION('',(0.,0.,1.));
#481=DIRECTION('',(1.,0.,0.));
#482=DIRECTION('',(0.572662242700578,-0.819791409923979,0.));
#483=DIRECTION('',(0.,0.,1.));
#484=DIRECTION('',(1.,0.,0.));
#485=DIRECTION('',(0.,1.,0.));
#486=DIRECTION('',(0.,0.,1.));
#487=DIRECTION('',(1.,0.,0.));
#488=DIRECTION('',(0.863619361483708,0.504144422234812,0.));
#489=DIRECTION('',(0.,-1.,0.));
#490=DIRECTION('',(0.,0.,1.));
#491=DIRECTION('',(1.,0.,0.));
#492=DIRECTION('',(-1.,0.,0.));
#493=DIRECTION('',(0.,0.,-1.));
#494=DIRECTION('',(-1.,0.,0.));
#495=DIRECTION('',(0.,0.,-1.));
#496=DIRECTION('',(-1.,0.,0.));
#497=DIRECTION('',(0.,0.,-1.));
#498=DIRECTION('',(-1.,0.,0.));
#499=DIRECTION('',(0.,0.,1.));
#500=DIRECTION('',(1.,0.,0.));
#501=DIRECTION('',(0.,0.,1.));
#502=DIRECTION('',(1.,0.,0.));
#503=DIRECTION('',(0.,0.,1.));
#504=DIRECTION('',(1.,0.,0.));
#505=DIRECTION('',(0.,0.,1.));
#506=DIRECTION('',(1.,0.,0.));
#507=DIRECTION('',(0.,0.,1.));
#508=DIRECTION('',(1.,0.,0.));
#509=DIRECTION('',(-1.,0.,0.));
#510=DIRECTION('',(0.,0.,-1.));
#511=DIRECTION('',(0.,-1.,0.));
#512=DIRECTION('',(0.,0.,-1.));
#513=DIRECTION('',(0.,1.,0.));
#514=DIRECTION('',(0.,0.,-1.));
#515=DIRECTION('',(0.,0.,-1.));
#516=DIRECTION('',(0.,0.,-1.));
#517=DIRECTION('',(-1.,0.,0.));
#518=DIRECTION('',(0.,0.,-1.));
#519=DIRECTION('',(1.,0.,0.));
#520=DIRECTION('',(0.,0.,1.));
#521=DIRECTION('',(1.,0.,0.));
#522=DIRECTION('',(0.,0.,-1.));
#523=DIRECTION('',(1.,0.,0.));
#524=DIRECTION('',(0.,0.,1.));
#525=DIRECTION('',(1.,0.,0.));
#526=DIRECTION('',(0.,0.,1.));
#527=DIRECTION('',(-1.,0.,0.));
#528=DIRECTION('',(0.,0.,1.));
#529=DIRECTION('',(0.,0.,1.));
#530=DIRECTION('',(1.,0.,0.));
#531=DIRECTION('',(0.,0.,1.));
#532=DIRECTION('',(1.,0.,0.));
#533=DIRECTION('',(0.,0.,1.));
#534=DIRECTION('',(1.,0.,0.));
#535=DIRECTION('',(0.,0.,1.));
#536=DIRECTION('',(1.,0.,0.));
#537=DIRECTION('',(0.,0.,1.));
#538=DIRECTION('',(1.,0.,0.));
#539=DIRECTION('',(0.,0.,-1.));
#540=DIRECTION('',(-1.,0.,0.));
#541=DIRECTION('',(0.,0.,-1.));
#542=DIRECTION('',(-1.,0.,0.));
#543=DIRECTION('',(0.863619361483708,0.504144422234812,0.));
#544=DIRECTION('',(0.,0.,1.));
#545=DIRECTION('',(1.,0.,0.));
#546=DIRECTION('',(0.,1.,0.));
#547=DIRECTION('',(0.,0.,1.));
#548=DIRECTION('',(1.,0.,0.));
#549=DIRECTION('',(0.572662242700578,-0.819791409923979,0.));
#550=DIRECTION('',(0.,0.,1.));
#551=DIRECTION('',(1.,0.,0.));
#552=DIRECTION('',(0.,0.,1.));
#553=DIRECTION('',(1.,0.,0.));
#554=DIRECTION('',(0.,0.,1.));
#555=DIRECTION('',(-1.,0.,0.));
#556=DIRECTION('',(0.,0.,1.));
#557=DIRECTION('',(-1.,0.,0.));
#558=DIRECTION('',(0.,0.,-1.));
#559=DIRECTION('',(-1.,0.,0.));
#560=DIRECTION('',(0.,0.,-1.));
#561=DIRECTION('',(-1.,0.,0.));
#562=DIRECTION('',(0.,0.,-1.));
#563=DIRECTION('',(-1.,0.,0.));
#564=DIRECTION('',(0.504144422234812,-0.863619361483708,0.));
#565=DIRECTION('',(0.863619361483708,0.504144422234812,0.));
#566=DIRECTION('',(0.,0.,1.));
#567=DIRECTION('',(0.,0.,1.));
#568=DIRECTION('',(1.,0.,0.));
#569=DIRECTION('',(0.,0.,1.));
#570=DIRECTION('',(1.,0.,0.));
#571=DIRECTION('',(0.,0.,-1.));
#572=DIRECTION('',(0.,0.,1.));
#573=DIRECTION('',(0.,0.,1.));
#574=DIRECTION('',(1.,0.,0.));
#575=DIRECTION('',(0.,0.,1.));
#576=DIRECTION('',(-0.819791409923979,-0.572662242700578,0.));
#577=DIRECTION('',(0.572662242700578,-0.819791409923979,0.));
#578=DIRECTION('',(0.,0.,1.));
#579=DIRECTION('',(1.,0.,0.));
#580=DIRECTION('',(0.,0.,1.));
#581=DIRECTION('',(1.,0.,0.));
#582=CARTESIAN_POINT('',(0.,0.,0.));
#583=CARTESIAN_POINT('',(0.,2.29621274840128E-18,-0.0535));
#584=CARTESIAN_POINT('',(0.,2.29621274840128E-18,-0.057));
#585=CARTESIAN_POINT('',(0.0375,0.,-0.057));
#586=CARTESIAN_POINT('',(-0.0189054158338055,0.032385726055639,-0.057));
#587=CARTESIAN_POINT('',(-0.0189054158338055,0.032385726055639,-0.057));
#588=CARTESIAN_POINT('',(-0.0189054158338055,0.032385726055639,-0.053));
#589=CARTESIAN_POINT('',(0.,2.29621274840128E-18,-0.053));
#590=CARTESIAN_POINT('',(0.0375,0.,-0.053));
#591=CARTESIAN_POINT('',(0.0375,0.,-0.0535));
#592=CARTESIAN_POINT('',(-0.00375,-0.0425,-0.076));
#593=CARTESIAN_POINT('',(-0.00375,-0.0425,-0.057));
#594=CARTESIAN_POINT('',(0.0033,-0.0425,-0.057));
#595=CARTESIAN_POINT('',(-0.00375,-0.0425,-0.053));
#596=CARTESIAN_POINT('',(-0.0108,-0.0425,-0.053));
#597=CARTESIAN_POINT('',(0.,0.,-0.057));
#598=CARTESIAN_POINT('',(-0.034,-0.0565,-0.057));
#599=CARTESIAN_POINT('',(-0.036869269934734,-0.058504317849452,-0.057));
#600=CARTESIAN_POINT('',(-0.034,-0.06,-0.057));
#601=CARTESIAN_POINT('',(-0.0462681846228734,-0.0450493544357496,-0.057));
#602=CARTESIAN_POINT('',(-0.0556670993110129,-0.0315943910220471,-0.057));
#603=CARTESIAN_POINT('',(-0.0474691852117732,-0.0258677685950413,-0.057));
#604=CARTESIAN_POINT('',(-0.0574691852117732,-0.0258677685950413,-0.057));
#605=CARTESIAN_POINT('',(-0.0574691852117732,-0.0108677685950413,-0.057));
#606=CARTESIAN_POINT('',(-0.0574691852117732,0.0041322314049587,-0.057));
#607=CARTESIAN_POINT('',(-0.0474691852117731,0.0041322314049587,-0.057));
#608=CARTESIAN_POINT('',(-0.0525106294341213,0.0127684250197958,-0.057));
#609=CARTESIAN_POINT('',(-0.0357080226339634,0.0225770755377174,-0.057));
#610=CARTESIAN_POINT('',(0.0375,-0.025,-0.057));
#611=CARTESIAN_POINT('',(0.0375,-0.0565,-0.057));
#612=CARTESIAN_POINT('',(0.034,-0.0565,-0.057));
#613=CARTESIAN_POINT('',(0.034,-0.06,-0.057));
#614=CARTESIAN_POINT('',(0.,-0.06,-0.057));
#615=CARTESIAN_POINT('',(0.01875,-0.0425,-0.057));
#616=CARTESIAN_POINT('',(0.0117,-0.0425,-0.057));
#617=CARTESIAN_POINT('',(-0.01200679,0.0138591,-0.057));
#618=CARTESIAN_POINT('',(-0.01905679,0.0138591,-0.057));
#619=CARTESIAN_POINT('',(0.0165,-0.01459055,-0.057));
#620=CARTESIAN_POINT('',(0.00945,-0.01459055,-0.057));
#621=CARTESIAN_POINT('',(-0.034,-0.031,-0.057));
#622=CARTESIAN_POINT('',(-0.03175,-0.031,-0.057));
#623=CARTESIAN_POINT('',(0.034,-0.031,-0.057));
#624=CARTESIAN_POINT('',(0.03625,-0.031,-0.057));
#625=CARTESIAN_POINT('',(2.15843998349721E-18,0.034,-0.057));
#626=CARTESIAN_POINT('',(0.00225,0.034,-0.057));
#627=CARTESIAN_POINT('',(-0.0474691852117732,0.0041322314049587,-0.057));
#628=CARTESIAN_POINT('',(-0.0404191852117732,0.0041322314049587,-0.057));
#629=CARTESIAN_POINT('',(-0.0474691852117732,-0.0258677685950413,-0.057));
#630=CARTESIAN_POINT('',(-0.0404191852117732,-0.0258677685950413,-0.057));
#631=CARTESIAN_POINT('',(0.0375,-0.025,-0.0535));
#632=CARTESIAN_POINT('',(0.0375,-0.025,-0.053));
#633=CARTESIAN_POINT('',(0.0375,-0.0565,-0.053));
#634=CARTESIAN_POINT('',(0.0375,-0.0565,-0.0535));
#635=CARTESIAN_POINT('',(0.,-0.06,-0.0535));
#636=CARTESIAN_POINT('',(-0.034,-0.06,-0.0535));
#637=CARTESIAN_POINT('',(-0.034,-0.06,-0.053));
#638=CARTESIAN_POINT('',(0.034,-0.06,-0.0535));
#639=CARTESIAN_POINT('',(0.034,-0.06,-0.053));
#640=CARTESIAN_POINT('',(0.,-0.06,-0.053));
#641=CARTESIAN_POINT('',(2.15843998349721E-18,0.034,-0.032));
#642=CARTESIAN_POINT('',(2.15843998349721E-18,0.034,-0.053));
#643=CARTESIAN_POINT('',(0.00225,0.034,-0.053));
#644=CARTESIAN_POINT('',(0.034,-0.0565,-0.0535));
#645=CARTESIAN_POINT('',(0.034,-0.0565,-0.053));
#646=CARTESIAN_POINT('',(-0.034,-0.0565,-0.0535));
#647=CARTESIAN_POINT('',(-0.036869269934734,-0.058504317849452,-0.057));
#648=CARTESIAN_POINT('',(-0.036869269934734,-0.058504317849452,-0.053));
#649=CARTESIAN_POINT('',(-0.034,-0.0565,-0.053));
#650=CARTESIAN_POINT('',(0.,-0.01125,-0.053));
#651=CARTESIAN_POINT('',(0.01875,-0.0425,-0.053));
#652=CARTESIAN_POINT('',(0.0258,-0.0425,-0.053));
#653=CARTESIAN_POINT('',(-0.01200679,0.0138591,-0.053));
#654=CARTESIAN_POINT('',(-0.00495679,0.0138591,-0.053));
#655=CARTESIAN_POINT('',(0.0165,-0.01459055,-0.053));
#656=CARTESIAN_POINT('',(0.02355,-0.01459055,-0.053));
#657=CARTESIAN_POINT('',(-0.034,-0.031,-0.053));
#658=CARTESIAN_POINT('',(-0.03625,-0.031,-0.053));
#659=CARTESIAN_POINT('',(0.034,-0.031,-0.053));
#660=CARTESIAN_POINT('',(0.03175,-0.031,-0.053));
#661=CARTESIAN_POINT('',(-0.0357080226339634,0.0225770755377174,-0.053));
#662=CARTESIAN_POINT('',(-0.0525106294341213,0.0127684250197958,-0.053));
#663=CARTESIAN_POINT('',(-0.0474691852117731,0.0041322314049587,-0.053));
#664=CARTESIAN_POINT('',(-0.0574691852117732,0.0041322314049587,-0.053));
#665=CARTESIAN_POINT('',(-0.0574691852117732,-0.0108677685950413,-0.053));
#666=CARTESIAN_POINT('',(-0.0574691852117732,-0.0258677685950413,-0.053));
#667=CARTESIAN_POINT('',(-0.0474691852117732,-0.0258677685950413,-0.053));
#668=CARTESIAN_POINT('',(-0.0556670993110129,-0.0315943910220471,-0.053));
#669=CARTESIAN_POINT('',(-0.0462681846228734,-0.0450493544357496,-0.053));
#670=CARTESIAN_POINT('',(-0.0474691852117732,0.0041322314049587,-0.053));
#671=CARTESIAN_POINT('',(-0.0404191852117732,0.0041322314049587,-0.053));
#672=CARTESIAN_POINT('',(-0.0474691852117732,-0.0258677685950413,-0.053));
#673=CARTESIAN_POINT('',(-0.0404191852117732,-0.0258677685950413,-0.053));
#674=CARTESIAN_POINT('',(0.034,-0.031,-0.078));
#675=CARTESIAN_POINT('',(-0.034,-0.031,-0.078));
#676=CARTESIAN_POINT('',(0.0165,-0.01459055,-0.032));
#677=CARTESIAN_POINT('',(-0.01200679,0.0138591,-0.032));
#678=CARTESIAN_POINT('',(0.01875,-0.0425,-0.032));
#679=CARTESIAN_POINT('',(-0.0357080226339634,0.0225770755377174,-0.057));
#680=CARTESIAN_POINT('',(-0.0525106294341213,0.0127684250197958,-0.057));
#681=CARTESIAN_POINT('',(-0.0474691852117731,0.0041322314049587,-0.057));
#682=CARTESIAN_POINT('',(-0.0574691852117732,0.0041322314049587,-0.057));
#683=CARTESIAN_POINT('',(-0.0574691852117732,-0.0108677685950413,-0.057));
#684=CARTESIAN_POINT('',(-0.0574691852117732,-0.0258677685950413,-0.057));
#685=CARTESIAN_POINT('',(-0.0474691852117732,-0.0258677685950413,-0.057));
#686=CARTESIAN_POINT('',(-0.0556670993110129,-0.0315943910220471,-0.057));
#687=CARTESIAN_POINT('',(-0.0462681846228734,-0.0450493544357496,-0.057));
#688=CARTESIAN_POINT('',(-0.0474691852117732,0.0041322314049587,-0.057));
#689=CARTESIAN_POINT('',(-0.0474691852117732,-0.0258677685950413,-0.057));
#690=MECHANICAL_DESIGN_GEOMETRIC_PRESENTATION_REPRESENTATION('',(#401),
#691);
#691=(
GEOMETRIC_REPRESENTATION_CONTEXT(3)
GLOBAL_UNCERTAINTY_ASSIGNED_CONTEXT((#692))
GLOBAL_UNIT_ASSIGNED_CONTEXT((#695,#694,#693))
REPRESENTATION_CONTEXT('Base plate 2','TOP_LEVEL_ASSEMBLY_PART')
);
#692=UNCERTAINTY_MEASURE_WITH_UNIT(LENGTH_MEASURE(1.E-8),#695,
'DISTANCE_ACCURACY_VALUE','Maximum Tolerance applied to model');
#693=(
NAMED_UNIT(*)
SI_UNIT($,.STERADIAN.)
SOLID_ANGLE_UNIT()
);
#694=(
NAMED_UNIT(*)
PLANE_ANGLE_UNIT()
SI_UNIT($,.RADIAN.)
);
#695=(
LENGTH_UNIT()
NAMED_UNIT(*)
SI_UNIT($,.METRE.)
);
#696=PRODUCT_DEFINITION_SHAPE('','',#697);
#697=PRODUCT_DEFINITION('','',#699,#698);
#698=PRODUCT_DEFINITION_CONTEXT('',#705,'design');
#699=PRODUCT_DEFINITION_FORMATION_WITH_SPECIFIED_SOURCE('','',#701,
 .NOT_KNOWN.);
#700=PRODUCT_RELATED_PRODUCT_CATEGORY('','',(#701));
#701=PRODUCT('Base plate 2','Base plate 2','Base plate 2',(#703));
#702=PRODUCT_CATEGORY('','');
#703=PRODUCT_CONTEXT('',#705,'mechanical');
#704=APPLICATION_PROTOCOL_DEFINITION('international standard',
'ap242_managed_model_based_3d_engineering',2020,#705);
#705=APPLICATION_CONTEXT('managed model based 3d engineering');
ENDSEC;
END-ISO-10303-21;
