ISO-10303-21;
HEADER;
/* Generated by software containing ST-Developer
 * from STEP Tools, Inc. (www.steptools.com) 
 */
/* OPTION: using custom renumber hook */

FILE_DESCRIPTION(
/* description */ ('STEP AP242 Edition 2',
'CAx-IF Rec.Pracs.---Representation and Presentation of Product Manufa
cturing Information (PMI)---4.0---2014-10-13',
'CAx-IF Rec.Pracs.---3D Tessellated Geometry---0.4---2014-09-14','2;1',
'CAx-IF Rec.Pracs.---User Defined Attributes---1.5---2016-08-15'),
/* implementation_level */ '2;1');

FILE_NAME(
/* name */ 'Assembly 1 - (Axle) Drive input pulley',
/* time_stamp */ '2026-08-06T04:42:58Z',
/* author */ (''),
/* organization */ (''),
/* preprocessor_version */ 'ST-DEVELOPER v20',
/* originating_system */ 'ONSHAPE BY PTC INC, 1.218',
/* authorisation */ '  ');

FILE_SCHEMA (('AP242_MANAGED_MODEL_BASED_3D_ENGINEERING_MIM_LF { 1 0 10303 442 3 1 4 }'));
ENDSEC;

DATA;
#10=SHAPE_REPRESENTATION_RELATIONSHIP('','',#333,#11);
#11=ADVANCED_BREP_SHAPE_REPRESENTATION('',(#331),#531);
#12=LINE('',#449,#48);
#13=LINE('',#452,#49);
#14=LINE('',#454,#50);
#15=LINE('',#456,#51);
#16=LINE('',#458,#52);
#17=LINE('',#460,#53);
#18=LINE('',#462,#54);
#19=LINE('',#464,#55);
#20=LINE('',#466,#56);
#21=LINE('',#468,#57);
#22=LINE('',#470,#58);
#23=LINE('',#472,#59);
#24=LINE('',#474,#60);
#25=LINE('',#476,#61);
#26=LINE('',#478,#62);
#27=LINE('',#480,#63);
#28=LINE('',#482,#64);
#29=LINE('',#483,#65);
#30=LINE('',#492,#66);
#31=LINE('',#495,#67);
#32=LINE('',#497,#68);
#33=LINE('',#499,#69);
#34=LINE('',#501,#70);
#35=LINE('',#503,#71);
#36=LINE('',#506,#72);
#37=LINE('',#508,#73);
#38=LINE('',#510,#74);
#39=LINE('',#512,#75);
#40=LINE('',#514,#76);
#41=LINE('',#516,#77);
#42=LINE('',#518,#78);
#43=LINE('',#520,#79);
#44=LINE('',#522,#80);
#45=LINE('',#524,#81);
#46=LINE('',#526,#82);
#47=LINE('',#528,#83);
#48=VECTOR('',#368,1.);
#49=VECTOR('',#369,1.);
#50=VECTOR('',#370,1.);
#51=VECTOR('',#371,1.);
#52=VECTOR('',#374,1.);
#53=VECTOR('',#375,1.);
#54=VECTOR('',#376,1.);
#55=VECTOR('',#379,1.);
#56=VECTOR('',#380,1.);
#57=VECTOR('',#381,1.);
#58=VECTOR('',#384,1.);
#59=VECTOR('',#385,1.);
#60=VECTOR('',#386,1.);
#61=VECTOR('',#389,1.);
#62=VECTOR('',#390,1.);
#63=VECTOR('',#391,1.);
#64=VECTOR('',#394,1.);
#65=VECTOR('',#395,1.);
#66=VECTOR('',#408,1.);
#67=VECTOR('',#409,1.);
#68=VECTOR('',#410,1.);
#69=VECTOR('',#411,1.);
#70=VECTOR('',#412,1.);
#71=VECTOR('',#413,1.);
#72=VECTOR('',#418,1.);
#73=VECTOR('',#419,1.);
#74=VECTOR('',#420,1.);
#75=VECTOR('',#423,1.);
#76=VECTOR('',#424,1.);
#77=VECTOR('',#427,1.);
#78=VECTOR('',#428,1.);
#79=VECTOR('',#431,1.);
#80=VECTOR('',#432,1.);
#81=VECTOR('',#435,1.);
#82=VECTOR('',#436,1.);
#83=VECTOR('',#439,1.);
#84=PLANE('',#338);
#85=PLANE('',#339);
#86=PLANE('',#340);
#87=PLANE('',#341);
#88=PLANE('',#342);
#89=PLANE('',#343);
#90=PLANE('',#344);
#91=PLANE('',#345);
#92=PLANE('',#349);
#93=PLANE('',#350);
#94=PLANE('',#351);
#95=PLANE('',#352);
#96=PLANE('',#353);
#97=PLANE('',#354);
#98=PLANE('',#355);
#99=PLANE('',#356);
#100=PLANE('',#357);
#101=ORIENTED_EDGE('',*,*,#181,.F.);
#102=ORIENTED_EDGE('',*,*,#182,.F.);
#103=ORIENTED_EDGE('',*,*,#183,.F.);
#104=ORIENTED_EDGE('',*,*,#184,.F.);
#105=ORIENTED_EDGE('',*,*,#185,.T.);
#106=ORIENTED_EDGE('',*,*,#186,.T.);
#107=ORIENTED_EDGE('',*,*,#187,.F.);
#108=ORIENTED_EDGE('',*,*,#186,.F.);
#109=ORIENTED_EDGE('',*,*,#188,.T.);
#110=ORIENTED_EDGE('',*,*,#189,.T.);
#111=ORIENTED_EDGE('',*,*,#190,.F.);
#112=ORIENTED_EDGE('',*,*,#189,.F.);
#113=ORIENTED_EDGE('',*,*,#191,.T.);
#114=ORIENTED_EDGE('',*,*,#192,.T.);
#115=ORIENTED_EDGE('',*,*,#193,.F.);
#116=ORIENTED_EDGE('',*,*,#192,.F.);
#117=ORIENTED_EDGE('',*,*,#194,.T.);
#118=ORIENTED_EDGE('',*,*,#195,.T.);
#119=ORIENTED_EDGE('',*,*,#196,.F.);
#120=ORIENTED_EDGE('',*,*,#195,.F.);
#121=ORIENTED_EDGE('',*,*,#197,.T.);
#122=ORIENTED_EDGE('',*,*,#198,.T.);
#123=ORIENTED_EDGE('',*,*,#199,.F.);
#124=ORIENTED_EDGE('',*,*,#198,.F.);
#125=ORIENTED_EDGE('',*,*,#200,.T.);
#126=ORIENTED_EDGE('',*,*,#184,.T.);
#127=ORIENTED_EDGE('',*,*,#181,.T.);
#128=ORIENTED_EDGE('',*,*,#185,.F.);
#129=ORIENTED_EDGE('',*,*,#200,.F.);
#130=ORIENTED_EDGE('',*,*,#197,.F.);
#131=ORIENTED_EDGE('',*,*,#194,.F.);
#132=ORIENTED_EDGE('',*,*,#191,.F.);
#133=ORIENTED_EDGE('',*,*,#188,.F.);
#134=ORIENTED_EDGE('',*,*,#201,.F.);
#135=ORIENTED_EDGE('',*,*,#199,.T.);
#136=ORIENTED_EDGE('',*,*,#183,.T.);
#137=ORIENTED_EDGE('',*,*,#187,.T.);
#138=ORIENTED_EDGE('',*,*,#190,.T.);
#139=ORIENTED_EDGE('',*,*,#193,.T.);
#140=ORIENTED_EDGE('',*,*,#196,.T.);
#141=ORIENTED_EDGE('',*,*,#202,.F.);
#142=ORIENTED_EDGE('',*,*,#201,.T.);
#143=ORIENTED_EDGE('',*,*,#203,.F.);
#144=ORIENTED_EDGE('',*,*,#204,.F.);
#145=ORIENTED_EDGE('',*,*,#205,.F.);
#146=ORIENTED_EDGE('',*,*,#206,.F.);
#147=ORIENTED_EDGE('',*,*,#207,.F.);
#148=ORIENTED_EDGE('',*,*,#208,.F.);
#149=ORIENTED_EDGE('',*,*,#202,.T.);
#150=ORIENTED_EDGE('',*,*,#182,.T.);
#151=ORIENTED_EDGE('',*,*,#203,.T.);
#152=ORIENTED_EDGE('',*,*,#209,.F.);
#153=ORIENTED_EDGE('',*,*,#210,.F.);
#154=ORIENTED_EDGE('',*,*,#211,.T.);
#155=ORIENTED_EDGE('',*,*,#208,.T.);
#156=ORIENTED_EDGE('',*,*,#212,.F.);
#157=ORIENTED_EDGE('',*,*,#213,.F.);
#158=ORIENTED_EDGE('',*,*,#209,.T.);
#159=ORIENTED_EDGE('',*,*,#207,.T.);
#160=ORIENTED_EDGE('',*,*,#214,.F.);
#161=ORIENTED_EDGE('',*,*,#215,.F.);
#162=ORIENTED_EDGE('',*,*,#212,.T.);
#163=ORIENTED_EDGE('',*,*,#206,.T.);
#164=ORIENTED_EDGE('',*,*,#216,.F.);
#165=ORIENTED_EDGE('',*,*,#217,.F.);
#166=ORIENTED_EDGE('',*,*,#214,.T.);
#167=ORIENTED_EDGE('',*,*,#205,.T.);
#168=ORIENTED_EDGE('',*,*,#218,.F.);
#169=ORIENTED_EDGE('',*,*,#219,.F.);
#170=ORIENTED_EDGE('',*,*,#216,.T.);
#171=ORIENTED_EDGE('',*,*,#204,.T.);
#172=ORIENTED_EDGE('',*,*,#211,.F.);
#173=ORIENTED_EDGE('',*,*,#220,.F.);
#174=ORIENTED_EDGE('',*,*,#218,.T.);
#175=ORIENTED_EDGE('',*,*,#210,.T.);
#176=ORIENTED_EDGE('',*,*,#213,.T.);
#177=ORIENTED_EDGE('',*,*,#215,.T.);
#178=ORIENTED_EDGE('',*,*,#217,.T.);
#179=ORIENTED_EDGE('',*,*,#219,.T.);
#180=ORIENTED_EDGE('',*,*,#220,.T.);
#181=EDGE_CURVE('',#221,#221,#249,.T.);
#182=EDGE_CURVE('',#222,#222,#250,.F.);
#183=EDGE_CURVE('',#223,#224,#12,.T.);
#184=EDGE_CURVE('',#225,#223,#13,.T.);
#185=EDGE_CURVE('',#225,#226,#14,.T.);
#186=EDGE_CURVE('',#226,#224,#15,.T.);
#187=EDGE_CURVE('',#224,#227,#16,.T.);
#188=EDGE_CURVE('',#226,#228,#17,.T.);
#189=EDGE_CURVE('',#228,#227,#18,.T.);
#190=EDGE_CURVE('',#227,#229,#19,.T.);
#191=EDGE_CURVE('',#228,#230,#20,.T.);
#192=EDGE_CURVE('',#230,#229,#21,.T.);
#193=EDGE_CURVE('',#229,#231,#22,.T.);
#194=EDGE_CURVE('',#230,#232,#23,.T.);
#195=EDGE_CURVE('',#232,#231,#24,.T.);
#196=EDGE_CURVE('',#231,#233,#25,.T.);
#197=EDGE_CURVE('',#232,#234,#26,.T.);
#198=EDGE_CURVE('',#234,#233,#27,.T.);
#199=EDGE_CURVE('',#233,#223,#28,.T.);
#200=EDGE_CURVE('',#234,#225,#29,.T.);
#201=EDGE_CURVE('',#235,#235,#251,.T.);
#202=EDGE_CURVE('',#236,#236,#252,.T.);
#203=EDGE_CURVE('',#237,#238,#30,.T.);
#204=EDGE_CURVE('',#239,#237,#31,.T.);
#205=EDGE_CURVE('',#240,#239,#32,.T.);
#206=EDGE_CURVE('',#241,#240,#33,.T.);
#207=EDGE_CURVE('',#242,#241,#34,.T.);
#208=EDGE_CURVE('',#238,#242,#35,.T.);
#209=EDGE_CURVE('',#243,#238,#36,.T.);
#210=EDGE_CURVE('',#244,#243,#37,.T.);
#211=EDGE_CURVE('',#244,#237,#38,.T.);
#212=EDGE_CURVE('',#245,#242,#39,.T.);
#213=EDGE_CURVE('',#243,#245,#40,.T.);
#214=EDGE_CURVE('',#246,#241,#41,.T.);
#215=EDGE_CURVE('',#245,#246,#42,.T.);
#216=EDGE_CURVE('',#247,#240,#43,.T.);
#217=EDGE_CURVE('',#246,#247,#44,.T.);
#218=EDGE_CURVE('',#248,#239,#45,.T.);
#219=EDGE_CURVE('',#247,#248,#46,.T.);
#220=EDGE_CURVE('',#248,#244,#47,.T.);
#221=VERTEX_POINT('',#445);
#222=VERTEX_POINT('',#447);
#223=VERTEX_POINT('',#450);
#224=VERTEX_POINT('',#451);
#225=VERTEX_POINT('',#453);
#226=VERTEX_POINT('',#455);
#227=VERTEX_POINT('',#459);
#228=VERTEX_POINT('',#461);
#229=VERTEX_POINT('',#465);
#230=VERTEX_POINT('',#467);
#231=VERTEX_POINT('',#471);
#232=VERTEX_POINT('',#473);
#233=VERTEX_POINT('',#477);
#234=VERTEX_POINT('',#479);
#235=VERTEX_POINT('',#487);
#236=VERTEX_POINT('',#490);
#237=VERTEX_POINT('',#493);
#238=VERTEX_POINT('',#494);
#239=VERTEX_POINT('',#496);
#240=VERTEX_POINT('',#498);
#241=VERTEX_POINT('',#500);
#242=VERTEX_POINT('',#502);
#243=VERTEX_POINT('',#507);
#244=VERTEX_POINT('',#509);
#245=VERTEX_POINT('',#513);
#246=VERTEX_POINT('',#517);
#247=VERTEX_POINT('',#521);
#248=VERTEX_POINT('',#525);
#249=CIRCLE('',#336,0.00205);
#250=CIRCLE('',#337,0.00205);
#251=CIRCLE('',#346,0.005);
#252=CIRCLE('',#348,0.005);
#253=EDGE_LOOP('',(#101));
#254=EDGE_LOOP('',(#102));
#255=EDGE_LOOP('',(#103,#104,#105,#106));
#256=EDGE_LOOP('',(#107,#108,#109,#110));
#257=EDGE_LOOP('',(#111,#112,#113,#114));
#258=EDGE_LOOP('',(#115,#116,#117,#118));
#259=EDGE_LOOP('',(#119,#120,#121,#122));
#260=EDGE_LOOP('',(#123,#124,#125,#126));
#261=EDGE_LOOP('',(#127));
#262=EDGE_LOOP('',(#128,#129,#130,#131,#132,#133));
#263=EDGE_LOOP('',(#134));
#264=EDGE_LOOP('',(#135,#136,#137,#138,#139,#140));
#265=EDGE_LOOP('',(#141));
#266=EDGE_LOOP('',(#142));
#267=EDGE_LOOP('',(#143,#144,#145,#146,#147,#148));
#268=EDGE_LOOP('',(#149));
#269=EDGE_LOOP('',(#150));
#270=EDGE_LOOP('',(#151,#152,#153,#154));
#271=EDGE_LOOP('',(#155,#156,#157,#158));
#272=EDGE_LOOP('',(#159,#160,#161,#162));
#273=EDGE_LOOP('',(#163,#164,#165,#166));
#274=EDGE_LOOP('',(#167,#168,#169,#170));
#275=EDGE_LOOP('',(#171,#172,#173,#174));
#276=EDGE_LOOP('',(#175,#176,#177,#178,#179,#180));
#277=FACE_BOUND('',#253,.T.);
#278=FACE_BOUND('',#254,.T.);
#279=FACE_BOUND('',#255,.T.);
#280=FACE_BOUND('',#256,.T.);
#281=FACE_BOUND('',#257,.T.);
#282=FACE_BOUND('',#258,.T.);
#283=FACE_BOUND('',#259,.T.);
#284=FACE_BOUND('',#260,.T.);
#285=FACE_BOUND('',#261,.T.);
#286=FACE_BOUND('',#262,.T.);
#287=FACE_BOUND('',#263,.T.);
#288=FACE_BOUND('',#264,.T.);
#289=FACE_BOUND('',#265,.T.);
#290=FACE_BOUND('',#266,.T.);
#291=FACE_BOUND('',#267,.T.);
#292=FACE_BOUND('',#268,.T.);
#293=FACE_BOUND('',#269,.T.);
#294=FACE_BOUND('',#270,.T.);
#295=FACE_BOUND('',#271,.T.);
#296=FACE_BOUND('',#272,.T.);
#297=FACE_BOUND('',#273,.T.);
#298=FACE_BOUND('',#274,.T.);
#299=FACE_BOUND('',#275,.T.);
#300=FACE_BOUND('',#276,.T.);
#301=CYLINDRICAL_SURFACE('',#335,0.00205);
#302=CYLINDRICAL_SURFACE('',#347,0.005);
#303=ADVANCED_FACE('',(#277,#278),#301,.F.);
#304=ADVANCED_FACE('',(#279),#84,.T.);
#305=ADVANCED_FACE('',(#280),#85,.T.);
#306=ADVANCED_FACE('',(#281),#86,.T.);
#307=ADVANCED_FACE('',(#282),#87,.T.);
#308=ADVANCED_FACE('',(#283),#88,.T.);
#309=ADVANCED_FACE('',(#284),#89,.T.);
#310=ADVANCED_FACE('',(#285,#286),#90,.F.);
#311=ADVANCED_FACE('',(#287,#288),#91,.F.);
#312=ADVANCED_FACE('',(#289,#290),#302,.T.);
#313=ADVANCED_FACE('',(#291,#292),#92,.T.);
#314=ADVANCED_FACE('',(#293),#93,.F.);
#315=ADVANCED_FACE('',(#294),#94,.F.);
#316=ADVANCED_FACE('',(#295),#95,.F.);
#317=ADVANCED_FACE('',(#296),#96,.F.);
#318=ADVANCED_FACE('',(#297),#97,.F.);
#319=ADVANCED_FACE('',(#298),#98,.F.);
#320=ADVANCED_FACE('',(#299),#99,.F.);
#321=ADVANCED_FACE('',(#300),#100,.T.);
#322=CLOSED_SHELL('',(#303,#304,#305,#306,#307,#308,#309,#310,#311,#312,
#313,#314,#315,#316,#317,#318,#319,#320,#321));
#323=STYLED_ITEM('',(#324),#331);
#324=PRESENTATION_STYLE_ASSIGNMENT((#325));
#325=SURFACE_STYLE_USAGE(.BOTH.,#326);
#326=SURFACE_SIDE_STYLE('',(#327));
#327=SURFACE_STYLE_FILL_AREA(#328);
#328=FILL_AREA_STYLE('',(#329));
#329=FILL_AREA_STYLE_COLOUR('',#330);
#330=COLOUR_RGB('',0.0862745098039216,0.31764705882353,0.690196078431373);
#331=MANIFOLD_SOLID_BREP('(Axle) Drive input pulley',#322);
#332=SHAPE_DEFINITION_REPRESENTATION(#536,#333);
#333=SHAPE_REPRESENTATION('(Axle) Drive input pulley',(#334),#531);
#334=AXIS2_PLACEMENT_3D('',#442,#358,#359);
#335=AXIS2_PLACEMENT_3D('',#443,#360,#361);
#336=AXIS2_PLACEMENT_3D('',#444,#362,#363);
#337=AXIS2_PLACEMENT_3D('',#446,#364,#365);
#338=AXIS2_PLACEMENT_3D('',#448,#366,#367);
#339=AXIS2_PLACEMENT_3D('',#457,#372,#373);
#340=AXIS2_PLACEMENT_3D('',#463,#377,#378);
#341=AXIS2_PLACEMENT_3D('',#469,#382,#383);
#342=AXIS2_PLACEMENT_3D('',#475,#387,#388);
#343=AXIS2_PLACEMENT_3D('',#481,#392,#393);
#344=AXIS2_PLACEMENT_3D('',#484,#396,#397);
#345=AXIS2_PLACEMENT_3D('',#485,#398,#399);
#346=AXIS2_PLACEMENT_3D('',#486,#400,#401);
#347=AXIS2_PLACEMENT_3D('',#488,#402,#403);
#348=AXIS2_PLACEMENT_3D('',#489,#404,#405);
#349=AXIS2_PLACEMENT_3D('',#491,#406,#407);
#350=AXIS2_PLACEMENT_3D('',#504,#414,#415);
#351=AXIS2_PLACEMENT_3D('',#505,#416,#417);
#352=AXIS2_PLACEMENT_3D('',#511,#421,#422);
#353=AXIS2_PLACEMENT_3D('',#515,#425,#426);
#354=AXIS2_PLACEMENT_3D('',#519,#429,#430);
#355=AXIS2_PLACEMENT_3D('',#523,#433,#434);
#356=AXIS2_PLACEMENT_3D('',#527,#437,#438);
#357=AXIS2_PLACEMENT_3D('',#529,#440,#441);
#358=DIRECTION('',(0.,0.,1.));
#359=DIRECTION('',(1.,0.,0.));
#360=DIRECTION('',(0.,0.,-1.));
#361=DIRECTION('',(-1.,0.,0.));
#362=DIRECTION('',(0.,0.,-1.));
#363=DIRECTION('',(-1.,0.,0.));
#364=DIRECTION('',(0.,0.,-1.));
#365=DIRECTION('',(-1.,0.,0.));
#366=DIRECTION('',(0.5,0.866025403784439,0.));
#367=DIRECTION('',(-0.866025403784439,0.5,0.));
#368=DIRECTION('',(0.866025403784439,-0.5,0.));
#369=DIRECTION('',(0.,0.,-1.));
#370=DIRECTION('',(0.866025403784439,-0.5,0.));
#371=DIRECTION('',(0.,0.,-1.));
#372=DIRECTION('',(1.,0.,0.));
#373=DIRECTION('',(0.,0.,-1.));
#374=DIRECTION('',(0.,-1.,0.));
#375=DIRECTION('',(0.,-1.,0.));
#376=DIRECTION('',(0.,0.,-1.));
#377=DIRECTION('',(0.5,-0.866025403784438,0.));
#378=DIRECTION('',(0.866025403784438,0.5,0.));
#379=DIRECTION('',(-0.866025403784438,-0.5,0.));
#380=DIRECTION('',(-0.866025403784438,-0.5,0.));
#381=DIRECTION('',(0.,0.,-1.));
#382=DIRECTION('',(-0.5,-0.866025403784439,0.));
#383=DIRECTION('',(0.866025403784439,-0.5,0.));
#384=DIRECTION('',(-0.866025403784439,0.5,0.));
#385=DIRECTION('',(-0.866025403784439,0.5,0.));
#386=DIRECTION('',(0.,0.,-1.));
#387=DIRECTION('',(-1.,-8.83714469845389E-16,0.));
#388=DIRECTION('',(8.83714469845389E-16,-1.,0.));
#389=DIRECTION('',(-8.83714469845389E-16,1.,0.));
#390=DIRECTION('',(-8.83714469845389E-16,1.,0.));
#391=DIRECTION('',(0.,0.,-1.));
#392=DIRECTION('',(-0.5,0.866025403784438,0.));
#393=DIRECTION('',(-0.866025403784438,-0.5,0.));
#394=DIRECTION('',(0.866025403784438,0.5,0.));
#395=DIRECTION('',(0.866025403784438,0.5,0.));
#396=DIRECTION('',(0.,0.,-1.));
#397=DIRECTION('',(1.,0.,0.));
#398=DIRECTION('',(0.,0.,-1.));
#399=DIRECTION('',(1.,0.,0.));
#400=DIRECTION('',(0.,0.,-1.));
#401=DIRECTION('',(-1.,0.,0.));
#402=DIRECTION('',(0.,0.,1.));
#403=DIRECTION('',(1.,0.,0.));
#404=DIRECTION('',(0.,0.,-1.));
#405=DIRECTION('',(-1.,0.,0.));
#406=DIRECTION('',(0.,0.,-1.));
#407=DIRECTION('',(1.,0.,0.));
#408=DIRECTION('',(0.866025403784439,-0.5,0.));
#409=DIRECTION('',(0.866025403784438,0.5,0.));
#410=DIRECTION('',(-8.46374421823751E-16,1.,0.));
#411=DIRECTION('',(-0.86602540378444,0.5,0.));
#412=DIRECTION('',(-0.866025403784438,-0.5,0.));
#413=DIRECTION('',(0.,-1.,0.));
#414=DIRECTION('',(0.,0.,-1.));
#415=DIRECTION('',(1.,0.,0.));
#416=DIRECTION('',(0.5,0.866025403784439,0.));
#417=DIRECTION('',(-0.866025403784439,0.5,0.));
#418=DIRECTION('',(0.,0.,-1.));
#419=DIRECTION('',(0.866025403784439,-0.5,0.));
#420=DIRECTION('',(0.,0.,-1.));
#421=DIRECTION('',(1.,0.,0.));
#422=DIRECTION('',(0.,0.,-1.));
#423=DIRECTION('',(0.,0.,-1.));
#424=DIRECTION('',(0.,-1.,0.));
#425=DIRECTION('',(0.5,-0.866025403784438,0.));
#426=DIRECTION('',(0.866025403784438,0.5,0.));
#427=DIRECTION('',(0.,0.,-1.));
#428=DIRECTION('',(-0.866025403784438,-0.5,0.));
#429=DIRECTION('',(-0.5,-0.86602540378444,0.));
#430=DIRECTION('',(0.86602540378444,-0.5,0.));
#431=DIRECTION('',(0.,0.,-1.));
#432=DIRECTION('',(-0.86602540378444,0.5,0.));
#433=DIRECTION('',(-1.,-8.46374421823751E-16,0.));
#434=DIRECTION('',(8.46374421823751E-16,-1.,0.));
#435=DIRECTION('',(0.,0.,-1.));
#436=DIRECTION('',(-8.46374421823751E-16,1.,0.));
#437=DIRECTION('',(-0.5,0.866025403784438,0.));
#438=DIRECTION('',(-0.866025403784438,-0.5,0.));
#439=DIRECTION('',(0.866025403784438,0.5,0.));
#440=DIRECTION('',(0.,0.,-1.));
#441=DIRECTION('',(1.,0.,0.));
#442=CARTESIAN_POINT('',(0.,0.,0.));
#443=CARTESIAN_POINT('',(0.01875,-0.0425,0.0045));
#444=CARTESIAN_POINT('',(0.01875,-0.0425,0.0045));
#445=CARTESIAN_POINT('',(0.0167,-0.0425,0.0045));
#446=CARTESIAN_POINT('',(0.01875,-0.0425,-0.006));
#447=CARTESIAN_POINT('',(0.0167,-0.0425,-0.006));
#448=CARTESIAN_POINT('',(0.02045,-0.0395555136271329,0.0045));
#449=CARTESIAN_POINT('',(0.02045,-0.0395555136271329,0.002));
#450=CARTESIAN_POINT('',(0.01875,-0.0385740181695106,0.002));
#451=CARTESIAN_POINT('',(0.02215,-0.0405370090847553,0.002));
#452=CARTESIAN_POINT('',(0.01875,-0.0385740181695106,0.0045));
#453=CARTESIAN_POINT('',(0.01875,-0.0385740181695106,0.0045));
#454=CARTESIAN_POINT('',(0.02045,-0.0395555136271329,0.0045));
#455=CARTESIAN_POINT('',(0.02215,-0.0405370090847553,0.0045));
#456=CARTESIAN_POINT('',(0.02215,-0.0405370090847553,0.0045));
#457=CARTESIAN_POINT('',(0.02215,-0.0425,0.0045));
#458=CARTESIAN_POINT('',(0.02215,-0.0425,0.002));
#459=CARTESIAN_POINT('',(0.02215,-0.0444629909152447,0.002));
#460=CARTESIAN_POINT('',(0.02215,-0.0425,0.0045));
#461=CARTESIAN_POINT('',(0.02215,-0.0444629909152447,0.0045));
#462=CARTESIAN_POINT('',(0.02215,-0.0444629909152447,0.0045));
#463=CARTESIAN_POINT('',(0.02045,-0.0454444863728671,0.0045));
#464=CARTESIAN_POINT('',(0.02045,-0.0454444863728671,0.002));
#465=CARTESIAN_POINT('',(0.01875,-0.0464259818304895,0.002));
#466=CARTESIAN_POINT('',(0.02045,-0.0454444863728671,0.0045));
#467=CARTESIAN_POINT('',(0.01875,-0.0464259818304895,0.0045));
#468=CARTESIAN_POINT('',(0.01875,-0.0464259818304895,0.0045));
#469=CARTESIAN_POINT('',(0.01705,-0.0454444863728671,0.0045));
#470=CARTESIAN_POINT('',(0.01705,-0.0454444863728671,0.002));
#471=CARTESIAN_POINT('',(0.01535,-0.0444629909152447,0.002));
#472=CARTESIAN_POINT('',(0.01705,-0.0454444863728671,0.0045));
#473=CARTESIAN_POINT('',(0.01535,-0.0444629909152447,0.0045));
#474=CARTESIAN_POINT('',(0.01535,-0.0444629909152447,0.0045));
#475=CARTESIAN_POINT('',(0.01535,-0.0425,0.0045));
#476=CARTESIAN_POINT('',(0.01535,-0.0425,0.002));
#477=CARTESIAN_POINT('',(0.01535,-0.0405370090847553,0.002));
#478=CARTESIAN_POINT('',(0.01535,-0.0425,0.0045));
#479=CARTESIAN_POINT('',(0.01535,-0.0405370090847553,0.0045));
#480=CARTESIAN_POINT('',(0.01535,-0.0405370090847553,0.0045));
#481=CARTESIAN_POINT('',(0.01705,-0.0395555136271329,0.0045));
#482=CARTESIAN_POINT('',(0.01705,-0.0395555136271329,0.002));
#483=CARTESIAN_POINT('',(0.01705,-0.0395555136271329,0.0045));
#484=CARTESIAN_POINT('',(0.,-0.04375,0.0045));
#485=CARTESIAN_POINT('',(0.01875,-0.0425,0.002));
#486=CARTESIAN_POINT('',(0.01875,-0.0425,0.002));
#487=CARTESIAN_POINT('',(0.01375,-0.0425,0.002));
#488=CARTESIAN_POINT('',(0.01875,-0.0425,-0.051));
#489=CARTESIAN_POINT('',(0.01875,-0.0425,-0.051));
#490=CARTESIAN_POINT('',(0.01375,-0.0425,-0.051));
#491=CARTESIAN_POINT('',(0.01875,-0.0425,-0.051));
#492=CARTESIAN_POINT('',(0.020525,-0.0394256098165652,-0.051));
#493=CARTESIAN_POINT('',(0.01875,-0.0384008130887536,-0.051));
#494=CARTESIAN_POINT('',(0.0223,-0.0404504065443768,-0.051));
#495=CARTESIAN_POINT('',(0.016975,-0.0394256098165652,-0.051));
#496=CARTESIAN_POINT('',(0.0152,-0.0404504065443768,-0.051));
#497=CARTESIAN_POINT('',(0.0152,-0.0425,-0.051));
#498=CARTESIAN_POINT('',(0.0152,-0.0445495934556231,-0.051));
#499=CARTESIAN_POINT('',(0.016975,-0.0455743901834348,-0.051));
#500=CARTESIAN_POINT('',(0.01875,-0.0465991869112464,-0.051));
#501=CARTESIAN_POINT('',(0.020525,-0.0455743901834348,-0.051));
#502=CARTESIAN_POINT('',(0.0223,-0.0445495934556232,-0.051));
#503=CARTESIAN_POINT('',(0.0223,-0.0425,-0.051));
#504=CARTESIAN_POINT('',(0.01875,-0.0425,-0.006));
#505=CARTESIAN_POINT('',(0.020525,-0.0394256098165652,-0.044));
#506=CARTESIAN_POINT('',(0.0223,-0.0404504065443768,-0.044));
#507=CARTESIAN_POINT('',(0.0223,-0.0404504065443768,-0.044));
#508=CARTESIAN_POINT('',(0.020525,-0.0394256098165652,-0.044));
#509=CARTESIAN_POINT('',(0.01875,-0.0384008130887536,-0.044));
#510=CARTESIAN_POINT('',(0.01875,-0.0384008130887536,-0.044));
#511=CARTESIAN_POINT('',(0.0223,-0.0425,-0.044));
#512=CARTESIAN_POINT('',(0.0223,-0.0445495934556232,-0.044));
#513=CARTESIAN_POINT('',(0.0223,-0.0445495934556232,-0.044));
#514=CARTESIAN_POINT('',(0.0223,-0.0425,-0.044));
#515=CARTESIAN_POINT('',(0.020525,-0.0455743901834348,-0.044));
#516=CARTESIAN_POINT('',(0.01875,-0.0465991869112464,-0.044));
#517=CARTESIAN_POINT('',(0.01875,-0.0465991869112464,-0.044));
#518=CARTESIAN_POINT('',(0.020525,-0.0455743901834348,-0.044));
#519=CARTESIAN_POINT('',(0.016975,-0.0455743901834348,-0.044));
#520=CARTESIAN_POINT('',(0.0152,-0.0445495934556231,-0.044));
#521=CARTESIAN_POINT('',(0.0152,-0.0445495934556231,-0.044));
#522=CARTESIAN_POINT('',(0.016975,-0.0455743901834348,-0.044));
#523=CARTESIAN_POINT('',(0.0152,-0.0425,-0.044));
#524=CARTESIAN_POINT('',(0.0152,-0.0404504065443768,-0.044));
#525=CARTESIAN_POINT('',(0.0152,-0.0404504065443768,-0.044));
#526=CARTESIAN_POINT('',(0.0152,-0.0425,-0.044));
#527=CARTESIAN_POINT('',(0.016975,-0.0394256098165652,-0.044));
#528=CARTESIAN_POINT('',(0.016975,-0.0394256098165652,-0.044));
#529=CARTESIAN_POINT('',(0.01875,-0.0425,-0.044));
#530=MECHANICAL_DESIGN_GEOMETRIC_PRESENTATION_REPRESENTATION('',(#323),
#531);
#531=(
GEOMETRIC_REPRESENTATION_CONTEXT(3)
GLOBAL_UNCERTAINTY_ASSIGNED_CONTEXT((#532))
GLOBAL_UNIT_ASSIGNED_CONTEXT((#535,#534,#533))
REPRESENTATION_CONTEXT('(Axle) Drive input pulley',
'TOP_LEVEL_ASSEMBLY_PART')
);
#532=UNCERTAINTY_MEASURE_WITH_UNIT(LENGTH_MEASURE(1.E-8),#535,
'DISTANCE_ACCURACY_VALUE','Maximum Tolerance applied to model');
#533=(
NAMED_UNIT(*)
SI_UNIT($,.STERADIAN.)
SOLID_ANGLE_UNIT()
);
#534=(
NAMED_UNIT(*)
PLANE_ANGLE_UNIT()
SI_UNIT($,.RADIAN.)
);
#535=(
LENGTH_UNIT()
NAMED_UNIT(*)
SI_UNIT($,.METRE.)
);
#536=PRODUCT_DEFINITION_SHAPE('','',#537);
#537=PRODUCT_DEFINITION('','',#539,#538);
#538=PRODUCT_DEFINITION_CONTEXT('',#545,'design');
#539=PRODUCT_DEFINITION_FORMATION_WITH_SPECIFIED_SOURCE('','',#541,
 .NOT_KNOWN.);
#540=PRODUCT_RELATED_PRODUCT_CATEGORY('','',(#541));
#541=PRODUCT('(Axle) Drive input pulley','(Axle) Drive input pulley',
'(Axle) Drive input pulley',(#543));
#542=PRODUCT_CATEGORY('','');
#543=PRODUCT_CONTEXT('',#545,'mechanical');
#544=APPLICATION_PROTOCOL_DEFINITION('international standard',
'ap242_managed_model_based_3d_engineering',2020,#545);
#545=APPLICATION_CONTEXT('managed model based 3d engineering');
ENDSEC;
END-ISO-10303-21;
