ISO-10303-21;
HEADER;
/* Generated by software containing ST-Developer
 * from STEP Tools, Inc. (www.steptools.com) 
 */
/* OPTION: using custom renumber hook */

FILE_DESCRIPTION(
/* description */ ('STEP AP242 Edition 2',
'CAx-IF Rec.Pracs.---Representation and Presentation of Product Manufa
cturing Information (PMI)---4.0---2014-10-13',
'CAx-IF Rec.Pracs.---3D Tessellated Geometry---0.4---2014-09-14','2;1',
'CAx-IF Rec.Pracs.---User Defined Attributes---1.5---2016-08-15'),
/* implementation_level */ '2;1');

FILE_NAME(
/* name */ 'Assembly 1 - Module plate 3',
/* time_stamp */ '2026-08-06T04:42:58Z',
/* author */ (''),
/* organization */ (''),
/* preprocessor_version */ 'ST-DEVELOPER v20',
/* originating_system */ 'ONSHAPE BY PTC INC, 1.218',
/* authorisation */ '  ');

FILE_SCHEMA (('AP242_MANAGED_MODEL_BASED_3D_ENGINEERING_MIM_LF { 1 0 10303 442 3 1 4 }'));
ENDSEC;

DATA;
#10=SHAPE_REPRESENTATION_RELATIONSHIP('','',#597,#11);
#11=ADVANCED_BREP_SHAPE_REPRESENTATION('',(#595),#1015);
#12=PLANE('',#602);
#13=PLANE('',#616);
#14=PLANE('',#630);
#15=PLANE('',#631);
#16=PLANE('',#632);
#17=PLANE('',#651);
#18=PLANE('',#652);
#19=PLANE('',#653);
#20=PLANE('',#666);
#21=PLANE('',#667);
#22=PLANE('',#670);
#23=LINE('',#856,#57);
#24=LINE('',#860,#58);
#25=LINE('',#862,#59);
#26=LINE('',#866,#60);
#27=LINE('',#885,#61);
#28=LINE('',#890,#62);
#29=LINE('',#894,#63);
#30=LINE('',#910,#64);
#31=LINE('',#914,#65);
#32=LINE('',#922,#66);
#33=LINE('',#926,#67);
#34=LINE('',#929,#68);
#35=LINE('',#930,#69);
#36=LINE('',#932,#70);
#37=LINE('',#934,#71);
#38=LINE('',#936,#72);
#39=LINE('',#938,#73);
#40=LINE('',#941,#74);
#41=LINE('',#942,#75);
#42=LINE('',#944,#76);
#43=LINE('',#946,#77);
#44=LINE('',#948,#78);
#45=LINE('',#968,#79);
#46=LINE('',#969,#80);
#47=LINE('',#974,#81);
#48=LINE('',#978,#82);
#49=LINE('',#980,#83);
#50=LINE('',#982,#84);
#51=LINE('',#984,#85);
#52=LINE('',#986,#86);
#53=LINE('',#988,#87);
#54=LINE('',#990,#88);
#55=LINE('',#992,#89);
#56=LINE('',#993,#90);
#57=VECTOR('',#677,1.);
#58=VECTOR('',#680,1.);
#59=VECTOR('',#683,1.);
#60=VECTOR('',#686,1.);
#61=VECTOR('',#705,1.);
#62=VECTOR('',#708,1.);
#63=VECTOR('',#711,1.);
#64=VECTOR('',#728,1.);
#65=VECTOR('',#731,1.);
#66=VECTOR('',#738,1.);
#67=VECTOR('',#741,1.);
#68=VECTOR('',#746,1.);
#69=VECTOR('',#747,1.);
#70=VECTOR('',#750,1.);
#71=VECTOR('',#751,1.);
#72=VECTOR('',#752,1.);
#73=VECTOR('',#755,1.);
#74=VECTOR('',#756,1.);
#75=VECTOR('',#757,1.);
#76=VECTOR('',#760,1.);
#77=VECTOR('',#761,1.);
#78=VECTOR('',#762,1.);
#79=VECTOR('',#791,1.);
#80=VECTOR('',#792,1.);
#81=VECTOR('',#799,1.);
#82=VECTOR('',#802,1.);
#83=VECTOR('',#805,1.);
#84=VECTOR('',#806,1.);
#85=VECTOR('',#807,1.);
#86=VECTOR('',#810,1.);
#87=VECTOR('',#811,1.);
#88=VECTOR('',#812,1.);
#89=VECTOR('',#815,1.);
#90=VECTOR('',#816,1.);
#91=ORIENTED_EDGE('',*,*,#241,.F.);
#92=ORIENTED_EDGE('',*,*,#242,.T.);
#93=ORIENTED_EDGE('',*,*,#243,.F.);
#94=ORIENTED_EDGE('',*,*,#244,.F.);
#95=ORIENTED_EDGE('',*,*,#245,.F.);
#96=ORIENTED_EDGE('',*,*,#246,.F.);
#97=ORIENTED_EDGE('',*,*,#247,.F.);
#98=ORIENTED_EDGE('',*,*,#243,.T.);
#99=ORIENTED_EDGE('',*,*,#248,.F.);
#100=ORIENTED_EDGE('',*,*,#249,.F.);
#101=ORIENTED_EDGE('',*,*,#250,.F.);
#102=ORIENTED_EDGE('',*,*,#251,.F.);
#103=ORIENTED_EDGE('',*,*,#252,.F.);
#104=ORIENTED_EDGE('',*,*,#253,.F.);
#105=ORIENTED_EDGE('',*,*,#254,.F.);
#106=ORIENTED_EDGE('',*,*,#255,.F.);
#107=ORIENTED_EDGE('',*,*,#256,.F.);
#108=ORIENTED_EDGE('',*,*,#257,.F.);
#109=ORIENTED_EDGE('',*,*,#258,.T.);
#110=ORIENTED_EDGE('',*,*,#259,.F.);
#111=ORIENTED_EDGE('',*,*,#260,.T.);
#112=ORIENTED_EDGE('',*,*,#261,.T.);
#113=ORIENTED_EDGE('',*,*,#262,.T.);
#114=ORIENTED_EDGE('',*,*,#263,.T.);
#115=ORIENTED_EDGE('',*,*,#264,.T.);
#116=ORIENTED_EDGE('',*,*,#265,.T.);
#117=ORIENTED_EDGE('',*,*,#266,.F.);
#118=ORIENTED_EDGE('',*,*,#267,.F.);
#119=ORIENTED_EDGE('',*,*,#268,.F.);
#120=ORIENTED_EDGE('',*,*,#269,.T.);
#121=ORIENTED_EDGE('',*,*,#270,.T.);
#122=ORIENTED_EDGE('',*,*,#271,.F.);
#123=ORIENTED_EDGE('',*,*,#272,.T.);
#124=ORIENTED_EDGE('',*,*,#273,.T.);
#125=ORIENTED_EDGE('',*,*,#274,.T.);
#126=ORIENTED_EDGE('',*,*,#275,.T.);
#127=ORIENTED_EDGE('',*,*,#276,.T.);
#128=ORIENTED_EDGE('',*,*,#277,.F.);
#129=ORIENTED_EDGE('',*,*,#256,.T.);
#130=ORIENTED_EDGE('',*,*,#265,.F.);
#131=ORIENTED_EDGE('',*,*,#260,.F.);
#132=ORIENTED_EDGE('',*,*,#278,.F.);
#133=ORIENTED_EDGE('',*,*,#268,.T.);
#134=ORIENTED_EDGE('',*,*,#266,.T.);
#135=ORIENTED_EDGE('',*,*,#279,.T.);
#136=ORIENTED_EDGE('',*,*,#277,.T.);
#137=ORIENTED_EDGE('',*,*,#280,.T.);
#138=ORIENTED_EDGE('',*,*,#281,.T.);
#139=ORIENTED_EDGE('',*,*,#282,.T.);
#140=ORIENTED_EDGE('',*,*,#261,.F.);
#141=ORIENTED_EDGE('',*,*,#279,.F.);
#142=ORIENTED_EDGE('',*,*,#283,.F.);
#143=ORIENTED_EDGE('',*,*,#284,.T.);
#144=ORIENTED_EDGE('',*,*,#269,.F.);
#145=ORIENTED_EDGE('',*,*,#278,.T.);
#146=ORIENTED_EDGE('',*,*,#259,.T.);
#147=ORIENTED_EDGE('',*,*,#285,.T.);
#148=ORIENTED_EDGE('',*,*,#286,.T.);
#149=ORIENTED_EDGE('',*,*,#287,.F.);
#150=ORIENTED_EDGE('',*,*,#288,.T.);
#151=ORIENTED_EDGE('',*,*,#257,.T.);
#152=ORIENTED_EDGE('',*,*,#255,.T.);
#153=ORIENTED_EDGE('',*,*,#264,.F.);
#154=ORIENTED_EDGE('',*,*,#254,.T.);
#155=ORIENTED_EDGE('',*,*,#263,.F.);
#156=ORIENTED_EDGE('',*,*,#253,.T.);
#157=ORIENTED_EDGE('',*,*,#289,.F.);
#158=ORIENTED_EDGE('',*,*,#288,.F.);
#159=ORIENTED_EDGE('',*,*,#290,.F.);
#160=ORIENTED_EDGE('',*,*,#285,.F.);
#161=ORIENTED_EDGE('',*,*,#258,.F.);
#162=ORIENTED_EDGE('',*,*,#282,.F.);
#163=ORIENTED_EDGE('',*,*,#291,.F.);
#164=ORIENTED_EDGE('',*,*,#286,.F.);
#165=ORIENTED_EDGE('',*,*,#262,.F.);
#166=ORIENTED_EDGE('',*,*,#252,.T.);
#167=ORIENTED_EDGE('',*,*,#292,.F.);
#168=ORIENTED_EDGE('',*,*,#251,.T.);
#169=ORIENTED_EDGE('',*,*,#293,.F.);
#170=ORIENTED_EDGE('',*,*,#294,.F.);
#171=ORIENTED_EDGE('',*,*,#295,.T.);
#172=ORIENTED_EDGE('',*,*,#246,.T.);
#173=ORIENTED_EDGE('',*,*,#296,.F.);
#174=ORIENTED_EDGE('',*,*,#250,.T.);
#175=ORIENTED_EDGE('',*,*,#297,.F.);
#176=ORIENTED_EDGE('',*,*,#273,.F.);
#177=ORIENTED_EDGE('',*,*,#298,.T.);
#178=ORIENTED_EDGE('',*,*,#299,.T.);
#179=ORIENTED_EDGE('',*,*,#300,.T.);
#180=ORIENTED_EDGE('',*,*,#271,.T.);
#181=ORIENTED_EDGE('',*,*,#301,.T.);
#182=ORIENTED_EDGE('',*,*,#302,.F.);
#183=ORIENTED_EDGE('',*,*,#303,.T.);
#184=ORIENTED_EDGE('',*,*,#275,.F.);
#185=ORIENTED_EDGE('',*,*,#304,.T.);
#186=ORIENTED_EDGE('',*,*,#305,.T.);
#187=ORIENTED_EDGE('',*,*,#306,.T.);
#188=ORIENTED_EDGE('',*,*,#307,.F.);
#189=ORIENTED_EDGE('',*,*,#241,.T.);
#190=ORIENTED_EDGE('',*,*,#308,.F.);
#191=ORIENTED_EDGE('',*,*,#294,.T.);
#192=ORIENTED_EDGE('',*,*,#309,.F.);
#193=ORIENTED_EDGE('',*,*,#310,.F.);
#194=ORIENTED_EDGE('',*,*,#292,.T.);
#195=ORIENTED_EDGE('',*,*,#293,.T.);
#196=ORIENTED_EDGE('',*,*,#297,.T.);
#197=ORIENTED_EDGE('',*,*,#302,.T.);
#198=ORIENTED_EDGE('',*,*,#311,.T.);
#199=ORIENTED_EDGE('',*,*,#283,.T.);
#200=ORIENTED_EDGE('',*,*,#290,.T.);
#201=ORIENTED_EDGE('',*,*,#287,.T.);
#202=ORIENTED_EDGE('',*,*,#291,.T.);
#203=ORIENTED_EDGE('',*,*,#281,.F.);
#204=ORIENTED_EDGE('',*,*,#312,.T.);
#205=ORIENTED_EDGE('',*,*,#305,.F.);
#206=ORIENTED_EDGE('',*,*,#313,.T.);
#207=ORIENTED_EDGE('',*,*,#299,.F.);
#208=ORIENTED_EDGE('',*,*,#314,.T.);
#209=ORIENTED_EDGE('',*,*,#311,.F.);
#210=ORIENTED_EDGE('',*,*,#301,.F.);
#211=ORIENTED_EDGE('',*,*,#270,.F.);
#212=ORIENTED_EDGE('',*,*,#284,.F.);
#213=ORIENTED_EDGE('',*,*,#314,.F.);
#214=ORIENTED_EDGE('',*,*,#298,.F.);
#215=ORIENTED_EDGE('',*,*,#272,.F.);
#216=ORIENTED_EDGE('',*,*,#303,.F.);
#217=ORIENTED_EDGE('',*,*,#313,.F.);
#218=ORIENTED_EDGE('',*,*,#304,.F.);
#219=ORIENTED_EDGE('',*,*,#274,.F.);
#220=ORIENTED_EDGE('',*,*,#300,.F.);
#221=ORIENTED_EDGE('',*,*,#312,.F.);
#222=ORIENTED_EDGE('',*,*,#280,.F.);
#223=ORIENTED_EDGE('',*,*,#276,.F.);
#224=ORIENTED_EDGE('',*,*,#306,.F.);
#225=ORIENTED_EDGE('',*,*,#249,.T.);
#226=ORIENTED_EDGE('',*,*,#310,.T.);
#227=ORIENTED_EDGE('',*,*,#248,.T.);
#228=ORIENTED_EDGE('',*,*,#309,.T.);
#229=ORIENTED_EDGE('',*,*,#308,.T.);
#230=ORIENTED_EDGE('',*,*,#244,.T.);
#231=ORIENTED_EDGE('',*,*,#247,.T.);
#232=ORIENTED_EDGE('',*,*,#295,.F.);
#233=ORIENTED_EDGE('',*,*,#307,.T.);
#234=ORIENTED_EDGE('',*,*,#296,.T.);
#235=ORIENTED_EDGE('',*,*,#245,.T.);
#236=ORIENTED_EDGE('',*,*,#242,.F.);
#237=ORIENTED_EDGE('',*,*,#315,.F.);
#238=ORIENTED_EDGE('',*,*,#267,.T.);
#239=ORIENTED_EDGE('',*,*,#289,.T.);
#240=ORIENTED_EDGE('',*,*,#315,.T.);
#241=EDGE_CURVE('',#316,#317,#372,.F.);
#242=EDGE_CURVE('',#316,#318,#23,.T.);
#243=EDGE_CURVE('',#319,#318,#373,.F.);
#244=EDGE_CURVE('',#317,#319,#24,.T.);
#245=EDGE_CURVE('',#320,#318,#25,.T.);
#246=EDGE_CURVE('',#321,#320,#374,.T.);
#247=EDGE_CURVE('',#319,#321,#26,.T.);
#248=EDGE_CURVE('',#322,#322,#375,.T.);
#249=EDGE_CURVE('',#323,#323,#376,.T.);
#250=EDGE_CURVE('',#324,#324,#377,.T.);
#251=EDGE_CURVE('',#325,#325,#378,.T.);
#252=EDGE_CURVE('',#326,#326,#379,.T.);
#253=EDGE_CURVE('',#327,#327,#380,.T.);
#254=EDGE_CURVE('',#328,#328,#381,.T.);
#255=EDGE_CURVE('',#329,#329,#382,.T.);
#256=EDGE_CURVE('',#330,#330,#383,.T.);
#257=EDGE_CURVE('',#331,#332,#27,.T.);
#258=EDGE_CURVE('',#331,#333,#384,.T.);
#259=EDGE_CURVE('',#334,#333,#28,.T.);
#260=EDGE_CURVE('',#334,#335,#385,.T.);
#261=EDGE_CURVE('',#335,#336,#29,.T.);
#262=EDGE_CURVE('',#336,#332,#386,.T.);
#263=EDGE_CURVE('',#337,#337,#387,.T.);
#264=EDGE_CURVE('',#338,#338,#388,.T.);
#265=EDGE_CURVE('',#339,#339,#389,.T.);
#266=EDGE_CURVE('',#340,#341,#390,.T.);
#267=EDGE_CURVE('',#340,#340,#391,.T.);
#268=EDGE_CURVE('',#342,#340,#392,.T.);
#269=EDGE_CURVE('',#342,#343,#30,.T.);
#270=EDGE_CURVE('',#343,#344,#393,.T.);
#271=EDGE_CURVE('',#345,#344,#31,.T.);
#272=EDGE_CURVE('',#345,#346,#394,.T.);
#273=EDGE_CURVE('',#346,#347,#395,.T.);
#274=EDGE_CURVE('',#347,#348,#396,.T.);
#275=EDGE_CURVE('',#348,#349,#32,.T.);
#276=EDGE_CURVE('',#349,#350,#397,.T.);
#277=EDGE_CURVE('',#341,#350,#33,.T.);
#278=EDGE_CURVE('',#342,#334,#34,.T.);
#279=EDGE_CURVE('',#341,#335,#35,.T.);
#280=EDGE_CURVE('',#350,#351,#36,.F.);
#281=EDGE_CURVE('',#351,#352,#37,.T.);
#282=EDGE_CURVE('',#352,#336,#38,.T.);
#283=EDGE_CURVE('',#353,#354,#39,.T.);
#284=EDGE_CURVE('',#353,#343,#40,.T.);
#285=EDGE_CURVE('',#333,#354,#41,.F.);
#286=EDGE_CURVE('',#332,#355,#42,.F.);
#287=EDGE_CURVE('',#356,#355,#43,.T.);
#288=EDGE_CURVE('',#356,#331,#44,.T.);
#289=EDGE_CURVE('',#357,#357,#398,.T.);
#290=EDGE_CURVE('',#354,#356,#399,.F.);
#291=EDGE_CURVE('',#355,#352,#400,.F.);
#292=EDGE_CURVE('',#358,#358,#401,.T.);
#293=EDGE_CURVE('',#359,#359,#402,.T.);
#294=EDGE_CURVE('',#360,#361,#403,.T.);
#295=EDGE_CURVE('',#360,#321,#45,.T.);
#296=EDGE_CURVE('',#361,#320,#46,.T.);
#297=EDGE_CURVE('',#362,#362,#404,.T.);
#298=EDGE_CURVE('',#346,#363,#47,.F.);
#299=EDGE_CURVE('',#363,#364,#405,.T.);
#300=EDGE_CURVE('',#364,#347,#48,.T.);
#301=EDGE_CURVE('',#344,#365,#49,.F.);
#302=EDGE_CURVE('',#366,#365,#50,.T.);
#303=EDGE_CURVE('',#366,#345,#51,.F.);
#304=EDGE_CURVE('',#348,#367,#52,.F.);
#305=EDGE_CURVE('',#367,#368,#53,.T.);
#306=EDGE_CURVE('',#368,#349,#54,.T.);
#307=EDGE_CURVE('',#316,#361,#55,.T.);
#308=EDGE_CURVE('',#360,#317,#56,.T.);
#309=EDGE_CURVE('',#369,#369,#406,.T.);
#310=EDGE_CURVE('',#370,#370,#407,.T.);
#311=EDGE_CURVE('',#365,#353,#408,.T.);
#312=EDGE_CURVE('',#351,#368,#409,.T.);
#313=EDGE_CURVE('',#367,#364,#410,.T.);
#314=EDGE_CURVE('',#363,#366,#411,.T.);
#315=EDGE_CURVE('',#371,#371,#412,.T.);
#316=VERTEX_POINT('',#854);
#317=VERTEX_POINT('',#855);
#318=VERTEX_POINT('',#857);
#319=VERTEX_POINT('',#859);
#320=VERTEX_POINT('',#863);
#321=VERTEX_POINT('',#865);
#322=VERTEX_POINT('',#868);
#323=VERTEX_POINT('',#870);
#324=VERTEX_POINT('',#872);
#325=VERTEX_POINT('',#874);
#326=VERTEX_POINT('',#876);
#327=VERTEX_POINT('',#878);
#328=VERTEX_POINT('',#880);
#329=VERTEX_POINT('',#882);
#330=VERTEX_POINT('',#884);
#331=VERTEX_POINT('',#886);
#332=VERTEX_POINT('',#887);
#333=VERTEX_POINT('',#889);
#334=VERTEX_POINT('',#891);
#335=VERTEX_POINT('',#893);
#336=VERTEX_POINT('',#895);
#337=VERTEX_POINT('',#899);
#338=VERTEX_POINT('',#901);
#339=VERTEX_POINT('',#903);
#340=VERTEX_POINT('',#905);
#341=VERTEX_POINT('',#906);
#342=VERTEX_POINT('',#909);
#343=VERTEX_POINT('',#911);
#344=VERTEX_POINT('',#913);
#345=VERTEX_POINT('',#915);
#346=VERTEX_POINT('',#917);
#347=VERTEX_POINT('',#919);
#348=VERTEX_POINT('',#921);
#349=VERTEX_POINT('',#923);
#350=VERTEX_POINT('',#925);
#351=VERTEX_POINT('',#933);
#352=VERTEX_POINT('',#935);
#353=VERTEX_POINT('',#939);
#354=VERTEX_POINT('',#940);
#355=VERTEX_POINT('',#945);
#356=VERTEX_POINT('',#947);
#357=VERTEX_POINT('',#953);
#358=VERTEX_POINT('',#960);
#359=VERTEX_POINT('',#963);
#360=VERTEX_POINT('',#966);
#361=VERTEX_POINT('',#967);
#362=VERTEX_POINT('',#972);
#363=VERTEX_POINT('',#975);
#364=VERTEX_POINT('',#977);
#365=VERTEX_POINT('',#981);
#366=VERTEX_POINT('',#983);
#367=VERTEX_POINT('',#987);
#368=VERTEX_POINT('',#989);
#369=VERTEX_POINT('',#995);
#370=VERTEX_POINT('',#997);
#371=VERTEX_POINT('',#1012);
#372=CIRCLE('',#600,0.00705);
#373=CIRCLE('',#601,0.00705);
#374=CIRCLE('',#603,0.00705);
#375=CIRCLE('',#604,0.00225);
#376=CIRCLE('',#605,0.00225);
#377=CIRCLE('',#606,0.00225);
#378=CIRCLE('',#607,0.00225);
#379=CIRCLE('',#608,0.00705);
#380=CIRCLE('',#609,0.00225);
#381=CIRCLE('',#610,0.00225);
#382=CIRCLE('',#611,0.00225);
#383=CIRCLE('',#612,0.0275);
#384=CIRCLE('',#613,0.0035);
#385=CIRCLE('',#614,0.0375);
#386=CIRCLE('',#615,0.0035);
#387=CIRCLE('',#617,0.00225);
#388=CIRCLE('',#618,0.00225);
#389=CIRCLE('',#619,0.0275);
#390=CIRCLE('',#620,0.0375);
#391=CIRCLE('',#621,0.0035);
#392=CIRCLE('',#622,0.0375);
#393=CIRCLE('',#623,0.0035);
#394=CIRCLE('',#624,0.0035);
#395=CIRCLE('',#625,0.0305);
#396=CIRCLE('',#626,0.0035);
#397=CIRCLE('',#627,0.0035);
#398=CIRCLE('',#636,0.00225);
#399=CIRCLE('',#638,0.0035);
#400=CIRCLE('',#640,0.0035);
#401=CIRCLE('',#642,0.00705);
#402=CIRCLE('',#644,0.00225);
#403=CIRCLE('',#646,0.00705);
#404=CIRCLE('',#648,0.00225);
#405=CIRCLE('',#650,0.0305);
#406=CIRCLE('',#654,0.00225);
#407=CIRCLE('',#655,0.00225);
#408=CIRCLE('',#656,0.0035);
#409=CIRCLE('',#657,0.0035);
#410=CIRCLE('',#658,0.0035);
#411=CIRCLE('',#659,0.0035);
#412=CIRCLE('',#669,0.0035);
#413=EDGE_LOOP('',(#91,#92,#93,#94));
#414=EDGE_LOOP('',(#95,#96,#97,#98));
#415=EDGE_LOOP('',(#99));
#416=EDGE_LOOP('',(#100));
#417=EDGE_LOOP('',(#101));
#418=EDGE_LOOP('',(#102));
#419=EDGE_LOOP('',(#103));
#420=EDGE_LOOP('',(#104));
#421=EDGE_LOOP('',(#105));
#422=EDGE_LOOP('',(#106));
#423=EDGE_LOOP('',(#107));
#424=EDGE_LOOP('',(#108,#109,#110,#111,#112,#113));
#425=EDGE_LOOP('',(#114));
#426=EDGE_LOOP('',(#115));
#427=EDGE_LOOP('',(#116));
#428=EDGE_LOOP('',(#117,#118,#119,#120,#121,#122,#123,#124,#125,#126,#127,
#128));
#429=EDGE_LOOP('',(#129));
#430=EDGE_LOOP('',(#130));
#431=EDGE_LOOP('',(#131,#132,#133,#134,#135));
#432=EDGE_LOOP('',(#136,#137,#138,#139,#140,#141));
#433=EDGE_LOOP('',(#142,#143,#144,#145,#146,#147));
#434=EDGE_LOOP('',(#148,#149,#150,#151));
#435=EDGE_LOOP('',(#152));
#436=EDGE_LOOP('',(#153));
#437=EDGE_LOOP('',(#154));
#438=EDGE_LOOP('',(#155));
#439=EDGE_LOOP('',(#156));
#440=EDGE_LOOP('',(#157));
#441=EDGE_LOOP('',(#158,#159,#160,#161));
#442=EDGE_LOOP('',(#162,#163,#164,#165));
#443=EDGE_LOOP('',(#166));
#444=EDGE_LOOP('',(#167));
#445=EDGE_LOOP('',(#168));
#446=EDGE_LOOP('',(#169));
#447=EDGE_LOOP('',(#170,#171,#172,#173));
#448=EDGE_LOOP('',(#174));
#449=EDGE_LOOP('',(#175));
#450=EDGE_LOOP('',(#176,#177,#178,#179));
#451=EDGE_LOOP('',(#180,#181,#182,#183));
#452=EDGE_LOOP('',(#184,#185,#186,#187));
#453=EDGE_LOOP('',(#188,#189,#190,#191));
#454=EDGE_LOOP('',(#192));
#455=EDGE_LOOP('',(#193));
#456=EDGE_LOOP('',(#194));
#457=EDGE_LOOP('',(#195));
#458=EDGE_LOOP('',(#196));
#459=EDGE_LOOP('',(#197,#198,#199,#200,#201,#202,#203,#204,#205,#206,#207,
#208));
#460=EDGE_LOOP('',(#209,#210,#211,#212));
#461=EDGE_LOOP('',(#213,#214,#215,#216));
#462=EDGE_LOOP('',(#217,#218,#219,#220));
#463=EDGE_LOOP('',(#221,#222,#223,#224));
#464=EDGE_LOOP('',(#225));
#465=EDGE_LOOP('',(#226));
#466=EDGE_LOOP('',(#227));
#467=EDGE_LOOP('',(#228));
#468=EDGE_LOOP('',(#229,#230,#231,#232));
#469=EDGE_LOOP('',(#233,#234,#235,#236));
#470=EDGE_LOOP('',(#237));
#471=EDGE_LOOP('',(#238));
#472=EDGE_LOOP('',(#239));
#473=EDGE_LOOP('',(#240));
#474=FACE_BOUND('',#413,.T.);
#475=FACE_BOUND('',#414,.T.);
#476=FACE_BOUND('',#415,.T.);
#477=FACE_BOUND('',#416,.T.);
#478=FACE_BOUND('',#417,.T.);
#479=FACE_BOUND('',#418,.T.);
#480=FACE_BOUND('',#419,.T.);
#481=FACE_BOUND('',#420,.T.);
#482=FACE_BOUND('',#421,.T.);
#483=FACE_BOUND('',#422,.T.);
#484=FACE_BOUND('',#423,.T.);
#485=FACE_BOUND('',#424,.T.);
#486=FACE_BOUND('',#425,.T.);
#487=FACE_BOUND('',#426,.T.);
#488=FACE_BOUND('',#427,.T.);
#489=FACE_BOUND('',#428,.T.);
#490=FACE_BOUND('',#429,.T.);
#491=FACE_BOUND('',#430,.T.);
#492=FACE_BOUND('',#431,.T.);
#493=FACE_BOUND('',#432,.T.);
#494=FACE_BOUND('',#433,.T.);
#495=FACE_BOUND('',#434,.T.);
#496=FACE_BOUND('',#435,.T.);
#497=FACE_BOUND('',#436,.T.);
#498=FACE_BOUND('',#437,.T.);
#499=FACE_BOUND('',#438,.T.);
#500=FACE_BOUND('',#439,.T.);
#501=FACE_BOUND('',#440,.T.);
#502=FACE_BOUND('',#441,.T.);
#503=FACE_BOUND('',#442,.T.);
#504=FACE_BOUND('',#443,.T.);
#505=FACE_BOUND('',#444,.T.);
#506=FACE_BOUND('',#445,.T.);
#507=FACE_BOUND('',#446,.T.);
#508=FACE_BOUND('',#447,.T.);
#509=FACE_BOUND('',#448,.T.);
#510=FACE_BOUND('',#449,.T.);
#511=FACE_BOUND('',#450,.T.);
#512=FACE_BOUND('',#451,.T.);
#513=FACE_BOUND('',#452,.T.);
#514=FACE_BOUND('',#453,.T.);
#515=FACE_BOUND('',#454,.T.);
#516=FACE_BOUND('',#455,.T.);
#517=FACE_BOUND('',#456,.T.);
#518=FACE_BOUND('',#457,.T.);
#519=FACE_BOUND('',#458,.T.);
#520=FACE_BOUND('',#459,.T.);
#521=FACE_BOUND('',#460,.T.);
#522=FACE_BOUND('',#461,.T.);
#523=FACE_BOUND('',#462,.T.);
#524=FACE_BOUND('',#463,.T.);
#525=FACE_BOUND('',#464,.T.);
#526=FACE_BOUND('',#465,.T.);
#527=FACE_BOUND('',#466,.T.);
#528=FACE_BOUND('',#467,.T.);
#529=FACE_BOUND('',#468,.T.);
#530=FACE_BOUND('',#469,.T.);
#531=FACE_BOUND('',#470,.T.);
#532=FACE_BOUND('',#471,.T.);
#533=FACE_BOUND('',#472,.T.);
#534=FACE_BOUND('',#473,.T.);
#535=CYLINDRICAL_SURFACE('',#599,0.00705);
#536=CYLINDRICAL_SURFACE('',#628,0.0275);
#537=CYLINDRICAL_SURFACE('',#629,0.0375);
#538=CYLINDRICAL_SURFACE('',#633,0.00225);
#539=CYLINDRICAL_SURFACE('',#634,0.00225);
#540=CYLINDRICAL_SURFACE('',#635,0.00225);
#541=CYLINDRICAL_SURFACE('',#637,0.0035);
#542=CYLINDRICAL_SURFACE('',#639,0.0035);
#543=CYLINDRICAL_SURFACE('',#641,0.00705);
#544=CYLINDRICAL_SURFACE('',#643,0.00225);
#545=CYLINDRICAL_SURFACE('',#645,0.00705);
#546=CYLINDRICAL_SURFACE('',#647,0.00225);
#547=CYLINDRICAL_SURFACE('',#649,0.0305);
#548=CYLINDRICAL_SURFACE('',#660,0.0035);
#549=CYLINDRICAL_SURFACE('',#661,0.0035);
#550=CYLINDRICAL_SURFACE('',#662,0.0035);
#551=CYLINDRICAL_SURFACE('',#663,0.0035);
#552=CYLINDRICAL_SURFACE('',#664,0.00225);
#553=CYLINDRICAL_SURFACE('',#665,0.00225);
#554=CYLINDRICAL_SURFACE('',#668,0.0035);
#555=ADVANCED_FACE('',(#474),#535,.F.);
#556=ADVANCED_FACE('',(#475,#476,#477,#478,#479,#480,#481,#482,#483,#484,
#485),#12,.T.);
#557=ADVANCED_FACE('',(#486,#487,#488,#489),#13,.F.);
#558=ADVANCED_FACE('',(#490,#491),#536,.F.);
#559=ADVANCED_FACE('',(#492),#537,.T.);
#560=ADVANCED_FACE('',(#493),#14,.T.);
#561=ADVANCED_FACE('',(#494),#15,.F.);
#562=ADVANCED_FACE('',(#495),#16,.F.);
#563=ADVANCED_FACE('',(#496,#497),#538,.F.);
#564=ADVANCED_FACE('',(#498,#499),#539,.F.);
#565=ADVANCED_FACE('',(#500,#501),#540,.F.);
#566=ADVANCED_FACE('',(#502),#541,.T.);
#567=ADVANCED_FACE('',(#503),#542,.T.);
#568=ADVANCED_FACE('',(#504,#505),#543,.F.);
#569=ADVANCED_FACE('',(#506,#507),#544,.F.);
#570=ADVANCED_FACE('',(#508),#545,.F.);
#571=ADVANCED_FACE('',(#509,#510),#546,.F.);
#572=ADVANCED_FACE('',(#511),#547,.F.);
#573=ADVANCED_FACE('',(#512),#17,.F.);
#574=ADVANCED_FACE('',(#513),#18,.T.);
#575=ADVANCED_FACE('',(#514,#515,#516,#517,#518,#519,#520),#19,.T.);
#576=ADVANCED_FACE('',(#521),#548,.T.);
#577=ADVANCED_FACE('',(#522),#549,.T.);
#578=ADVANCED_FACE('',(#523),#550,.T.);
#579=ADVANCED_FACE('',(#524),#551,.T.);
#580=ADVANCED_FACE('',(#525,#526),#552,.F.);
#581=ADVANCED_FACE('',(#527,#528),#553,.F.);
#582=ADVANCED_FACE('',(#529),#20,.F.);
#583=ADVANCED_FACE('',(#530),#21,.F.);
#584=ADVANCED_FACE('',(#531,#532),#554,.T.);
#585=ADVANCED_FACE('',(#533,#534),#22,.T.);
#586=CLOSED_SHELL('',(#555,#556,#557,#558,#559,#560,#561,#562,#563,#564,
#565,#566,#567,#568,#569,#570,#571,#572,#573,#574,#575,#576,#577,#578,#579,
#580,#581,#582,#583,#584,#585));
#587=STYLED_ITEM('',(#588),#595);
#588=PRESENTATION_STYLE_ASSIGNMENT((#589));
#589=SURFACE_STYLE_USAGE(.BOTH.,#590);
#590=SURFACE_SIDE_STYLE('',(#591));
#591=SURFACE_STYLE_FILL_AREA(#592);
#592=FILL_AREA_STYLE('',(#593));
#593=FILL_AREA_STYLE_COLOUR('',#594);
#594=COLOUR_RGB('',0.301960784313725,0.301960784313725,0.301960784313725);
#595=MANIFOLD_SOLID_BREP('Module plate 3',#586);
#596=SHAPE_DEFINITION_REPRESENTATION(#1020,#597);
#597=SHAPE_REPRESENTATION('Module plate 3',(#598),#1015);
#598=AXIS2_PLACEMENT_3D('',#851,#671,#672);
#599=AXIS2_PLACEMENT_3D('',#852,#673,#674);
#600=AXIS2_PLACEMENT_3D('',#853,#675,#676);
#601=AXIS2_PLACEMENT_3D('',#858,#678,#679);
#602=AXIS2_PLACEMENT_3D('',#861,#681,#682);
#603=AXIS2_PLACEMENT_3D('',#864,#684,#685);
#604=AXIS2_PLACEMENT_3D('',#867,#687,#688);
#605=AXIS2_PLACEMENT_3D('',#869,#689,#690);
#606=AXIS2_PLACEMENT_3D('',#871,#691,#692);
#607=AXIS2_PLACEMENT_3D('',#873,#693,#694);
#608=AXIS2_PLACEMENT_3D('',#875,#695,#696);
#609=AXIS2_PLACEMENT_3D('',#877,#697,#698);
#610=AXIS2_PLACEMENT_3D('',#879,#699,#700);
#611=AXIS2_PLACEMENT_3D('',#881,#701,#702);
#612=AXIS2_PLACEMENT_3D('',#883,#703,#704);
#613=AXIS2_PLACEMENT_3D('',#888,#706,#707);
#614=AXIS2_PLACEMENT_3D('',#892,#709,#710);
#615=AXIS2_PLACEMENT_3D('',#896,#712,#713);
#616=AXIS2_PLACEMENT_3D('',#897,#714,#715);
#617=AXIS2_PLACEMENT_3D('',#898,#716,#717);
#618=AXIS2_PLACEMENT_3D('',#900,#718,#719);
#619=AXIS2_PLACEMENT_3D('',#902,#720,#721);
#620=AXIS2_PLACEMENT_3D('',#904,#722,#723);
#621=AXIS2_PLACEMENT_3D('',#907,#724,#725);
#622=AXIS2_PLACEMENT_3D('',#908,#726,#727);
#623=AXIS2_PLACEMENT_3D('',#912,#729,#730);
#624=AXIS2_PLACEMENT_3D('',#916,#732,#733);
#625=AXIS2_PLACEMENT_3D('',#918,#734,#735);
#626=AXIS2_PLACEMENT_3D('',#920,#736,#737);
#627=AXIS2_PLACEMENT_3D('',#924,#739,#740);
#628=AXIS2_PLACEMENT_3D('',#927,#742,#743);
#629=AXIS2_PLACEMENT_3D('',#928,#744,#745);
#630=AXIS2_PLACEMENT_3D('',#931,#748,#749);
#631=AXIS2_PLACEMENT_3D('',#937,#753,#754);
#632=AXIS2_PLACEMENT_3D('',#943,#758,#759);
#633=AXIS2_PLACEMENT_3D('',#949,#763,#764);
#634=AXIS2_PLACEMENT_3D('',#950,#765,#766);
#635=AXIS2_PLACEMENT_3D('',#951,#767,#768);
#636=AXIS2_PLACEMENT_3D('',#952,#769,#770);
#637=AXIS2_PLACEMENT_3D('',#954,#771,#772);
#638=AXIS2_PLACEMENT_3D('',#955,#773,#774);
#639=AXIS2_PLACEMENT_3D('',#956,#775,#776);
#640=AXIS2_PLACEMENT_3D('',#957,#777,#778);
#641=AXIS2_PLACEMENT_3D('',#958,#779,#780);
#642=AXIS2_PLACEMENT_3D('',#959,#781,#782);
#643=AXIS2_PLACEMENT_3D('',#961,#783,#784);
#644=AXIS2_PLACEMENT_3D('',#962,#785,#786);
#645=AXIS2_PLACEMENT_3D('',#964,#787,#788);
#646=AXIS2_PLACEMENT_3D('',#965,#789,#790);
#647=AXIS2_PLACEMENT_3D('',#970,#793,#794);
#648=AXIS2_PLACEMENT_3D('',#971,#795,#796);
#649=AXIS2_PLACEMENT_3D('',#973,#797,#798);
#650=AXIS2_PLACEMENT_3D('',#976,#800,#801);
#651=AXIS2_PLACEMENT_3D('',#979,#803,#804);
#652=AXIS2_PLACEMENT_3D('',#985,#808,#809);
#653=AXIS2_PLACEMENT_3D('',#991,#813,#814);
#654=AXIS2_PLACEMENT_3D('',#994,#817,#818);
#655=AXIS2_PLACEMENT_3D('',#996,#819,#820);
#656=AXIS2_PLACEMENT_3D('',#998,#821,#822);
#657=AXIS2_PLACEMENT_3D('',#999,#823,#824);
#658=AXIS2_PLACEMENT_3D('',#1000,#825,#826);
#659=AXIS2_PLACEMENT_3D('',#1001,#827,#828);
#660=AXIS2_PLACEMENT_3D('',#1002,#829,#830);
#661=AXIS2_PLACEMENT_3D('',#1003,#831,#832);
#662=AXIS2_PLACEMENT_3D('',#1004,#833,#834);
#663=AXIS2_PLACEMENT_3D('',#1005,#835,#836);
#664=AXIS2_PLACEMENT_3D('',#1006,#837,#838);
#665=AXIS2_PLACEMENT_3D('',#1007,#839,#840);
#666=AXIS2_PLACEMENT_3D('',#1008,#841,#842);
#667=AXIS2_PLACEMENT_3D('',#1009,#843,#844);
#668=AXIS2_PLACEMENT_3D('',#1010,#845,#846);
#669=AXIS2_PLACEMENT_3D('',#1011,#847,#848);
#670=AXIS2_PLACEMENT_3D('',#1013,#849,#850);
#671=DIRECTION('',(0.,0.,1.));
#672=DIRECTION('',(1.,0.,0.));
#673=DIRECTION('',(0.,0.,-1.));
#674=DIRECTION('',(-1.,0.,0.));
#675=DIRECTION('',(0.,0.,-1.));
#676=DIRECTION('',(-1.,0.,0.));
#677=DIRECTION('',(0.,0.,1.));
#678=DIRECTION('',(0.,0.,1.));
#679=DIRECTION('',(1.,0.,0.));
#680=DIRECTION('',(0.,0.,1.));
#681=DIRECTION('',(0.,0.,1.));
#682=DIRECTION('',(1.,0.,0.));
#683=DIRECTION('',(1.,0.,0.));
#684=DIRECTION('',(0.,0.,1.));
#685=DIRECTION('',(1.,0.,0.));
#686=DIRECTION('',(-1.,0.,0.));
#687=DIRECTION('',(0.,0.,1.));
#688=DIRECTION('',(1.,0.,0.));
#689=DIRECTION('',(0.,0.,1.));
#690=DIRECTION('',(1.,0.,0.));
#691=DIRECTION('',(0.,0.,1.));
#692=DIRECTION('',(1.,0.,0.));
#693=DIRECTION('',(0.,0.,1.));
#694=DIRECTION('',(1.,0.,0.));
#695=DIRECTION('',(0.,0.,1.));
#696=DIRECTION('',(1.,0.,0.));
#697=DIRECTION('',(0.,0.,1.));
#698=DIRECTION('',(1.,0.,0.));
#699=DIRECTION('',(0.,0.,1.));
#700=DIRECTION('',(1.,0.,0.));
#701=DIRECTION('',(0.,0.,1.));
#702=DIRECTION('',(1.,0.,0.));
#703=DIRECTION('',(0.,0.,1.));
#704=DIRECTION('',(1.,0.,0.));
#705=DIRECTION('',(-1.,0.,0.));
#706=DIRECTION('',(0.,0.,1.));
#707=DIRECTION('',(1.,0.,0.));
#708=DIRECTION('',(0.,-1.,0.));
#709=DIRECTION('',(0.,0.,1.));
#710=DIRECTION('',(1.,0.,0.));
#711=DIRECTION('',(0.,-1.,0.));
#712=DIRECTION('',(0.,0.,1.));
#713=DIRECTION('',(1.,0.,0.));
#714=DIRECTION('',(0.,0.,1.));
#715=DIRECTION('',(1.,0.,0.));
#716=DIRECTION('',(0.,0.,1.));
#717=DIRECTION('',(1.,0.,0.));
#718=DIRECTION('',(0.,0.,1.));
#719=DIRECTION('',(1.,0.,0.));
#720=DIRECTION('',(0.,0.,1.));
#721=DIRECTION('',(1.,0.,0.));
#722=DIRECTION('',(0.,0.,1.));
#723=DIRECTION('',(1.,0.,0.));
#724=DIRECTION('',(0.,0.,-1.));
#725=DIRECTION('',(-1.,0.,0.));
#726=DIRECTION('',(0.,0.,1.));
#727=DIRECTION('',(1.,0.,0.));
#728=DIRECTION('',(0.,-1.,0.));
#729=DIRECTION('',(0.,0.,1.));
#730=DIRECTION('',(1.,0.,0.));
#731=DIRECTION('',(1.,0.,0.));
#732=DIRECTION('',(0.,0.,1.));
#733=DIRECTION('',(1.,0.,0.));
#734=DIRECTION('',(0.,0.,-1.));
#735=DIRECTION('',(-1.,0.,0.));
#736=DIRECTION('',(0.,0.,1.));
#737=DIRECTION('',(1.,0.,0.));
#738=DIRECTION('',(-1.,0.,0.));
#739=DIRECTION('',(0.,0.,1.));
#740=DIRECTION('',(1.,0.,0.));
#741=DIRECTION('',(0.,-1.,0.));
#742=DIRECTION('',(0.,0.,1.));
#743=DIRECTION('',(1.,0.,0.));
#744=DIRECTION('',(0.,0.,1.));
#745=DIRECTION('',(1.,0.,0.));
#746=DIRECTION('',(0.,0.,1.));
#747=DIRECTION('',(0.,0.,1.));
#748=DIRECTION('',(-1.,0.,0.));
#749=DIRECTION('',(0.,0.,1.));
#750=DIRECTION('',(0.,0.,1.));
#751=DIRECTION('',(0.,-1.,0.));
#752=DIRECTION('',(0.,0.,1.));
#753=DIRECTION('',(-1.,0.,0.));
#754=DIRECTION('',(0.,0.,1.));
#755=DIRECTION('',(0.,-1.,0.));
#756=DIRECTION('',(0.,0.,1.));
#757=DIRECTION('',(0.,0.,1.));
#758=DIRECTION('',(0.,1.,0.));
#759=DIRECTION('',(0.,0.,1.));
#760=DIRECTION('',(0.,0.,1.));
#761=DIRECTION('',(-1.,0.,0.));
#762=DIRECTION('',(0.,0.,1.));
#763=DIRECTION('',(0.,0.,1.));
#764=DIRECTION('',(1.,0.,0.));
#765=DIRECTION('',(0.,0.,1.));
#766=DIRECTION('',(1.,0.,0.));
#767=DIRECTION('',(0.,0.,1.));
#768=DIRECTION('',(1.,0.,0.));
#769=DIRECTION('',(0.,0.,1.));
#770=DIRECTION('',(1.,0.,0.));
#771=DIRECTION('',(0.,0.,1.));
#772=DIRECTION('',(1.,0.,0.));
#773=DIRECTION('',(0.,0.,1.));
#774=DIRECTION('',(1.,0.,0.));
#775=DIRECTION('',(0.,0.,-1.));
#776=DIRECTION('',(-1.,0.,0.));
#777=DIRECTION('',(0.,0.,1.));
#778=DIRECTION('',(1.,0.,0.));
#779=DIRECTION('',(0.,0.,1.));
#780=DIRECTION('',(1.,0.,0.));
#781=DIRECTION('',(0.,0.,1.));
#782=DIRECTION('',(1.,0.,0.));
#783=DIRECTION('',(0.,0.,1.));
#784=DIRECTION('',(1.,0.,0.));
#785=DIRECTION('',(0.,0.,1.));
#786=DIRECTION('',(1.,0.,0.));
#787=DIRECTION('',(0.,0.,1.));
#788=DIRECTION('',(1.,0.,0.));
#789=DIRECTION('',(0.,0.,1.));
#790=DIRECTION('',(1.,0.,0.));
#791=DIRECTION('',(0.,0.,1.));
#792=DIRECTION('',(0.,0.,1.));
#793=DIRECTION('',(0.,0.,1.));
#794=DIRECTION('',(1.,0.,0.));
#795=DIRECTION('',(0.,0.,1.));
#796=DIRECTION('',(1.,0.,0.));
#797=DIRECTION('',(0.,0.,1.));
#798=DIRECTION('',(1.,0.,0.));
#799=DIRECTION('',(0.,0.,1.));
#800=DIRECTION('',(0.,0.,-1.));
#801=DIRECTION('',(-1.,0.,0.));
#802=DIRECTION('',(0.,0.,1.));
#803=DIRECTION('',(0.,-1.,0.));
#804=DIRECTION('',(0.,0.,-1.));
#805=DIRECTION('',(0.,0.,1.));
#806=DIRECTION('',(1.,0.,0.));
#807=DIRECTION('',(0.,0.,-1.));
#808=DIRECTION('',(0.,1.,0.));
#809=DIRECTION('',(0.,0.,1.));
#810=DIRECTION('',(0.,0.,1.));
#811=DIRECTION('',(-1.,0.,0.));
#812=DIRECTION('',(0.,0.,1.));
#813=DIRECTION('',(0.,0.,-1.));
#814=DIRECTION('',(1.,0.,0.));
#815=DIRECTION('',(-1.,0.,0.));
#816=DIRECTION('',(1.,0.,0.));
#817=DIRECTION('',(0.,0.,-1.));
#818=DIRECTION('',(-1.,0.,0.));
#819=DIRECTION('',(0.,0.,-1.));
#820=DIRECTION('',(-1.,0.,0.));
#821=DIRECTION('',(0.,0.,-1.));
#822=DIRECTION('',(-1.,0.,0.));
#823=DIRECTION('',(0.,0.,-1.));
#824=DIRECTION('',(-1.,0.,0.));
#825=DIRECTION('',(0.,0.,-1.));
#826=DIRECTION('',(-1.,0.,0.));
#827=DIRECTION('',(0.,0.,-1.));
#828=DIRECTION('',(-1.,0.,0.));
#829=DIRECTION('',(0.,0.,1.));
#830=DIRECTION('',(1.,0.,0.));
#831=DIRECTION('',(0.,0.,1.));
#832=DIRECTION('',(1.,0.,0.));
#833=DIRECTION('',(0.,0.,1.));
#834=DIRECTION('',(1.,0.,0.));
#835=DIRECTION('',(0.,0.,1.));
#836=DIRECTION('',(1.,0.,0.));
#837=DIRECTION('',(0.,0.,-1.));
#838=DIRECTION('',(-1.,0.,0.));
#839=DIRECTION('',(0.,0.,-1.));
#840=DIRECTION('',(-1.,0.,0.));
#841=DIRECTION('',(0.,1.,0.));
#842=DIRECTION('',(0.,0.,1.));
#843=DIRECTION('',(0.,-1.,0.));
#844=DIRECTION('',(0.,0.,-1.));
#845=DIRECTION('',(0.,0.,1.));
#846=DIRECTION('',(1.,0.,0.));
#847=DIRECTION('',(0.,0.,-1.));
#848=DIRECTION('',(-1.,0.,0.));
#849=DIRECTION('',(0.,0.,-1.));
#850=DIRECTION('',(1.,0.,0.));
#851=CARTESIAN_POINT('',(0.,0.,0.));
#852=CARTESIAN_POINT('',(-0.00375,-0.0425,0.025));
#853=CARTESIAN_POINT('',(-0.00375,-0.0425,0.002));
#854=CARTESIAN_POINT('',(-0.00375,-0.04955,0.002));
#855=CARTESIAN_POINT('',(-0.00375,-0.03545,0.002));
#856=CARTESIAN_POINT('',(-0.00375,-0.04955,-0.019));
#857=CARTESIAN_POINT('',(-0.00375,-0.04955,0.006));
#858=CARTESIAN_POINT('',(-0.00375,-0.0425,0.006));
#859=CARTESIAN_POINT('',(-0.00375,-0.03545,0.006));
#860=CARTESIAN_POINT('',(-0.00375,-0.03545,-0.019));
#861=CARTESIAN_POINT('',(0.,0.,0.006));
#862=CARTESIAN_POINT('',(-0.01125,-0.04955,0.006));
#863=CARTESIAN_POINT('',(-0.01875,-0.04955,0.006));
#864=CARTESIAN_POINT('',(-0.01875,-0.0425,0.006));
#865=CARTESIAN_POINT('',(-0.01875,-0.03545,0.006));
#866=CARTESIAN_POINT('',(-0.0112500001088214,-0.03545,0.006));
#867=CARTESIAN_POINT('',(-0.034,-0.031,0.006));
#868=CARTESIAN_POINT('',(-0.03175,-0.031,0.006));
#869=CARTESIAN_POINT('',(0.034,-0.031,0.006));
#870=CARTESIAN_POINT('',(0.03625,-0.031,0.006));
#871=CARTESIAN_POINT('',(-0.034,-0.0565,0.006));
#872=CARTESIAN_POINT('',(-0.03175,-0.0565,0.006));
#873=CARTESIAN_POINT('',(0.034,-0.0565,0.006));
#874=CARTESIAN_POINT('',(0.03625,-0.0565,0.006));
#875=CARTESIAN_POINT('',(0.01875,-0.0425,0.006));
#876=CARTESIAN_POINT('',(0.0258,-0.0425,0.006));
#877=CARTESIAN_POINT('',(2.15843998349721E-18,0.034,0.006));
#878=CARTESIAN_POINT('',(0.00225,0.034,0.006));
#879=CARTESIAN_POINT('',(0.034,4.73019826170665E-18,0.006));
#880=CARTESIAN_POINT('',(0.03625,4.73019826170665E-18,0.006));
#881=CARTESIAN_POINT('',(-0.034,4.73019826170665E-18,0.006));
#882=CARTESIAN_POINT('',(-0.03175,4.73019826170665E-18,0.006));
#883=CARTESIAN_POINT('',(0.,2.11863896252492E-18,0.006));
#884=CARTESIAN_POINT('',(0.0275,2.11863896252492E-18,0.006));
#885=CARTESIAN_POINT('',(0.,-0.06,0.006));
#886=CARTESIAN_POINT('',(0.034,-0.06,0.006));
#887=CARTESIAN_POINT('',(-0.034,-0.06,0.006));
#888=CARTESIAN_POINT('',(0.034,-0.0565,0.006));
#889=CARTESIAN_POINT('',(0.0375,-0.0565,0.006));
#890=CARTESIAN_POINT('',(0.0375,-0.025,0.006));
#891=CARTESIAN_POINT('',(0.0375,0.,0.006));
#892=CARTESIAN_POINT('',(0.,2.29621274840128E-18,0.006));
#893=CARTESIAN_POINT('',(-0.0375,4.59242549680257E-18,0.006));
#894=CARTESIAN_POINT('',(-0.0375,-0.025,0.006));
#895=CARTESIAN_POINT('',(-0.0375,-0.0565,0.006));
#896=CARTESIAN_POINT('',(-0.034,-0.0565,0.006));
#897=CARTESIAN_POINT('',(0.,0.,0.0025));
#898=CARTESIAN_POINT('',(0.034,4.73019826170665E-18,0.0025));
#899=CARTESIAN_POINT('',(0.03625,4.73019826170665E-18,0.0025));
#900=CARTESIAN_POINT('',(-0.034,4.73019826170665E-18,0.0025));
#901=CARTESIAN_POINT('',(-0.03175,4.73019826170665E-18,0.0025));
#902=CARTESIAN_POINT('',(0.,2.11863896252492E-18,0.0025));
#903=CARTESIAN_POINT('',(0.0275,2.11863896252492E-18,0.0025));
#904=CARTESIAN_POINT('',(0.,2.29621274840128E-18,0.0025));
#905=CARTESIAN_POINT('',(2.39162243930626E-18,0.0375,0.0025));
#906=CARTESIAN_POINT('',(-0.0375,4.59242549680257E-18,0.0025));
#907=CARTESIAN_POINT('',(2.16840434497101E-18,0.034,0.0025));
#908=CARTESIAN_POINT('',(0.,2.29621274840128E-18,0.0025));
#909=CARTESIAN_POINT('',(0.0375,0.,0.0025));
#910=CARTESIAN_POINT('',(0.0375,-0.025,0.0025));
#911=CARTESIAN_POINT('',(0.0375,-0.031,0.0025));
#912=CARTESIAN_POINT('',(0.034,-0.031,0.0025));
#913=CARTESIAN_POINT('',(0.034,-0.0275,0.0025));
#914=CARTESIAN_POINT('',(0.0253454529791364,-0.0275,0.0025));
#915=CARTESIAN_POINT('',(0.0139642400437689,-0.0275,0.0025));
#916=CARTESIAN_POINT('',(0.0139642400437689,-0.031,0.0025));
#917=CARTESIAN_POINT('',(0.0125267447451457,-0.0278088235294118,0.0025));
#918=CARTESIAN_POINT('',(1.77599057868322E-17,-2.42861286636753E-17,0.0025));
#919=CARTESIAN_POINT('',(-0.0125267447451456,-0.0278088235294118,0.0025));
#920=CARTESIAN_POINT('',(-0.0139642400437689,-0.031,0.0025));
#921=CARTESIAN_POINT('',(-0.0139642400437689,-0.0275,0.0025));
#922=CARTESIAN_POINT('',(-0.0253454529791364,-0.0275,0.0025));
#923=CARTESIAN_POINT('',(-0.034,-0.0275,0.0025));
#924=CARTESIAN_POINT('',(-0.034,-0.031,0.0025));
#925=CARTESIAN_POINT('',(-0.0375,-0.031,0.0025));
#926=CARTESIAN_POINT('',(-0.0375,-0.025,0.0025));
#927=CARTESIAN_POINT('',(0.,2.11863896252492E-18,-0.019));
#928=CARTESIAN_POINT('',(0.,2.29621274840128E-18,0.0025));
#929=CARTESIAN_POINT('',(0.0375,0.,0.0025));
#930=CARTESIAN_POINT('',(-0.0375,4.59242549680257E-18,0.0025));
#931=CARTESIAN_POINT('',(-0.0375,-0.025,0.0025));
#932=CARTESIAN_POINT('',(-0.0375,-0.031,0.0025));
#933=CARTESIAN_POINT('',(-0.0375,-0.031,0.002));
#934=CARTESIAN_POINT('',(-0.0375,-0.025,0.002));
#935=CARTESIAN_POINT('',(-0.0375,-0.0565,0.002));
#936=CARTESIAN_POINT('',(-0.0375,-0.0565,0.006));
#937=CARTESIAN_POINT('',(0.0375,-0.025,0.0025));
#938=CARTESIAN_POINT('',(0.0375,-0.025,0.002));
#939=CARTESIAN_POINT('',(0.0375,-0.031,0.002));
#940=CARTESIAN_POINT('',(0.0375,-0.0565,0.002));
#941=CARTESIAN_POINT('',(0.0375,-0.031,0.0025));
#942=CARTESIAN_POINT('',(0.0375,-0.0565,0.0025));
#943=CARTESIAN_POINT('',(0.,-0.06,0.0025));
#944=CARTESIAN_POINT('',(-0.034,-0.06,0.0025));
#945=CARTESIAN_POINT('',(-0.034,-0.06,0.002));
#946=CARTESIAN_POINT('',(0.,-0.06,0.002));
#947=CARTESIAN_POINT('',(0.034,-0.06,0.002));
#948=CARTESIAN_POINT('',(0.034,-0.06,0.0025));
#949=CARTESIAN_POINT('',(-0.034,4.73019826170665E-18,-0.019));
#950=CARTESIAN_POINT('',(0.034,4.73019826170665E-18,-0.019));
#951=CARTESIAN_POINT('',(2.15843998349721E-18,0.034,-0.019));
#952=CARTESIAN_POINT('',(2.15843998349721E-18,0.034,0.002));
#953=CARTESIAN_POINT('',(0.00225,0.034,0.002));
#954=CARTESIAN_POINT('',(0.034,-0.0565,0.0025));
#955=CARTESIAN_POINT('',(0.034,-0.0565,0.002));
#956=CARTESIAN_POINT('',(-0.034,-0.0565,0.0025));
#957=CARTESIAN_POINT('',(-0.034,-0.0565,0.002));
#958=CARTESIAN_POINT('',(0.01875,-0.0425,-0.019));
#959=CARTESIAN_POINT('',(0.01875,-0.0425,0.002));
#960=CARTESIAN_POINT('',(0.0258,-0.0425,0.002));
#961=CARTESIAN_POINT('',(0.034,-0.0565,-0.019));
#962=CARTESIAN_POINT('',(0.034,-0.0565,0.002));
#963=CARTESIAN_POINT('',(0.03625,-0.0565,0.002));
#964=CARTESIAN_POINT('',(-0.01875,-0.0425,-0.019));
#965=CARTESIAN_POINT('',(-0.01875,-0.0425,0.002));
#966=CARTESIAN_POINT('',(-0.01875,-0.03545,0.002));
#967=CARTESIAN_POINT('',(-0.01875,-0.04955,0.002));
#968=CARTESIAN_POINT('',(-0.01875,-0.03545,-0.019));
#969=CARTESIAN_POINT('',(-0.01875,-0.04955,-0.019));
#970=CARTESIAN_POINT('',(-0.034,-0.0565,-0.019));
#971=CARTESIAN_POINT('',(-0.034,-0.0565,0.002));
#972=CARTESIAN_POINT('',(-0.03175,-0.0565,0.002));
#973=CARTESIAN_POINT('',(1.77599057868322E-17,-2.42861286636753E-17,0.002));
#974=CARTESIAN_POINT('',(0.0125267447451457,-0.0278088235294118,0.002));
#975=CARTESIAN_POINT('',(0.0125267447451457,-0.0278088235294118,0.002));
#976=CARTESIAN_POINT('',(1.77599057868322E-17,-2.42861286636753E-17,0.002));
#977=CARTESIAN_POINT('',(-0.0125267447451456,-0.0278088235294118,0.002));
#978=CARTESIAN_POINT('',(-0.0125267447451456,-0.0278088235294118,0.002));
#979=CARTESIAN_POINT('',(0.0253454529791364,-0.0275,0.002));
#980=CARTESIAN_POINT('',(0.034,-0.0275,0.002));
#981=CARTESIAN_POINT('',(0.034,-0.0275,0.002));
#982=CARTESIAN_POINT('',(0.0253454529791364,-0.0275,0.002));
#983=CARTESIAN_POINT('',(0.0139642400437689,-0.0275,0.002));
#984=CARTESIAN_POINT('',(0.0139642400437689,-0.0275,0.0025));
#985=CARTESIAN_POINT('',(-0.0253454529791364,-0.0275,0.002));
#986=CARTESIAN_POINT('',(-0.0139642400437689,-0.0275,0.002));
#987=CARTESIAN_POINT('',(-0.0139642400437689,-0.0275,0.002));
#988=CARTESIAN_POINT('',(-0.0253454529791364,-0.0275,0.002));
#989=CARTESIAN_POINT('',(-0.034,-0.0275,0.002));
#990=CARTESIAN_POINT('',(-0.034,-0.0275,0.002));
#991=CARTESIAN_POINT('',(0.,-0.01125,0.002));
#992=CARTESIAN_POINT('',(0.,-0.04955,0.002));
#993=CARTESIAN_POINT('',(0.,-0.03545,0.002));
#994=CARTESIAN_POINT('',(-0.034,-0.031,0.002));
#995=CARTESIAN_POINT('',(-0.03625,-0.031,0.002));
#996=CARTESIAN_POINT('',(0.034,-0.031,0.002));
#997=CARTESIAN_POINT('',(0.03175,-0.031,0.002));
#998=CARTESIAN_POINT('',(0.034,-0.031,0.002));
#999=CARTESIAN_POINT('',(-0.034,-0.031,0.002));
#1000=CARTESIAN_POINT('',(-0.0139642400437689,-0.031,0.002));
#1001=CARTESIAN_POINT('',(0.0139642400437689,-0.031,0.002));
#1002=CARTESIAN_POINT('',(0.034,-0.031,0.0025));
#1003=CARTESIAN_POINT('',(0.0139642400437689,-0.031,0.002));
#1004=CARTESIAN_POINT('',(-0.0139642400437689,-0.031,0.002));
#1005=CARTESIAN_POINT('',(-0.034,-0.031,0.002));
#1006=CARTESIAN_POINT('',(0.034,-0.031,0.027));
#1007=CARTESIAN_POINT('',(-0.034,-0.031,0.027));
#1008=CARTESIAN_POINT('',(-0.0112500001088214,-0.03545,-0.019));
#1009=CARTESIAN_POINT('',(-0.01125,-0.04955,-0.019));
#1010=CARTESIAN_POINT('',(2.16840434497101E-18,0.034,0.002));
#1011=CARTESIAN_POINT('',(2.16840434497101E-18,0.034,0.002));
#1012=CARTESIAN_POINT('',(-0.0035,0.034,0.002));
#1013=CARTESIAN_POINT('',(0.,0.00325,0.002));
#1014=MECHANICAL_DESIGN_GEOMETRIC_PRESENTATION_REPRESENTATION('',(#587),
#1015);
#1015=(
GEOMETRIC_REPRESENTATION_CONTEXT(3)
GLOBAL_UNCERTAINTY_ASSIGNED_CONTEXT((#1016))
GLOBAL_UNIT_ASSIGNED_CONTEXT((#1019,#1018,#1017))
REPRESENTATION_CONTEXT('Module plate 3','TOP_LEVEL_ASSEMBLY_PART')
);
#1016=UNCERTAINTY_MEASURE_WITH_UNIT(LENGTH_MEASURE(1.E-8),#1019,
'DISTANCE_ACCURACY_VALUE','Maximum Tolerance applied to model');
#1017=(
NAMED_UNIT(*)
SI_UNIT($,.STERADIAN.)
SOLID_ANGLE_UNIT()
);
#1018=(
NAMED_UNIT(*)
PLANE_ANGLE_UNIT()
SI_UNIT($,.RADIAN.)
);
#1019=(
LENGTH_UNIT()
NAMED_UNIT(*)
SI_UNIT($,.METRE.)
);
#1020=PRODUCT_DEFINITION_SHAPE('','',#1021);
#1021=PRODUCT_DEFINITION('','',#1023,#1022);
#1022=PRODUCT_DEFINITION_CONTEXT('',#1029,'design');
#1023=PRODUCT_DEFINITION_FORMATION_WITH_SPECIFIED_SOURCE('','',#1025,
 .NOT_KNOWN.);
#1024=PRODUCT_RELATED_PRODUCT_CATEGORY('','',(#1025));
#1025=PRODUCT('Module plate 3','Module plate 3','Module plate 3',(#1027));
#1026=PRODUCT_CATEGORY('','');
#1027=PRODUCT_CONTEXT('',#1029,'mechanical');
#1028=APPLICATION_PROTOCOL_DEFINITION('international standard',
'ap242_managed_model_based_3d_engineering',2020,#1029);
#1029=APPLICATION_CONTEXT('managed model based 3d engineering');
ENDSEC;
END-ISO-10303-21;
