ISO-10303-21;
HEADER;
/* Generated by software containing ST-Developer
 * from STEP Tools, Inc. (www.steptools.com) 
 */
/* OPTION: using custom renumber hook */

FILE_DESCRIPTION(
/* description */ ('STEP AP242 Edition 2',
'CAx-IF Rec.Pracs.---Representation and Presentation of Product Manufa
cturing Information (PMI)---4.0---2014-10-13',
'CAx-IF Rec.Pracs.---3D Tessellated Geometry---0.4---2014-09-14','2;1',
'CAx-IF Rec.Pracs.---User Defined Attributes---1.5---2016-08-15'),
/* implementation_level */ '2;1');

FILE_NAME(
/* name */ 'Assembly 1 - (Axle) Steering input gear 2',
/* time_stamp */ '2026-08-06T04:42:58Z',
/* author */ (''),
/* organization */ (''),
/* preprocessor_version */ 'ST-DEVELOPER v20',
/* originating_system */ 'ONSHAPE BY PTC INC, 1.218',
/* authorisation */ '  ');

FILE_SCHEMA (('AP242_MANAGED_MODEL_BASED_3D_ENGINEERING_MIM_LF { 1 0 10303 442 3 1 4 }'));
ENDSEC;

DATA;
#10=SHAPE_REPRESENTATION_RELATIONSHIP('','',#311,#11);
#11=ADVANCED_BREP_SHAPE_REPRESENTATION('',(#309),#491);
#12=LINE('',#415,#48);
#13=LINE('',#418,#49);
#14=LINE('',#420,#50);
#15=LINE('',#422,#51);
#16=LINE('',#424,#52);
#17=LINE('',#426,#53);
#18=LINE('',#428,#54);
#19=LINE('',#430,#55);
#20=LINE('',#432,#56);
#21=LINE('',#434,#57);
#22=LINE('',#436,#58);
#23=LINE('',#438,#59);
#24=LINE('',#440,#60);
#25=LINE('',#442,#61);
#26=LINE('',#444,#62);
#27=LINE('',#446,#63);
#28=LINE('',#448,#64);
#29=LINE('',#450,#65);
#30=LINE('',#453,#66);
#31=LINE('',#456,#67);
#32=LINE('',#458,#68);
#33=LINE('',#460,#69);
#34=LINE('',#462,#70);
#35=LINE('',#464,#71);
#36=LINE('',#466,#72);
#37=LINE('',#468,#73);
#38=LINE('',#470,#74);
#39=LINE('',#472,#75);
#40=LINE('',#474,#76);
#41=LINE('',#476,#77);
#42=LINE('',#478,#78);
#43=LINE('',#480,#79);
#44=LINE('',#482,#80);
#45=LINE('',#484,#81);
#46=LINE('',#486,#82);
#47=LINE('',#488,#83);
#48=VECTOR('',#342,1.);
#49=VECTOR('',#343,1.);
#50=VECTOR('',#344,1.);
#51=VECTOR('',#345,1.);
#52=VECTOR('',#346,1.);
#53=VECTOR('',#347,1.);
#54=VECTOR('',#350,1.);
#55=VECTOR('',#351,1.);
#56=VECTOR('',#352,1.);
#57=VECTOR('',#355,1.);
#58=VECTOR('',#356,1.);
#59=VECTOR('',#359,1.);
#60=VECTOR('',#360,1.);
#61=VECTOR('',#363,1.);
#62=VECTOR('',#364,1.);
#63=VECTOR('',#367,1.);
#64=VECTOR('',#368,1.);
#65=VECTOR('',#371,1.);
#66=VECTOR('',#376,1.);
#67=VECTOR('',#377,1.);
#68=VECTOR('',#378,1.);
#69=VECTOR('',#379,1.);
#70=VECTOR('',#380,1.);
#71=VECTOR('',#381,1.);
#72=VECTOR('',#384,1.);
#73=VECTOR('',#385,1.);
#74=VECTOR('',#386,1.);
#75=VECTOR('',#389,1.);
#76=VECTOR('',#390,1.);
#77=VECTOR('',#393,1.);
#78=VECTOR('',#394,1.);
#79=VECTOR('',#397,1.);
#80=VECTOR('',#398,1.);
#81=VECTOR('',#401,1.);
#82=VECTOR('',#402,1.);
#83=VECTOR('',#405,1.);
#84=PLANE('',#316);
#85=PLANE('',#317);
#86=PLANE('',#318);
#87=PLANE('',#319);
#88=PLANE('',#320);
#89=PLANE('',#321);
#90=PLANE('',#322);
#91=PLANE('',#323);
#92=PLANE('',#324);
#93=PLANE('',#325);
#94=PLANE('',#326);
#95=PLANE('',#327);
#96=PLANE('',#328);
#97=PLANE('',#329);
#98=PLANE('',#330);
#99=PLANE('',#331);
#100=ORIENTED_EDGE('',*,*,#176,.F.);
#101=ORIENTED_EDGE('',*,*,#177,.F.);
#102=ORIENTED_EDGE('',*,*,#178,.F.);
#103=ORIENTED_EDGE('',*,*,#179,.F.);
#104=ORIENTED_EDGE('',*,*,#180,.F.);
#105=ORIENTED_EDGE('',*,*,#181,.F.);
#106=ORIENTED_EDGE('',*,*,#182,.F.);
#107=ORIENTED_EDGE('',*,*,#183,.F.);
#108=ORIENTED_EDGE('',*,*,#176,.T.);
#109=ORIENTED_EDGE('',*,*,#178,.T.);
#110=ORIENTED_EDGE('',*,*,#184,.F.);
#111=ORIENTED_EDGE('',*,*,#185,.F.);
#112=ORIENTED_EDGE('',*,*,#186,.T.);
#113=ORIENTED_EDGE('',*,*,#183,.T.);
#114=ORIENTED_EDGE('',*,*,#187,.F.);
#115=ORIENTED_EDGE('',*,*,#188,.F.);
#116=ORIENTED_EDGE('',*,*,#184,.T.);
#117=ORIENTED_EDGE('',*,*,#182,.T.);
#118=ORIENTED_EDGE('',*,*,#189,.F.);
#119=ORIENTED_EDGE('',*,*,#190,.F.);
#120=ORIENTED_EDGE('',*,*,#187,.T.);
#121=ORIENTED_EDGE('',*,*,#181,.T.);
#122=ORIENTED_EDGE('',*,*,#191,.F.);
#123=ORIENTED_EDGE('',*,*,#192,.F.);
#124=ORIENTED_EDGE('',*,*,#189,.T.);
#125=ORIENTED_EDGE('',*,*,#180,.T.);
#126=ORIENTED_EDGE('',*,*,#193,.F.);
#127=ORIENTED_EDGE('',*,*,#194,.F.);
#128=ORIENTED_EDGE('',*,*,#191,.T.);
#129=ORIENTED_EDGE('',*,*,#179,.T.);
#130=ORIENTED_EDGE('',*,*,#186,.F.);
#131=ORIENTED_EDGE('',*,*,#195,.F.);
#132=ORIENTED_EDGE('',*,*,#193,.T.);
#133=ORIENTED_EDGE('',*,*,#185,.T.);
#134=ORIENTED_EDGE('',*,*,#188,.T.);
#135=ORIENTED_EDGE('',*,*,#190,.T.);
#136=ORIENTED_EDGE('',*,*,#192,.T.);
#137=ORIENTED_EDGE('',*,*,#194,.T.);
#138=ORIENTED_EDGE('',*,*,#195,.T.);
#139=ORIENTED_EDGE('',*,*,#196,.F.);
#140=ORIENTED_EDGE('',*,*,#197,.F.);
#141=ORIENTED_EDGE('',*,*,#198,.F.);
#142=ORIENTED_EDGE('',*,*,#199,.F.);
#143=ORIENTED_EDGE('',*,*,#200,.F.);
#144=ORIENTED_EDGE('',*,*,#201,.F.);
#145=ORIENTED_EDGE('',*,*,#177,.T.);
#146=ORIENTED_EDGE('',*,*,#196,.T.);
#147=ORIENTED_EDGE('',*,*,#202,.F.);
#148=ORIENTED_EDGE('',*,*,#203,.F.);
#149=ORIENTED_EDGE('',*,*,#204,.T.);
#150=ORIENTED_EDGE('',*,*,#201,.T.);
#151=ORIENTED_EDGE('',*,*,#205,.F.);
#152=ORIENTED_EDGE('',*,*,#206,.F.);
#153=ORIENTED_EDGE('',*,*,#202,.T.);
#154=ORIENTED_EDGE('',*,*,#200,.T.);
#155=ORIENTED_EDGE('',*,*,#207,.F.);
#156=ORIENTED_EDGE('',*,*,#208,.F.);
#157=ORIENTED_EDGE('',*,*,#205,.T.);
#158=ORIENTED_EDGE('',*,*,#199,.T.);
#159=ORIENTED_EDGE('',*,*,#209,.F.);
#160=ORIENTED_EDGE('',*,*,#210,.F.);
#161=ORIENTED_EDGE('',*,*,#207,.T.);
#162=ORIENTED_EDGE('',*,*,#198,.T.);
#163=ORIENTED_EDGE('',*,*,#211,.F.);
#164=ORIENTED_EDGE('',*,*,#212,.F.);
#165=ORIENTED_EDGE('',*,*,#209,.T.);
#166=ORIENTED_EDGE('',*,*,#197,.T.);
#167=ORIENTED_EDGE('',*,*,#204,.F.);
#168=ORIENTED_EDGE('',*,*,#213,.F.);
#169=ORIENTED_EDGE('',*,*,#211,.T.);
#170=ORIENTED_EDGE('',*,*,#203,.T.);
#171=ORIENTED_EDGE('',*,*,#206,.T.);
#172=ORIENTED_EDGE('',*,*,#208,.T.);
#173=ORIENTED_EDGE('',*,*,#210,.T.);
#174=ORIENTED_EDGE('',*,*,#212,.T.);
#175=ORIENTED_EDGE('',*,*,#213,.T.);
#176=EDGE_CURVE('',#214,#214,#240,.T.);
#177=EDGE_CURVE('',#215,#215,#241,.T.);
#178=EDGE_CURVE('',#216,#217,#12,.T.);
#179=EDGE_CURVE('',#218,#216,#13,.T.);
#180=EDGE_CURVE('',#219,#218,#14,.T.);
#181=EDGE_CURVE('',#220,#219,#15,.T.);
#182=EDGE_CURVE('',#221,#220,#16,.T.);
#183=EDGE_CURVE('',#217,#221,#17,.T.);
#184=EDGE_CURVE('',#222,#217,#18,.T.);
#185=EDGE_CURVE('',#223,#222,#19,.T.);
#186=EDGE_CURVE('',#223,#216,#20,.T.);
#187=EDGE_CURVE('',#224,#221,#21,.T.);
#188=EDGE_CURVE('',#222,#224,#22,.T.);
#189=EDGE_CURVE('',#225,#220,#23,.T.);
#190=EDGE_CURVE('',#224,#225,#24,.T.);
#191=EDGE_CURVE('',#226,#219,#25,.T.);
#192=EDGE_CURVE('',#225,#226,#26,.T.);
#193=EDGE_CURVE('',#227,#218,#27,.T.);
#194=EDGE_CURVE('',#226,#227,#28,.T.);
#195=EDGE_CURVE('',#227,#223,#29,.T.);
#196=EDGE_CURVE('',#228,#229,#30,.T.);
#197=EDGE_CURVE('',#230,#228,#31,.T.);
#198=EDGE_CURVE('',#231,#230,#32,.T.);
#199=EDGE_CURVE('',#232,#231,#33,.T.);
#200=EDGE_CURVE('',#233,#232,#34,.T.);
#201=EDGE_CURVE('',#229,#233,#35,.T.);
#202=EDGE_CURVE('',#234,#229,#36,.T.);
#203=EDGE_CURVE('',#235,#234,#37,.T.);
#204=EDGE_CURVE('',#235,#228,#38,.T.);
#205=EDGE_CURVE('',#236,#233,#39,.T.);
#206=EDGE_CURVE('',#234,#236,#40,.T.);
#207=EDGE_CURVE('',#237,#232,#41,.T.);
#208=EDGE_CURVE('',#236,#237,#42,.T.);
#209=EDGE_CURVE('',#238,#231,#43,.T.);
#210=EDGE_CURVE('',#237,#238,#44,.T.);
#211=EDGE_CURVE('',#239,#230,#45,.T.);
#212=EDGE_CURVE('',#238,#239,#46,.T.);
#213=EDGE_CURVE('',#239,#235,#47,.T.);
#214=VERTEX_POINT('',#411);
#215=VERTEX_POINT('',#413);
#216=VERTEX_POINT('',#416);
#217=VERTEX_POINT('',#417);
#218=VERTEX_POINT('',#419);
#219=VERTEX_POINT('',#421);
#220=VERTEX_POINT('',#423);
#221=VERTEX_POINT('',#425);
#222=VERTEX_POINT('',#429);
#223=VERTEX_POINT('',#431);
#224=VERTEX_POINT('',#435);
#225=VERTEX_POINT('',#439);
#226=VERTEX_POINT('',#443);
#227=VERTEX_POINT('',#447);
#228=VERTEX_POINT('',#454);
#229=VERTEX_POINT('',#455);
#230=VERTEX_POINT('',#457);
#231=VERTEX_POINT('',#459);
#232=VERTEX_POINT('',#461);
#233=VERTEX_POINT('',#463);
#234=VERTEX_POINT('',#467);
#235=VERTEX_POINT('',#469);
#236=VERTEX_POINT('',#473);
#237=VERTEX_POINT('',#477);
#238=VERTEX_POINT('',#481);
#239=VERTEX_POINT('',#485);
#240=CIRCLE('',#314,0.005);
#241=CIRCLE('',#315,0.005);
#242=EDGE_LOOP('',(#100));
#243=EDGE_LOOP('',(#101));
#244=EDGE_LOOP('',(#102,#103,#104,#105,#106,#107));
#245=EDGE_LOOP('',(#108));
#246=EDGE_LOOP('',(#109,#110,#111,#112));
#247=EDGE_LOOP('',(#113,#114,#115,#116));
#248=EDGE_LOOP('',(#117,#118,#119,#120));
#249=EDGE_LOOP('',(#121,#122,#123,#124));
#250=EDGE_LOOP('',(#125,#126,#127,#128));
#251=EDGE_LOOP('',(#129,#130,#131,#132));
#252=EDGE_LOOP('',(#133,#134,#135,#136,#137,#138));
#253=EDGE_LOOP('',(#139,#140,#141,#142,#143,#144));
#254=EDGE_LOOP('',(#145));
#255=EDGE_LOOP('',(#146,#147,#148,#149));
#256=EDGE_LOOP('',(#150,#151,#152,#153));
#257=EDGE_LOOP('',(#154,#155,#156,#157));
#258=EDGE_LOOP('',(#158,#159,#160,#161));
#259=EDGE_LOOP('',(#162,#163,#164,#165));
#260=EDGE_LOOP('',(#166,#167,#168,#169));
#261=EDGE_LOOP('',(#170,#171,#172,#173,#174,#175));
#262=FACE_BOUND('',#242,.T.);
#263=FACE_BOUND('',#243,.T.);
#264=FACE_BOUND('',#244,.T.);
#265=FACE_BOUND('',#245,.T.);
#266=FACE_BOUND('',#246,.T.);
#267=FACE_BOUND('',#247,.T.);
#268=FACE_BOUND('',#248,.T.);
#269=FACE_BOUND('',#249,.T.);
#270=FACE_BOUND('',#250,.T.);
#271=FACE_BOUND('',#251,.T.);
#272=FACE_BOUND('',#252,.T.);
#273=FACE_BOUND('',#253,.T.);
#274=FACE_BOUND('',#254,.T.);
#275=FACE_BOUND('',#255,.T.);
#276=FACE_BOUND('',#256,.T.);
#277=FACE_BOUND('',#257,.T.);
#278=FACE_BOUND('',#258,.T.);
#279=FACE_BOUND('',#259,.T.);
#280=FACE_BOUND('',#260,.T.);
#281=FACE_BOUND('',#261,.T.);
#282=CYLINDRICAL_SURFACE('',#313,0.005);
#283=ADVANCED_FACE('',(#262,#263),#282,.T.);
#284=ADVANCED_FACE('',(#264,#265),#84,.T.);
#285=ADVANCED_FACE('',(#266),#85,.F.);
#286=ADVANCED_FACE('',(#267),#86,.F.);
#287=ADVANCED_FACE('',(#268),#87,.F.);
#288=ADVANCED_FACE('',(#269),#88,.F.);
#289=ADVANCED_FACE('',(#270),#89,.F.);
#290=ADVANCED_FACE('',(#271),#90,.F.);
#291=ADVANCED_FACE('',(#272),#91,.T.);
#292=ADVANCED_FACE('',(#273,#274),#92,.T.);
#293=ADVANCED_FACE('',(#275),#93,.F.);
#294=ADVANCED_FACE('',(#276),#94,.F.);
#295=ADVANCED_FACE('',(#277),#95,.F.);
#296=ADVANCED_FACE('',(#278),#96,.F.);
#297=ADVANCED_FACE('',(#279),#97,.F.);
#298=ADVANCED_FACE('',(#280),#98,.F.);
#299=ADVANCED_FACE('',(#281),#99,.T.);
#300=CLOSED_SHELL('',(#283,#284,#285,#286,#287,#288,#289,#290,#291,#292,
#293,#294,#295,#296,#297,#298,#299));
#301=STYLED_ITEM('',(#302),#309);
#302=PRESENTATION_STYLE_ASSIGNMENT((#303));
#303=SURFACE_STYLE_USAGE(.BOTH.,#304);
#304=SURFACE_SIDE_STYLE('',(#305));
#305=SURFACE_STYLE_FILL_AREA(#306);
#306=FILL_AREA_STYLE('',(#307));
#307=FILL_AREA_STYLE_COLOUR('',#308);
#308=COLOUR_RGB('',0.0862745098039216,0.31764705882353,0.690196078431373);
#309=MANIFOLD_SOLID_BREP('(Axle) Steering input gear 2',#300);
#310=SHAPE_DEFINITION_REPRESENTATION(#496,#311);
#311=SHAPE_REPRESENTATION('(Axle) Steering input gear 2',(#312),#491);
#312=AXIS2_PLACEMENT_3D('',#408,#332,#333);
#313=AXIS2_PLACEMENT_3D('',#409,#334,#335);
#314=AXIS2_PLACEMENT_3D('',#410,#336,#337);
#315=AXIS2_PLACEMENT_3D('',#412,#338,#339);
#316=AXIS2_PLACEMENT_3D('',#414,#340,#341);
#317=AXIS2_PLACEMENT_3D('',#427,#348,#349);
#318=AXIS2_PLACEMENT_3D('',#433,#353,#354);
#319=AXIS2_PLACEMENT_3D('',#437,#357,#358);
#320=AXIS2_PLACEMENT_3D('',#441,#361,#362);
#321=AXIS2_PLACEMENT_3D('',#445,#365,#366);
#322=AXIS2_PLACEMENT_3D('',#449,#369,#370);
#323=AXIS2_PLACEMENT_3D('',#451,#372,#373);
#324=AXIS2_PLACEMENT_3D('',#452,#374,#375);
#325=AXIS2_PLACEMENT_3D('',#465,#382,#383);
#326=AXIS2_PLACEMENT_3D('',#471,#387,#388);
#327=AXIS2_PLACEMENT_3D('',#475,#391,#392);
#328=AXIS2_PLACEMENT_3D('',#479,#395,#396);
#329=AXIS2_PLACEMENT_3D('',#483,#399,#400);
#330=AXIS2_PLACEMENT_3D('',#487,#403,#404);
#331=AXIS2_PLACEMENT_3D('',#489,#406,#407);
#332=DIRECTION('',(0.,0.,1.));
#333=DIRECTION('',(1.,0.,0.));
#334=DIRECTION('',(0.,0.,1.));
#335=DIRECTION('',(1.,0.,0.));
#336=DIRECTION('',(0.,0.,1.));
#337=DIRECTION('',(1.,0.,0.));
#338=DIRECTION('',(0.,0.,-1.));
#339=DIRECTION('',(-1.,0.,0.));
#340=DIRECTION('',(0.,0.,1.));
#341=DIRECTION('',(0.923879532511287,-0.38268343236509,0.));
#342=DIRECTION('',(0.866025403784438,0.5,0.));
#343=DIRECTION('',(0.866025403784439,-0.5,0.));
#344=DIRECTION('',(1.76742893969078E-15,-1.,0.));
#345=DIRECTION('',(-0.866025403784438,-0.5,0.));
#346=DIRECTION('',(-0.866025403784439,0.5,0.));
#347=DIRECTION('',(-1.82266109405611E-15,1.,0.));
#348=DIRECTION('',(-0.5,0.866025403784438,0.));
#349=DIRECTION('',(-0.866025403784438,-0.5,0.));
#350=DIRECTION('',(0.,0.,-1.));
#351=DIRECTION('',(0.866025403784438,0.5,0.));
#352=DIRECTION('',(0.,0.,-1.));
#353=DIRECTION('',(-1.,-1.82266109405611E-15,0.));
#354=DIRECTION('',(1.82266109405611E-15,-1.,0.));
#355=DIRECTION('',(0.,0.,-1.));
#356=DIRECTION('',(-1.82266109405611E-15,1.,0.));
#357=DIRECTION('',(-0.5,-0.866025403784439,0.));
#358=DIRECTION('',(0.866025403784439,-0.5,0.));
#359=DIRECTION('',(0.,0.,-1.));
#360=DIRECTION('',(-0.866025403784439,0.5,0.));
#361=DIRECTION('',(0.5,-0.866025403784438,0.));
#362=DIRECTION('',(0.866025403784438,0.5,0.));
#363=DIRECTION('',(0.,0.,-1.));
#364=DIRECTION('',(-0.866025403784438,-0.5,0.));
#365=DIRECTION('',(1.,1.76742893969078E-15,0.));
#366=DIRECTION('',(-1.76742893969078E-15,1.,0.));
#367=DIRECTION('',(0.,0.,-1.));
#368=DIRECTION('',(1.76742893969078E-15,-1.,0.));
#369=DIRECTION('',(0.5,0.866025403784439,0.));
#370=DIRECTION('',(-0.866025403784439,0.5,0.));
#371=DIRECTION('',(0.866025403784439,-0.5,0.));
#372=DIRECTION('',(0.,0.,1.));
#373=DIRECTION('',(1.,0.,0.));
#374=DIRECTION('',(0.,0.,-1.));
#375=DIRECTION('',(1.,0.,0.));
#376=DIRECTION('',(0.866025403784438,-0.5,0.));
#377=DIRECTION('',(0.866025403784439,0.5,0.));
#378=DIRECTION('',(1.6927488436475E-15,1.,0.));
#379=DIRECTION('',(-0.866025403784438,0.5,0.));
#380=DIRECTION('',(-0.86602540378444,-0.5,0.));
#381=DIRECTION('',(-1.75887184535248E-15,-1.,0.));
#382=DIRECTION('',(0.5,0.866025403784438,0.));
#383=DIRECTION('',(-0.866025403784438,0.5,0.));
#384=DIRECTION('',(0.,0.,-1.));
#385=DIRECTION('',(0.866025403784438,-0.5,0.));
#386=DIRECTION('',(0.,0.,-1.));
#387=DIRECTION('',(1.,-1.75887184535248E-15,0.));
#388=DIRECTION('',(1.75887184535248E-15,1.,0.));
#389=DIRECTION('',(0.,0.,-1.));
#390=DIRECTION('',(-1.75887184535248E-15,-1.,0.));
#391=DIRECTION('',(0.5,-0.86602540378444,0.));
#392=DIRECTION('',(0.86602540378444,0.5,0.));
#393=DIRECTION('',(0.,0.,-1.));
#394=DIRECTION('',(-0.86602540378444,-0.5,0.));
#395=DIRECTION('',(-0.5,-0.866025403784438,0.));
#396=DIRECTION('',(0.866025403784438,-0.5,0.));
#397=DIRECTION('',(0.,0.,-1.));
#398=DIRECTION('',(-0.866025403784438,0.5,0.));
#399=DIRECTION('',(-1.,1.6927488436475E-15,0.));
#400=DIRECTION('',(-1.6927488436475E-15,-1.,0.));
#401=DIRECTION('',(0.,0.,-1.));
#402=DIRECTION('',(1.6927488436475E-15,1.,0.));
#403=DIRECTION('',(-0.5,0.866025403784439,0.));
#404=DIRECTION('',(-0.866025403784439,-0.5,0.));
#405=DIRECTION('',(0.866025403784439,0.5,0.));
#406=DIRECTION('',(0.,0.,-1.));
#407=DIRECTION('',(1.,0.,0.));
#408=CARTESIAN_POINT('',(0.,0.,0.));
#409=CARTESIAN_POINT('',(-0.00374999999999989,-0.0425,-0.011));
#410=CARTESIAN_POINT('',(-0.00374999999999989,-0.0425,-0.006));
#411=CARTESIAN_POINT('',(0.00125000000000011,-0.0425,-0.006));
#412=CARTESIAN_POINT('',(-0.00374999999999989,-0.0425,-0.051));
#413=CARTESIAN_POINT('',(-0.00874999999999989,-0.0425,-0.051));
#414=CARTESIAN_POINT('',(-0.00374999999999991,-0.0425,-0.006));
#415=CARTESIAN_POINT('',(-0.00204999999999989,-0.0454444863728672,-0.006));
#416=CARTESIAN_POINT('',(-0.00374999999999988,-0.0464259818304895,-0.006));
#417=CARTESIAN_POINT('',(-0.000349999999999886,-0.0444629909152448,-0.006));
#418=CARTESIAN_POINT('',(-0.00544999999999989,-0.0454444863728672,-0.006));
#419=CARTESIAN_POINT('',(-0.0071499999999999,-0.0444629909152448,-0.006));
#420=CARTESIAN_POINT('',(-0.00714999999999989,-0.0425,-0.006));
#421=CARTESIAN_POINT('',(-0.0071499999999999,-0.0405370090847553,-0.006));
#422=CARTESIAN_POINT('',(-0.0054499999999999,-0.039555513627133,-0.006));
#423=CARTESIAN_POINT('',(-0.00374999999999989,-0.0385740181695106,-0.006));
#424=CARTESIAN_POINT('',(-0.0020499999999999,-0.039555513627133,-0.006));
#425=CARTESIAN_POINT('',(-0.000349999999999892,-0.0405370090847553,-0.006));
#426=CARTESIAN_POINT('',(-0.000349999999999885,-0.0425,-0.006));
#427=CARTESIAN_POINT('',(-0.00204999999999989,-0.0454444863728672,-0.002));
#428=CARTESIAN_POINT('',(-0.000349999999999886,-0.0444629909152448,-0.002));
#429=CARTESIAN_POINT('',(-0.000349999999999886,-0.0444629909152448,-0.002));
#430=CARTESIAN_POINT('',(-0.00204999999999989,-0.0454444863728672,-0.002));
#431=CARTESIAN_POINT('',(-0.00374999999999988,-0.0464259818304895,-0.002));
#432=CARTESIAN_POINT('',(-0.00374999999999988,-0.0464259818304895,-0.002));
#433=CARTESIAN_POINT('',(-0.000349999999999885,-0.0425,-0.002));
#434=CARTESIAN_POINT('',(-0.000349999999999892,-0.0405370090847553,-0.002));
#435=CARTESIAN_POINT('',(-0.000349999999999892,-0.0405370090847553,-0.002));
#436=CARTESIAN_POINT('',(-0.000349999999999885,-0.0425,-0.002));
#437=CARTESIAN_POINT('',(-0.0020499999999999,-0.039555513627133,-0.002));
#438=CARTESIAN_POINT('',(-0.00374999999999989,-0.0385740181695106,-0.002));
#439=CARTESIAN_POINT('',(-0.00374999999999989,-0.0385740181695106,-0.002));
#440=CARTESIAN_POINT('',(-0.0020499999999999,-0.039555513627133,-0.002));
#441=CARTESIAN_POINT('',(-0.0054499999999999,-0.039555513627133,-0.002));
#442=CARTESIAN_POINT('',(-0.0071499999999999,-0.0405370090847553,-0.002));
#443=CARTESIAN_POINT('',(-0.0071499999999999,-0.0405370090847553,-0.002));
#444=CARTESIAN_POINT('',(-0.0054499999999999,-0.039555513627133,-0.002));
#445=CARTESIAN_POINT('',(-0.00714999999999989,-0.0425,-0.002));
#446=CARTESIAN_POINT('',(-0.0071499999999999,-0.0444629909152448,-0.002));
#447=CARTESIAN_POINT('',(-0.0071499999999999,-0.0444629909152448,-0.002));
#448=CARTESIAN_POINT('',(-0.00714999999999989,-0.0425,-0.002));
#449=CARTESIAN_POINT('',(-0.00544999999999989,-0.0454444863728672,-0.002));
#450=CARTESIAN_POINT('',(-0.00544999999999989,-0.0454444863728672,-0.002));
#451=CARTESIAN_POINT('',(-0.00374999999999989,-0.0425,-0.002));
#452=CARTESIAN_POINT('',(-0.00374999999999989,-0.0425,-0.051));
#453=CARTESIAN_POINT('',(-0.00197499999999989,-0.0394256098165653,-0.051));
#454=CARTESIAN_POINT('',(-0.00374999999999988,-0.0384008130887537,-0.051));
#455=CARTESIAN_POINT('',(-0.000199999999999891,-0.0404504065443769,-0.051));
#456=CARTESIAN_POINT('',(-0.0055249999999999,-0.0394256098165653,-0.051));
#457=CARTESIAN_POINT('',(-0.0072999999999999,-0.0404504065443769,-0.051));
#458=CARTESIAN_POINT('',(-0.00729999999999989,-0.0425,-0.051));
#459=CARTESIAN_POINT('',(-0.00729999999999989,-0.0445495934556232,-0.051));
#460=CARTESIAN_POINT('',(-0.00552499999999989,-0.0455743901834348,-0.051));
#461=CARTESIAN_POINT('',(-0.00374999999999989,-0.0465991869112464,-0.051));
#462=CARTESIAN_POINT('',(-0.00197499999999989,-0.0455743901834348,-0.051));
#463=CARTESIAN_POINT('',(-0.000199999999999893,-0.0445495934556232,-0.051));
#464=CARTESIAN_POINT('',(-0.00019999999999989,-0.0425,-0.051));
#465=CARTESIAN_POINT('',(-0.00197499999999989,-0.0394256098165653,-0.044));
#466=CARTESIAN_POINT('',(-0.000199999999999891,-0.0404504065443769,-0.044));
#467=CARTESIAN_POINT('',(-0.000199999999999891,-0.0404504065443769,-0.044));
#468=CARTESIAN_POINT('',(-0.00197499999999989,-0.0394256098165653,-0.044));
#469=CARTESIAN_POINT('',(-0.00374999999999988,-0.0384008130887537,-0.044));
#470=CARTESIAN_POINT('',(-0.00374999999999988,-0.0384008130887537,-0.044));
#471=CARTESIAN_POINT('',(-0.00019999999999989,-0.0425,-0.044));
#472=CARTESIAN_POINT('',(-0.000199999999999893,-0.0445495934556232,-0.044));
#473=CARTESIAN_POINT('',(-0.000199999999999893,-0.0445495934556232,-0.044));
#474=CARTESIAN_POINT('',(-0.00019999999999989,-0.0425,-0.044));
#475=CARTESIAN_POINT('',(-0.00197499999999989,-0.0455743901834348,-0.044));
#476=CARTESIAN_POINT('',(-0.00374999999999989,-0.0465991869112464,-0.044));
#477=CARTESIAN_POINT('',(-0.00374999999999989,-0.0465991869112464,-0.044));
#478=CARTESIAN_POINT('',(-0.00197499999999989,-0.0455743901834348,-0.044));
#479=CARTESIAN_POINT('',(-0.00552499999999989,-0.0455743901834348,-0.044));
#480=CARTESIAN_POINT('',(-0.00729999999999989,-0.0445495934556232,-0.044));
#481=CARTESIAN_POINT('',(-0.00729999999999989,-0.0445495934556232,-0.044));
#482=CARTESIAN_POINT('',(-0.00552499999999989,-0.0455743901834348,-0.044));
#483=CARTESIAN_POINT('',(-0.00729999999999989,-0.0425,-0.044));
#484=CARTESIAN_POINT('',(-0.0072999999999999,-0.0404504065443769,-0.044));
#485=CARTESIAN_POINT('',(-0.0072999999999999,-0.0404504065443769,-0.044));
#486=CARTESIAN_POINT('',(-0.00729999999999989,-0.0425,-0.044));
#487=CARTESIAN_POINT('',(-0.0055249999999999,-0.0394256098165653,-0.044));
#488=CARTESIAN_POINT('',(-0.0055249999999999,-0.0394256098165653,-0.044));
#489=CARTESIAN_POINT('',(-0.00374999999999989,-0.0425,-0.044));
#490=MECHANICAL_DESIGN_GEOMETRIC_PRESENTATION_REPRESENTATION('',(#301),
#491);
#491=(
GEOMETRIC_REPRESENTATION_CONTEXT(3)
GLOBAL_UNCERTAINTY_ASSIGNED_CONTEXT((#492))
GLOBAL_UNIT_ASSIGNED_CONTEXT((#495,#494,#493))
REPRESENTATION_CONTEXT('(Axle) Steering input gear 2',
'TOP_LEVEL_ASSEMBLY_PART')
);
#492=UNCERTAINTY_MEASURE_WITH_UNIT(LENGTH_MEASURE(1.E-8),#495,
'DISTANCE_ACCURACY_VALUE','Maximum Tolerance applied to model');
#493=(
NAMED_UNIT(*)
SI_UNIT($,.STERADIAN.)
SOLID_ANGLE_UNIT()
);
#494=(
NAMED_UNIT(*)
PLANE_ANGLE_UNIT()
SI_UNIT($,.RADIAN.)
);
#495=(
LENGTH_UNIT()
NAMED_UNIT(*)
SI_UNIT($,.METRE.)
);
#496=PRODUCT_DEFINITION_SHAPE('','',#497);
#497=PRODUCT_DEFINITION('','',#499,#498);
#498=PRODUCT_DEFINITION_CONTEXT('',#505,'design');
#499=PRODUCT_DEFINITION_FORMATION_WITH_SPECIFIED_SOURCE('','',#501,
 .NOT_KNOWN.);
#500=PRODUCT_RELATED_PRODUCT_CATEGORY('','',(#501));
#501=PRODUCT('(Axle) Steering input gear 2',
'(Axle) Steering input gear 2','(Axle) Steering input gear 2',(#503));
#502=PRODUCT_CATEGORY('','');
#503=PRODUCT_CONTEXT('',#505,'mechanical');
#504=APPLICATION_PROTOCOL_DEFINITION('international standard',
'ap242_managed_model_based_3d_engineering',2020,#505);
#505=APPLICATION_CONTEXT('managed model based 3d engineering');
ENDSEC;
END-ISO-10303-21;
