ISO-10303-21;
HEADER;
/* Generated by software containing ST-Developer
 * from STEP Tools, Inc. (www.steptools.com) 
 */
/* OPTION: using custom renumber hook */

FILE_DESCRIPTION(
/* description */ ('STEP AP242 Edition 2',
'CAx-IF Rec.Pracs.---Representation and Presentation of Product Manufa
cturing Information (PMI)---4.0---2014-10-13',
'CAx-IF Rec.Pracs.---3D Tessellated Geometry---0.4---2014-09-14','2;1',
'CAx-IF Rec.Pracs.---User Defined Attributes---1.5---2016-08-15'),
/* implementation_level */ '2;1');

FILE_NAME(
/* name */ 'Assembly 1 - (AXLE) Drive Input Pulley',
/* time_stamp */ '2026-08-06T04:33:44Z',
/* author */ (''),
/* organization */ (''),
/* preprocessor_version */ 'ST-DEVELOPER v20',
/* originating_system */ 'ONSHAPE BY PTC INC, 1.218',
/* authorisation */ '  ');

FILE_SCHEMA (('AP242_MANAGED_MODEL_BASED_3D_ENGINEERING_MIM_LF { 1 0 10303 442 3 1 4 }'));
ENDSEC;

DATA;
#10=SHAPE_REPRESENTATION_RELATIONSHIP('','',#177,#11);
#11=ADVANCED_BREP_SHAPE_REPRESENTATION('',(#175),#277);
#12=CYLINDRICAL_SURFACE('',#187,0.00225);
#13=LINE('',#236,#31);
#14=LINE('',#239,#32);
#15=LINE('',#241,#33);
#16=LINE('',#243,#34);
#17=LINE('',#245,#35);
#18=LINE('',#247,#36);
#19=LINE('',#249,#37);
#20=LINE('',#251,#38);
#21=LINE('',#253,#39);
#22=LINE('',#255,#40);
#23=LINE('',#257,#41);
#24=LINE('',#259,#42);
#25=LINE('',#261,#43);
#26=LINE('',#263,#44);
#27=LINE('',#265,#45);
#28=LINE('',#267,#46);
#29=LINE('',#269,#47);
#30=LINE('',#271,#48);
#31=VECTOR('',#196,1.);
#32=VECTOR('',#197,1.);
#33=VECTOR('',#198,1.);
#34=VECTOR('',#199,1.);
#35=VECTOR('',#200,1.);
#36=VECTOR('',#201,1.);
#37=VECTOR('',#204,1.);
#38=VECTOR('',#205,1.);
#39=VECTOR('',#206,1.);
#40=VECTOR('',#209,1.);
#41=VECTOR('',#210,1.);
#42=VECTOR('',#213,1.);
#43=VECTOR('',#214,1.);
#44=VECTOR('',#217,1.);
#45=VECTOR('',#218,1.);
#46=VECTOR('',#221,1.);
#47=VECTOR('',#222,1.);
#48=VECTOR('',#225,1.);
#49=ORIENTED_EDGE('',*,*,#89,.F.);
#50=ORIENTED_EDGE('',*,*,#90,.T.);
#51=ORIENTED_EDGE('',*,*,#91,.T.);
#52=ORIENTED_EDGE('',*,*,#92,.T.);
#53=ORIENTED_EDGE('',*,*,#93,.T.);
#54=ORIENTED_EDGE('',*,*,#94,.T.);
#55=ORIENTED_EDGE('',*,*,#95,.T.);
#56=ORIENTED_EDGE('',*,*,#96,.T.);
#57=ORIENTED_EDGE('',*,*,#97,.F.);
#58=ORIENTED_EDGE('',*,*,#98,.F.);
#59=ORIENTED_EDGE('',*,*,#91,.F.);
#60=ORIENTED_EDGE('',*,*,#98,.T.);
#61=ORIENTED_EDGE('',*,*,#99,.F.);
#62=ORIENTED_EDGE('',*,*,#100,.F.);
#63=ORIENTED_EDGE('',*,*,#92,.F.);
#64=ORIENTED_EDGE('',*,*,#100,.T.);
#65=ORIENTED_EDGE('',*,*,#101,.F.);
#66=ORIENTED_EDGE('',*,*,#102,.F.);
#67=ORIENTED_EDGE('',*,*,#93,.F.);
#68=ORIENTED_EDGE('',*,*,#102,.T.);
#69=ORIENTED_EDGE('',*,*,#103,.F.);
#70=ORIENTED_EDGE('',*,*,#104,.F.);
#71=ORIENTED_EDGE('',*,*,#94,.F.);
#72=ORIENTED_EDGE('',*,*,#104,.T.);
#73=ORIENTED_EDGE('',*,*,#105,.F.);
#74=ORIENTED_EDGE('',*,*,#106,.F.);
#75=ORIENTED_EDGE('',*,*,#95,.F.);
#76=ORIENTED_EDGE('',*,*,#106,.T.);
#77=ORIENTED_EDGE('',*,*,#107,.F.);
#78=ORIENTED_EDGE('',*,*,#96,.F.);
#79=ORIENTED_EDGE('',*,*,#90,.F.);
#80=ORIENTED_EDGE('',*,*,#89,.T.);
#81=ORIENTED_EDGE('',*,*,#108,.T.);
#82=ORIENTED_EDGE('',*,*,#108,.F.);
#83=ORIENTED_EDGE('',*,*,#99,.T.);
#84=ORIENTED_EDGE('',*,*,#97,.T.);
#85=ORIENTED_EDGE('',*,*,#107,.T.);
#86=ORIENTED_EDGE('',*,*,#105,.T.);
#87=ORIENTED_EDGE('',*,*,#103,.T.);
#88=ORIENTED_EDGE('',*,*,#101,.T.);
#89=EDGE_CURVE('',#109,#109,#123,.T.);
#90=EDGE_CURVE('',#110,#111,#13,.T.);
#91=EDGE_CURVE('',#111,#112,#14,.T.);
#92=EDGE_CURVE('',#112,#113,#15,.T.);
#93=EDGE_CURVE('',#113,#114,#16,.T.);
#94=EDGE_CURVE('',#114,#115,#17,.T.);
#95=EDGE_CURVE('',#115,#110,#18,.T.);
#96=EDGE_CURVE('',#111,#116,#19,.T.);
#97=EDGE_CURVE('',#117,#116,#20,.T.);
#98=EDGE_CURVE('',#112,#117,#21,.T.);
#99=EDGE_CURVE('',#118,#117,#22,.T.);
#100=EDGE_CURVE('',#113,#118,#23,.T.);
#101=EDGE_CURVE('',#119,#118,#24,.T.);
#102=EDGE_CURVE('',#114,#119,#25,.T.);
#103=EDGE_CURVE('',#120,#119,#26,.T.);
#104=EDGE_CURVE('',#115,#120,#27,.T.);
#105=EDGE_CURVE('',#121,#120,#28,.T.);
#106=EDGE_CURVE('',#110,#121,#29,.T.);
#107=EDGE_CURVE('',#116,#121,#30,.T.);
#108=EDGE_CURVE('',#122,#122,#124,.T.);
#109=VERTEX_POINT('',#235);
#110=VERTEX_POINT('',#237);
#111=VERTEX_POINT('',#238);
#112=VERTEX_POINT('',#240);
#113=VERTEX_POINT('',#242);
#114=VERTEX_POINT('',#244);
#115=VERTEX_POINT('',#246);
#116=VERTEX_POINT('',#250);
#117=VERTEX_POINT('',#252);
#118=VERTEX_POINT('',#256);
#119=VERTEX_POINT('',#260);
#120=VERTEX_POINT('',#264);
#121=VERTEX_POINT('',#268);
#122=VERTEX_POINT('',#274);
#123=CIRCLE('',#180,0.00225);
#124=CIRCLE('',#188,0.00225);
#125=EDGE_LOOP('',(#49));
#126=EDGE_LOOP('',(#50,#51,#52,#53,#54,#55));
#127=EDGE_LOOP('',(#56,#57,#58,#59));
#128=EDGE_LOOP('',(#60,#61,#62,#63));
#129=EDGE_LOOP('',(#64,#65,#66,#67));
#130=EDGE_LOOP('',(#68,#69,#70,#71));
#131=EDGE_LOOP('',(#72,#73,#74,#75));
#132=EDGE_LOOP('',(#76,#77,#78,#79));
#133=EDGE_LOOP('',(#80));
#134=EDGE_LOOP('',(#81));
#135=EDGE_LOOP('',(#82));
#136=EDGE_LOOP('',(#83,#84,#85,#86,#87,#88));
#137=FACE_BOUND('',#125,.T.);
#138=FACE_BOUND('',#126,.T.);
#139=FACE_BOUND('',#127,.T.);
#140=FACE_BOUND('',#128,.T.);
#141=FACE_BOUND('',#129,.T.);
#142=FACE_BOUND('',#130,.T.);
#143=FACE_BOUND('',#131,.T.);
#144=FACE_BOUND('',#132,.T.);
#145=FACE_BOUND('',#133,.T.);
#146=FACE_BOUND('',#134,.T.);
#147=FACE_BOUND('',#135,.T.);
#148=FACE_BOUND('',#136,.T.);
#149=PLANE('',#179);
#150=PLANE('',#181);
#151=PLANE('',#182);
#152=PLANE('',#183);
#153=PLANE('',#184);
#154=PLANE('',#185);
#155=PLANE('',#186);
#156=PLANE('',#189);
#157=ADVANCED_FACE('',(#137,#138),#149,.T.);
#158=ADVANCED_FACE('',(#139),#150,.F.);
#159=ADVANCED_FACE('',(#140),#151,.F.);
#160=ADVANCED_FACE('',(#141),#152,.F.);
#161=ADVANCED_FACE('',(#142),#153,.F.);
#162=ADVANCED_FACE('',(#143),#154,.F.);
#163=ADVANCED_FACE('',(#144),#155,.F.);
#164=ADVANCED_FACE('',(#145,#146),#12,.F.);
#165=ADVANCED_FACE('',(#147,#148),#156,.T.);
#166=CLOSED_SHELL('',(#157,#158,#159,#160,#161,#162,#163,#164,#165));
#167=STYLED_ITEM('',(#168),#175);
#168=PRESENTATION_STYLE_ASSIGNMENT((#169));
#169=SURFACE_STYLE_USAGE(.BOTH.,#170);
#170=SURFACE_SIDE_STYLE('',(#171));
#171=SURFACE_STYLE_FILL_AREA(#172);
#172=FILL_AREA_STYLE('',(#173));
#173=FILL_AREA_STYLE_COLOUR('',#174);
#174=COLOUR_RGB('',0.0862745098039216,0.31764705882353,0.690196078431373);
#175=MANIFOLD_SOLID_BREP('(AXLE) Drive Input Pulley',#166);
#176=SHAPE_DEFINITION_REPRESENTATION(#282,#177);
#177=SHAPE_REPRESENTATION('(AXLE) Drive Input Pulley',(#178),#277);
#178=AXIS2_PLACEMENT_3D('',#232,#190,#191);
#179=AXIS2_PLACEMENT_3D('',#233,#192,#193);
#180=AXIS2_PLACEMENT_3D('',#234,#194,#195);
#181=AXIS2_PLACEMENT_3D('',#248,#202,#203);
#182=AXIS2_PLACEMENT_3D('',#254,#207,#208);
#183=AXIS2_PLACEMENT_3D('',#258,#211,#212);
#184=AXIS2_PLACEMENT_3D('',#262,#215,#216);
#185=AXIS2_PLACEMENT_3D('',#266,#219,#220);
#186=AXIS2_PLACEMENT_3D('',#270,#223,#224);
#187=AXIS2_PLACEMENT_3D('',#272,#226,#227);
#188=AXIS2_PLACEMENT_3D('',#273,#228,#229);
#189=AXIS2_PLACEMENT_3D('',#275,#230,#231);
#190=DIRECTION('',(0.,0.,1.));
#191=DIRECTION('',(1.,0.,0.));
#192=DIRECTION('',(0.,-1.,0.));
#193=DIRECTION('',(1.,0.,0.));
#194=DIRECTION('',(0.,-1.,0.));
#195=DIRECTION('',(0.,0.,-1.));
#196=DIRECTION('',(0.866025403784439,0.,0.5));
#197=DIRECTION('',(0.,0.,1.));
#198=DIRECTION('',(-0.866025403784439,0.,0.5));
#199=DIRECTION('',(-0.866025403784439,0.,-0.5));
#200=DIRECTION('',(0.,0.,-1.));
#201=DIRECTION('',(0.866025403784438,0.,-0.5));
#202=DIRECTION('',(-1.,0.,0.));
#203=DIRECTION('',(0.,0.,1.));
#204=DIRECTION('',(0.,1.,0.));
#205=DIRECTION('',(0.,0.,-1.));
#206=DIRECTION('',(0.,1.,0.));
#207=DIRECTION('',(-0.5,0.,-0.866025403784439));
#208=DIRECTION('',(-0.866025403784439,0.,0.5));
#209=DIRECTION('',(0.866025403784439,0.,-0.5));
#210=DIRECTION('',(0.,1.,0.));
#211=DIRECTION('',(0.5,0.,-0.866025403784439));
#212=DIRECTION('',(-0.866025403784439,0.,-0.5));
#213=DIRECTION('',(0.866025403784438,0.,0.5));
#214=DIRECTION('',(0.,1.,0.));
#215=DIRECTION('',(1.,0.,0.));
#216=DIRECTION('',(0.,0.,-1.));
#217=DIRECTION('',(0.,0.,1.));
#218=DIRECTION('',(0.,1.,0.));
#219=DIRECTION('',(0.5,0.,0.866025403784439));
#220=DIRECTION('',(0.866025403784439,0.,-0.5));
#221=DIRECTION('',(-0.866025403784439,0.,0.5));
#222=DIRECTION('',(0.,1.,0.));
#223=DIRECTION('',(-0.5,0.,0.866025403784439));
#224=DIRECTION('',(0.866025403784439,0.,0.5));
#225=DIRECTION('',(-0.866025403784439,0.,-0.5));
#226=DIRECTION('',(0.,1.,0.));
#227=DIRECTION('',(0.,0.,1.));
#228=DIRECTION('',(0.,1.,0.));
#229=DIRECTION('',(0.,0.,1.));
#230=DIRECTION('',(0.,1.,0.));
#231=DIRECTION('',(-1.,0.,0.));
#232=CARTESIAN_POINT('',(0.,0.,0.));
#233=CARTESIAN_POINT('',(0.,-0.01,0.));
#234=CARTESIAN_POINT('',(0.,-0.01,3.67394039744206E-19));
#235=CARTESIAN_POINT('',(0.,-0.01,-0.00225));
#236=CARTESIAN_POINT('',(0.0017,-0.01,-0.00294448637286709));
#237=CARTESIAN_POINT('',(6.50521303491303E-19,-0.01,-0.00392598183048946));
#238=CARTESIAN_POINT('',(0.0034,-0.01,-0.00196299091524473));
#239=CARTESIAN_POINT('',(0.0034,-0.01,0.));
#240=CARTESIAN_POINT('',(0.0034,-0.01,0.00196299091524473));
#241=CARTESIAN_POINT('',(0.0017,-0.01,0.00294448637286709));
#242=CARTESIAN_POINT('',(2.16840434497101E-18,-0.01,0.00392598183048946));
#243=CARTESIAN_POINT('',(-0.0017,-0.01,0.00294448637286709));
#244=CARTESIAN_POINT('',(-0.0034,-0.01,0.00196299091524473));
#245=CARTESIAN_POINT('',(-0.0034,-0.01,4.33680868994202E-19));
#246=CARTESIAN_POINT('',(-0.0034,-0.01,-0.00196299091524473));
#247=CARTESIAN_POINT('',(-0.0017,-0.01,-0.00294448637286709));
#248=CARTESIAN_POINT('',(0.0034,-0.01,0.));
#249=CARTESIAN_POINT('',(0.0034,-0.01,-0.00196299091524473));
#250=CARTESIAN_POINT('',(0.0034,0.00665225,-0.00196299091524473));
#251=CARTESIAN_POINT('',(0.0034,0.00665225,0.));
#252=CARTESIAN_POINT('',(0.0034,0.00665225,0.00196299091524473));
#253=CARTESIAN_POINT('',(0.0034,-0.01,0.00196299091524473));
#254=CARTESIAN_POINT('',(0.0017,-0.01,0.00294448637286709));
#255=CARTESIAN_POINT('',(0.0017,0.00665225,0.00294448637286709));
#256=CARTESIAN_POINT('',(4.33680868994202E-19,0.00665225,0.00392598183048946));
#257=CARTESIAN_POINT('',(2.16840434497101E-18,-0.01,0.00392598183048946));
#258=CARTESIAN_POINT('',(-0.0017,-0.01,0.00294448637286709));
#259=CARTESIAN_POINT('',(-0.0017,0.00665225,0.00294448637286709));
#260=CARTESIAN_POINT('',(-0.0034,0.00665225,0.00196299091524473));
#261=CARTESIAN_POINT('',(-0.0034,-0.01,0.00196299091524473));
#262=CARTESIAN_POINT('',(-0.0034,-0.01,4.33680868994202E-19));
#263=CARTESIAN_POINT('',(-0.0034,0.00665225,-4.33680868994202E-19));
#264=CARTESIAN_POINT('',(-0.0034,0.00665225,-0.00196299091524473));
#265=CARTESIAN_POINT('',(-0.0034,-0.01,-0.00196299091524473));
#266=CARTESIAN_POINT('',(-0.0017,-0.01,-0.00294448637286709));
#267=CARTESIAN_POINT('',(-0.0017,0.00665225,-0.00294448637286709));
#268=CARTESIAN_POINT('',(1.3010426069826E-18,0.00665225,-0.00392598183048946));
#269=CARTESIAN_POINT('',(6.50521303491303E-19,-0.01,-0.00392598183048946));
#270=CARTESIAN_POINT('',(0.0017,-0.01,-0.00294448637286709));
#271=CARTESIAN_POINT('',(0.0017,0.00665225,-0.00294448637286709));
#272=CARTESIAN_POINT('',(0.,-0.0285,3.67394039744206E-19));
#273=CARTESIAN_POINT('',(0.,0.00665225,3.67394039744206E-19));
#274=CARTESIAN_POINT('',(0.,0.00665225,0.00225));
#275=CARTESIAN_POINT('',(0.,0.00665225,0.));
#276=MECHANICAL_DESIGN_GEOMETRIC_PRESENTATION_REPRESENTATION('',(#167),
#277);
#277=(
GEOMETRIC_REPRESENTATION_CONTEXT(3)
GLOBAL_UNCERTAINTY_ASSIGNED_CONTEXT((#278))
GLOBAL_UNIT_ASSIGNED_CONTEXT((#281,#280,#279))
REPRESENTATION_CONTEXT('(AXLE) Drive Input Pulley',
'TOP_LEVEL_ASSEMBLY_PART')
);
#278=UNCERTAINTY_MEASURE_WITH_UNIT(LENGTH_MEASURE(1.E-8),#281,
'DISTANCE_ACCURACY_VALUE','Maximum Tolerance applied to model');
#279=(
NAMED_UNIT(*)
SI_UNIT($,.STERADIAN.)
SOLID_ANGLE_UNIT()
);
#280=(
NAMED_UNIT(*)
PLANE_ANGLE_UNIT()
SI_UNIT($,.RADIAN.)
);
#281=(
LENGTH_UNIT()
NAMED_UNIT(*)
SI_UNIT($,.METRE.)
);
#282=PRODUCT_DEFINITION_SHAPE('','',#283);
#283=PRODUCT_DEFINITION('','',#285,#284);
#284=PRODUCT_DEFINITION_CONTEXT('',#291,'design');
#285=PRODUCT_DEFINITION_FORMATION_WITH_SPECIFIED_SOURCE('','',#287,
 .NOT_KNOWN.);
#286=PRODUCT_RELATED_PRODUCT_CATEGORY('','',(#287));
#287=PRODUCT('(AXLE) Drive Input Pulley','(AXLE) Drive Input Pulley',
'(AXLE) Drive Input Pulley',(#289));
#288=PRODUCT_CATEGORY('','');
#289=PRODUCT_CONTEXT('',#291,'mechanical');
#290=APPLICATION_PROTOCOL_DEFINITION('international standard',
'ap242_managed_model_based_3d_engineering',2020,#291);
#291=APPLICATION_CONTEXT('managed model based 3d engineering');
ENDSEC;
END-ISO-10303-21;
