ISO-10303-21;
HEADER;
/* Generated by software containing ST-Developer
 * from STEP Tools, Inc. (www.steptools.com) 
 */
/* OPTION: using custom renumber hook */

FILE_DESCRIPTION(
/* description */ ('STEP AP242 Edition 2',
'CAx-IF Rec.Pracs.---Representation and Presentation of Product Manufa
cturing Information (PMI)---4.0---2014-10-13',
'CAx-IF Rec.Pracs.---3D Tessellated Geometry---0.4---2014-09-14','2;1',
'CAx-IF Rec.Pracs.---User Defined Attributes---1.5---2016-08-15'),
/* implementation_level */ '2;1');

FILE_NAME(
/* name */ 'Assembly 1 - Pinion Bracket',
/* time_stamp */ '2026-08-06T04:34:44Z',
/* author */ (''),
/* organization */ (''),
/* preprocessor_version */ 'ST-DEVELOPER v20',
/* originating_system */ 'ONSHAPE BY PTC INC, 1.218',
/* authorisation */ '  ');

FILE_SCHEMA (('AP242_MANAGED_MODEL_BASED_3D_ENGINEERING_MIM_LF { 1 0 10303 442 3 1 4 }'));
ENDSEC;

DATA;
#10=SHAPE_REPRESENTATION_RELATIONSHIP('','',#817,#11);
#11=ADVANCED_BREP_SHAPE_REPRESENTATION('',(#815),#1532);
#12=TOROIDAL_SURFACE('',#876,0.004375,0.000625);
#13=TOROIDAL_SURFACE('',#877,0.004375,0.000625);
#14=TOROIDAL_SURFACE('',#879,0.004375,0.000625);
#15=TOROIDAL_SURFACE('',#883,0.004375,0.000625);
#16=(
BOUNDED_SURFACE()
B_SPLINE_SURFACE(3,2,((#1385,#1386,#1387),(#1388,#1389,#1390),(#1391,#1392,
#1393),(#1394,#1395,#1396),(#1397,#1398,#1399),(#1400,#1401,#1402),(#1403,
#1404,#1405),(#1406,#1407,#1408),(#1409,#1410,#1411)),.UNSPECIFIED.,.F.,
 .F.,.F.)
B_SPLINE_SURFACE_WITH_KNOTS((4,1,1,1,1,1,4),(3,3),(4.79478874012941,5.5389870236545,
5.91108616541704,6.28318530717959,6.65528444894213,7.02738359070468,7.77158187422977),
(0.,1.),.UNSPECIFIED.)
GEOMETRIC_REPRESENTATION_ITEM()
RATIONAL_B_SPLINE_SURFACE(((1.,0.733929046157041,1.),(1.,0.813022974620668,
1.),(1.,0.908292375945663,1.),(1.,0.973636377772372,1.),(1.,0.990212237957008,
1.),(1.,0.973636377772599,1.),(1.,0.908292375944374,1.),(1.,0.81302297462644,
1.),(1.,0.733929046157041,1.)))
REPRESENTATION_ITEM('')
SURFACE()
);
#17=(
BOUNDED_SURFACE()
B_SPLINE_SURFACE(3,2,((#1437,#1438,#1439),(#1440,#1441,#1442),(#1443,#1444,
#1445),(#1446,#1447,#1448),(#1449,#1450,#1451),(#1452,#1453,#1454),(#1455,
#1456,#1457),(#1458,#1459,#1460),(#1461,#1462,#1463)),.UNSPECIFIED.,.F.,
 .F.,.F.)
B_SPLINE_SURFACE_WITH_KNOTS((4,1,1,1,1,1,4),(3,3),(4.79478874012941,5.5389870236545,
5.91108616541704,6.28318530717959,6.65528444894213,7.02738359070468,7.77158187422977),
(0.,1.),.UNSPECIFIED.)
GEOMETRIC_REPRESENTATION_ITEM()
RATIONAL_B_SPLINE_SURFACE(((1.,0.733929046157041,1.),(1.,0.813022974631339,
1.),(1.,0.908292375943257,1.),(1.,0.973636377772825,1.),(1.,0.990212237956886,
1.),(1.,0.973636377772631,1.),(1.,0.908292375944355,1.),(1.,0.81302297462644,
1.),(1.,0.733929046157041,1.)))
REPRESENTATION_ITEM('')
SURFACE()
);
#18=ELLIPSE('',#861,0.012743039779885,0.004375);
#19=ELLIPSE('',#863,0.012743039779885,0.004375);
#20=ELLIPSE('',#865,0.0125422062585389,0.00375);
#21=ELLIPSE('',#870,0.0125422062585389,0.00375);
#22=B_SPLINE_CURVE_WITH_KNOTS('',3,(#1239,#1240,#1241,#1242),
 .UNSPECIFIED.,.F.,.F.,(4,4),(0.,0.00123699416023809),.UNSPECIFIED.);
#23=B_SPLINE_CURVE_WITH_KNOTS('',3,(#1246,#1247,#1248,#1249),
 .UNSPECIFIED.,.F.,.F.,(4,4),(0.,0.00123699416023793),.UNSPECIFIED.);
#24=B_SPLINE_CURVE_WITH_KNOTS('',3,(#1252,#1253,#1254,#1255),
 .UNSPECIFIED.,.F.,.F.,(4,4),(0.,0.00123699416023797),.UNSPECIFIED.);
#25=B_SPLINE_CURVE_WITH_KNOTS('',3,(#1259,#1260,#1261,#1262),
 .UNSPECIFIED.,.F.,.F.,(4,4),(0.,0.0012369941602374),.UNSPECIFIED.);
#26=B_SPLINE_CURVE_WITH_KNOTS('',3,(#1268,#1269,#1270,#1271,#1272,#1273,
#1274,#1275,#1276,#1277,#1278,#1279,#1280,#1281,#1282,#1283,#1284,#1285,
#1286,#1287,#1288,#1289,#1290),.UNSPECIFIED.,.T.,.F.,(1,1,1,1,1,1,1,1,1,
1,1,1,1,1,1,1,1,1,1,1,1,1,1,1,1,1,1),(-0.00189954995106524,-0.000949774975532622,
-0.000474887487766312,0.,0.000474887487766311,0.000949774975532622,0.00189954995106524,
0.00284932492659787,0.00379909990213049,0.00474887487766311,0.00569864985319573,
0.00664842482872835,0.00712331231649466,0.00759819980426097,0.00807308729202729,
0.0085479747797936,0.00949774975532622,0.0104475247308588,0.0113972997063915,
0.0123470746819241,0.0132968496574567,0.0142466246329893,0.0147215121207556,
0.0151963996085219,0.0156712870962883,0.0161461745840546,0.0170959495595872),
 .UNSPECIFIED.);
#27=B_SPLINE_CURVE_WITH_KNOTS('',3,(#1292,#1293,#1294,#1295,#1296,#1297,
#1298,#1299,#1300,#1301,#1302,#1303,#1304,#1305,#1306,#1307,#1308,#1309,
#1310,#1311,#1312,#1313,#1314),.UNSPECIFIED.,.T.,.F.,(1,1,1,1,1,1,1,1,1,
1,1,1,1,1,1,1,1,1,1,1,1,1,1,1,1,1,1),(-0.00189954995106525,-0.000949774975532626,
-0.000474887487766312,0.,0.000474887487766313,0.000949774975532627,0.00189954995106525,
0.00284932492659788,0.00379909990213051,0.00474887487766313,0.00569864985319576,
0.00664842482872839,0.0071233123164947,0.00759819980426101,0.00807308729202733,
0.00854797477979364,0.00949774975532627,0.0104475247308589,0.0113972997063915,
0.0123470746819241,0.0132968496574568,0.0142466246329894,0.0147215121207557,
0.015196399608522,0.0156712870962883,0.0161461745840547,0.0170959495595873),
 .UNSPECIFIED.);
#28=B_SPLINE_CURVE_WITH_KNOTS('',3,(#1317,#1318,#1319,#1320,#1321,#1322,
#1323,#1324,#1325,#1326,#1327),.UNSPECIFIED.,.T.,.F.,(1,1,1,1,1,1,1,1,1,
1,1,1,1,1,1),(-0.00510171987129283,-0.00340114658086188,-0.00170057329043093,
1.05519109601004E-17,0.00170057329043096,0.0034011465808619,0.00510171987129285,
0.00680229316172379,0.00850286645215474,0.0102034397425857,0.0119040130330166,
0.0136045863234476,0.0153051596138785,0.0170057329043095,0.0187063061947404),
 .UNSPECIFIED.);
#29=B_SPLINE_CURVE_WITH_KNOTS('',3,(#1341,#1342,#1343,#1344),
 .UNSPECIFIED.,.F.,.F.,(4,4),(0.,3.95201571077127E-5),.UNSPECIFIED.);
#30=B_SPLINE_CURVE_WITH_KNOTS('',3,(#1349,#1350,#1351,#1352),
 .UNSPECIFIED.,.F.,.F.,(4,4),(0.,3.9520157107704E-5),.UNSPECIFIED.);
#31=B_SPLINE_CURVE_WITH_KNOTS('',3,(#1356,#1357,#1358,#1359),
 .UNSPECIFIED.,.F.,.F.,(4,4),(0.,3.95201571077127E-5),.UNSPECIFIED.);
#32=B_SPLINE_CURVE_WITH_KNOTS('',3,(#1363,#1364,#1365,#1366),
 .UNSPECIFIED.,.F.,.F.,(4,4),(0.,3.9520157107704E-5),.UNSPECIFIED.);
#33=B_SPLINE_CURVE_WITH_KNOTS('',3,(#1412,#1413,#1414,#1415,#1416),
 .UNSPECIFIED.,.F.,.F.,(4,1,4),(0.,0.000514808422999169,0.00102961684599834),
 .UNSPECIFIED.);
#34=B_SPLINE_CURVE_WITH_KNOTS('',3,(#1417,#1418,#1419,#1420,#1421),
 .UNSPECIFIED.,.F.,.F.,(4,1,4),(0.,0.000514808422999164,0.00102961684599833),
 .UNSPECIFIED.);
#35=B_SPLINE_CURVE_WITH_KNOTS('',3,(#1423,#1424,#1425,#1426,#1427,#1428),
 .UNSPECIFIED.,.F.,.F.,(4,1,1,4),(0.,0.000517858055479142,0.000776787083218713,
0.00103571611095828),.UNSPECIFIED.);
#36=B_SPLINE_CURVE_WITH_KNOTS('',3,(#1431,#1432,#1433,#1434,#1435,#1436),
 .UNSPECIFIED.,.F.,.F.,(4,1,1,4),(0.,0.000261026630257379,0.000522053260514758,
0.00104410652102952),.UNSPECIFIED.);
#37=B_SPLINE_CURVE_WITH_KNOTS('',3,(#1464,#1465,#1466,#1467,#1468),
 .UNSPECIFIED.,.F.,.F.,(4,1,4),(0.,0.000514808422999163,0.00102961684599833),
 .UNSPECIFIED.);
#38=B_SPLINE_CURVE_WITH_KNOTS('',3,(#1469,#1470,#1471,#1472,#1473),
 .UNSPECIFIED.,.F.,.F.,(4,1,4),(0.,0.000514808422999169,0.00102961684599834),
 .UNSPECIFIED.);
#39=B_SPLINE_CURVE_WITH_KNOTS('',3,(#1477,#1478,#1479,#1480,#1481,#1482),
 .UNSPECIFIED.,.F.,.F.,(4,1,1,4),(0.,0.00051785805547914,0.00077678708321871,
0.00103571611095828),.UNSPECIFIED.);
#40=B_SPLINE_CURVE_WITH_KNOTS('',3,(#1483,#1484,#1485,#1486,#1487,#1488),
 .UNSPECIFIED.,.F.,.F.,(4,1,1,4),(0.,0.000261026630257388,0.000522053260514776,
0.00104410652102955),.UNSPECIFIED.);
#41=CYLINDRICAL_SURFACE('',#842,0.00225);
#42=CYLINDRICAL_SURFACE('',#845,0.00225);
#43=CYLINDRICAL_SURFACE('',#848,0.005);
#44=CYLINDRICAL_SURFACE('',#851,0.005);
#45=CYLINDRICAL_SURFACE('',#856,0.00225);
#46=CYLINDRICAL_SURFACE('',#857,0.005);
#47=CYLINDRICAL_SURFACE('',#864,0.00375);
#48=CYLINDRICAL_SURFACE('',#869,0.00375);
#49=CYLINDRICAL_SURFACE('',#874,0.000625);
#50=CYLINDRICAL_SURFACE('',#880,0.000625);
#51=CYLINDRICAL_SURFACE('',#881,0.000625);
#52=CYLINDRICAL_SURFACE('',#885,0.000625);
#53=CYLINDRICAL_SURFACE('',#891,0.001);
#54=CYLINDRICAL_SURFACE('',#892,0.001);
#55=CYLINDRICAL_SURFACE('',#893,0.001);
#56=CYLINDRICAL_SURFACE('',#894,0.001);
#57=CYLINDRICAL_SURFACE('',#899,0.001);
#58=CYLINDRICAL_SURFACE('',#900,0.001);
#59=CYLINDRICAL_SURFACE('',#901,0.001);
#60=CYLINDRICAL_SURFACE('',#902,0.001);
#61=CYLINDRICAL_SURFACE('',#903,0.00215);
#62=CYLINDRICAL_SURFACE('',#904,0.00215);
#63=CYLINDRICAL_SURFACE('',#905,0.00415);
#64=CIRCLE('',#821,0.004375);
#65=CIRCLE('',#822,0.00225);
#66=CIRCLE('',#823,0.001);
#67=CIRCLE('',#824,0.001);
#68=CIRCLE('',#825,0.001);
#69=CIRCLE('',#826,0.001);
#70=CIRCLE('',#827,0.001);
#71=CIRCLE('',#828,0.001);
#72=CIRCLE('',#829,0.001);
#73=CIRCLE('',#830,0.001);
#74=CIRCLE('',#832,0.001);
#75=CIRCLE('',#833,0.001);
#76=CIRCLE('',#834,0.001);
#77=CIRCLE('',#835,0.001);
#78=CIRCLE('',#836,0.001);
#79=CIRCLE('',#837,0.001);
#80=CIRCLE('',#838,0.001);
#81=CIRCLE('',#839,0.001);
#82=CIRCLE('',#840,0.004375);
#83=CIRCLE('',#841,0.00225);
#84=CIRCLE('',#843,0.00225);
#85=CIRCLE('',#844,0.00225);
#86=CIRCLE('',#846,0.00225);
#87=CIRCLE('',#847,0.00225);
#88=CIRCLE('',#849,0.005);
#89=CIRCLE('',#850,0.005);
#90=CIRCLE('',#852,0.005);
#91=CIRCLE('',#853,0.005);
#92=CIRCLE('',#855,0.00415);
#93=CIRCLE('',#858,0.005);
#94=CIRCLE('',#859,0.005);
#95=CIRCLE('',#866,0.00375);
#96=CIRCLE('',#867,0.00375);
#97=CIRCLE('',#871,0.00375);
#98=CIRCLE('',#872,0.00375);
#99=CIRCLE('',#875,0.000625);
#100=CIRCLE('',#878,0.000625);
#101=CIRCLE('',#882,0.000625);
#102=CIRCLE('',#884,0.000625);
#103=CIRCLE('',#887,0.00415);
#104=CIRCLE('',#898,0.00215);
#105=ORIENTED_EDGE('',*,*,#329,.T.);
#106=ORIENTED_EDGE('',*,*,#330,.T.);
#107=ORIENTED_EDGE('',*,*,#331,.F.);
#108=ORIENTED_EDGE('',*,*,#332,.T.);
#109=ORIENTED_EDGE('',*,*,#333,.F.);
#110=ORIENTED_EDGE('',*,*,#334,.T.);
#111=ORIENTED_EDGE('',*,*,#335,.T.);
#112=ORIENTED_EDGE('',*,*,#336,.T.);
#113=ORIENTED_EDGE('',*,*,#337,.T.);
#114=ORIENTED_EDGE('',*,*,#338,.T.);
#115=ORIENTED_EDGE('',*,*,#339,.F.);
#116=ORIENTED_EDGE('',*,*,#340,.T.);
#117=ORIENTED_EDGE('',*,*,#341,.T.);
#118=ORIENTED_EDGE('',*,*,#342,.T.);
#119=ORIENTED_EDGE('',*,*,#343,.T.);
#120=ORIENTED_EDGE('',*,*,#344,.T.);
#121=ORIENTED_EDGE('',*,*,#345,.T.);
#122=ORIENTED_EDGE('',*,*,#346,.F.);
#123=ORIENTED_EDGE('',*,*,#347,.T.);
#124=ORIENTED_EDGE('',*,*,#348,.F.);
#125=ORIENTED_EDGE('',*,*,#349,.T.);
#126=ORIENTED_EDGE('',*,*,#331,.T.);
#127=ORIENTED_EDGE('',*,*,#350,.T.);
#128=ORIENTED_EDGE('',*,*,#351,.F.);
#129=ORIENTED_EDGE('',*,*,#352,.T.);
#130=ORIENTED_EDGE('',*,*,#353,.F.);
#131=ORIENTED_EDGE('',*,*,#354,.T.);
#132=ORIENTED_EDGE('',*,*,#355,.F.);
#133=ORIENTED_EDGE('',*,*,#356,.T.);
#134=ORIENTED_EDGE('',*,*,#357,.F.);
#135=ORIENTED_EDGE('',*,*,#358,.T.);
#136=ORIENTED_EDGE('',*,*,#359,.T.);
#137=ORIENTED_EDGE('',*,*,#360,.T.);
#138=ORIENTED_EDGE('',*,*,#361,.T.);
#139=ORIENTED_EDGE('',*,*,#362,.T.);
#140=ORIENTED_EDGE('',*,*,#329,.F.);
#141=ORIENTED_EDGE('',*,*,#363,.T.);
#142=ORIENTED_EDGE('',*,*,#364,.T.);
#143=ORIENTED_EDGE('',*,*,#365,.T.);
#144=ORIENTED_EDGE('',*,*,#366,.T.);
#145=ORIENTED_EDGE('',*,*,#367,.T.);
#146=ORIENTED_EDGE('',*,*,#368,.F.);
#147=ORIENTED_EDGE('',*,*,#369,.T.);
#148=ORIENTED_EDGE('',*,*,#370,.T.);
#149=ORIENTED_EDGE('',*,*,#371,.T.);
#150=ORIENTED_EDGE('',*,*,#372,.T.);
#151=ORIENTED_EDGE('',*,*,#373,.F.);
#152=ORIENTED_EDGE('',*,*,#374,.F.);
#153=ORIENTED_EDGE('',*,*,#375,.T.);
#154=ORIENTED_EDGE('',*,*,#376,.F.);
#155=ORIENTED_EDGE('',*,*,#377,.F.);
#156=ORIENTED_EDGE('',*,*,#378,.T.);
#157=ORIENTED_EDGE('',*,*,#379,.F.);
#158=ORIENTED_EDGE('',*,*,#380,.T.);
#159=ORIENTED_EDGE('',*,*,#381,.T.);
#160=ORIENTED_EDGE('',*,*,#382,.T.);
#161=ORIENTED_EDGE('',*,*,#383,.T.);
#162=ORIENTED_EDGE('',*,*,#333,.T.);
#163=ORIENTED_EDGE('',*,*,#384,.T.);
#164=ORIENTED_EDGE('',*,*,#372,.F.);
#165=ORIENTED_EDGE('',*,*,#385,.T.);
#166=ORIENTED_EDGE('',*,*,#386,.T.);
#167=ORIENTED_EDGE('',*,*,#387,.T.);
#168=ORIENTED_EDGE('',*,*,#374,.T.);
#169=ORIENTED_EDGE('',*,*,#388,.T.);
#170=ORIENTED_EDGE('',*,*,#337,.F.);
#171=ORIENTED_EDGE('',*,*,#389,.T.);
#172=ORIENTED_EDGE('',*,*,#377,.T.);
#173=ORIENTED_EDGE('',*,*,#388,.F.);
#174=ORIENTED_EDGE('',*,*,#373,.T.);
#175=ORIENTED_EDGE('',*,*,#384,.F.);
#176=ORIENTED_EDGE('',*,*,#338,.F.);
#177=ORIENTED_EDGE('',*,*,#379,.T.);
#178=ORIENTED_EDGE('',*,*,#390,.T.);
#179=ORIENTED_EDGE('',*,*,#391,.T.);
#180=ORIENTED_EDGE('',*,*,#376,.T.);
#181=ORIENTED_EDGE('',*,*,#339,.T.);
#182=ORIENTED_EDGE('',*,*,#392,.F.);
#183=ORIENTED_EDGE('',*,*,#393,.F.);
#184=ORIENTED_EDGE('',*,*,#394,.T.);
#185=ORIENTED_EDGE('',*,*,#395,.T.);
#186=ORIENTED_EDGE('',*,*,#396,.T.);
#187=ORIENTED_EDGE('',*,*,#397,.T.);
#188=ORIENTED_EDGE('',*,*,#398,.T.);
#189=ORIENTED_EDGE('',*,*,#399,.T.);
#190=ORIENTED_EDGE('',*,*,#393,.T.);
#191=ORIENTED_EDGE('',*,*,#400,.T.);
#192=ORIENTED_EDGE('',*,*,#401,.T.);
#193=ORIENTED_EDGE('',*,*,#395,.F.);
#194=ORIENTED_EDGE('',*,*,#402,.T.);
#195=ORIENTED_EDGE('',*,*,#403,.T.);
#196=ORIENTED_EDGE('',*,*,#404,.T.);
#197=ORIENTED_EDGE('',*,*,#405,.T.);
#198=ORIENTED_EDGE('',*,*,#406,.T.);
#199=ORIENTED_EDGE('',*,*,#407,.T.);
#200=ORIENTED_EDGE('',*,*,#408,.T.);
#201=ORIENTED_EDGE('',*,*,#409,.F.);
#202=ORIENTED_EDGE('',*,*,#380,.F.);
#203=ORIENTED_EDGE('',*,*,#409,.T.);
#204=ORIENTED_EDGE('',*,*,#410,.T.);
#205=ORIENTED_EDGE('',*,*,#411,.T.);
#206=ORIENTED_EDGE('',*,*,#412,.F.);
#207=ORIENTED_EDGE('',*,*,#378,.F.);
#208=ORIENTED_EDGE('',*,*,#412,.T.);
#209=ORIENTED_EDGE('',*,*,#397,.F.);
#210=ORIENTED_EDGE('',*,*,#413,.F.);
#211=ORIENTED_EDGE('',*,*,#410,.F.);
#212=ORIENTED_EDGE('',*,*,#414,.F.);
#213=ORIENTED_EDGE('',*,*,#415,.F.);
#214=ORIENTED_EDGE('',*,*,#400,.F.);
#215=ORIENTED_EDGE('',*,*,#416,.F.);
#216=ORIENTED_EDGE('',*,*,#375,.F.);
#217=ORIENTED_EDGE('',*,*,#387,.F.);
#218=ORIENTED_EDGE('',*,*,#413,.T.);
#219=ORIENTED_EDGE('',*,*,#401,.F.);
#220=ORIENTED_EDGE('',*,*,#415,.T.);
#221=ORIENTED_EDGE('',*,*,#386,.F.);
#222=ORIENTED_EDGE('',*,*,#417,.F.);
#223=ORIENTED_EDGE('',*,*,#398,.F.);
#224=ORIENTED_EDGE('',*,*,#414,.T.);
#225=ORIENTED_EDGE('',*,*,#411,.F.);
#226=ORIENTED_EDGE('',*,*,#404,.F.);
#227=ORIENTED_EDGE('',*,*,#418,.F.);
#228=ORIENTED_EDGE('',*,*,#407,.F.);
#229=ORIENTED_EDGE('',*,*,#419,.F.);
#230=ORIENTED_EDGE('',*,*,#416,.T.);
#231=ORIENTED_EDGE('',*,*,#396,.F.);
#232=ORIENTED_EDGE('',*,*,#420,.F.);
#233=ORIENTED_EDGE('',*,*,#370,.F.);
#234=ORIENTED_EDGE('',*,*,#418,.T.);
#235=ORIENTED_EDGE('',*,*,#403,.F.);
#236=ORIENTED_EDGE('',*,*,#421,.F.);
#237=ORIENTED_EDGE('',*,*,#382,.F.);
#238=ORIENTED_EDGE('',*,*,#422,.T.);
#239=ORIENTED_EDGE('',*,*,#405,.F.);
#240=ORIENTED_EDGE('',*,*,#419,.T.);
#241=ORIENTED_EDGE('',*,*,#408,.F.);
#242=ORIENTED_EDGE('',*,*,#420,.T.);
#243=ORIENTED_EDGE('',*,*,#406,.F.);
#244=ORIENTED_EDGE('',*,*,#422,.F.);
#245=ORIENTED_EDGE('',*,*,#381,.F.);
#246=ORIENTED_EDGE('',*,*,#371,.F.);
#247=ORIENTED_EDGE('',*,*,#385,.F.);
#248=ORIENTED_EDGE('',*,*,#336,.F.);
#249=ORIENTED_EDGE('',*,*,#423,.F.);
#250=ORIENTED_EDGE('',*,*,#399,.F.);
#251=ORIENTED_EDGE('',*,*,#417,.T.);
#252=ORIENTED_EDGE('',*,*,#423,.T.);
#253=ORIENTED_EDGE('',*,*,#335,.F.);
#254=ORIENTED_EDGE('',*,*,#424,.F.);
#255=ORIENTED_EDGE('',*,*,#394,.F.);
#256=ORIENTED_EDGE('',*,*,#421,.T.);
#257=ORIENTED_EDGE('',*,*,#402,.F.);
#258=ORIENTED_EDGE('',*,*,#424,.T.);
#259=ORIENTED_EDGE('',*,*,#334,.F.);
#260=ORIENTED_EDGE('',*,*,#383,.F.);
#261=ORIENTED_EDGE('',*,*,#425,.F.);
#262=ORIENTED_EDGE('',*,*,#346,.T.);
#263=ORIENTED_EDGE('',*,*,#426,.T.);
#264=ORIENTED_EDGE('',*,*,#366,.F.);
#265=ORIENTED_EDGE('',*,*,#427,.T.);
#266=ORIENTED_EDGE('',*,*,#364,.F.);
#267=ORIENTED_EDGE('',*,*,#428,.T.);
#268=ORIENTED_EDGE('',*,*,#348,.T.);
#269=ORIENTED_EDGE('',*,*,#429,.T.);
#270=ORIENTED_EDGE('',*,*,#342,.F.);
#271=ORIENTED_EDGE('',*,*,#430,.T.);
#272=ORIENTED_EDGE('',*,*,#355,.T.);
#273=ORIENTED_EDGE('',*,*,#431,.T.);
#274=ORIENTED_EDGE('',*,*,#344,.F.);
#275=ORIENTED_EDGE('',*,*,#432,.T.);
#276=ORIENTED_EDGE('',*,*,#368,.T.);
#277=ORIENTED_EDGE('',*,*,#433,.T.);
#278=ORIENTED_EDGE('',*,*,#349,.F.);
#279=ORIENTED_EDGE('',*,*,#428,.F.);
#280=ORIENTED_EDGE('',*,*,#363,.F.);
#281=ORIENTED_EDGE('',*,*,#332,.F.);
#282=ORIENTED_EDGE('',*,*,#343,.F.);
#283=ORIENTED_EDGE('',*,*,#431,.F.);
#284=ORIENTED_EDGE('',*,*,#369,.F.);
#285=ORIENTED_EDGE('',*,*,#432,.F.);
#286=ORIENTED_EDGE('',*,*,#345,.F.);
#287=ORIENTED_EDGE('',*,*,#433,.F.);
#288=ORIENTED_EDGE('',*,*,#367,.F.);
#289=ORIENTED_EDGE('',*,*,#426,.F.);
#290=ORIENTED_EDGE('',*,*,#347,.F.);
#291=ORIENTED_EDGE('',*,*,#427,.F.);
#292=ORIENTED_EDGE('',*,*,#365,.F.);
#293=ORIENTED_EDGE('',*,*,#429,.F.);
#294=ORIENTED_EDGE('',*,*,#340,.F.);
#295=ORIENTED_EDGE('',*,*,#434,.T.);
#296=ORIENTED_EDGE('',*,*,#357,.T.);
#297=ORIENTED_EDGE('',*,*,#435,.T.);
#298=ORIENTED_EDGE('',*,*,#361,.F.);
#299=ORIENTED_EDGE('',*,*,#436,.T.);
#300=ORIENTED_EDGE('',*,*,#351,.T.);
#301=ORIENTED_EDGE('',*,*,#437,.T.);
#302=ORIENTED_EDGE('',*,*,#438,.F.);
#303=ORIENTED_EDGE('',*,*,#359,.F.);
#304=ORIENTED_EDGE('',*,*,#439,.T.);
#305=ORIENTED_EDGE('',*,*,#353,.T.);
#306=ORIENTED_EDGE('',*,*,#440,.T.);
#307=ORIENTED_EDGE('',*,*,#354,.F.);
#308=ORIENTED_EDGE('',*,*,#439,.F.);
#309=ORIENTED_EDGE('',*,*,#358,.F.);
#310=ORIENTED_EDGE('',*,*,#434,.F.);
#311=ORIENTED_EDGE('',*,*,#352,.F.);
#312=ORIENTED_EDGE('',*,*,#436,.F.);
#313=ORIENTED_EDGE('',*,*,#360,.F.);
#314=ORIENTED_EDGE('',*,*,#440,.F.);
#315=ORIENTED_EDGE('',*,*,#341,.F.);
#316=ORIENTED_EDGE('',*,*,#435,.F.);
#317=ORIENTED_EDGE('',*,*,#356,.F.);
#318=ORIENTED_EDGE('',*,*,#430,.F.);
#319=ORIENTED_EDGE('',*,*,#350,.F.);
#320=ORIENTED_EDGE('',*,*,#330,.F.);
#321=ORIENTED_EDGE('',*,*,#362,.F.);
#322=ORIENTED_EDGE('',*,*,#437,.F.);
#323=ORIENTED_EDGE('',*,*,#438,.T.);
#324=ORIENTED_EDGE('',*,*,#391,.F.);
#325=ORIENTED_EDGE('',*,*,#392,.T.);
#326=ORIENTED_EDGE('',*,*,#390,.F.);
#327=ORIENTED_EDGE('',*,*,#425,.T.);
#328=ORIENTED_EDGE('',*,*,#389,.F.);
#329=EDGE_CURVE('',#441,#442,#519,.T.);
#330=EDGE_CURVE('',#442,#443,#520,.F.);
#331=EDGE_CURVE('',#444,#443,#521,.T.);
#332=EDGE_CURVE('',#444,#441,#522,.T.);
#333=EDGE_CURVE('',#445,#446,#523,.T.);
#334=EDGE_CURVE('',#445,#447,#524,.T.);
#335=EDGE_CURVE('',#447,#448,#64,.F.);
#336=EDGE_CURVE('',#448,#449,#525,.F.);
#337=EDGE_CURVE('',#449,#450,#526,.T.);
#338=EDGE_CURVE('',#450,#446,#527,.T.);
#339=EDGE_CURVE('',#451,#451,#65,.T.);
#340=EDGE_CURVE('',#452,#453,#528,.T.);
#341=EDGE_CURVE('',#453,#454,#66,.F.);
#342=EDGE_CURVE('',#454,#455,#529,.T.);
#343=EDGE_CURVE('',#455,#456,#67,.T.);
#344=EDGE_CURVE('',#456,#457,#530,.T.);
#345=EDGE_CURVE('',#457,#458,#68,.T.);
#346=EDGE_CURVE('',#459,#458,#531,.T.);
#347=EDGE_CURVE('',#459,#460,#69,.T.);
#348=EDGE_CURVE('',#461,#460,#532,.T.);
#349=EDGE_CURVE('',#461,#444,#70,.T.);
#350=EDGE_CURVE('',#443,#462,#71,.F.);
#351=EDGE_CURVE('',#463,#462,#533,.T.);
#352=EDGE_CURVE('',#463,#464,#72,.T.);
#353=EDGE_CURVE('',#465,#464,#534,.T.);
#354=EDGE_CURVE('',#465,#452,#73,.T.);
#355=EDGE_CURVE('',#466,#467,#535,.T.);
#356=EDGE_CURVE('',#466,#468,#74,.T.);
#357=EDGE_CURVE('',#469,#468,#536,.T.);
#358=EDGE_CURVE('',#469,#470,#75,.F.);
#359=EDGE_CURVE('',#470,#471,#537,.T.);
#360=EDGE_CURVE('',#471,#472,#76,.F.);
#361=EDGE_CURVE('',#472,#473,#538,.T.);
#362=EDGE_CURVE('',#473,#442,#77,.T.);
#363=EDGE_CURVE('',#441,#474,#78,.F.);
#364=EDGE_CURVE('',#474,#475,#539,.T.);
#365=EDGE_CURVE('',#475,#476,#79,.F.);
#366=EDGE_CURVE('',#476,#477,#540,.T.);
#367=EDGE_CURVE('',#477,#478,#80,.F.);
#368=EDGE_CURVE('',#479,#478,#541,.T.);
#369=EDGE_CURVE('',#479,#467,#81,.F.);
#370=EDGE_CURVE('',#480,#481,#82,.T.);
#371=EDGE_CURVE('',#481,#482,#542,.F.);
#372=EDGE_CURVE('',#482,#483,#543,.T.);
#373=EDGE_CURVE('',#484,#483,#544,.T.);
#374=EDGE_CURVE('',#485,#484,#545,.T.);
#375=EDGE_CURVE('',#485,#480,#546,.T.);
#376=EDGE_CURVE('',#486,#486,#83,.T.);
#377=EDGE_CURVE('',#487,#487,#84,.T.);
#378=EDGE_CURVE('',#488,#488,#85,.T.);
#379=EDGE_CURVE('',#489,#489,#86,.T.);
#380=EDGE_CURVE('',#490,#490,#87,.T.);
#381=EDGE_CURVE('',#482,#491,#22,.F.);
#382=EDGE_CURVE('',#491,#492,#88,.F.);
#383=EDGE_CURVE('',#492,#445,#23,.T.);
#384=EDGE_CURVE('',#446,#483,#89,.T.);
#385=EDGE_CURVE('',#449,#493,#24,.F.);
#386=EDGE_CURVE('',#493,#494,#90,.T.);
#387=EDGE_CURVE('',#494,#485,#25,.T.);
#388=EDGE_CURVE('',#484,#450,#91,.T.);
#389=EDGE_CURVE('',#495,#495,#92,.T.);
#390=EDGE_CURVE('',#496,#496,#26,.T.);
#391=EDGE_CURVE('',#497,#497,#27,.T.);
#392=EDGE_CURVE('',#498,#498,#28,.T.);
#393=EDGE_CURVE('',#499,#500,#547,.T.);
#394=EDGE_CURVE('',#499,#501,#93,.T.);
#395=EDGE_CURVE('',#501,#502,#548,.T.);
#396=EDGE_CURVE('',#502,#500,#94,.F.);
#397=EDGE_CURVE('',#503,#504,#18,.F.);
#398=EDGE_CURVE('',#504,#505,#29,.T.);
#399=EDGE_CURVE('',#505,#499,#549,.T.);
#400=EDGE_CURVE('',#500,#506,#550,.F.);
#401=EDGE_CURVE('',#506,#503,#30,.T.);
#402=EDGE_CURVE('',#501,#507,#551,.F.);
#403=EDGE_CURVE('',#507,#508,#31,.T.);
#404=EDGE_CURVE('',#508,#509,#19,.T.);
#405=EDGE_CURVE('',#509,#510,#32,.T.);
#406=EDGE_CURVE('',#510,#502,#552,.T.);
#407=EDGE_CURVE('',#511,#512,#20,.T.);
#408=EDGE_CURVE('',#512,#511,#95,.T.);
#409=EDGE_CURVE('',#513,#513,#96,.T.);
#410=EDGE_CURVE('',#514,#515,#21,.F.);
#411=EDGE_CURVE('',#515,#514,#97,.F.);
#412=EDGE_CURVE('',#516,#516,#98,.T.);
#413=EDGE_CURVE('',#515,#503,#33,.F.);
#414=EDGE_CURVE('',#504,#514,#34,.T.);
#415=EDGE_CURVE('',#506,#494,#35,.T.);
#416=EDGE_CURVE('',#480,#500,#99,.T.);
#417=EDGE_CURVE('',#505,#493,#36,.F.);
#418=EDGE_CURVE('',#512,#508,#37,.F.);
#419=EDGE_CURVE('',#509,#511,#38,.T.);
#420=EDGE_CURVE('',#481,#502,#100,.T.);
#421=EDGE_CURVE('',#492,#507,#39,.F.);
#422=EDGE_CURVE('',#491,#510,#40,.T.);
#423=EDGE_CURVE('',#499,#448,#101,.T.);
#424=EDGE_CURVE('',#501,#447,#102,.T.);
#425=EDGE_CURVE('',#517,#517,#103,.T.);
#426=EDGE_CURVE('',#458,#477,#553,.T.);
#427=EDGE_CURVE('',#476,#459,#554,.F.);
#428=EDGE_CURVE('',#474,#461,#555,.F.);
#429=EDGE_CURVE('',#460,#475,#556,.T.);
#430=EDGE_CURVE('',#454,#466,#557,.T.);
#431=EDGE_CURVE('',#467,#455,#558,.F.);
#432=EDGE_CURVE('',#456,#479,#559,.T.);
#433=EDGE_CURVE('',#478,#457,#560,.F.);
#434=EDGE_CURVE('',#452,#469,#561,.T.);
#435=EDGE_CURVE('',#468,#453,#562,.F.);
#436=EDGE_CURVE('',#472,#463,#563,.F.);
#437=EDGE_CURVE('',#462,#473,#564,.T.);
#438=EDGE_CURVE('',#518,#518,#104,.T.);
#439=EDGE_CURVE('',#470,#465,#565,.F.);
#440=EDGE_CURVE('',#464,#471,#566,.T.);
#441=VERTEX_POINT('',#1133);
#442=VERTEX_POINT('',#1134);
#443=VERTEX_POINT('',#1136);
#444=VERTEX_POINT('',#1138);
#445=VERTEX_POINT('',#1142);
#446=VERTEX_POINT('',#1143);
#447=VERTEX_POINT('',#1145);
#448=VERTEX_POINT('',#1147);
#449=VERTEX_POINT('',#1149);
#450=VERTEX_POINT('',#1151);
#451=VERTEX_POINT('',#1154);
#452=VERTEX_POINT('',#1156);
#453=VERTEX_POINT('',#1157);
#454=VERTEX_POINT('',#1159);
#455=VERTEX_POINT('',#1161);
#456=VERTEX_POINT('',#1163);
#457=VERTEX_POINT('',#1165);
#458=VERTEX_POINT('',#1167);
#459=VERTEX_POINT('',#1169);
#460=VERTEX_POINT('',#1171);
#461=VERTEX_POINT('',#1173);
#462=VERTEX_POINT('',#1176);
#463=VERTEX_POINT('',#1178);
#464=VERTEX_POINT('',#1180);
#465=VERTEX_POINT('',#1182);
#466=VERTEX_POINT('',#1186);
#467=VERTEX_POINT('',#1187);
#468=VERTEX_POINT('',#1189);
#469=VERTEX_POINT('',#1191);
#470=VERTEX_POINT('',#1193);
#471=VERTEX_POINT('',#1195);
#472=VERTEX_POINT('',#1197);
#473=VERTEX_POINT('',#1199);
#474=VERTEX_POINT('',#1202);
#475=VERTEX_POINT('',#1204);
#476=VERTEX_POINT('',#1206);
#477=VERTEX_POINT('',#1208);
#478=VERTEX_POINT('',#1210);
#479=VERTEX_POINT('',#1212);
#480=VERTEX_POINT('',#1215);
#481=VERTEX_POINT('',#1216);
#482=VERTEX_POINT('',#1218);
#483=VERTEX_POINT('',#1220);
#484=VERTEX_POINT('',#1222);
#485=VERTEX_POINT('',#1224);
#486=VERTEX_POINT('',#1227);
#487=VERTEX_POINT('',#1230);
#488=VERTEX_POINT('',#1232);
#489=VERTEX_POINT('',#1235);
#490=VERTEX_POINT('',#1237);
#491=VERTEX_POINT('',#1243);
#492=VERTEX_POINT('',#1245);
#493=VERTEX_POINT('',#1256);
#494=VERTEX_POINT('',#1258);
#495=VERTEX_POINT('',#1266);
#496=VERTEX_POINT('',#1291);
#497=VERTEX_POINT('',#1315);
#498=VERTEX_POINT('',#1328);
#499=VERTEX_POINT('',#1330);
#500=VERTEX_POINT('',#1331);
#501=VERTEX_POINT('',#1333);
#502=VERTEX_POINT('',#1335);
#503=VERTEX_POINT('',#1339);
#504=VERTEX_POINT('',#1340);
#505=VERTEX_POINT('',#1345);
#506=VERTEX_POINT('',#1348);
#507=VERTEX_POINT('',#1355);
#508=VERTEX_POINT('',#1360);
#509=VERTEX_POINT('',#1362);
#510=VERTEX_POINT('',#1367);
#511=VERTEX_POINT('',#1371);
#512=VERTEX_POINT('',#1372);
#513=VERTEX_POINT('',#1375);
#514=VERTEX_POINT('',#1379);
#515=VERTEX_POINT('',#1380);
#516=VERTEX_POINT('',#1383);
#517=VERTEX_POINT('',#1497);
#518=VERTEX_POINT('',#1521);
#519=LINE('',#1132,#567);
#520=LINE('',#1135,#568);
#521=LINE('',#1137,#569);
#522=LINE('',#1139,#570);
#523=LINE('',#1141,#571);
#524=LINE('',#1144,#572);
#525=LINE('',#1148,#573);
#526=LINE('',#1150,#574);
#527=LINE('',#1152,#575);
#528=LINE('',#1155,#576);
#529=LINE('',#1160,#577);
#530=LINE('',#1164,#578);
#531=LINE('',#1168,#579);
#532=LINE('',#1172,#580);
#533=LINE('',#1177,#581);
#534=LINE('',#1181,#582);
#535=LINE('',#1185,#583);
#536=LINE('',#1190,#584);
#537=LINE('',#1194,#585);
#538=LINE('',#1198,#586);
#539=LINE('',#1203,#587);
#540=LINE('',#1207,#588);
#541=LINE('',#1211,#589);
#542=LINE('',#1217,#590);
#543=LINE('',#1219,#591);
#544=LINE('',#1221,#592);
#545=LINE('',#1223,#593);
#546=LINE('',#1225,#594);
#547=LINE('',#1329,#595);
#548=LINE('',#1334,#596);
#549=LINE('',#1346,#597);
#550=LINE('',#1347,#598);
#551=LINE('',#1354,#599);
#552=LINE('',#1368,#600);
#553=LINE('',#1498,#601);
#554=LINE('',#1499,#602);
#555=LINE('',#1501,#603);
#556=LINE('',#1502,#604);
#557=LINE('',#1504,#605);
#558=LINE('',#1505,#606);
#559=LINE('',#1507,#607);
#560=LINE('',#1508,#608);
#561=LINE('',#1514,#609);
#562=LINE('',#1515,#610);
#563=LINE('',#1517,#611);
#564=LINE('',#1518,#612);
#565=LINE('',#1522,#613);
#566=LINE('',#1523,#614);
#567=VECTOR('',#910,1.);
#568=VECTOR('',#911,1.);
#569=VECTOR('',#912,1.);
#570=VECTOR('',#913,1.);
#571=VECTOR('',#916,1.);
#572=VECTOR('',#917,1.);
#573=VECTOR('',#920,1.);
#574=VECTOR('',#921,1.);
#575=VECTOR('',#922,1.);
#576=VECTOR('',#925,1.);
#577=VECTOR('',#928,1.);
#578=VECTOR('',#931,1.);
#579=VECTOR('',#934,1.);
#580=VECTOR('',#937,1.);
#581=VECTOR('',#942,1.);
#582=VECTOR('',#945,1.);
#583=VECTOR('',#950,1.);
#584=VECTOR('',#953,1.);
#585=VECTOR('',#956,1.);
#586=VECTOR('',#959,1.);
#587=VECTOR('',#964,1.);
#588=VECTOR('',#967,1.);
#589=VECTOR('',#970,1.);
#590=VECTOR('',#975,1.);
#591=VECTOR('',#976,1.);
#592=VECTOR('',#977,1.);
#593=VECTOR('',#978,1.);
#594=VECTOR('',#979,1.);
#595=VECTOR('',#1014,1.);
#596=VECTOR('',#1017,1.);
#597=VECTOR('',#1024,1.);
#598=VECTOR('',#1025,1.);
#599=VECTOR('',#1028,1.);
#600=VECTOR('',#1031,1.);
#601=VECTOR('',#1080,1.);
#602=VECTOR('',#1081,1.);
#603=VECTOR('',#1084,1.);
#604=VECTOR('',#1085,1.);
#605=VECTOR('',#1088,1.);
#606=VECTOR('',#1089,1.);
#607=VECTOR('',#1092,1.);
#608=VECTOR('',#1093,1.);
#609=VECTOR('',#1104,1.);
#610=VECTOR('',#1105,1.);
#611=VECTOR('',#1108,1.);
#612=VECTOR('',#1109,1.);
#613=VECTOR('',#1114,1.);
#614=VECTOR('',#1115,1.);
#615=EDGE_LOOP('',(#105,#106,#107,#108));
#616=EDGE_LOOP('',(#109,#110,#111,#112,#113,#114));
#617=EDGE_LOOP('',(#115));
#618=EDGE_LOOP('',(#116,#117,#118,#119,#120,#121,#122,#123,#124,#125,#126,
#127,#128,#129,#130,#131));
#619=EDGE_LOOP('',(#132,#133,#134,#135,#136,#137,#138,#139,#140,#141,#142,
#143,#144,#145,#146,#147));
#620=EDGE_LOOP('',(#148,#149,#150,#151,#152,#153));
#621=EDGE_LOOP('',(#154));
#622=EDGE_LOOP('',(#155));
#623=EDGE_LOOP('',(#156));
#624=EDGE_LOOP('',(#157));
#625=EDGE_LOOP('',(#158));
#626=EDGE_LOOP('',(#159,#160,#161,#162,#163,#164));
#627=EDGE_LOOP('',(#165,#166,#167,#168,#169,#170));
#628=EDGE_LOOP('',(#171));
#629=EDGE_LOOP('',(#172));
#630=EDGE_LOOP('',(#173,#174,#175,#176));
#631=EDGE_LOOP('',(#177));
#632=EDGE_LOOP('',(#178));
#633=EDGE_LOOP('',(#179));
#634=EDGE_LOOP('',(#180));
#635=EDGE_LOOP('',(#181));
#636=EDGE_LOOP('',(#182));
#637=EDGE_LOOP('',(#183,#184,#185,#186));
#638=EDGE_LOOP('',(#187,#188,#189,#190,#191,#192));
#639=EDGE_LOOP('',(#193,#194,#195,#196,#197,#198));
#640=EDGE_LOOP('',(#199,#200));
#641=EDGE_LOOP('',(#201));
#642=EDGE_LOOP('',(#202));
#643=EDGE_LOOP('',(#203));
#644=EDGE_LOOP('',(#204,#205));
#645=EDGE_LOOP('',(#206));
#646=EDGE_LOOP('',(#207));
#647=EDGE_LOOP('',(#208));
#648=EDGE_LOOP('',(#209,#210,#211,#212));
#649=EDGE_LOOP('',(#213,#214,#215,#216,#217));
#650=EDGE_LOOP('',(#218,#219,#220,#221,#222,#223,#224,#225));
#651=EDGE_LOOP('',(#226,#227,#228,#229));
#652=EDGE_LOOP('',(#230,#231,#232,#233));
#653=EDGE_LOOP('',(#234,#235,#236,#237,#238,#239,#240,#241));
#654=EDGE_LOOP('',(#242,#243,#244,#245,#246));
#655=EDGE_LOOP('',(#247,#248,#249,#250,#251));
#656=EDGE_LOOP('',(#252,#253,#254,#255));
#657=EDGE_LOOP('',(#256,#257,#258,#259,#260));
#658=EDGE_LOOP('',(#261));
#659=EDGE_LOOP('',(#262,#263,#264,#265));
#660=EDGE_LOOP('',(#266,#267,#268,#269));
#661=EDGE_LOOP('',(#270,#271,#272,#273));
#662=EDGE_LOOP('',(#274,#275,#276,#277));
#663=EDGE_LOOP('',(#278,#279,#280,#281));
#664=EDGE_LOOP('',(#282,#283,#284,#285));
#665=EDGE_LOOP('',(#286,#287,#288,#289));
#666=EDGE_LOOP('',(#290,#291,#292,#293));
#667=EDGE_LOOP('',(#294,#295,#296,#297));
#668=EDGE_LOOP('',(#298,#299,#300,#301));
#669=EDGE_LOOP('',(#302));
#670=EDGE_LOOP('',(#303,#304,#305,#306));
#671=EDGE_LOOP('',(#307,#308,#309,#310));
#672=EDGE_LOOP('',(#311,#312,#313,#314));
#673=EDGE_LOOP('',(#315,#316,#317,#318));
#674=EDGE_LOOP('',(#319,#320,#321,#322));
#675=EDGE_LOOP('',(#323));
#676=EDGE_LOOP('',(#324));
#677=EDGE_LOOP('',(#325));
#678=EDGE_LOOP('',(#326));
#679=EDGE_LOOP('',(#327));
#680=EDGE_LOOP('',(#328));
#681=FACE_BOUND('',#615,.T.);
#682=FACE_BOUND('',#616,.T.);
#683=FACE_BOUND('',#617,.T.);
#684=FACE_BOUND('',#618,.T.);
#685=FACE_BOUND('',#619,.T.);
#686=FACE_BOUND('',#620,.T.);
#687=FACE_BOUND('',#621,.T.);
#688=FACE_BOUND('',#622,.T.);
#689=FACE_BOUND('',#623,.T.);
#690=FACE_BOUND('',#624,.T.);
#691=FACE_BOUND('',#625,.T.);
#692=FACE_BOUND('',#626,.T.);
#693=FACE_BOUND('',#627,.T.);
#694=FACE_BOUND('',#628,.T.);
#695=FACE_BOUND('',#629,.T.);
#696=FACE_BOUND('',#630,.T.);
#697=FACE_BOUND('',#631,.T.);
#698=FACE_BOUND('',#632,.T.);
#699=FACE_BOUND('',#633,.T.);
#700=FACE_BOUND('',#634,.T.);
#701=FACE_BOUND('',#635,.T.);
#702=FACE_BOUND('',#636,.T.);
#703=FACE_BOUND('',#637,.T.);
#704=FACE_BOUND('',#638,.T.);
#705=FACE_BOUND('',#639,.T.);
#706=FACE_BOUND('',#640,.T.);
#707=FACE_BOUND('',#641,.T.);
#708=FACE_BOUND('',#642,.T.);
#709=FACE_BOUND('',#643,.T.);
#710=FACE_BOUND('',#644,.T.);
#711=FACE_BOUND('',#645,.T.);
#712=FACE_BOUND('',#646,.T.);
#713=FACE_BOUND('',#647,.T.);
#714=FACE_BOUND('',#648,.T.);
#715=FACE_BOUND('',#649,.T.);
#716=FACE_BOUND('',#650,.T.);
#717=FACE_BOUND('',#651,.T.);
#718=FACE_BOUND('',#652,.T.);
#719=FACE_BOUND('',#653,.T.);
#720=FACE_BOUND('',#654,.T.);
#721=FACE_BOUND('',#655,.T.);
#722=FACE_BOUND('',#656,.T.);
#723=FACE_BOUND('',#657,.T.);
#724=FACE_BOUND('',#658,.T.);
#725=FACE_BOUND('',#659,.T.);
#726=FACE_BOUND('',#660,.T.);
#727=FACE_BOUND('',#661,.T.);
#728=FACE_BOUND('',#662,.T.);
#729=FACE_BOUND('',#663,.T.);
#730=FACE_BOUND('',#664,.T.);
#731=FACE_BOUND('',#665,.T.);
#732=FACE_BOUND('',#666,.T.);
#733=FACE_BOUND('',#667,.T.);
#734=FACE_BOUND('',#668,.T.);
#735=FACE_BOUND('',#669,.T.);
#736=FACE_BOUND('',#670,.T.);
#737=FACE_BOUND('',#671,.T.);
#738=FACE_BOUND('',#672,.T.);
#739=FACE_BOUND('',#673,.T.);
#740=FACE_BOUND('',#674,.T.);
#741=FACE_BOUND('',#675,.T.);
#742=FACE_BOUND('',#676,.T.);
#743=FACE_BOUND('',#677,.T.);
#744=FACE_BOUND('',#678,.T.);
#745=FACE_BOUND('',#679,.T.);
#746=FACE_BOUND('',#680,.T.);
#747=PLANE('',#819);
#748=PLANE('',#820);
#749=PLANE('',#831);
#750=PLANE('',#854);
#751=PLANE('',#860);
#752=PLANE('',#862);
#753=PLANE('',#868);
#754=PLANE('',#873);
#755=PLANE('',#886);
#756=PLANE('',#888);
#757=PLANE('',#889);
#758=PLANE('',#890);
#759=PLANE('',#895);
#760=PLANE('',#896);
#761=PLANE('',#897);
#762=ADVANCED_FACE('',(#681),#747,.F.);
#763=ADVANCED_FACE('',(#682,#683,#684),#748,.F.);
#764=ADVANCED_FACE('',(#685,#686,#687),#749,.T.);
#765=ADVANCED_FACE('',(#688,#689),#41,.F.);
#766=ADVANCED_FACE('',(#690,#691),#42,.F.);
#767=ADVANCED_FACE('',(#692),#43,.T.);
#768=ADVANCED_FACE('',(#693),#44,.T.);
#769=ADVANCED_FACE('',(#694,#695,#696,#697),#750,.F.);
#770=ADVANCED_FACE('',(#698,#699,#700,#701),#45,.F.);
#771=ADVANCED_FACE('',(#702,#703),#46,.T.);
#772=ADVANCED_FACE('',(#704),#751,.T.);
#773=ADVANCED_FACE('',(#705),#752,.F.);
#774=ADVANCED_FACE('',(#706,#707),#47,.F.);
#775=ADVANCED_FACE('',(#708,#709),#753,.T.);
#776=ADVANCED_FACE('',(#710,#711),#48,.F.);
#777=ADVANCED_FACE('',(#712,#713),#754,.T.);
#778=ADVANCED_FACE('',(#714),#16,.T.);
#779=ADVANCED_FACE('',(#715),#49,.T.);
#780=ADVANCED_FACE('',(#716),#12,.T.);
#781=ADVANCED_FACE('',(#717),#17,.T.);
#782=ADVANCED_FACE('',(#718),#13,.T.);
#783=ADVANCED_FACE('',(#719),#14,.T.);
#784=ADVANCED_FACE('',(#720),#50,.T.);
#785=ADVANCED_FACE('',(#721),#51,.T.);
#786=ADVANCED_FACE('',(#722),#15,.T.);
#787=ADVANCED_FACE('',(#723),#52,.T.);
#788=ADVANCED_FACE('',(#724,#725),#755,.T.);
#789=ADVANCED_FACE('',(#726),#756,.T.);
#790=ADVANCED_FACE('',(#727),#757,.F.);
#791=ADVANCED_FACE('',(#728),#758,.F.);
#792=ADVANCED_FACE('',(#729),#53,.F.);
#793=ADVANCED_FACE('',(#730),#54,.F.);
#794=ADVANCED_FACE('',(#731),#55,.F.);
#795=ADVANCED_FACE('',(#732),#56,.F.);
#796=ADVANCED_FACE('',(#733),#759,.F.);
#797=ADVANCED_FACE('',(#734),#760,.T.);
#798=ADVANCED_FACE('',(#735,#736),#761,.T.);
#799=ADVANCED_FACE('',(#737),#57,.F.);
#800=ADVANCED_FACE('',(#738),#58,.F.);
#801=ADVANCED_FACE('',(#739),#59,.T.);
#802=ADVANCED_FACE('',(#740),#60,.T.);
#803=ADVANCED_FACE('',(#741,#742),#61,.F.);
#804=ADVANCED_FACE('',(#743,#744),#62,.F.);
#805=ADVANCED_FACE('',(#745,#746),#63,.F.);
#806=CLOSED_SHELL('',(#762,#763,#764,#765,#766,#767,#768,#769,#770,#771,
#772,#773,#774,#775,#776,#777,#778,#779,#780,#781,#782,#783,#784,#785,#786,
#787,#788,#789,#790,#791,#792,#793,#794,#795,#796,#797,#798,#799,#800,#801,
#802,#803,#804,#805));
#807=STYLED_ITEM('',(#808),#815);
#808=PRESENTATION_STYLE_ASSIGNMENT((#809));
#809=SURFACE_STYLE_USAGE(.BOTH.,#810);
#810=SURFACE_SIDE_STYLE('',(#811));
#811=SURFACE_STYLE_FILL_AREA(#812);
#812=FILL_AREA_STYLE('',(#813));
#813=FILL_AREA_STYLE_COLOUR('',#814);
#814=COLOUR_RGB('',0.0862745098039216,0.31764705882353,0.690196078431373);
#815=MANIFOLD_SOLID_BREP('Pinion Bracket',#806);
#816=SHAPE_DEFINITION_REPRESENTATION(#1537,#817);
#817=SHAPE_REPRESENTATION('Pinion Bracket',(#818),#1532);
#818=AXIS2_PLACEMENT_3D('',#1130,#906,#907);
#819=AXIS2_PLACEMENT_3D('',#1131,#908,#909);
#820=AXIS2_PLACEMENT_3D('',#1140,#914,#915);
#821=AXIS2_PLACEMENT_3D('',#1146,#918,#919);
#822=AXIS2_PLACEMENT_3D('',#1153,#923,#924);
#823=AXIS2_PLACEMENT_3D('',#1158,#926,#927);
#824=AXIS2_PLACEMENT_3D('',#1162,#929,#930);
#825=AXIS2_PLACEMENT_3D('',#1166,#932,#933);
#826=AXIS2_PLACEMENT_3D('',#1170,#935,#936);
#827=AXIS2_PLACEMENT_3D('',#1174,#938,#939);
#828=AXIS2_PLACEMENT_3D('',#1175,#940,#941);
#829=AXIS2_PLACEMENT_3D('',#1179,#943,#944);
#830=AXIS2_PLACEMENT_3D('',#1183,#946,#947);
#831=AXIS2_PLACEMENT_3D('',#1184,#948,#949);
#832=AXIS2_PLACEMENT_3D('',#1188,#951,#952);
#833=AXIS2_PLACEMENT_3D('',#1192,#954,#955);
#834=AXIS2_PLACEMENT_3D('',#1196,#957,#958);
#835=AXIS2_PLACEMENT_3D('',#1200,#960,#961);
#836=AXIS2_PLACEMENT_3D('',#1201,#962,#963);
#837=AXIS2_PLACEMENT_3D('',#1205,#965,#966);
#838=AXIS2_PLACEMENT_3D('',#1209,#968,#969);
#839=AXIS2_PLACEMENT_3D('',#1213,#971,#972);
#840=AXIS2_PLACEMENT_3D('',#1214,#973,#974);
#841=AXIS2_PLACEMENT_3D('',#1226,#980,#981);
#842=AXIS2_PLACEMENT_3D('',#1228,#982,#983);
#843=AXIS2_PLACEMENT_3D('',#1229,#984,#985);
#844=AXIS2_PLACEMENT_3D('',#1231,#986,#987);
#845=AXIS2_PLACEMENT_3D('',#1233,#988,#989);
#846=AXIS2_PLACEMENT_3D('',#1234,#990,#991);
#847=AXIS2_PLACEMENT_3D('',#1236,#992,#993);
#848=AXIS2_PLACEMENT_3D('',#1238,#994,#995);
#849=AXIS2_PLACEMENT_3D('',#1244,#996,#997);
#850=AXIS2_PLACEMENT_3D('',#1250,#998,#999);
#851=AXIS2_PLACEMENT_3D('',#1251,#1000,#1001);
#852=AXIS2_PLACEMENT_3D('',#1257,#1002,#1003);
#853=AXIS2_PLACEMENT_3D('',#1263,#1004,#1005);
#854=AXIS2_PLACEMENT_3D('',#1264,#1006,#1007);
#855=AXIS2_PLACEMENT_3D('',#1265,#1008,#1009);
#856=AXIS2_PLACEMENT_3D('',#1267,#1010,#1011);
#857=AXIS2_PLACEMENT_3D('',#1316,#1012,#1013);
#858=AXIS2_PLACEMENT_3D('',#1332,#1015,#1016);
#859=AXIS2_PLACEMENT_3D('',#1336,#1018,#1019);
#860=AXIS2_PLACEMENT_3D('',#1337,#1020,#1021);
#861=AXIS2_PLACEMENT_3D('',#1338,#1022,#1023);
#862=AXIS2_PLACEMENT_3D('',#1353,#1026,#1027);
#863=AXIS2_PLACEMENT_3D('',#1361,#1029,#1030);
#864=AXIS2_PLACEMENT_3D('',#1369,#1032,#1033);
#865=AXIS2_PLACEMENT_3D('',#1370,#1034,#1035);
#866=AXIS2_PLACEMENT_3D('',#1373,#1036,#1037);
#867=AXIS2_PLACEMENT_3D('',#1374,#1038,#1039);
#868=AXIS2_PLACEMENT_3D('',#1376,#1040,#1041);
#869=AXIS2_PLACEMENT_3D('',#1377,#1042,#1043);
#870=AXIS2_PLACEMENT_3D('',#1378,#1044,#1045);
#871=AXIS2_PLACEMENT_3D('',#1381,#1046,#1047);
#872=AXIS2_PLACEMENT_3D('',#1382,#1048,#1049);
#873=AXIS2_PLACEMENT_3D('',#1384,#1050,#1051);
#874=AXIS2_PLACEMENT_3D('',#1422,#1052,#1053);
#875=AXIS2_PLACEMENT_3D('',#1429,#1054,#1055);
#876=AXIS2_PLACEMENT_3D('',#1430,#1056,#1057);
#877=AXIS2_PLACEMENT_3D('',#1474,#1058,#1059);
#878=AXIS2_PLACEMENT_3D('',#1475,#1060,#1061);
#879=AXIS2_PLACEMENT_3D('',#1476,#1062,#1063);
#880=AXIS2_PLACEMENT_3D('',#1489,#1064,#1065);
#881=AXIS2_PLACEMENT_3D('',#1490,#1066,#1067);
#882=AXIS2_PLACEMENT_3D('',#1491,#1068,#1069);
#883=AXIS2_PLACEMENT_3D('',#1492,#1070,#1071);
#884=AXIS2_PLACEMENT_3D('',#1493,#1072,#1073);
#885=AXIS2_PLACEMENT_3D('',#1494,#1074,#1075);
#886=AXIS2_PLACEMENT_3D('',#1495,#1076,#1077);
#887=AXIS2_PLACEMENT_3D('',#1496,#1078,#1079);
#888=AXIS2_PLACEMENT_3D('',#1500,#1082,#1083);
#889=AXIS2_PLACEMENT_3D('',#1503,#1086,#1087);
#890=AXIS2_PLACEMENT_3D('',#1506,#1090,#1091);
#891=AXIS2_PLACEMENT_3D('',#1509,#1094,#1095);
#892=AXIS2_PLACEMENT_3D('',#1510,#1096,#1097);
#893=AXIS2_PLACEMENT_3D('',#1511,#1098,#1099);
#894=AXIS2_PLACEMENT_3D('',#1512,#1100,#1101);
#895=AXIS2_PLACEMENT_3D('',#1513,#1102,#1103);
#896=AXIS2_PLACEMENT_3D('',#1516,#1106,#1107);
#897=AXIS2_PLACEMENT_3D('',#1519,#1110,#1111);
#898=AXIS2_PLACEMENT_3D('',#1520,#1112,#1113);
#899=AXIS2_PLACEMENT_3D('',#1524,#1116,#1117);
#900=AXIS2_PLACEMENT_3D('',#1525,#1118,#1119);
#901=AXIS2_PLACEMENT_3D('',#1526,#1120,#1121);
#902=AXIS2_PLACEMENT_3D('',#1527,#1122,#1123);
#903=AXIS2_PLACEMENT_3D('',#1528,#1124,#1125);
#904=AXIS2_PLACEMENT_3D('',#1529,#1126,#1127);
#905=AXIS2_PLACEMENT_3D('',#1530,#1128,#1129);
#906=DIRECTION('',(0.,0.,1.));
#907=DIRECTION('',(1.,0.,0.));
#908=DIRECTION('',(0.,0.,-1.));
#909=DIRECTION('',(-1.,0.,0.));
#910=DIRECTION('',(1.,0.,0.));
#911=DIRECTION('',(0.,-1.,0.));
#912=DIRECTION('',(1.,-1.33440267382831E-16,0.));
#913=DIRECTION('',(0.,-1.,0.));
#914=DIRECTION('',(-1.33440267382831E-16,-1.,0.));
#915=DIRECTION('',(1.,-1.33440267382831E-16,0.));
#916=DIRECTION('',(0.,0.,1.));
#917=DIRECTION('',(-0.343324675710891,4.58133365259851E-17,-0.93921678384067));
#918=DIRECTION('',(-1.33440267382831E-16,-1.,0.));
#919=DIRECTION('',(1.,-1.33440267382831E-16,0.));
#920=DIRECTION('',(0.343324675710891,-4.58133365259851E-17,-0.93921678384067));
#921=DIRECTION('',(0.,0.,1.));
#922=DIRECTION('',(1.,-1.33440267382831E-16,0.));
#923=DIRECTION('',(1.33440267382831E-16,1.,0.));
#924=DIRECTION('',(-1.,1.33440267382831E-16,0.));
#925=DIRECTION('',(0.,0.,1.));
#926=DIRECTION('',(-1.33440267382831E-16,-1.,0.));
#927=DIRECTION('',(1.,-1.33440267382831E-16,0.));
#928=DIRECTION('',(1.,-1.33440267382831E-16,0.));
#929=DIRECTION('',(-1.33440267382831E-16,-1.,0.));
#930=DIRECTION('',(1.,-1.33440267382831E-16,0.));
#931=DIRECTION('',(0.335013413056635,-4.47042794151123E-17,0.942213358572327));
#932=DIRECTION('',(-1.33440267382831E-16,-1.,0.));
#933=DIRECTION('',(1.,-1.33440267382831E-16,0.));
#934=DIRECTION('',(1.,-1.33440267382831E-16,0.));
#935=DIRECTION('',(-1.33440267382831E-16,-1.,0.));
#936=DIRECTION('',(1.,-1.33440267382831E-16,0.));
#937=DIRECTION('',(-0.335013413056635,4.47042794151123E-17,0.942213358572327));
#938=DIRECTION('',(-1.33440267382831E-16,-1.,0.));
#939=DIRECTION('',(1.,-1.33440267382831E-16,0.));
#940=DIRECTION('',(-1.33440267382831E-16,-1.,0.));
#941=DIRECTION('',(1.,-1.33440267382831E-16,0.));
#942=DIRECTION('',(0.,0.,1.));
#943=DIRECTION('',(-1.33440267382831E-16,-1.,0.));
#944=DIRECTION('',(1.,-1.33440267382831E-16,0.));
#945=DIRECTION('',(-1.,1.33440267382831E-16,0.));
#946=DIRECTION('',(-1.33440267382831E-16,-1.,0.));
#947=DIRECTION('',(1.,-1.33440267382831E-16,0.));
#948=DIRECTION('',(0.,-1.,0.));
#949=DIRECTION('',(0.,0.,-1.));
#950=DIRECTION('',(1.,0.,0.));
#951=DIRECTION('',(0.,-1.,0.));
#952=DIRECTION('',(0.,0.,-1.));
#953=DIRECTION('',(0.,0.,1.));
#954=DIRECTION('',(0.,-1.,0.));
#955=DIRECTION('',(0.,0.,-1.));
#956=DIRECTION('',(-1.,0.,0.));
#957=DIRECTION('',(0.,-1.,0.));
#958=DIRECTION('',(0.,0.,-1.));
#959=DIRECTION('',(0.,0.,1.));
#960=DIRECTION('',(0.,-1.,0.));
#961=DIRECTION('',(0.,0.,-1.));
#962=DIRECTION('',(0.,-1.,0.));
#963=DIRECTION('',(0.,0.,-1.));
#964=DIRECTION('',(-0.335013413056635,0.,0.942213358572327));
#965=DIRECTION('',(0.,-1.,0.));
#966=DIRECTION('',(0.,0.,-1.));
#967=DIRECTION('',(1.,0.,0.));
#968=DIRECTION('',(0.,-1.,0.));
#969=DIRECTION('',(0.,0.,-1.));
#970=DIRECTION('',(0.335013413056635,0.,0.942213358572327));
#971=DIRECTION('',(0.,-1.,0.));
#972=DIRECTION('',(0.,0.,-1.));
#973=DIRECTION('',(0.,-1.,0.));
#974=DIRECTION('',(0.,0.,-1.));
#975=DIRECTION('',(-0.343324675710891,0.,-0.93921678384067));
#976=DIRECTION('',(0.,0.,1.));
#977=DIRECTION('',(1.,0.,0.));
#978=DIRECTION('',(0.,0.,1.));
#979=DIRECTION('',(0.343324675710891,0.,-0.93921678384067));
#980=DIRECTION('',(0.,-1.,0.));
#981=DIRECTION('',(0.,0.,-1.));
#982=DIRECTION('',(0.,0.,1.));
#983=DIRECTION('',(1.,0.,0.));
#984=DIRECTION('',(0.,0.,-1.));
#985=DIRECTION('',(-1.,0.,0.));
#986=DIRECTION('',(0.,0.,-1.));
#987=DIRECTION('',(-1.,0.,0.));
#988=DIRECTION('',(0.,0.,1.));
#989=DIRECTION('',(1.,0.,0.));
#990=DIRECTION('',(0.,0.,-1.));
#991=DIRECTION('',(-1.,0.,0.));
#992=DIRECTION('',(0.,0.,-1.));
#993=DIRECTION('',(-1.,0.,0.));
#994=DIRECTION('',(0.,0.,1.));
#995=DIRECTION('',(1.,0.,0.));
#996=DIRECTION('',(0.,0.,-1.));
#997=DIRECTION('',(-1.,0.,0.));
#998=DIRECTION('',(0.,0.,-1.));
#999=DIRECTION('',(-1.,0.,0.));
#1000=DIRECTION('',(0.,0.,1.));
#1001=DIRECTION('',(1.,0.,0.));
#1002=DIRECTION('',(0.,0.,1.));
#1003=DIRECTION('',(1.,0.,0.));
#1004=DIRECTION('',(0.,0.,-1.));
#1005=DIRECTION('',(-1.,0.,0.));
#1006=DIRECTION('',(0.,0.,-1.));
#1007=DIRECTION('',(1.,0.,0.));
#1008=DIRECTION('',(0.,0.,-1.));
#1009=DIRECTION('',(-1.,0.,0.));
#1010=DIRECTION('',(1.33440267382831E-16,1.,0.));
#1011=DIRECTION('',(-1.,1.33440267382831E-16,0.));
#1012=DIRECTION('',(0.,-1.,0.));
#1013=DIRECTION('',(0.,0.,-1.));
#1014=DIRECTION('',(0.,-1.,0.));
#1015=DIRECTION('',(-1.33440267382831E-16,-1.,0.));
#1016=DIRECTION('',(1.,-1.33440267382831E-16,0.));
#1017=DIRECTION('',(0.,-1.,0.));
#1018=DIRECTION('',(0.,-1.,0.));
#1019=DIRECTION('',(0.,0.,-1.));
#1020=DIRECTION('',(-0.93921678384067,0.,-0.343324675710891));
#1021=DIRECTION('',(-0.343324675710891,0.,0.93921678384067));
#1022=DIRECTION('',(-0.93921678384067,0.,-0.343324675710891));
#1023=DIRECTION('',(0.343324675710891,0.,-0.93921678384067));
#1024=DIRECTION('',(0.343324675710891,-4.58133365259851E-17,-0.93921678384067));
#1025=DIRECTION('',(0.343324675710891,0.,-0.93921678384067));
#1026=DIRECTION('',(-0.93921678384067,0.,0.343324675710891));
#1027=DIRECTION('',(0.343324675710891,0.,0.93921678384067));
#1028=DIRECTION('',(-0.343324675710891,4.58133365259851E-17,-0.93921678384067));
#1029=DIRECTION('',(-0.93921678384067,0.,0.343324675710891));
#1030=DIRECTION('',(-0.343324675710891,0.,-0.93921678384067));
#1031=DIRECTION('',(-0.343324675710891,0.,-0.93921678384067));
#1032=DIRECTION('',(0.,0.,-1.));
#1033=DIRECTION('',(-1.,0.,0.));
#1034=DIRECTION('',(0.954256100697518,0.,-0.298990458512589));
#1035=DIRECTION('',(-0.298990458512589,0.,-0.954256100697518));
#1036=DIRECTION('',(0.,0.,-1.));
#1037=DIRECTION('',(-1.,0.,0.));
#1038=DIRECTION('',(0.,0.,-1.));
#1039=DIRECTION('',(-1.,0.,0.));
#1040=DIRECTION('',(0.,0.,-1.));
#1041=DIRECTION('',(1.,0.,0.));
#1042=DIRECTION('',(0.,0.,-1.));
#1043=DIRECTION('',(-1.,0.,0.));
#1044=DIRECTION('',(0.954256100697518,0.,0.298990458512589));
#1045=DIRECTION('',(0.298990458512589,0.,-0.954256100697518));
#1046=DIRECTION('',(0.,0.,1.));
#1047=DIRECTION('',(1.,0.,0.));
#1048=DIRECTION('',(0.,0.,-1.));
#1049=DIRECTION('',(-1.,0.,0.));
#1050=DIRECTION('',(0.,0.,-1.));
#1051=DIRECTION('',(1.,0.,0.));
#1052=DIRECTION('',(0.343324675710891,0.,-0.93921678384067));
#1053=DIRECTION('',(-0.93921678384067,0.,-0.343324675710891));
#1054=DIRECTION('',(0.343324675710892,0.,-0.93921678384067));
#1055=DIRECTION('',(-0.93921678384067,0.,-0.343324675710892));
#1056=DIRECTION('',(0.,0.,1.));
#1057=DIRECTION('',(1.,0.,0.));
#1058=DIRECTION('',(0.,-1.,0.));
#1059=DIRECTION('',(0.,0.,-1.));
#1060=DIRECTION('',(0.343324675710889,0.,0.939216783840671));
#1061=DIRECTION('',(0.939216783840671,0.,-0.343324675710889));
#1062=DIRECTION('',(0.,0.,-1.));
#1063=DIRECTION('',(-1.,0.,0.));
#1064=DIRECTION('',(0.343324675710891,0.,0.93921678384067));
#1065=DIRECTION('',(0.93921678384067,0.,-0.343324675710891));
#1066=DIRECTION('',(-0.343324675710891,4.58133365259851E-17,0.93921678384067));
#1067=DIRECTION('',(0.93921678384067,0.,0.343324675710891));
#1068=DIRECTION('',(0.343324675710893,-4.76458699870248E-16,-0.939216783840669));
#1069=DIRECTION('',(-0.939216783840669,0.,-0.343324675710893));
#1070=DIRECTION('',(-1.33440267382831E-16,-1.,0.));
#1071=DIRECTION('',(1.,-1.33440267382831E-16,0.));
#1072=DIRECTION('',(0.343324675710893,4.73724179280126E-15,0.939216783840669));
#1073=DIRECTION('',(0.939216783840669,0.,-0.343324675710893));
#1074=DIRECTION('',(-0.343324675710891,4.58133365259851E-17,-0.93921678384067));
#1075=DIRECTION('',(-0.93921678384067,0.,0.343324675710891));
#1076=DIRECTION('',(0.,0.,-1.));
#1077=DIRECTION('',(-1.,0.,0.));
#1078=DIRECTION('',(0.,0.,-1.));
#1079=DIRECTION('',(-1.,0.,0.));
#1080=DIRECTION('',(0.,-1.,0.));
#1081=DIRECTION('',(0.,-1.,0.));
#1082=DIRECTION('',(0.942213358572327,0.,0.335013413056635));
#1083=DIRECTION('',(0.335013413056635,0.,-0.942213358572327));
#1084=DIRECTION('',(0.,-1.,0.));
#1085=DIRECTION('',(0.,-1.,0.));
#1086=DIRECTION('',(0.,0.,-1.));
#1087=DIRECTION('',(-1.,0.,0.));
#1088=DIRECTION('',(0.,-1.,0.));
#1089=DIRECTION('',(0.,-1.,0.));
#1090=DIRECTION('',(0.942213358572327,0.,-0.335013413056635));
#1091=DIRECTION('',(-0.335013413056635,0.,-0.942213358572327));
#1092=DIRECTION('',(0.,-1.,0.));
#1093=DIRECTION('',(0.,-1.,0.));
#1094=DIRECTION('',(0.,-1.,0.));
#1095=DIRECTION('',(0.,0.,-1.));
#1096=DIRECTION('',(0.,1.,0.));
#1097=DIRECTION('',(0.,0.,1.));
#1098=DIRECTION('',(0.,-1.,0.));
#1099=DIRECTION('',(0.,0.,-1.));
#1100=DIRECTION('',(0.,1.,0.));
#1101=DIRECTION('',(0.,0.,1.));
#1102=DIRECTION('',(1.,0.,0.));
#1103=DIRECTION('',(0.,0.,-1.));
#1104=DIRECTION('',(0.,-1.,0.));
#1105=DIRECTION('',(0.,-1.,0.));
#1106=DIRECTION('',(1.,0.,0.));
#1107=DIRECTION('',(0.,0.,-1.));
#1108=DIRECTION('',(0.,-1.,0.));
#1109=DIRECTION('',(0.,-1.,0.));
#1110=DIRECTION('',(0.,0.,1.));
#1111=DIRECTION('',(1.,0.,0.));
#1112=DIRECTION('',(0.,0.,1.));
#1113=DIRECTION('',(1.,0.,0.));
#1114=DIRECTION('',(0.,-1.,0.));
#1115=DIRECTION('',(0.,-1.,0.));
#1116=DIRECTION('',(0.,-1.,0.));
#1117=DIRECTION('',(0.,0.,-1.));
#1118=DIRECTION('',(0.,1.,0.));
#1119=DIRECTION('',(0.,0.,1.));
#1120=DIRECTION('',(0.,-1.,0.));
#1121=DIRECTION('',(0.,0.,-1.));
#1122=DIRECTION('',(0.,1.,0.));
#1123=DIRECTION('',(0.,0.,1.));
#1124=DIRECTION('',(0.,0.,1.));
#1125=DIRECTION('',(1.,0.,0.));
#1126=DIRECTION('',(0.,0.,1.));
#1127=DIRECTION('',(1.,0.,0.));
#1128=DIRECTION('',(0.,0.,-1.));
#1129=DIRECTION('',(-1.,0.,0.));
#1130=CARTESIAN_POINT('',(0.,0.,0.));
#1131=CARTESIAN_POINT('',(-8.67361737988404E-19,0.004,-0.00909375213614891));
#1132=CARTESIAN_POINT('',(-8.67361737988404E-19,-0.021,-0.00909375213614891));
#1133=CARTESIAN_POINT('',(-0.00625786236395077,-0.021,-0.00909375213614891));
#1134=CARTESIAN_POINT('',(-0.005,-0.021,-0.00909375213614891));
#1135=CARTESIAN_POINT('',(-0.005,-0.011,-0.00909375213614891));
#1136=CARTESIAN_POINT('',(-0.005,-0.011,-0.00909375213614891));
#1137=CARTESIAN_POINT('',(-0.0065,-0.011,-0.00909375213614891));
#1138=CARTESIAN_POINT('',(-0.00625786236395077,-0.011,-0.00909375213614891));
#1139=CARTESIAN_POINT('',(-0.00625786236395077,0.004,-0.00909375213614891));
#1140=CARTESIAN_POINT('',(-0.0065,-0.011,-0.04));
#1141=CARTESIAN_POINT('',(0.013,-0.011,-0.04));
#1142=CARTESIAN_POINT('',(0.013,-0.011,-0.00317956574573072));
#1143=CARTESIAN_POINT('',(0.013,-0.011,0.));
#1144=CARTESIAN_POINT('',(-0.00117148165316551,-0.011,-0.0419478057301804));
#1145=CARTESIAN_POINT('',(0.00410907342930293,-0.011,-0.0275020454562352));
#1146=CARTESIAN_POINT('',(3.11916625007368E-18,-0.011,-0.026));
#1147=CARTESIAN_POINT('',(-0.00410907342930292,-0.011,-0.0275020454562351));
#1148=CARTESIAN_POINT('',(-0.0124129895100996,-0.011,-0.00478542207768072));
#1149=CARTESIAN_POINT('',(-0.013,-0.011,-0.00317956574573071));
#1150=CARTESIAN_POINT('',(-0.013,-0.011,-0.04));
#1151=CARTESIAN_POINT('',(-0.013,-0.011,0.));
#1152=CARTESIAN_POINT('',(-0.0065,-0.011,0.));
#1153=CARTESIAN_POINT('',(-4.33680868994202E-19,-0.011,-0.026));
#1154=CARTESIAN_POINT('',(-0.00225,-0.011,-0.026));
#1155=CARTESIAN_POINT('',(0.004,-0.011,-0.04));
#1156=CARTESIAN_POINT('',(0.004,-0.011,-0.0130937521361489));
#1157=CARTESIAN_POINT('',(0.004,-0.011,-0.0100937521361489));
#1158=CARTESIAN_POINT('',(0.005,-0.011,-0.0100937521361489));
#1159=CARTESIAN_POINT('',(0.005,-0.011,-0.00909375213614891));
#1160=CARTESIAN_POINT('',(-0.0065,-0.011,-0.00909375213614891));
#1161=CARTESIAN_POINT('',(0.00625786236395077,-0.011,-0.00909375213614891));
#1162=CARTESIAN_POINT('',(0.00625786236395077,-0.011,-0.00809375213614891));
#1163=CARTESIAN_POINT('',(0.0072000757225231,-0.011,-0.00842876554920554));
#1164=CARTESIAN_POINT('',(-0.00430312840652609,-0.011,-0.0407811197367145));
#1165=CARTESIAN_POINT('',(0.00901121040117113,-0.011,-0.00333501341305663));
#1166=CARTESIAN_POINT('',(0.0080689970425988,-0.011,-0.003));
#1167=CARTESIAN_POINT('',(0.0080689970425988,-0.011,-0.002));
#1168=CARTESIAN_POINT('',(-0.0065,-0.011,-0.002));
#1169=CARTESIAN_POINT('',(-0.0080689970425988,-0.011,-0.002));
#1170=CARTESIAN_POINT('',(-0.0080689970425988,-0.011,-0.003));
#1171=CARTESIAN_POINT('',(-0.00901121040117112,-0.011,-0.00333501341305663));
#1172=CARTESIAN_POINT('',(0.00284408657646397,-0.011,-0.0366776162666371));
#1173=CARTESIAN_POINT('',(-0.0072000757225231,-0.011,-0.00842876554920554));
#1174=CARTESIAN_POINT('',(-0.00625786236395077,-0.011,-0.00809375213614891));
#1175=CARTESIAN_POINT('',(-0.005,-0.011,-0.0100937521361489));
#1176=CARTESIAN_POINT('',(-0.004,-0.011,-0.0100937521361489));
#1177=CARTESIAN_POINT('',(-0.004,-0.011,-0.04));
#1178=CARTESIAN_POINT('',(-0.004,-0.011,-0.0130937521361489));
#1179=CARTESIAN_POINT('',(-0.003,-0.011,-0.0130937521361489));
#1180=CARTESIAN_POINT('',(-0.003,-0.011,-0.0140937521361489));
#1181=CARTESIAN_POINT('',(-0.0065,-0.011,-0.0140937521361489));
#1182=CARTESIAN_POINT('',(0.003,-0.011,-0.0140937521361489));
#1183=CARTESIAN_POINT('',(0.003,-0.011,-0.0130937521361489));
#1184=CARTESIAN_POINT('',(-0.0065,-0.021,-0.04));
#1185=CARTESIAN_POINT('',(-8.67361737988404E-19,-0.021,-0.00909375213614891));
#1186=CARTESIAN_POINT('',(0.005,-0.021,-0.00909375213614891));
#1187=CARTESIAN_POINT('',(0.00625786236395077,-0.021,-0.00909375213614891));
#1188=CARTESIAN_POINT('',(0.005,-0.021,-0.0100937521361489));
#1189=CARTESIAN_POINT('',(0.004,-0.021,-0.0100937521361489));
#1190=CARTESIAN_POINT('',(0.004,-0.021,-0.0115937521361489));
#1191=CARTESIAN_POINT('',(0.004,-0.021,-0.0130937521361489));
#1192=CARTESIAN_POINT('',(0.003,-0.021,-0.0130937521361489));
#1193=CARTESIAN_POINT('',(0.003,-0.021,-0.0140937521361489));
#1194=CARTESIAN_POINT('',(-0.002,-0.021,-0.0140937521361489));
#1195=CARTESIAN_POINT('',(-0.003,-0.021,-0.0140937521361489));
#1196=CARTESIAN_POINT('',(-0.003,-0.021,-0.0130937521361489));
#1197=CARTESIAN_POINT('',(-0.004,-0.021,-0.0130937521361489));
#1198=CARTESIAN_POINT('',(-0.004,-0.021,-0.0115937521361489));
#1199=CARTESIAN_POINT('',(-0.004,-0.021,-0.0100937521361489));
#1200=CARTESIAN_POINT('',(-0.005,-0.021,-0.0100937521361489));
#1201=CARTESIAN_POINT('',(-0.00625786236395077,-0.021,-0.00809375213614891));
#1202=CARTESIAN_POINT('',(-0.0072000757225231,-0.021,-0.00842876554920554));
#1203=CARTESIAN_POINT('',(-0.00822476044211639,-0.021,-0.00554687606807445));
#1204=CARTESIAN_POINT('',(-0.00901121040117112,-0.021,-0.00333501341305663));
#1205=CARTESIAN_POINT('',(-0.0080689970425988,-0.021,-0.003));
#1206=CARTESIAN_POINT('',(-0.0080689970425988,-0.021,-0.002));
#1207=CARTESIAN_POINT('',(0.00425,-0.021,-0.002));
#1208=CARTESIAN_POINT('',(0.0080689970425988,-0.021,-0.002));
#1209=CARTESIAN_POINT('',(0.0080689970425988,-0.021,-0.003));
#1210=CARTESIAN_POINT('',(0.00901121040117112,-0.021,-0.00333501341305663));
#1211=CARTESIAN_POINT('',(0.00822476044211639,-0.021,-0.00554687606807445));
#1212=CARTESIAN_POINT('',(0.0072000757225231,-0.021,-0.00842876554920554));
#1213=CARTESIAN_POINT('',(0.00625786236395077,-0.021,-0.00809375213614891));
#1214=CARTESIAN_POINT('',(3.03576608295941E-18,-0.021,-0.026));
#1215=CARTESIAN_POINT('',(-0.00410907342930292,-0.021,-0.0275020454562351));
#1216=CARTESIAN_POINT('',(0.00410907342930293,-0.021,-0.0275020454562352));
#1217=CARTESIAN_POINT('',(0.0124129895100996,-0.021,-0.00478542207768074));
#1218=CARTESIAN_POINT('',(0.013,-0.021,-0.00317956574573071));
#1219=CARTESIAN_POINT('',(0.013,-0.021,-0.04));
#1220=CARTESIAN_POINT('',(0.013,-0.021,0.));
#1221=CARTESIAN_POINT('',(-0.0065,-0.021,0.));
#1222=CARTESIAN_POINT('',(-0.013,-0.021,0.));
#1223=CARTESIAN_POINT('',(-0.013,-0.021,-0.04));
#1224=CARTESIAN_POINT('',(-0.013,-0.021,-0.00317956574573071));
#1225=CARTESIAN_POINT('',(-0.000360852175210323,-0.021,-0.0377558738596342));
#1226=CARTESIAN_POINT('',(-1.76808354282251E-18,-0.021,-0.026));
#1227=CARTESIAN_POINT('',(-1.76808354282251E-18,-0.021,-0.02825));
#1228=CARTESIAN_POINT('',(-0.013,-0.016,-0.04));
#1229=CARTESIAN_POINT('',(-0.013,-0.016,0.));
#1230=CARTESIAN_POINT('',(-0.01525,-0.016,0.));
#1231=CARTESIAN_POINT('',(-0.013,-0.016,-0.004));
#1232=CARTESIAN_POINT('',(-0.01525,-0.016,-0.004));
#1233=CARTESIAN_POINT('',(0.013,-0.016,-0.04));
#1234=CARTESIAN_POINT('',(0.013,-0.016,0.));
#1235=CARTESIAN_POINT('',(0.01075,-0.016,0.));
#1236=CARTESIAN_POINT('',(0.013,-0.016,-0.004));
#1237=CARTESIAN_POINT('',(0.01075,-0.016,-0.004));
#1238=CARTESIAN_POINT('',(0.013,-0.016,-0.04));
#1239=CARTESIAN_POINT('',(0.0126822167529627,-0.0209898911619295,-0.004375));
#1240=CARTESIAN_POINT('',(0.0127883305318303,-0.020996649061072,-0.00397660047390443));
#1241=CARTESIAN_POINT('',(0.0128941645201189,-0.021,-0.00357808304128687));
#1242=CARTESIAN_POINT('',(0.013,-0.021,-0.0031795657457307));
#1243=CARTESIAN_POINT('',(0.0126822167529627,-0.0209898911619295,-0.004375));
#1244=CARTESIAN_POINT('',(0.013,-0.016,-0.004375));
#1245=CARTESIAN_POINT('',(0.0126822167529627,-0.0110101088380705,-0.004375));
#1246=CARTESIAN_POINT('',(0.0126822167529627,-0.0110101088380705,-0.004375));
#1247=CARTESIAN_POINT('',(0.0127883305318303,-0.0110033509389281,-0.00397660047390448));
#1248=CARTESIAN_POINT('',(0.01289416452012,-0.011,-0.00357808304128727));
#1249=CARTESIAN_POINT('',(0.013,-0.011,-0.00317956574573085));
#1250=CARTESIAN_POINT('',(0.013,-0.016,0.));
#1251=CARTESIAN_POINT('',(-0.013,-0.016,-0.04));
#1252=CARTESIAN_POINT('',(-0.0126822167529627,-0.0110101088380705,-0.004375));
#1253=CARTESIAN_POINT('',(-0.0127883305318303,-0.0110033509389281,-0.00397660047390447));
#1254=CARTESIAN_POINT('',(-0.0128941645201242,-0.011,-0.00357808304128836));
#1255=CARTESIAN_POINT('',(-0.013,-0.011,-0.00317956574573081));
#1256=CARTESIAN_POINT('',(-0.0126822167529627,-0.0110101088380705,-0.004375));
#1257=CARTESIAN_POINT('',(-0.013,-0.016,-0.004375));
#1258=CARTESIAN_POINT('',(-0.0126822167529627,-0.0209898911619295,-0.004375));
#1259=CARTESIAN_POINT('',(-0.0126822167529627,-0.0209898911619295,-0.004375));
#1260=CARTESIAN_POINT('',(-0.0127883305318303,-0.020996649061072,-0.00397660047390466));
#1261=CARTESIAN_POINT('',(-0.0128941645201193,-0.021,-0.00357808304128746));
#1262=CARTESIAN_POINT('',(-0.0129999999999997,-0.021,-0.00317956574573134));
#1263=CARTESIAN_POINT('',(-0.013,-0.016,0.));
#1264=CARTESIAN_POINT('',(0.,3.46944695195361E-18,0.));
#1265=CARTESIAN_POINT('',(0.,-0.016,1.7347234759768E-18));
#1266=CARTESIAN_POINT('',(-0.00415,-0.016,1.7347234759768E-18));
#1267=CARTESIAN_POINT('',(-3.76968755356499E-18,-0.036,-0.026));
#1268=CARTESIAN_POINT('',(0.00211361348137199,-0.0155355708480211,-0.0267856295911196));
#1269=CARTESIAN_POINT('',(0.00216819055180304,-0.016000069422996,-0.0266021970176025));
#1270=CARTESIAN_POINT('',(0.00211362431141585,-0.016464151459995,-0.0267855320868969));
#1271=CARTESIAN_POINT('',(0.00195394164908643,-0.016955530664515,-0.0271502571090716));
#1272=CARTESIAN_POINT('',(0.00161130783041665,-0.0174936914725582,-0.027629550285199));
#1273=CARTESIAN_POINT('',(0.000941900164170691,-0.0180017012921204,-0.0281077634853236));
#1274=CARTESIAN_POINT('',(5.11368515573974E-7,-0.0182243420366146,-0.0283213117002527));
#1275=CARTESIAN_POINT('',(-0.000945368457655172,-0.0180009304829557,-0.0281069896386871));
#1276=CARTESIAN_POINT('',(-0.00161503219788218,-0.0174891559078556,-0.0276254314233987));
#1277=CARTESIAN_POINT('',(-0.00195489022331357,-0.0169538306262877,-0.0271487201312529));
#1278=CARTESIAN_POINT('',(-0.00211472866520258,-0.0164595737801784,-0.026782459348712));
#1279=CARTESIAN_POINT('',(-0.00216813177611393,-0.015995595841904,-0.0266023431695216));
#1280=CARTESIAN_POINT('',(-0.00211271749228558,-0.0155317780252922,-0.0267882043852375));
#1281=CARTESIAN_POINT('',(-0.00195240751209217,-0.0150417886510616,-0.027152623658557));
#1282=CARTESIAN_POINT('',(-0.00161089363300093,-0.0145059134380989,-0.0276299296539801));
#1283=CARTESIAN_POINT('',(-0.000940371843020033,-0.0139977487533684,-0.0281082845428266));
#1284=CARTESIAN_POINT('',(-1.82623984789003E-6,-0.0137758626989271,-0.0283211114567068));
#1285=CARTESIAN_POINT('',(0.000944538742077868,-0.0139988008326063,-0.0281072692656268));
#1286=CARTESIAN_POINT('',(0.00161277322133334,-0.0145085423315121,-0.0276275164447408));
#1287=CARTESIAN_POINT('',(0.00195358458130132,-0.0150438953462168,-0.0271508035409936));
#1288=CARTESIAN_POINT('',(0.00211361348137199,-0.0155355708480211,-0.0267856295911196));
#1289=CARTESIAN_POINT('',(0.00216819055180304,-0.016000069422996,-0.0266021970176025));
#1290=CARTESIAN_POINT('',(0.00211362431141585,-0.016464151459995,-0.0267855320868969));
#1291=CARTESIAN_POINT('',(0.00215,-0.016,-0.0266633249580711));
#1292=CARTESIAN_POINT('',(0.00211361348137199,-0.0164644291519789,-0.0252143704088804));
#1293=CARTESIAN_POINT('',(0.00216819055180304,-0.015999930577004,-0.0253978029823975));
#1294=CARTESIAN_POINT('',(0.00211362431141585,-0.015535848540005,-0.0252144679131031));
#1295=CARTESIAN_POINT('',(0.00195394164908644,-0.0150444693354851,-0.0248497428909284));
#1296=CARTESIAN_POINT('',(0.00161130783041665,-0.0145063085274419,-0.024370449714801));
#1297=CARTESIAN_POINT('',(0.000941900164170683,-0.0139982987078796,-0.0238922365146764));
#1298=CARTESIAN_POINT('',(5.11368515505726E-7,-0.0137756579633854,-0.0236786882997473));
#1299=CARTESIAN_POINT('',(-0.000945368457655245,-0.0139990695170444,-0.0238930103613129));
#1300=CARTESIAN_POINT('',(-0.00161503219788225,-0.0145108440921445,-0.0243745685766014));
#1301=CARTESIAN_POINT('',(-0.00195489022331361,-0.0150461693737124,-0.0248512798687472));
#1302=CARTESIAN_POINT('',(-0.00211472866520261,-0.0155404262198217,-0.0252175406512881));
#1303=CARTESIAN_POINT('',(-0.00216813177611393,-0.0160044041580962,-0.0253976568304784));
#1304=CARTESIAN_POINT('',(-0.00211271749228557,-0.0164682219747079,-0.0252117956147624));
#1305=CARTESIAN_POINT('',(-0.00195240751209216,-0.0169582113489384,-0.024847376341443));
#1306=CARTESIAN_POINT('',(-0.0016108936330009,-0.0174940865619011,-0.0243700703460199));
#1307=CARTESIAN_POINT('',(-0.000940371843020018,-0.0180022512466316,-0.0238917154571734));
#1308=CARTESIAN_POINT('',(-1.82623984785134E-6,-0.0182241373010729,-0.0236788885432932));
#1309=CARTESIAN_POINT('',(0.0009445387420779,-0.0180011991673937,-0.0238927307343732));
#1310=CARTESIAN_POINT('',(0.00161277322133337,-0.0174914576684879,-0.0243724835552593));
#1311=CARTESIAN_POINT('',(0.00195358458130134,-0.0169561046537831,-0.0248491964590064));
#1312=CARTESIAN_POINT('',(0.00211361348137199,-0.0164644291519789,-0.0252143704088804));
#1313=CARTESIAN_POINT('',(0.00216819055180304,-0.015999930577004,-0.0253978029823975));
#1314=CARTESIAN_POINT('',(0.00211362431141585,-0.015535848540005,-0.0252144679131031));
#1315=CARTESIAN_POINT('',(0.00215,-0.016,-0.0253366750419289));
#1316=CARTESIAN_POINT('',(3.03576608295941E-18,0.004,-0.026));
#1317=CARTESIAN_POINT('',(0.00168530279367034,-0.0143149583042602,-0.0307694727225712));
#1318=CARTESIAN_POINT('',(0.00238253981063658,-0.0160003598157578,-0.0303865656354853));
#1319=CARTESIAN_POINT('',(0.00168453796378333,-0.0176836024327086,-0.0307691313587517));
#1320=CARTESIAN_POINT('',(4.58771476228938E-6,-0.0183833046046327,-0.0311153846801011));
#1321=CARTESIAN_POINT('',(-0.00168628273473601,-0.0176831684603003,-0.0307693253248076));
#1322=CARTESIAN_POINT('',(-0.00238188454894596,-0.0160049486739314,-0.0303867001499064));
#1323=CARTESIAN_POINT('',(-0.00168616516191314,-0.0143159792576252,-0.0307687473227324));
#1324=CARTESIAN_POINT('',(-2.93593004861245E-6,-0.0136172671493882,-0.0311154443265346));
#1325=CARTESIAN_POINT('',(0.00168530279367034,-0.0143149583042602,-0.0307694727225712));
#1326=CARTESIAN_POINT('',(0.00238253981063658,-0.0160003598157578,-0.0303865656354853));
#1327=CARTESIAN_POINT('',(0.00168453796378333,-0.0176836024327086,-0.0307691313587517));
#1328=CARTESIAN_POINT('',(0.00215,-0.016,-0.0305141444372108));
#1329=CARTESIAN_POINT('',(-0.00469608391920335,0.004,-0.0277166233785545));
#1330=CARTESIAN_POINT('',(-0.00469608391920335,-0.011625,-0.0277166233785545));
#1331=CARTESIAN_POINT('',(-0.00469608391920335,-0.020375,-0.0277166233785545));
#1332=CARTESIAN_POINT('',(3.03576608295941E-18,-0.011625,-0.026));
#1333=CARTESIAN_POINT('',(0.00469608391920335,-0.011625,-0.0277166233785545));
#1334=CARTESIAN_POINT('',(0.00469608391920335,0.004,-0.0277166233785545));
#1335=CARTESIAN_POINT('',(0.00469608391920335,-0.020375,-0.0277166233785545));
#1336=CARTESIAN_POINT('',(3.03576608295941E-18,-0.020375,-0.026));
#1337=CARTESIAN_POINT('',(-0.00884804195960167,0.004,-0.0163583116892773));
#1338=CARTESIAN_POINT('',(-0.0135870104899004,-0.016,-0.00339414366805002));
#1339=CARTESIAN_POINT('',(-0.0130004566757618,-0.0203355022342422,-0.00499875069410793));
#1340=CARTESIAN_POINT('',(-0.0130004566757618,-0.0116644977657578,-0.00499875069410793));
#1341=CARTESIAN_POINT('',(-0.0130004566757618,-0.0116644977657578,-0.00499875069410793));
#1342=CARTESIAN_POINT('',(-0.0130001522664587,-0.0116513467715946,-0.00499958345198087));
#1343=CARTESIAN_POINT('',(-0.013,-0.0116381808537171,-0.005));
#1344=CARTESIAN_POINT('',(-0.013,-0.011625,-0.005));
#1345=CARTESIAN_POINT('',(-0.013,-0.011625,-0.005));
#1346=CARTESIAN_POINT('',(-0.00469608391920334,-0.011625,-0.0277166233785545));
#1347=CARTESIAN_POINT('',(-0.00884804195960167,-0.020375,-0.0163583116892773));
#1348=CARTESIAN_POINT('',(-0.013,-0.020375,-0.005));
#1349=CARTESIAN_POINT('',(-0.013,-0.020375,-0.005));
#1350=CARTESIAN_POINT('',(-0.013,-0.0203618191462829,-0.005));
#1351=CARTESIAN_POINT('',(-0.0130001522664587,-0.0203486532284054,-0.00499958345198087));
#1352=CARTESIAN_POINT('',(-0.0130004566757618,-0.0203355022342422,-0.00499875069410793));
#1353=CARTESIAN_POINT('',(0.00884804195960168,0.004,-0.0163583116892773));
#1354=CARTESIAN_POINT('',(0.00884804195960168,-0.011625,-0.0163583116892773));
#1355=CARTESIAN_POINT('',(0.013,-0.011625,-0.005));
#1356=CARTESIAN_POINT('',(0.013,-0.011625,-0.005));
#1357=CARTESIAN_POINT('',(0.013,-0.0116381808537171,-0.005));
#1358=CARTESIAN_POINT('',(0.0130001522664587,-0.0116513467715946,-0.00499958345198087));
#1359=CARTESIAN_POINT('',(0.0130004566757618,-0.0116644977657578,-0.00499875069410793));
#1360=CARTESIAN_POINT('',(0.0130004566757618,-0.0116644977657578,-0.00499875069410793));
#1361=CARTESIAN_POINT('',(0.0135870104899004,-0.016,-0.00339414366805002));
#1362=CARTESIAN_POINT('',(0.0130004566757618,-0.0203355022342422,-0.00499875069410793));
#1363=CARTESIAN_POINT('',(0.0130004566757618,-0.0203355022342422,-0.00499875069410793));
#1364=CARTESIAN_POINT('',(0.0130001522664587,-0.0203486532284054,-0.00499958345198087));
#1365=CARTESIAN_POINT('',(0.013,-0.0203618191462829,-0.005));
#1366=CARTESIAN_POINT('',(0.013,-0.020375,-0.005));
#1367=CARTESIAN_POINT('',(0.013,-0.020375,-0.005));
#1368=CARTESIAN_POINT('',(0.00469608391920335,-0.020375,-0.0277166233785545));
#1369=CARTESIAN_POINT('',(0.013,-0.016,-0.004));
#1370=CARTESIAN_POINT('',(0.013,-0.016,-0.00317956574573071));
#1371=CARTESIAN_POINT('',(0.0126254428601039,-0.019731247371718,-0.004375));
#1372=CARTESIAN_POINT('',(0.0126254428601039,-0.0122687526282819,-0.004375));
#1373=CARTESIAN_POINT('',(0.013,-0.016,-0.004375));
#1374=CARTESIAN_POINT('',(0.013,-0.016,-0.004));
#1375=CARTESIAN_POINT('',(0.00925,-0.016,-0.004));
#1376=CARTESIAN_POINT('',(0.,-0.016,-0.004));
#1377=CARTESIAN_POINT('',(-0.013,-0.016,-0.004));
#1378=CARTESIAN_POINT('',(-0.013,-0.016,-0.00317956574573071));
#1379=CARTESIAN_POINT('',(-0.0126254428601039,-0.0122687526282819,-0.004375));
#1380=CARTESIAN_POINT('',(-0.0126254428601039,-0.019731247371718,-0.004375));
#1381=CARTESIAN_POINT('',(-0.013,-0.016,-0.004375));
#1382=CARTESIAN_POINT('',(-0.013,-0.016,-0.004));
#1383=CARTESIAN_POINT('',(-0.01675,-0.016,-0.004));
#1384=CARTESIAN_POINT('',(0.,-0.016,-0.004));
#1385=CARTESIAN_POINT('',(-0.013226919350392,-0.0116398441115887,-0.0043792276595759));
#1386=CARTESIAN_POINT('',(-0.0132325477676359,-0.0122180277924314,-0.00436383026953693));
#1387=CARTESIAN_POINT('',(-0.0126913504518499,-0.0122627235242189,-0.0041646497372566));
#1388=CARTESIAN_POINT('',(-0.012145312505473,-0.0117291705144185,-0.00733812742453286));
#1389=CARTESIAN_POINT('',(-0.0122703299956315,-0.0121754755393322,-0.00699612309645478));
#1390=CARTESIAN_POINT('',(-0.0117642588704931,-0.0123392890123582,-0.00712354950221387));
#1391=CARTESIAN_POINT('',(-0.0105845354010219,-0.0124961374044515,-0.0116078701958598));
#1392=CARTESIAN_POINT('',(-0.0106716669358779,-0.0127203431759583,-0.011369508651443));
#1393=CARTESIAN_POINT('',(-0.0104264499238179,-0.0129966892038157,-0.0113932922735404));
#1394=CARTESIAN_POINT('',(-0.00941654203762549,-0.0143727386513361,-0.0148030933997992));
#1395=CARTESIAN_POINT('',(-0.00945892001456579,-0.0144769450149491,-0.0146871620088349));
#1396=CARTESIAN_POINT('',(-0.00942531275519303,-0.014605204558288,-0.0145885154774799));
#1397=CARTESIAN_POINT('',(-0.00910974471603789,-0.016,-0.0156423840598014));
#1398=CARTESIAN_POINT('',(-0.00914728862236338,-0.0159999999999996,-0.0155396770030516));
#1399=CARTESIAN_POINT('',(-0.00916234362240348,-0.016,-0.0154278061374821));
#1400=CARTESIAN_POINT('',(-0.00941654203762546,-0.017627261348664,-0.0148030933997993));
#1401=CARTESIAN_POINT('',(-0.00945892001456659,-0.0175230549850521,-0.0146871620088323));
#1402=CARTESIAN_POINT('',(-0.00942531275519304,-0.017394795441712,-0.01458851547748));
#1403=CARTESIAN_POINT('',(-0.0105845354010221,-0.0195038625955485,-0.0116078701958591));
#1404=CARTESIAN_POINT('',(-0.0106716669358748,-0.0192796568240382,-0.0113695086514539));
#1405=CARTESIAN_POINT('',(-0.0104264499238178,-0.0190033107961843,-0.0113932922735396));
#1406=CARTESIAN_POINT('',(-0.0121453125054717,-0.0202708294855815,-0.00733812742453644));
#1407=CARTESIAN_POINT('',(-0.0122703299956352,-0.0198245244606808,-0.00699612309643197));
#1408=CARTESIAN_POINT('',(-0.0117642588704931,-0.0196607109876418,-0.00712354950221793));
#1409=CARTESIAN_POINT('',(-0.013226919350392,-0.0203601558884113,-0.00437922765957586));
#1410=CARTESIAN_POINT('',(-0.0132325477676359,-0.0197819722075686,-0.0043638302695369));
#1411=CARTESIAN_POINT('',(-0.0126913504518499,-0.0197372764757811,-0.00416464973725656));
#1412=CARTESIAN_POINT('',(-0.0130004566757618,-0.0203355022342422,-0.00499875069410793));
#1413=CARTESIAN_POINT('',(-0.0130044831484019,-0.0201615518403443,-0.00498773566678585));
#1414=CARTESIAN_POINT('',(-0.0129048046155375,-0.0198474172352243,-0.00481189682438678));
#1415=CARTESIAN_POINT('',(-0.012719794548403,-0.0197407187615759,-0.00451802370675553));
#1416=CARTESIAN_POINT('',(-0.0126254428601039,-0.019731247371718,-0.004375));
#1417=CARTESIAN_POINT('',(-0.0130004566757618,-0.0116644977657578,-0.00499875069410793));
#1418=CARTESIAN_POINT('',(-0.0130044831484019,-0.0118384481596557,-0.00498773566678585));
#1419=CARTESIAN_POINT('',(-0.0129048046155427,-0.0121525827647751,-0.00481189682438334));
#1420=CARTESIAN_POINT('',(-0.0127197945483927,-0.0122592812384251,-0.00451802370676241));
#1421=CARTESIAN_POINT('',(-0.0126254428601039,-0.0122687526282819,-0.004375));
#1422=CARTESIAN_POINT('',(-0.000360852175210324,-0.020375,-0.0377558738596342));
#1423=CARTESIAN_POINT('',(-0.013,-0.020375,-0.005));
#1424=CARTESIAN_POINT('',(-0.013,-0.0205503548739169,-0.005));
#1425=CARTESIAN_POINT('',(-0.012914491752187,-0.0207951077283429,-0.00488222097103137));
#1426=CARTESIAN_POINT('',(-0.0127497118418374,-0.0209575140841975,-0.00462614480598735));
#1427=CARTESIAN_POINT('',(-0.0126594947552012,-0.0209884441022656,-0.00446030874347106));
#1428=CARTESIAN_POINT('',(-0.0126822167529628,-0.0209898911619295,-0.004375));
#1429=CARTESIAN_POINT('',(-0.00410907342930292,-0.020375,-0.0275020454562351));
#1430=CARTESIAN_POINT('',(-0.013,-0.016,-0.004375));
#1431=CARTESIAN_POINT('',(-0.0126822167529627,-0.0110101088380705,-0.004375));
#1432=CARTESIAN_POINT('',(-0.0126594542387152,-0.0110115584780433,-0.00446046086083943));
#1433=CARTESIAN_POINT('',(-0.012749715557725,-0.0110424866306521,-0.0046260418675378));
#1434=CARTESIAN_POINT('',(-0.0129143767763408,-0.0112047596193799,-0.00488211471723551));
#1435=CARTESIAN_POINT('',(-0.013,-0.0114495073124042,-0.005));
#1436=CARTESIAN_POINT('',(-0.013,-0.011625,-0.005));
#1437=CARTESIAN_POINT('',(0.0126913504518499,-0.0122627235242189,-0.0041646497372566));
#1438=CARTESIAN_POINT('',(0.0132325477676359,-0.0122180277924314,-0.00436383026953694));
#1439=CARTESIAN_POINT('',(0.013226919350392,-0.0116398441115887,-0.0043792276595759));
#1440=CARTESIAN_POINT('',(0.0117642588704931,-0.0123392890123582,-0.00712354950221387));
#1441=CARTESIAN_POINT('',(0.0122703299956318,-0.0121754755393372,-0.00699612309641171));
#1442=CARTESIAN_POINT('',(0.012145312505473,-0.0117291705144185,-0.00733812742453286));
#1443=CARTESIAN_POINT('',(0.0104264499238179,-0.0129966892038157,-0.0113932922735404));
#1444=CARTESIAN_POINT('',(0.0106716669358736,-0.0127203431759587,-0.0113695086514633));
#1445=CARTESIAN_POINT('',(0.0105845354010219,-0.0124961374044515,-0.0116078701958598));
#1446=CARTESIAN_POINT('',(0.00942531275519302,-0.014605204558288,-0.0145885154774799));
#1447=CARTESIAN_POINT('',(0.00945892001456711,-0.0144769450149482,-0.0146871620088299));
#1448=CARTESIAN_POINT('',(0.0094165420376255,-0.014372738651336,-0.0148030933997992));
#1449=CARTESIAN_POINT('',(0.0091623436224035,-0.016,-0.0154278061374821));
#1450=CARTESIAN_POINT('',(0.00914728862236299,-0.0160000000000002,-0.0155396770030531));
#1451=CARTESIAN_POINT('',(0.00910974471603787,-0.0160000000000003,-0.0156423840598014));
#1452=CARTESIAN_POINT('',(0.00942531275519297,-0.017394795441712,-0.0145885154774798));
#1453=CARTESIAN_POINT('',(0.00945892001456668,-0.0175230549850514,-0.014687162008832));
#1454=CARTESIAN_POINT('',(0.00941654203762552,-0.017627261348663,-0.0148030933997991));
#1455=CARTESIAN_POINT('',(0.0104264499238182,-0.0190033107961843,-0.0113932922735405));
#1456=CARTESIAN_POINT('',(0.0106716669358748,-0.019279656824041,-0.0113695086514544));
#1457=CARTESIAN_POINT('',(0.0105845354010218,-0.0195038625955534,-0.0116078701958599));
#1458=CARTESIAN_POINT('',(0.0117642588704913,-0.0196607109876417,-0.00712354950221383));
#1459=CARTESIAN_POINT('',(0.0122703299956352,-0.0198245244606674,-0.00699612309643029));
#1460=CARTESIAN_POINT('',(0.012145312505473,-0.0202708294855596,-0.00733812742453282));
#1461=CARTESIAN_POINT('',(0.0126913504518499,-0.0197372764757811,-0.00416464973725656));
#1462=CARTESIAN_POINT('',(0.0132325477676359,-0.0197819722075686,-0.0043638302695369));
#1463=CARTESIAN_POINT('',(0.013226919350392,-0.0203601558884113,-0.00437922765957586));
#1464=CARTESIAN_POINT('',(0.0130004566757618,-0.0116644977657578,-0.00499875069410793));
#1465=CARTESIAN_POINT('',(0.0130044831484019,-0.0118384481596557,-0.00498773566678585));
#1466=CARTESIAN_POINT('',(0.0129048046155385,-0.0121525827647756,-0.00481189682438608));
#1467=CARTESIAN_POINT('',(0.0127197945484009,-0.0122592812384243,-0.00451802370675692));
#1468=CARTESIAN_POINT('',(0.0126254428601039,-0.0122687526282819,-0.004375));
#1469=CARTESIAN_POINT('',(0.0130004566757618,-0.0203355022342422,-0.00499875069410793));
#1470=CARTESIAN_POINT('',(0.013004483148402,-0.0201615518403443,-0.00498773566678585));
#1471=CARTESIAN_POINT('',(0.0129048046155396,-0.0198474172352246,-0.0048118968243854));
#1472=CARTESIAN_POINT('',(0.0127197945483989,-0.0197407187615755,-0.00451802370675829));
#1473=CARTESIAN_POINT('',(0.0126254428601039,-0.019731247371718,-0.004375));
#1474=CARTESIAN_POINT('',(3.03576608295941E-18,-0.020375,-0.026));
#1475=CARTESIAN_POINT('',(0.00410907342930293,-0.020375,-0.0275020454562352));
#1476=CARTESIAN_POINT('',(0.013,-0.016,-0.004375));
#1477=CARTESIAN_POINT('',(0.013,-0.011625,-0.005));
#1478=CARTESIAN_POINT('',(0.013,-0.0114496451260831,-0.005));
#1479=CARTESIAN_POINT('',(0.012914491752187,-0.0112048922716571,-0.00488222097103137));
#1480=CARTESIAN_POINT('',(0.0127497118418374,-0.0110424859158025,-0.00462614480598736));
#1481=CARTESIAN_POINT('',(0.0126594947552012,-0.0110115558977344,-0.00446030874347106));
#1482=CARTESIAN_POINT('',(0.0126822167529628,-0.0110101088380705,-0.004375));
#1483=CARTESIAN_POINT('',(0.0126822167529627,-0.0209898911619295,-0.004375));
#1484=CARTESIAN_POINT('',(0.0126594542387152,-0.0209884415219567,-0.00446046086083944));
#1485=CARTESIAN_POINT('',(0.0127497155577251,-0.0209575133693479,-0.0046260418675378));
#1486=CARTESIAN_POINT('',(0.0129143767763408,-0.0207952403806201,-0.00488211471723551));
#1487=CARTESIAN_POINT('',(0.013,-0.0205504926875958,-0.005));
#1488=CARTESIAN_POINT('',(0.013,-0.020375,-0.005));
#1489=CARTESIAN_POINT('',(0.00826103146970126,-0.020375,-0.016143733766958));
#1490=CARTESIAN_POINT('',(-0.00826103146970125,-0.011625,-0.016143733766958));
#1491=CARTESIAN_POINT('',(-0.00410907342930292,-0.011625,-0.0275020454562351));
#1492=CARTESIAN_POINT('',(3.03576608295941E-18,-0.011625,-0.026));
#1493=CARTESIAN_POINT('',(0.00410907342930293,-0.011625,-0.0275020454562351));
#1494=CARTESIAN_POINT('',(-0.00117148165316551,-0.011625,-0.0419478057301804));
#1495=CARTESIAN_POINT('',(0.00425,0.004,-0.002));
#1496=CARTESIAN_POINT('',(0.,-0.016,-0.002));
#1497=CARTESIAN_POINT('',(-0.00415,-0.016,-0.002));
#1498=CARTESIAN_POINT('',(0.0080689970425988,0.004,-0.002));
#1499=CARTESIAN_POINT('',(-0.0080689970425988,-0.011,-0.002));
#1500=CARTESIAN_POINT('',(-0.00822476044211639,0.004,-0.00554687606807445));
#1501=CARTESIAN_POINT('',(-0.0072000757225231,0.004,-0.00842876554920554));
#1502=CARTESIAN_POINT('',(-0.00901121040117112,-0.021,-0.00333501341305663));
#1503=CARTESIAN_POINT('',(-8.67361737988404E-19,0.004,-0.00909375213614891));
#1504=CARTESIAN_POINT('',(0.005,0.004,-0.00909375213614891));
#1505=CARTESIAN_POINT('',(0.00625786236395077,-0.011,-0.00909375213614891));
#1506=CARTESIAN_POINT('',(0.00822476044211639,0.004,-0.00554687606807445));
#1507=CARTESIAN_POINT('',(0.0072000757225231,-0.021,-0.00842876554920554));
#1508=CARTESIAN_POINT('',(0.00901121040117112,0.004,-0.00333501341305663));
#1509=CARTESIAN_POINT('',(-0.00625786236395077,0.004,-0.00809375213614891));
#1510=CARTESIAN_POINT('',(0.00625786236395077,0.004,-0.00809375213614891));
#1511=CARTESIAN_POINT('',(0.0080689970425988,0.004,-0.003));
#1512=CARTESIAN_POINT('',(-0.0080689970425988,0.004,-0.003));
#1513=CARTESIAN_POINT('',(0.004,0.004,-0.0115937521361489));
#1514=CARTESIAN_POINT('',(0.004,0.004,-0.0130937521361489));
#1515=CARTESIAN_POINT('',(0.004,0.004,-0.0100937521361489));
#1516=CARTESIAN_POINT('',(-0.004,0.004,-0.0115937521361489));
#1517=CARTESIAN_POINT('',(-0.004,-0.011,-0.0130937521361489));
#1518=CARTESIAN_POINT('',(-0.004,-0.021,-0.0100937521361489));
#1519=CARTESIAN_POINT('',(-0.002,0.004,-0.0140937521361489));
#1520=CARTESIAN_POINT('',(0.,-0.016,-0.0140937521361489));
#1521=CARTESIAN_POINT('',(0.00215,-0.016,-0.0140937521361489));
#1522=CARTESIAN_POINT('',(0.003,0.004,-0.0140937521361489));
#1523=CARTESIAN_POINT('',(-0.003,-0.021,-0.0140937521361489));
#1524=CARTESIAN_POINT('',(0.003,0.004,-0.0130937521361489));
#1525=CARTESIAN_POINT('',(-0.003,0.004,-0.0130937521361489));
#1526=CARTESIAN_POINT('',(0.005,0.004,-0.0100937521361489));
#1527=CARTESIAN_POINT('',(-0.005,0.004,-0.0100937521361489));
#1528=CARTESIAN_POINT('',(0.,-0.016,-0.0390937521361489));
#1529=CARTESIAN_POINT('',(0.,-0.016,-0.0390937521361489));
#1530=CARTESIAN_POINT('',(0.,-0.016,0.023));
#1531=MECHANICAL_DESIGN_GEOMETRIC_PRESENTATION_REPRESENTATION('',(#807),
#1532);
#1532=(
GEOMETRIC_REPRESENTATION_CONTEXT(3)
GLOBAL_UNCERTAINTY_ASSIGNED_CONTEXT((#1533))
GLOBAL_UNIT_ASSIGNED_CONTEXT((#1536,#1535,#1534))
REPRESENTATION_CONTEXT('Pinion Bracket','TOP_LEVEL_ASSEMBLY_PART')
);
#1533=UNCERTAINTY_MEASURE_WITH_UNIT(LENGTH_MEASURE(2.E-5),#1536,
'DISTANCE_ACCURACY_VALUE','Maximum Tolerance applied to model');
#1534=(
NAMED_UNIT(*)
SI_UNIT($,.STERADIAN.)
SOLID_ANGLE_UNIT()
);
#1535=(
NAMED_UNIT(*)
PLANE_ANGLE_UNIT()
SI_UNIT($,.RADIAN.)
);
#1536=(
LENGTH_UNIT()
NAMED_UNIT(*)
SI_UNIT($,.METRE.)
);
#1537=PRODUCT_DEFINITION_SHAPE('','',#1538);
#1538=PRODUCT_DEFINITION('','',#1540,#1539);
#1539=PRODUCT_DEFINITION_CONTEXT('',#1546,'design');
#1540=PRODUCT_DEFINITION_FORMATION_WITH_SPECIFIED_SOURCE('','',#1542,
 .NOT_KNOWN.);
#1541=PRODUCT_RELATED_PRODUCT_CATEGORY('','',(#1542));
#1542=PRODUCT('Pinion Bracket','Pinion Bracket','Pinion Bracket',(#1544));
#1543=PRODUCT_CATEGORY('','');
#1544=PRODUCT_CONTEXT('',#1546,'mechanical');
#1545=APPLICATION_PROTOCOL_DEFINITION('international standard',
'ap242_managed_model_based_3d_engineering',2020,#1546);
#1546=APPLICATION_CONTEXT('managed model based 3d engineering');
ENDSEC;
END-ISO-10303-21;
