ISO-10303-21;
HEADER;
/* Generated by software containing ST-Developer
 * from STEP Tools, Inc. (www.steptools.com) 
 */
/* OPTION: using custom renumber hook */

FILE_DESCRIPTION(
/* description */ ('STEP AP242 Edition 2',
'CAx-IF Rec.Pracs.---Representation and Presentation of Product Manufa
cturing Information (PMI)---4.0---2014-10-13',
'CAx-IF Rec.Pracs.---3D Tessellated Geometry---0.4---2014-09-14','2;1',
'CAx-IF Rec.Pracs.---User Defined Attributes---1.5---2016-08-15'),
/* implementation_level */ '2;1');

FILE_NAME(
/* name */ 'Assembly 1 - Pod Base',
/* time_stamp */ '2026-08-06T04:34:44Z',
/* author */ (''),
/* organization */ (''),
/* preprocessor_version */ 'ST-DEVELOPER v20',
/* originating_system */ 'ONSHAPE BY PTC INC, 1.218',
/* authorisation */ '  ');

FILE_SCHEMA (('AP242_MANAGED_MODEL_BASED_3D_ENGINEERING_MIM_LF { 1 0 10303 442 3 1 4 }'));
ENDSEC;

DATA;
#10=SHAPE_REPRESENTATION_RELATIONSHIP('','',#213,#11);
#11=ADVANCED_BREP_SHAPE_REPRESENTATION('',(#211),#365);
#12=PLANE('',#218);
#13=PLANE('',#241);
#14=PLANE('',#244);
#15=PLANE('',#245);
#16=PLANE('',#246);
#17=ORIENTED_EDGE('',*,*,#53,.T.);
#18=ORIENTED_EDGE('',*,*,#54,.T.);
#19=ORIENTED_EDGE('',*,*,#55,.F.);
#20=ORIENTED_EDGE('',*,*,#56,.F.);
#21=ORIENTED_EDGE('',*,*,#57,.T.);
#22=ORIENTED_EDGE('',*,*,#58,.F.);
#23=ORIENTED_EDGE('',*,*,#59,.T.);
#24=ORIENTED_EDGE('',*,*,#60,.T.);
#25=ORIENTED_EDGE('',*,*,#61,.F.);
#26=ORIENTED_EDGE('',*,*,#62,.F.);
#27=ORIENTED_EDGE('',*,*,#58,.T.);
#28=ORIENTED_EDGE('',*,*,#63,.F.);
#29=ORIENTED_EDGE('',*,*,#61,.T.);
#30=ORIENTED_EDGE('',*,*,#64,.T.);
#31=ORIENTED_EDGE('',*,*,#65,.F.);
#32=ORIENTED_EDGE('',*,*,#66,.T.);
#33=ORIENTED_EDGE('',*,*,#57,.F.);
#34=ORIENTED_EDGE('',*,*,#67,.T.);
#35=ORIENTED_EDGE('',*,*,#60,.F.);
#36=ORIENTED_EDGE('',*,*,#68,.T.);
#37=ORIENTED_EDGE('',*,*,#59,.F.);
#38=ORIENTED_EDGE('',*,*,#69,.F.);
#39=ORIENTED_EDGE('',*,*,#56,.T.);
#40=ORIENTED_EDGE('',*,*,#54,.F.);
#41=ORIENTED_EDGE('',*,*,#69,.T.);
#42=ORIENTED_EDGE('',*,*,#70,.F.);
#43=ORIENTED_EDGE('',*,*,#55,.T.);
#44=ORIENTED_EDGE('',*,*,#70,.T.);
#45=ORIENTED_EDGE('',*,*,#66,.F.);
#46=ORIENTED_EDGE('',*,*,#65,.T.);
#47=ORIENTED_EDGE('',*,*,#53,.F.);
#48=ORIENTED_EDGE('',*,*,#64,.F.);
#49=ORIENTED_EDGE('',*,*,#62,.T.);
#50=ORIENTED_EDGE('',*,*,#63,.T.);
#51=ORIENTED_EDGE('',*,*,#67,.F.);
#52=ORIENTED_EDGE('',*,*,#68,.F.);
#53=EDGE_CURVE('',#71,#71,#89,.T.);
#54=EDGE_CURVE('',#72,#72,#90,.T.);
#55=EDGE_CURVE('',#73,#73,#91,.T.);
#56=EDGE_CURVE('',#74,#74,#92,.T.);
#57=EDGE_CURVE('',#75,#75,#93,.T.);
#58=EDGE_CURVE('',#76,#76,#94,.T.);
#59=EDGE_CURVE('',#77,#77,#95,.T.);
#60=EDGE_CURVE('',#78,#78,#96,.T.);
#61=EDGE_CURVE('',#79,#79,#97,.T.);
#62=EDGE_CURVE('',#80,#80,#98,.T.);
#63=EDGE_CURVE('',#81,#81,#99,.T.);
#64=EDGE_CURVE('',#82,#82,#100,.T.);
#65=EDGE_CURVE('',#83,#83,#101,.T.);
#66=EDGE_CURVE('',#84,#84,#102,.T.);
#67=EDGE_CURVE('',#85,#85,#103,.T.);
#68=EDGE_CURVE('',#86,#86,#104,.T.);
#69=EDGE_CURVE('',#87,#87,#105,.T.);
#70=EDGE_CURVE('',#88,#88,#106,.T.);
#71=VERTEX_POINT('',#316);
#72=VERTEX_POINT('',#318);
#73=VERTEX_POINT('',#321);
#74=VERTEX_POINT('',#323);
#75=VERTEX_POINT('',#325);
#76=VERTEX_POINT('',#327);
#77=VERTEX_POINT('',#329);
#78=VERTEX_POINT('',#331);
#79=VERTEX_POINT('',#333);
#80=VERTEX_POINT('',#336);
#81=VERTEX_POINT('',#339);
#82=VERTEX_POINT('',#342);
#83=VERTEX_POINT('',#344);
#84=VERTEX_POINT('',#347);
#85=VERTEX_POINT('',#350);
#86=VERTEX_POINT('',#353);
#87=VERTEX_POINT('',#356);
#88=VERTEX_POINT('',#360);
#89=CIRCLE('',#216,0.00415);
#90=CIRCLE('',#217,0.00415);
#91=CIRCLE('',#219,0.0071);
#92=CIRCLE('',#220,0.00715);
#93=CIRCLE('',#221,0.027);
#94=CIRCLE('',#222,0.00225);
#95=CIRCLE('',#223,0.00225);
#96=CIRCLE('',#224,0.00225);
#97=CIRCLE('',#225,0.00225);
#98=CIRCLE('',#227,0.00225);
#99=CIRCLE('',#229,0.00225);
#100=CIRCLE('',#231,0.0295);
#101=CIRCLE('',#232,0.0295);
#102=CIRCLE('',#234,0.027);
#103=CIRCLE('',#236,0.00225);
#104=CIRCLE('',#238,0.00225);
#105=CIRCLE('',#240,0.00715);
#106=CIRCLE('',#243,0.0071);
#107=EDGE_LOOP('',(#17));
#108=EDGE_LOOP('',(#18));
#109=EDGE_LOOP('',(#19));
#110=EDGE_LOOP('',(#20));
#111=EDGE_LOOP('',(#21));
#112=EDGE_LOOP('',(#22));
#113=EDGE_LOOP('',(#23));
#114=EDGE_LOOP('',(#24));
#115=EDGE_LOOP('',(#25));
#116=EDGE_LOOP('',(#26));
#117=EDGE_LOOP('',(#27));
#118=EDGE_LOOP('',(#28));
#119=EDGE_LOOP('',(#29));
#120=EDGE_LOOP('',(#30));
#121=EDGE_LOOP('',(#31));
#122=EDGE_LOOP('',(#32));
#123=EDGE_LOOP('',(#33));
#124=EDGE_LOOP('',(#34));
#125=EDGE_LOOP('',(#35));
#126=EDGE_LOOP('',(#36));
#127=EDGE_LOOP('',(#37));
#128=EDGE_LOOP('',(#38));
#129=EDGE_LOOP('',(#39));
#130=EDGE_LOOP('',(#40));
#131=EDGE_LOOP('',(#41));
#132=EDGE_LOOP('',(#42));
#133=EDGE_LOOP('',(#43));
#134=EDGE_LOOP('',(#44));
#135=EDGE_LOOP('',(#45));
#136=EDGE_LOOP('',(#46));
#137=EDGE_LOOP('',(#47));
#138=EDGE_LOOP('',(#48));
#139=EDGE_LOOP('',(#49));
#140=EDGE_LOOP('',(#50));
#141=EDGE_LOOP('',(#51));
#142=EDGE_LOOP('',(#52));
#143=FACE_BOUND('',#107,.T.);
#144=FACE_BOUND('',#108,.T.);
#145=FACE_BOUND('',#109,.T.);
#146=FACE_BOUND('',#110,.T.);
#147=FACE_BOUND('',#111,.T.);
#148=FACE_BOUND('',#112,.T.);
#149=FACE_BOUND('',#113,.T.);
#150=FACE_BOUND('',#114,.T.);
#151=FACE_BOUND('',#115,.T.);
#152=FACE_BOUND('',#116,.T.);
#153=FACE_BOUND('',#117,.T.);
#154=FACE_BOUND('',#118,.T.);
#155=FACE_BOUND('',#119,.T.);
#156=FACE_BOUND('',#120,.T.);
#157=FACE_BOUND('',#121,.T.);
#158=FACE_BOUND('',#122,.T.);
#159=FACE_BOUND('',#123,.T.);
#160=FACE_BOUND('',#124,.T.);
#161=FACE_BOUND('',#125,.T.);
#162=FACE_BOUND('',#126,.T.);
#163=FACE_BOUND('',#127,.T.);
#164=FACE_BOUND('',#128,.T.);
#165=FACE_BOUND('',#129,.T.);
#166=FACE_BOUND('',#130,.T.);
#167=FACE_BOUND('',#131,.T.);
#168=FACE_BOUND('',#132,.T.);
#169=FACE_BOUND('',#133,.T.);
#170=FACE_BOUND('',#134,.T.);
#171=FACE_BOUND('',#135,.T.);
#172=FACE_BOUND('',#136,.T.);
#173=FACE_BOUND('',#137,.T.);
#174=FACE_BOUND('',#138,.T.);
#175=FACE_BOUND('',#139,.T.);
#176=FACE_BOUND('',#140,.T.);
#177=FACE_BOUND('',#141,.T.);
#178=FACE_BOUND('',#142,.T.);
#179=CYLINDRICAL_SURFACE('',#215,0.00415);
#180=CYLINDRICAL_SURFACE('',#226,0.00225);
#181=CYLINDRICAL_SURFACE('',#228,0.00225);
#182=CYLINDRICAL_SURFACE('',#230,0.0295);
#183=CYLINDRICAL_SURFACE('',#233,0.027);
#184=CYLINDRICAL_SURFACE('',#235,0.00225);
#185=CYLINDRICAL_SURFACE('',#237,0.00225);
#186=CYLINDRICAL_SURFACE('',#239,0.00715);
#187=CYLINDRICAL_SURFACE('',#242,0.0071);
#188=ADVANCED_FACE('',(#143,#144),#179,.F.);
#189=ADVANCED_FACE('',(#145,#146,#147,#148,#149,#150,#151),#12,.T.);
#190=ADVANCED_FACE('',(#152,#153),#180,.F.);
#191=ADVANCED_FACE('',(#154,#155),#181,.F.);
#192=ADVANCED_FACE('',(#156,#157),#182,.T.);
#193=ADVANCED_FACE('',(#158,#159),#183,.T.);
#194=ADVANCED_FACE('',(#160,#161),#184,.F.);
#195=ADVANCED_FACE('',(#162,#163),#185,.F.);
#196=ADVANCED_FACE('',(#164,#165),#186,.F.);
#197=ADVANCED_FACE('',(#166,#167),#13,.T.);
#198=ADVANCED_FACE('',(#168,#169),#187,.F.);
#199=ADVANCED_FACE('',(#170),#14,.T.);
#200=ADVANCED_FACE('',(#171,#172),#15,.T.);
#201=ADVANCED_FACE('',(#173,#174,#175,#176,#177,#178),#16,.F.);
#202=CLOSED_SHELL('',(#188,#189,#190,#191,#192,#193,#194,#195,#196,#197,
#198,#199,#200,#201));
#203=STYLED_ITEM('',(#204),#211);
#204=PRESENTATION_STYLE_ASSIGNMENT((#205));
#205=SURFACE_STYLE_USAGE(.BOTH.,#206);
#206=SURFACE_SIDE_STYLE('',(#207));
#207=SURFACE_STYLE_FILL_AREA(#208);
#208=FILL_AREA_STYLE('',(#209));
#209=FILL_AREA_STYLE_COLOUR('',#210);
#210=COLOUR_RGB('',0.0862745098039216,0.31764705882353,0.690196078431373);
#211=MANIFOLD_SOLID_BREP('Pod Base',#202);
#212=SHAPE_DEFINITION_REPRESENTATION(#370,#213);
#213=SHAPE_REPRESENTATION('Pod Base',(#214),#365);
#214=AXIS2_PLACEMENT_3D('',#313,#247,#248);
#215=AXIS2_PLACEMENT_3D('',#314,#249,#250);
#216=AXIS2_PLACEMENT_3D('',#315,#251,#252);
#217=AXIS2_PLACEMENT_3D('',#317,#253,#254);
#218=AXIS2_PLACEMENT_3D('',#319,#255,#256);
#219=AXIS2_PLACEMENT_3D('',#320,#257,#258);
#220=AXIS2_PLACEMENT_3D('',#322,#259,#260);
#221=AXIS2_PLACEMENT_3D('',#324,#261,#262);
#222=AXIS2_PLACEMENT_3D('',#326,#263,#264);
#223=AXIS2_PLACEMENT_3D('',#328,#265,#266);
#224=AXIS2_PLACEMENT_3D('',#330,#267,#268);
#225=AXIS2_PLACEMENT_3D('',#332,#269,#270);
#226=AXIS2_PLACEMENT_3D('',#334,#271,#272);
#227=AXIS2_PLACEMENT_3D('',#335,#273,#274);
#228=AXIS2_PLACEMENT_3D('',#337,#275,#276);
#229=AXIS2_PLACEMENT_3D('',#338,#277,#278);
#230=AXIS2_PLACEMENT_3D('',#340,#279,#280);
#231=AXIS2_PLACEMENT_3D('',#341,#281,#282);
#232=AXIS2_PLACEMENT_3D('',#343,#283,#284);
#233=AXIS2_PLACEMENT_3D('',#345,#285,#286);
#234=AXIS2_PLACEMENT_3D('',#346,#287,#288);
#235=AXIS2_PLACEMENT_3D('',#348,#289,#290);
#236=AXIS2_PLACEMENT_3D('',#349,#291,#292);
#237=AXIS2_PLACEMENT_3D('',#351,#293,#294);
#238=AXIS2_PLACEMENT_3D('',#352,#295,#296);
#239=AXIS2_PLACEMENT_3D('',#354,#297,#298);
#240=AXIS2_PLACEMENT_3D('',#355,#299,#300);
#241=AXIS2_PLACEMENT_3D('',#357,#301,#302);
#242=AXIS2_PLACEMENT_3D('',#358,#303,#304);
#243=AXIS2_PLACEMENT_3D('',#359,#305,#306);
#244=AXIS2_PLACEMENT_3D('',#361,#307,#308);
#245=AXIS2_PLACEMENT_3D('',#362,#309,#310);
#246=AXIS2_PLACEMENT_3D('',#363,#311,#312);
#247=DIRECTION('',(0.,0.,1.));
#248=DIRECTION('',(1.,0.,0.));
#249=DIRECTION('',(0.,0.,-1.));
#250=DIRECTION('',(-1.,0.,0.));
#251=DIRECTION('',(0.,0.,-1.));
#252=DIRECTION('',(-1.,0.,0.));
#253=DIRECTION('',(0.,0.,1.));
#254=DIRECTION('',(1.,0.,0.));
#255=DIRECTION('',(0.,0.,1.));
#256=DIRECTION('',(1.,0.,0.));
#257=DIRECTION('',(0.,0.,1.));
#258=DIRECTION('',(1.,0.,0.));
#259=DIRECTION('',(0.,0.,1.));
#260=DIRECTION('',(1.,0.,0.));
#261=DIRECTION('',(0.,0.,1.));
#262=DIRECTION('',(1.,0.,0.));
#263=DIRECTION('',(0.,0.,1.));
#264=DIRECTION('',(1.,0.,0.));
#265=DIRECTION('',(0.,0.,-1.));
#266=DIRECTION('',(1.,0.,0.));
#267=DIRECTION('',(0.,0.,-1.));
#268=DIRECTION('',(1.,0.,0.));
#269=DIRECTION('',(0.,0.,1.));
#270=DIRECTION('',(1.,0.,0.));
#271=DIRECTION('',(0.,0.,-1.));
#272=DIRECTION('',(-1.,0.,0.));
#273=DIRECTION('',(0.,0.,1.));
#274=DIRECTION('',(1.,0.,0.));
#275=DIRECTION('',(0.,0.,-1.));
#276=DIRECTION('',(-1.,0.,0.));
#277=DIRECTION('',(0.,0.,1.));
#278=DIRECTION('',(1.,0.,0.));
#279=DIRECTION('',(0.,0.,1.));
#280=DIRECTION('',(1.,0.,0.));
#281=DIRECTION('',(0.,0.,1.));
#282=DIRECTION('',(1.,0.,0.));
#283=DIRECTION('',(0.,0.,1.));
#284=DIRECTION('',(1.,0.,0.));
#285=DIRECTION('',(0.,0.,-1.));
#286=DIRECTION('',(-1.,0.,0.));
#287=DIRECTION('',(0.,0.,1.));
#288=DIRECTION('',(1.,0.,0.));
#289=DIRECTION('',(0.,0.,-1.));
#290=DIRECTION('',(-1.,0.,0.));
#291=DIRECTION('',(0.,0.,-1.));
#292=DIRECTION('',(1.,0.,0.));
#293=DIRECTION('',(0.,0.,-1.));
#294=DIRECTION('',(-1.,0.,0.));
#295=DIRECTION('',(0.,0.,-1.));
#296=DIRECTION('',(1.,0.,0.));
#297=DIRECTION('',(0.,0.,1.));
#298=DIRECTION('',(1.,0.,0.));
#299=DIRECTION('',(0.,0.,1.));
#300=DIRECTION('',(1.,0.,0.));
#301=DIRECTION('',(0.,0.,1.));
#302=DIRECTION('',(1.,0.,0.));
#303=DIRECTION('',(0.,0.,1.));
#304=DIRECTION('',(1.,0.,0.));
#305=DIRECTION('',(0.,0.,1.));
#306=DIRECTION('',(1.,0.,0.));
#307=DIRECTION('',(0.,0.,1.));
#308=DIRECTION('',(1.,0.,0.));
#309=DIRECTION('',(0.,0.,1.));
#310=DIRECTION('',(1.,0.,0.));
#311=DIRECTION('',(0.,0.,1.));
#312=DIRECTION('',(1.,0.,0.));
#313=CARTESIAN_POINT('',(0.,0.,0.));
#314=CARTESIAN_POINT('',(0.,-0.016,0.023));
#315=CARTESIAN_POINT('',(0.,-0.016,0.));
#316=CARTESIAN_POINT('',(-0.00415,-0.016,0.));
#317=CARTESIAN_POINT('',(0.,-0.016,0.002));
#318=CARTESIAN_POINT('',(0.00415,-0.016,0.002));
#319=CARTESIAN_POINT('',(0.,0.,0.006));
#320=CARTESIAN_POINT('',(0.,4.3474961369731E-19,0.006));
#321=CARTESIAN_POINT('',(0.0071,4.3474961369731E-19,0.006));
#322=CARTESIAN_POINT('',(0.,-0.016,0.006));
#323=CARTESIAN_POINT('',(0.00715,-0.016,0.006));
#324=CARTESIAN_POINT('',(0.,1.65327317884893E-18,0.006));
#325=CARTESIAN_POINT('',(0.027,1.65327317884893E-18,0.006));
#326=CARTESIAN_POINT('',(-0.013,-0.016,0.006));
#327=CARTESIAN_POINT('',(-0.01075,-0.016,0.006));
#328=CARTESIAN_POINT('',(0.013,0.016,0.006));
#329=CARTESIAN_POINT('',(0.01525,0.016,0.006));
#330=CARTESIAN_POINT('',(-0.013,0.016,0.006));
#331=CARTESIAN_POINT('',(-0.01075,0.016,0.006));
#332=CARTESIAN_POINT('',(0.013,-0.016,0.006));
#333=CARTESIAN_POINT('',(0.01525,-0.016,0.006));
#334=CARTESIAN_POINT('',(-0.013,-0.016,0.019));
#335=CARTESIAN_POINT('',(-0.013,-0.016,-1.7347234759768E-18));
#336=CARTESIAN_POINT('',(-0.01075,-0.016,-1.7347234759768E-18));
#337=CARTESIAN_POINT('',(0.013,-0.016,0.019));
#338=CARTESIAN_POINT('',(0.013,-0.016,-1.7347234759768E-18));
#339=CARTESIAN_POINT('',(0.01525,-0.016,-1.7347234759768E-18));
#340=CARTESIAN_POINT('',(0.,1.80635402874235E-18,-0.002));
#341=CARTESIAN_POINT('',(0.,1.80635402874235E-18,0.));
#342=CARTESIAN_POINT('',(0.0295,1.80635402874235E-18,0.));
#343=CARTESIAN_POINT('',(0.,1.80635402874235E-18,0.002));
#344=CARTESIAN_POINT('',(0.0295,1.80635402874235E-18,0.002));
#345=CARTESIAN_POINT('',(0.,1.65327317884893E-18,0.003));
#346=CARTESIAN_POINT('',(0.,1.65327317884893E-18,0.002));
#347=CARTESIAN_POINT('',(0.027,1.65327317884893E-18,0.002));
#348=CARTESIAN_POINT('',(-0.013,0.016,0.019));
#349=CARTESIAN_POINT('',(-0.013,0.016,-1.7347234759768E-18));
#350=CARTESIAN_POINT('',(-0.01075,0.016,-1.7347234759768E-18));
#351=CARTESIAN_POINT('',(0.013,0.016,0.019));
#352=CARTESIAN_POINT('',(0.013,0.016,-1.7347234759768E-18));
#353=CARTESIAN_POINT('',(0.01525,0.016,-1.7347234759768E-18));
#354=CARTESIAN_POINT('',(0.,-0.016,0.002));
#355=CARTESIAN_POINT('',(0.,-0.016,0.002));
#356=CARTESIAN_POINT('',(0.00715,-0.016,0.002));
#357=CARTESIAN_POINT('',(0.,0.,0.002));
#358=CARTESIAN_POINT('',(0.,4.3474961369731E-19,0.002));
#359=CARTESIAN_POINT('',(0.,4.3474961369731E-19,0.002));
#360=CARTESIAN_POINT('',(0.0071,4.3474961369731E-19,0.002));
#361=CARTESIAN_POINT('',(0.,0.,0.002));
#362=CARTESIAN_POINT('',(0.,0.,0.002));
#363=CARTESIAN_POINT('',(0.,0.,0.));
#364=MECHANICAL_DESIGN_GEOMETRIC_PRESENTATION_REPRESENTATION('',(#203),
#365);
#365=(
GEOMETRIC_REPRESENTATION_CONTEXT(3)
GLOBAL_UNCERTAINTY_ASSIGNED_CONTEXT((#366))
GLOBAL_UNIT_ASSIGNED_CONTEXT((#369,#368,#367))
REPRESENTATION_CONTEXT('Pod Base','TOP_LEVEL_ASSEMBLY_PART')
);
#366=UNCERTAINTY_MEASURE_WITH_UNIT(LENGTH_MEASURE(1.E-8),#369,
'DISTANCE_ACCURACY_VALUE','Maximum Tolerance applied to model');
#367=(
NAMED_UNIT(*)
SI_UNIT($,.STERADIAN.)
SOLID_ANGLE_UNIT()
);
#368=(
NAMED_UNIT(*)
PLANE_ANGLE_UNIT()
SI_UNIT($,.RADIAN.)
);
#369=(
LENGTH_UNIT()
NAMED_UNIT(*)
SI_UNIT($,.METRE.)
);
#370=PRODUCT_DEFINITION_SHAPE('','',#371);
#371=PRODUCT_DEFINITION('','',#373,#372);
#372=PRODUCT_DEFINITION_CONTEXT('',#379,'design');
#373=PRODUCT_DEFINITION_FORMATION_WITH_SPECIFIED_SOURCE('','',#375,
 .NOT_KNOWN.);
#374=PRODUCT_RELATED_PRODUCT_CATEGORY('','',(#375));
#375=PRODUCT('Pod Base','Pod Base','Pod Base',(#377));
#376=PRODUCT_CATEGORY('','');
#377=PRODUCT_CONTEXT('',#379,'mechanical');
#378=APPLICATION_PROTOCOL_DEFINITION('international standard',
'ap242_managed_model_based_3d_engineering',2020,#379);
#379=APPLICATION_CONTEXT('managed model based 3d engineering');
ENDSEC;
END-ISO-10303-21;
