ISO-10303-21;
HEADER;
/* Generated by software containing ST-Developer
 * from STEP Tools, Inc. (www.steptools.com) 
 */
/* OPTION: using custom renumber hook */

FILE_DESCRIPTION(
/* description */ ('STEP AP242 Edition 2',
'CAx-IF Rec.Pracs.---Representation and Presentation of Product Manufa
cturing Information (PMI)---4.0---2014-10-13',
'CAx-IF Rec.Pracs.---3D Tessellated Geometry---0.4---2014-09-14','2;1',
'CAx-IF Rec.Pracs.---User Defined Attributes---1.5---2016-08-15'),
/* implementation_level */ '2;1');

FILE_NAME(
/* name */ 'Assembly 1 - Normal Bracket',
/* time_stamp */ '2026-08-06T04:34:44Z',
/* author */ (''),
/* organization */ (''),
/* preprocessor_version */ 'ST-DEVELOPER v20',
/* originating_system */ 'ONSHAPE BY PTC INC, 1.218',
/* authorisation */ '  ');

FILE_SCHEMA (('AP242_MANAGED_MODEL_BASED_3D_ENGINEERING_MIM_LF { 1 0 10303 442 3 1 4 }'));
ENDSEC;

DATA;
#10=SHAPE_REPRESENTATION_RELATIONSHIP('','',#433,#11);
#11=ADVANCED_BREP_SHAPE_REPRESENTATION('',(#431),#837);
#12=TOROIDAL_SURFACE('',#474,0.004375,0.000625);
#13=TOROIDAL_SURFACE('',#475,0.004375,0.000625);
#14=TOROIDAL_SURFACE('',#477,0.004375,0.000625);
#15=TOROIDAL_SURFACE('',#481,0.004375,0.000625);
#16=(
BOUNDED_SURFACE()
B_SPLINE_SURFACE(3,2,((#726,#727,#728),(#729,#730,#731),(#732,#733,#734),
(#735,#736,#737),(#738,#739,#740),(#741,#742,#743),(#744,#745,#746),(#747,
#748,#749),(#750,#751,#752)),.UNSPECIFIED.,.F.,.F.,.F.)
B_SPLINE_SURFACE_WITH_KNOTS((4,1,1,1,1,1,4),(3,3),(4.79478874012941,5.5389870236545,
5.91108616541704,6.28318530717959,6.65528444894213,7.02738359070468,7.77158187422977),
(0.,1.),.UNSPECIFIED.)
GEOMETRIC_REPRESENTATION_ITEM()
RATIONAL_B_SPLINE_SURFACE(((1.,0.733929046157041,1.),(1.,0.813022974620668,
1.),(1.,0.908292375945663,1.),(1.,0.973636377772372,1.),(1.,0.990212237957008,
1.),(1.,0.973636377772599,1.),(1.,0.908292375944374,1.),(1.,0.81302297462644,
1.),(1.,0.733929046157041,1.)))
REPRESENTATION_ITEM('')
SURFACE()
);
#17=(
BOUNDED_SURFACE()
B_SPLINE_SURFACE(3,2,((#778,#779,#780),(#781,#782,#783),(#784,#785,#786),
(#787,#788,#789),(#790,#791,#792),(#793,#794,#795),(#796,#797,#798),(#799,
#800,#801),(#802,#803,#804)),.UNSPECIFIED.,.F.,.F.,.F.)
B_SPLINE_SURFACE_WITH_KNOTS((4,1,1,1,1,1,4),(3,3),(4.79478874012941,5.5389870236545,
5.91108616541704,6.28318530717959,6.65528444894213,7.02738359070468,7.77158187422977),
(0.,1.),.UNSPECIFIED.)
GEOMETRIC_REPRESENTATION_ITEM()
RATIONAL_B_SPLINE_SURFACE(((1.,0.733929046157041,1.),(1.,0.813022974631339,
1.),(1.,0.908292375943257,1.),(1.,0.973636377772825,1.),(1.,0.990212237956886,
1.),(1.,0.973636377772631,1.),(1.,0.908292375944355,1.),(1.,0.81302297462644,
1.),(1.,0.733929046157041,1.)))
REPRESENTATION_ITEM('')
SURFACE()
);
#18=ELLIPSE('',#459,0.012743039779885,0.004375);
#19=ELLIPSE('',#461,0.012743039779885,0.004375);
#20=ELLIPSE('',#463,0.0125422062585389,0.00375);
#21=ELLIPSE('',#468,0.0125422062585389,0.00375);
#22=B_SPLINE_CURVE_WITH_KNOTS('',3,(#642,#643,#644,#645),.UNSPECIFIED.,
 .F.,.F.,(4,4),(0.,0.00123699416023809),.UNSPECIFIED.);
#23=B_SPLINE_CURVE_WITH_KNOTS('',3,(#648,#649,#650,#651),.UNSPECIFIED.,
 .F.,.F.,(4,4),(0.,0.00123699416023793),.UNSPECIFIED.);
#24=B_SPLINE_CURVE_WITH_KNOTS('',3,(#655,#656,#657,#658),.UNSPECIFIED.,
 .F.,.F.,(4,4),(0.,0.00123699416023797),.UNSPECIFIED.);
#25=B_SPLINE_CURVE_WITH_KNOTS('',3,(#661,#662,#663,#664),.UNSPECIFIED.,
 .F.,.F.,(4,4),(0.,0.0012369941602374),.UNSPECIFIED.);
#26=B_SPLINE_CURVE_WITH_KNOTS('',3,(#682,#683,#684,#685),.UNSPECIFIED.,
 .F.,.F.,(4,4),(0.,3.9520157107704E-5),.UNSPECIFIED.);
#27=B_SPLINE_CURVE_WITH_KNOTS('',3,(#690,#691,#692,#693),.UNSPECIFIED.,
 .F.,.F.,(4,4),(0.,3.95201571077127E-5),.UNSPECIFIED.);
#28=B_SPLINE_CURVE_WITH_KNOTS('',3,(#697,#698,#699,#700),.UNSPECIFIED.,
 .F.,.F.,(4,4),(0.,3.9520157107704E-5),.UNSPECIFIED.);
#29=B_SPLINE_CURVE_WITH_KNOTS('',3,(#704,#705,#706,#707),.UNSPECIFIED.,
 .F.,.F.,(4,4),(0.,3.95201571077127E-5),.UNSPECIFIED.);
#30=B_SPLINE_CURVE_WITH_KNOTS('',3,(#753,#754,#755,#756,#757),
 .UNSPECIFIED.,.F.,.F.,(4,1,4),(0.,0.000514808422999164,0.00102961684599833),
 .UNSPECIFIED.);
#31=B_SPLINE_CURVE_WITH_KNOTS('',3,(#758,#759,#760,#761,#762),
 .UNSPECIFIED.,.F.,.F.,(4,1,4),(0.,0.000514808422999169,0.00102961684599834),
 .UNSPECIFIED.);
#32=B_SPLINE_CURVE_WITH_KNOTS('',3,(#764,#765,#766,#767,#768,#769),
 .UNSPECIFIED.,.F.,.F.,(4,1,1,4),(0.,0.000517858055479142,0.000776787083218713,
0.00103571611095828),.UNSPECIFIED.);
#33=B_SPLINE_CURVE_WITH_KNOTS('',3,(#772,#773,#774,#775,#776,#777),
 .UNSPECIFIED.,.F.,.F.,(4,1,1,4),(0.,0.000261026630257379,0.000522053260514758,
0.00104410652102952),.UNSPECIFIED.);
#34=B_SPLINE_CURVE_WITH_KNOTS('',3,(#805,#806,#807,#808,#809),
 .UNSPECIFIED.,.F.,.F.,(4,1,4),(0.,0.000514808422999169,0.00102961684599834),
 .UNSPECIFIED.);
#35=B_SPLINE_CURVE_WITH_KNOTS('',3,(#810,#811,#812,#813,#814),
 .UNSPECIFIED.,.F.,.F.,(4,1,4),(0.,0.000514808422999163,0.00102961684599833),
 .UNSPECIFIED.);
#36=B_SPLINE_CURVE_WITH_KNOTS('',3,(#818,#819,#820,#821,#822,#823),
 .UNSPECIFIED.,.F.,.F.,(4,1,1,4),(0.,0.000261026630257388,0.000522053260514776,
0.00104410652102955),.UNSPECIFIED.);
#37=B_SPLINE_CURVE_WITH_KNOTS('',3,(#824,#825,#826,#827,#828,#829),
 .UNSPECIFIED.,.F.,.F.,(4,1,1,4),(0.,0.00051785805547914,0.00077678708321871,
0.00103571611095828),.UNSPECIFIED.);
#38=CYLINDRICAL_SURFACE('',#441,0.00225);
#39=CYLINDRICAL_SURFACE('',#444,0.00225);
#40=CYLINDRICAL_SURFACE('',#447,0.005);
#41=CYLINDRICAL_SURFACE('',#450,0.005);
#42=CYLINDRICAL_SURFACE('',#454,0.00225);
#43=CYLINDRICAL_SURFACE('',#455,0.005);
#44=CYLINDRICAL_SURFACE('',#462,0.00375);
#45=CYLINDRICAL_SURFACE('',#467,0.00375);
#46=CYLINDRICAL_SURFACE('',#472,0.000625);
#47=CYLINDRICAL_SURFACE('',#478,0.000625);
#48=CYLINDRICAL_SURFACE('',#479,0.000625);
#49=CYLINDRICAL_SURFACE('',#483,0.000625);
#50=CIRCLE('',#436,0.004375);
#51=CIRCLE('',#437,0.00225);
#52=CIRCLE('',#439,0.004375);
#53=CIRCLE('',#440,0.00225);
#54=CIRCLE('',#442,0.00225);
#55=CIRCLE('',#443,0.00225);
#56=CIRCLE('',#445,0.00225);
#57=CIRCLE('',#446,0.00225);
#58=CIRCLE('',#448,0.005);
#59=CIRCLE('',#449,0.005);
#60=CIRCLE('',#451,0.005);
#61=CIRCLE('',#452,0.005);
#62=CIRCLE('',#456,0.005);
#63=CIRCLE('',#457,0.005);
#64=CIRCLE('',#464,0.00375);
#65=CIRCLE('',#465,0.00375);
#66=CIRCLE('',#469,0.00375);
#67=CIRCLE('',#470,0.00375);
#68=CIRCLE('',#473,0.000625);
#69=CIRCLE('',#476,0.000625);
#70=CIRCLE('',#480,0.000625);
#71=CIRCLE('',#482,0.000625);
#72=ORIENTED_EDGE('',*,*,#188,.T.);
#73=ORIENTED_EDGE('',*,*,#189,.F.);
#74=ORIENTED_EDGE('',*,*,#190,.F.);
#75=ORIENTED_EDGE('',*,*,#191,.F.);
#76=ORIENTED_EDGE('',*,*,#192,.F.);
#77=ORIENTED_EDGE('',*,*,#193,.F.);
#78=ORIENTED_EDGE('',*,*,#194,.T.);
#79=ORIENTED_EDGE('',*,*,#195,.F.);
#80=ORIENTED_EDGE('',*,*,#196,.F.);
#81=ORIENTED_EDGE('',*,*,#197,.T.);
#82=ORIENTED_EDGE('',*,*,#198,.T.);
#83=ORIENTED_EDGE('',*,*,#199,.F.);
#84=ORIENTED_EDGE('',*,*,#200,.F.);
#85=ORIENTED_EDGE('',*,*,#201,.T.);
#86=ORIENTED_EDGE('',*,*,#202,.T.);
#87=ORIENTED_EDGE('',*,*,#203,.F.);
#88=ORIENTED_EDGE('',*,*,#204,.T.);
#89=ORIENTED_EDGE('',*,*,#205,.F.);
#90=ORIENTED_EDGE('',*,*,#206,.F.);
#91=ORIENTED_EDGE('',*,*,#199,.T.);
#92=ORIENTED_EDGE('',*,*,#207,.F.);
#93=ORIENTED_EDGE('',*,*,#188,.F.);
#94=ORIENTED_EDGE('',*,*,#208,.F.);
#95=ORIENTED_EDGE('',*,*,#209,.F.);
#96=ORIENTED_EDGE('',*,*,#210,.F.);
#97=ORIENTED_EDGE('',*,*,#190,.T.);
#98=ORIENTED_EDGE('',*,*,#211,.F.);
#99=ORIENTED_EDGE('',*,*,#197,.F.);
#100=ORIENTED_EDGE('',*,*,#212,.F.);
#101=ORIENTED_EDGE('',*,*,#213,.F.);
#102=ORIENTED_EDGE('',*,*,#202,.F.);
#103=ORIENTED_EDGE('',*,*,#211,.T.);
#104=ORIENTED_EDGE('',*,*,#189,.T.);
#105=ORIENTED_EDGE('',*,*,#207,.T.);
#106=ORIENTED_EDGE('',*,*,#198,.F.);
#107=ORIENTED_EDGE('',*,*,#204,.F.);
#108=ORIENTED_EDGE('',*,*,#201,.F.);
#109=ORIENTED_EDGE('',*,*,#194,.F.);
#110=ORIENTED_EDGE('',*,*,#214,.T.);
#111=ORIENTED_EDGE('',*,*,#215,.F.);
#112=ORIENTED_EDGE('',*,*,#216,.F.);
#113=ORIENTED_EDGE('',*,*,#217,.F.);
#114=ORIENTED_EDGE('',*,*,#218,.F.);
#115=ORIENTED_EDGE('',*,*,#219,.F.);
#116=ORIENTED_EDGE('',*,*,#220,.F.);
#117=ORIENTED_EDGE('',*,*,#214,.F.);
#118=ORIENTED_EDGE('',*,*,#221,.F.);
#119=ORIENTED_EDGE('',*,*,#222,.F.);
#120=ORIENTED_EDGE('',*,*,#216,.T.);
#121=ORIENTED_EDGE('',*,*,#223,.F.);
#122=ORIENTED_EDGE('',*,*,#224,.F.);
#123=ORIENTED_EDGE('',*,*,#225,.F.);
#124=ORIENTED_EDGE('',*,*,#226,.F.);
#125=ORIENTED_EDGE('',*,*,#227,.F.);
#126=ORIENTED_EDGE('',*,*,#228,.F.);
#127=ORIENTED_EDGE('',*,*,#229,.F.);
#128=ORIENTED_EDGE('',*,*,#230,.T.);
#129=ORIENTED_EDGE('',*,*,#205,.T.);
#130=ORIENTED_EDGE('',*,*,#230,.F.);
#131=ORIENTED_EDGE('',*,*,#231,.F.);
#132=ORIENTED_EDGE('',*,*,#232,.F.);
#133=ORIENTED_EDGE('',*,*,#233,.T.);
#134=ORIENTED_EDGE('',*,*,#203,.T.);
#135=ORIENTED_EDGE('',*,*,#233,.F.);
#136=ORIENTED_EDGE('',*,*,#218,.T.);
#137=ORIENTED_EDGE('',*,*,#234,.T.);
#138=ORIENTED_EDGE('',*,*,#231,.T.);
#139=ORIENTED_EDGE('',*,*,#235,.T.);
#140=ORIENTED_EDGE('',*,*,#236,.T.);
#141=ORIENTED_EDGE('',*,*,#212,.T.);
#142=ORIENTED_EDGE('',*,*,#196,.T.);
#143=ORIENTED_EDGE('',*,*,#237,.T.);
#144=ORIENTED_EDGE('',*,*,#220,.T.);
#145=ORIENTED_EDGE('',*,*,#235,.F.);
#146=ORIENTED_EDGE('',*,*,#232,.T.);
#147=ORIENTED_EDGE('',*,*,#234,.F.);
#148=ORIENTED_EDGE('',*,*,#222,.T.);
#149=ORIENTED_EDGE('',*,*,#238,.T.);
#150=ORIENTED_EDGE('',*,*,#213,.T.);
#151=ORIENTED_EDGE('',*,*,#236,.F.);
#152=ORIENTED_EDGE('',*,*,#219,.T.);
#153=ORIENTED_EDGE('',*,*,#225,.T.);
#154=ORIENTED_EDGE('',*,*,#239,.T.);
#155=ORIENTED_EDGE('',*,*,#228,.T.);
#156=ORIENTED_EDGE('',*,*,#240,.T.);
#157=ORIENTED_EDGE('',*,*,#237,.F.);
#158=ORIENTED_EDGE('',*,*,#195,.T.);
#159=ORIENTED_EDGE('',*,*,#241,.T.);
#160=ORIENTED_EDGE('',*,*,#215,.T.);
#161=ORIENTED_EDGE('',*,*,#240,.F.);
#162=ORIENTED_EDGE('',*,*,#229,.T.);
#163=ORIENTED_EDGE('',*,*,#239,.F.);
#164=ORIENTED_EDGE('',*,*,#224,.T.);
#165=ORIENTED_EDGE('',*,*,#242,.F.);
#166=ORIENTED_EDGE('',*,*,#209,.T.);
#167=ORIENTED_EDGE('',*,*,#243,.T.);
#168=ORIENTED_EDGE('',*,*,#226,.T.);
#169=ORIENTED_EDGE('',*,*,#241,.F.);
#170=ORIENTED_EDGE('',*,*,#200,.T.);
#171=ORIENTED_EDGE('',*,*,#206,.T.);
#172=ORIENTED_EDGE('',*,*,#242,.T.);
#173=ORIENTED_EDGE('',*,*,#223,.T.);
#174=ORIENTED_EDGE('',*,*,#210,.T.);
#175=ORIENTED_EDGE('',*,*,#238,.F.);
#176=ORIENTED_EDGE('',*,*,#221,.T.);
#177=ORIENTED_EDGE('',*,*,#244,.T.);
#178=ORIENTED_EDGE('',*,*,#191,.T.);
#179=ORIENTED_EDGE('',*,*,#244,.F.);
#180=ORIENTED_EDGE('',*,*,#217,.T.);
#181=ORIENTED_EDGE('',*,*,#245,.T.);
#182=ORIENTED_EDGE('',*,*,#192,.T.);
#183=ORIENTED_EDGE('',*,*,#243,.F.);
#184=ORIENTED_EDGE('',*,*,#208,.T.);
#185=ORIENTED_EDGE('',*,*,#193,.T.);
#186=ORIENTED_EDGE('',*,*,#245,.F.);
#187=ORIENTED_EDGE('',*,*,#227,.T.);
#188=EDGE_CURVE('',#246,#247,#286,.T.);
#189=EDGE_CURVE('',#248,#247,#287,.T.);
#190=EDGE_CURVE('',#249,#248,#288,.T.);
#191=EDGE_CURVE('',#250,#249,#289,.F.);
#192=EDGE_CURVE('',#251,#250,#50,.F.);
#193=EDGE_CURVE('',#246,#251,#290,.T.);
#194=EDGE_CURVE('',#252,#252,#51,.T.);
#195=EDGE_CURVE('',#253,#254,#52,.T.);
#196=EDGE_CURVE('',#255,#253,#291,.T.);
#197=EDGE_CURVE('',#255,#256,#292,.T.);
#198=EDGE_CURVE('',#256,#257,#293,.T.);
#199=EDGE_CURVE('',#258,#257,#294,.T.);
#200=EDGE_CURVE('',#254,#258,#295,.F.);
#201=EDGE_CURVE('',#259,#259,#53,.T.);
#202=EDGE_CURVE('',#260,#260,#54,.T.);
#203=EDGE_CURVE('',#261,#261,#55,.T.);
#204=EDGE_CURVE('',#262,#262,#56,.T.);
#205=EDGE_CURVE('',#263,#263,#57,.T.);
#206=EDGE_CURVE('',#258,#264,#22,.F.);
#207=EDGE_CURVE('',#247,#257,#58,.T.);
#208=EDGE_CURVE('',#265,#246,#23,.T.);
#209=EDGE_CURVE('',#264,#265,#59,.F.);
#210=EDGE_CURVE('',#249,#266,#24,.F.);
#211=EDGE_CURVE('',#256,#248,#60,.T.);
#212=EDGE_CURVE('',#267,#255,#25,.T.);
#213=EDGE_CURVE('',#266,#267,#61,.T.);
#214=EDGE_CURVE('',#268,#269,#296,.T.);
#215=EDGE_CURVE('',#270,#269,#62,.F.);
#216=EDGE_CURVE('',#271,#270,#297,.T.);
#217=EDGE_CURVE('',#268,#271,#63,.T.);
#218=EDGE_CURVE('',#272,#273,#18,.F.);
#219=EDGE_CURVE('',#274,#272,#26,.T.);
#220=EDGE_CURVE('',#269,#274,#298,.F.);
#221=EDGE_CURVE('',#275,#268,#299,.T.);
#222=EDGE_CURVE('',#273,#275,#27,.T.);
#223=EDGE_CURVE('',#276,#270,#300,.T.);
#224=EDGE_CURVE('',#277,#276,#28,.T.);
#225=EDGE_CURVE('',#278,#277,#19,.T.);
#226=EDGE_CURVE('',#279,#278,#29,.T.);
#227=EDGE_CURVE('',#271,#279,#301,.F.);
#228=EDGE_CURVE('',#280,#281,#20,.T.);
#229=EDGE_CURVE('',#281,#280,#64,.T.);
#230=EDGE_CURVE('',#282,#282,#65,.T.);
#231=EDGE_CURVE('',#283,#284,#21,.F.);
#232=EDGE_CURVE('',#284,#283,#66,.F.);
#233=EDGE_CURVE('',#285,#285,#67,.T.);
#234=EDGE_CURVE('',#273,#283,#30,.T.);
#235=EDGE_CURVE('',#284,#272,#31,.F.);
#236=EDGE_CURVE('',#274,#267,#32,.T.);
#237=EDGE_CURVE('',#253,#269,#68,.T.);
#238=EDGE_CURVE('',#275,#266,#33,.F.);
#239=EDGE_CURVE('',#277,#280,#34,.T.);
#240=EDGE_CURVE('',#281,#278,#35,.F.);
#241=EDGE_CURVE('',#254,#270,#69,.T.);
#242=EDGE_CURVE('',#264,#276,#36,.T.);
#243=EDGE_CURVE('',#265,#279,#37,.F.);
#244=EDGE_CURVE('',#268,#250,#70,.T.);
#245=EDGE_CURVE('',#271,#251,#71,.T.);
#246=VERTEX_POINT('',#603);
#247=VERTEX_POINT('',#604);
#248=VERTEX_POINT('',#606);
#249=VERTEX_POINT('',#608);
#250=VERTEX_POINT('',#610);
#251=VERTEX_POINT('',#612);
#252=VERTEX_POINT('',#615);
#253=VERTEX_POINT('',#618);
#254=VERTEX_POINT('',#619);
#255=VERTEX_POINT('',#621);
#256=VERTEX_POINT('',#623);
#257=VERTEX_POINT('',#625);
#258=VERTEX_POINT('',#627);
#259=VERTEX_POINT('',#630);
#260=VERTEX_POINT('',#633);
#261=VERTEX_POINT('',#635);
#262=VERTEX_POINT('',#638);
#263=VERTEX_POINT('',#640);
#264=VERTEX_POINT('',#646);
#265=VERTEX_POINT('',#652);
#266=VERTEX_POINT('',#659);
#267=VERTEX_POINT('',#665);
#268=VERTEX_POINT('',#671);
#269=VERTEX_POINT('',#672);
#270=VERTEX_POINT('',#674);
#271=VERTEX_POINT('',#676);
#272=VERTEX_POINT('',#680);
#273=VERTEX_POINT('',#681);
#274=VERTEX_POINT('',#686);
#275=VERTEX_POINT('',#689);
#276=VERTEX_POINT('',#696);
#277=VERTEX_POINT('',#701);
#278=VERTEX_POINT('',#703);
#279=VERTEX_POINT('',#708);
#280=VERTEX_POINT('',#712);
#281=VERTEX_POINT('',#713);
#282=VERTEX_POINT('',#716);
#283=VERTEX_POINT('',#720);
#284=VERTEX_POINT('',#721);
#285=VERTEX_POINT('',#724);
#286=LINE('',#602,#302);
#287=LINE('',#605,#303);
#288=LINE('',#607,#304);
#289=LINE('',#609,#305);
#290=LINE('',#613,#306);
#291=LINE('',#620,#307);
#292=LINE('',#622,#308);
#293=LINE('',#624,#309);
#294=LINE('',#626,#310);
#295=LINE('',#628,#311);
#296=LINE('',#670,#312);
#297=LINE('',#675,#313);
#298=LINE('',#687,#314);
#299=LINE('',#688,#315);
#300=LINE('',#695,#316);
#301=LINE('',#709,#317);
#302=VECTOR('',#488,1.);
#303=VECTOR('',#489,1.);
#304=VECTOR('',#490,1.);
#305=VECTOR('',#491,1.);
#306=VECTOR('',#494,1.);
#307=VECTOR('',#501,1.);
#308=VECTOR('',#502,1.);
#309=VECTOR('',#503,1.);
#310=VECTOR('',#504,1.);
#311=VECTOR('',#505,1.);
#312=VECTOR('',#538,1.);
#313=VECTOR('',#541,1.);
#314=VECTOR('',#548,1.);
#315=VECTOR('',#549,1.);
#316=VECTOR('',#552,1.);
#317=VECTOR('',#555,1.);
#318=EDGE_LOOP('',(#72,#73,#74,#75,#76,#77));
#319=EDGE_LOOP('',(#78));
#320=EDGE_LOOP('',(#79,#80,#81,#82,#83,#84));
#321=EDGE_LOOP('',(#85));
#322=EDGE_LOOP('',(#86));
#323=EDGE_LOOP('',(#87));
#324=EDGE_LOOP('',(#88));
#325=EDGE_LOOP('',(#89));
#326=EDGE_LOOP('',(#90,#91,#92,#93,#94,#95));
#327=EDGE_LOOP('',(#96,#97,#98,#99,#100,#101));
#328=EDGE_LOOP('',(#102));
#329=EDGE_LOOP('',(#103,#104,#105,#106));
#330=EDGE_LOOP('',(#107));
#331=EDGE_LOOP('',(#108));
#332=EDGE_LOOP('',(#109));
#333=EDGE_LOOP('',(#110,#111,#112,#113));
#334=EDGE_LOOP('',(#114,#115,#116,#117,#118,#119));
#335=EDGE_LOOP('',(#120,#121,#122,#123,#124,#125));
#336=EDGE_LOOP('',(#126,#127));
#337=EDGE_LOOP('',(#128));
#338=EDGE_LOOP('',(#129));
#339=EDGE_LOOP('',(#130));
#340=EDGE_LOOP('',(#131,#132));
#341=EDGE_LOOP('',(#133));
#342=EDGE_LOOP('',(#134));
#343=EDGE_LOOP('',(#135));
#344=EDGE_LOOP('',(#136,#137,#138,#139));
#345=EDGE_LOOP('',(#140,#141,#142,#143,#144));
#346=EDGE_LOOP('',(#145,#146,#147,#148,#149,#150,#151,#152));
#347=EDGE_LOOP('',(#153,#154,#155,#156));
#348=EDGE_LOOP('',(#157,#158,#159,#160));
#349=EDGE_LOOP('',(#161,#162,#163,#164,#165,#166,#167,#168));
#350=EDGE_LOOP('',(#169,#170,#171,#172,#173));
#351=EDGE_LOOP('',(#174,#175,#176,#177,#178));
#352=EDGE_LOOP('',(#179,#180,#181,#182));
#353=EDGE_LOOP('',(#183,#184,#185,#186,#187));
#354=FACE_BOUND('',#318,.T.);
#355=FACE_BOUND('',#319,.T.);
#356=FACE_BOUND('',#320,.T.);
#357=FACE_BOUND('',#321,.T.);
#358=FACE_BOUND('',#322,.T.);
#359=FACE_BOUND('',#323,.T.);
#360=FACE_BOUND('',#324,.T.);
#361=FACE_BOUND('',#325,.T.);
#362=FACE_BOUND('',#326,.T.);
#363=FACE_BOUND('',#327,.T.);
#364=FACE_BOUND('',#328,.T.);
#365=FACE_BOUND('',#329,.T.);
#366=FACE_BOUND('',#330,.T.);
#367=FACE_BOUND('',#331,.T.);
#368=FACE_BOUND('',#332,.T.);
#369=FACE_BOUND('',#333,.T.);
#370=FACE_BOUND('',#334,.T.);
#371=FACE_BOUND('',#335,.T.);
#372=FACE_BOUND('',#336,.T.);
#373=FACE_BOUND('',#337,.T.);
#374=FACE_BOUND('',#338,.T.);
#375=FACE_BOUND('',#339,.T.);
#376=FACE_BOUND('',#340,.T.);
#377=FACE_BOUND('',#341,.T.);
#378=FACE_BOUND('',#342,.T.);
#379=FACE_BOUND('',#343,.T.);
#380=FACE_BOUND('',#344,.T.);
#381=FACE_BOUND('',#345,.T.);
#382=FACE_BOUND('',#346,.T.);
#383=FACE_BOUND('',#347,.T.);
#384=FACE_BOUND('',#348,.T.);
#385=FACE_BOUND('',#349,.T.);
#386=FACE_BOUND('',#350,.T.);
#387=FACE_BOUND('',#351,.T.);
#388=FACE_BOUND('',#352,.T.);
#389=FACE_BOUND('',#353,.T.);
#390=PLANE('',#435);
#391=PLANE('',#438);
#392=PLANE('',#453);
#393=PLANE('',#458);
#394=PLANE('',#460);
#395=PLANE('',#466);
#396=PLANE('',#471);
#397=ADVANCED_FACE('',(#354,#355),#390,.F.);
#398=ADVANCED_FACE('',(#356,#357),#391,.T.);
#399=ADVANCED_FACE('',(#358,#359),#38,.F.);
#400=ADVANCED_FACE('',(#360,#361),#39,.F.);
#401=ADVANCED_FACE('',(#362),#40,.T.);
#402=ADVANCED_FACE('',(#363),#41,.T.);
#403=ADVANCED_FACE('',(#364,#365,#366),#392,.F.);
#404=ADVANCED_FACE('',(#367,#368),#42,.F.);
#405=ADVANCED_FACE('',(#369),#43,.T.);
#406=ADVANCED_FACE('',(#370),#393,.T.);
#407=ADVANCED_FACE('',(#371),#394,.F.);
#408=ADVANCED_FACE('',(#372,#373),#44,.F.);
#409=ADVANCED_FACE('',(#374,#375),#395,.T.);
#410=ADVANCED_FACE('',(#376,#377),#45,.F.);
#411=ADVANCED_FACE('',(#378,#379),#396,.T.);
#412=ADVANCED_FACE('',(#380),#16,.T.);
#413=ADVANCED_FACE('',(#381),#46,.T.);
#414=ADVANCED_FACE('',(#382),#12,.T.);
#415=ADVANCED_FACE('',(#383),#17,.T.);
#416=ADVANCED_FACE('',(#384),#13,.T.);
#417=ADVANCED_FACE('',(#385),#14,.T.);
#418=ADVANCED_FACE('',(#386),#47,.T.);
#419=ADVANCED_FACE('',(#387),#48,.T.);
#420=ADVANCED_FACE('',(#388),#15,.T.);
#421=ADVANCED_FACE('',(#389),#49,.T.);
#422=CLOSED_SHELL('',(#397,#398,#399,#400,#401,#402,#403,#404,#405,#406,
#407,#408,#409,#410,#411,#412,#413,#414,#415,#416,#417,#418,#419,#420,#421));
#423=STYLED_ITEM('',(#424),#431);
#424=PRESENTATION_STYLE_ASSIGNMENT((#425));
#425=SURFACE_STYLE_USAGE(.BOTH.,#426);
#426=SURFACE_SIDE_STYLE('',(#427));
#427=SURFACE_STYLE_FILL_AREA(#428);
#428=FILL_AREA_STYLE('',(#429));
#429=FILL_AREA_STYLE_COLOUR('',#430);
#430=COLOUR_RGB('',0.0862745098039216,0.31764705882353,0.690196078431373);
#431=MANIFOLD_SOLID_BREP('Normal Bracket',#422);
#432=SHAPE_DEFINITION_REPRESENTATION(#842,#433);
#433=SHAPE_REPRESENTATION('Normal Bracket',(#434),#837);
#434=AXIS2_PLACEMENT_3D('',#600,#484,#485);
#435=AXIS2_PLACEMENT_3D('',#601,#486,#487);
#436=AXIS2_PLACEMENT_3D('',#611,#492,#493);
#437=AXIS2_PLACEMENT_3D('',#614,#495,#496);
#438=AXIS2_PLACEMENT_3D('',#616,#497,#498);
#439=AXIS2_PLACEMENT_3D('',#617,#499,#500);
#440=AXIS2_PLACEMENT_3D('',#629,#506,#507);
#441=AXIS2_PLACEMENT_3D('',#631,#508,#509);
#442=AXIS2_PLACEMENT_3D('',#632,#510,#511);
#443=AXIS2_PLACEMENT_3D('',#634,#512,#513);
#444=AXIS2_PLACEMENT_3D('',#636,#514,#515);
#445=AXIS2_PLACEMENT_3D('',#637,#516,#517);
#446=AXIS2_PLACEMENT_3D('',#639,#518,#519);
#447=AXIS2_PLACEMENT_3D('',#641,#520,#521);
#448=AXIS2_PLACEMENT_3D('',#647,#522,#523);
#449=AXIS2_PLACEMENT_3D('',#653,#524,#525);
#450=AXIS2_PLACEMENT_3D('',#654,#526,#527);
#451=AXIS2_PLACEMENT_3D('',#660,#528,#529);
#452=AXIS2_PLACEMENT_3D('',#666,#530,#531);
#453=AXIS2_PLACEMENT_3D('',#667,#532,#533);
#454=AXIS2_PLACEMENT_3D('',#668,#534,#535);
#455=AXIS2_PLACEMENT_3D('',#669,#536,#537);
#456=AXIS2_PLACEMENT_3D('',#673,#539,#540);
#457=AXIS2_PLACEMENT_3D('',#677,#542,#543);
#458=AXIS2_PLACEMENT_3D('',#678,#544,#545);
#459=AXIS2_PLACEMENT_3D('',#679,#546,#547);
#460=AXIS2_PLACEMENT_3D('',#694,#550,#551);
#461=AXIS2_PLACEMENT_3D('',#702,#553,#554);
#462=AXIS2_PLACEMENT_3D('',#710,#556,#557);
#463=AXIS2_PLACEMENT_3D('',#711,#558,#559);
#464=AXIS2_PLACEMENT_3D('',#714,#560,#561);
#465=AXIS2_PLACEMENT_3D('',#715,#562,#563);
#466=AXIS2_PLACEMENT_3D('',#717,#564,#565);
#467=AXIS2_PLACEMENT_3D('',#718,#566,#567);
#468=AXIS2_PLACEMENT_3D('',#719,#568,#569);
#469=AXIS2_PLACEMENT_3D('',#722,#570,#571);
#470=AXIS2_PLACEMENT_3D('',#723,#572,#573);
#471=AXIS2_PLACEMENT_3D('',#725,#574,#575);
#472=AXIS2_PLACEMENT_3D('',#763,#576,#577);
#473=AXIS2_PLACEMENT_3D('',#770,#578,#579);
#474=AXIS2_PLACEMENT_3D('',#771,#580,#581);
#475=AXIS2_PLACEMENT_3D('',#815,#582,#583);
#476=AXIS2_PLACEMENT_3D('',#816,#584,#585);
#477=AXIS2_PLACEMENT_3D('',#817,#586,#587);
#478=AXIS2_PLACEMENT_3D('',#830,#588,#589);
#479=AXIS2_PLACEMENT_3D('',#831,#590,#591);
#480=AXIS2_PLACEMENT_3D('',#832,#592,#593);
#481=AXIS2_PLACEMENT_3D('',#833,#594,#595);
#482=AXIS2_PLACEMENT_3D('',#834,#596,#597);
#483=AXIS2_PLACEMENT_3D('',#835,#598,#599);
#484=DIRECTION('',(0.,0.,1.));
#485=DIRECTION('',(1.,0.,0.));
#486=DIRECTION('',(-1.33440267382831E-16,1.,0.));
#487=DIRECTION('',(1.,1.33440267382831E-16,0.));
#488=DIRECTION('',(0.,0.,1.));
#489=DIRECTION('',(1.,1.33440267382831E-16,0.));
#490=DIRECTION('',(0.,0.,1.));
#491=DIRECTION('',(0.343324675710891,4.58133365259851E-17,-0.93921678384067));
#492=DIRECTION('',(1.33440267382831E-16,-1.,0.));
#493=DIRECTION('',(1.,1.33440267382831E-16,0.));
#494=DIRECTION('',(-0.343324675710891,-4.58133365259851E-17,-0.93921678384067));
#495=DIRECTION('',(-1.33440267382831E-16,1.,0.));
#496=DIRECTION('',(-1.,-1.33440267382831E-16,0.));
#497=DIRECTION('',(0.,1.,0.));
#498=DIRECTION('',(0.,0.,-1.));
#499=DIRECTION('',(0.,-1.,0.));
#500=DIRECTION('',(0.,0.,-1.));
#501=DIRECTION('',(0.343324675710891,0.,-0.93921678384067));
#502=DIRECTION('',(0.,0.,1.));
#503=DIRECTION('',(1.,0.,0.));
#504=DIRECTION('',(0.,0.,1.));
#505=DIRECTION('',(-0.343324675710891,0.,-0.93921678384067));
#506=DIRECTION('',(0.,-1.,0.));
#507=DIRECTION('',(0.,0.,-1.));
#508=DIRECTION('',(0.,0.,1.));
#509=DIRECTION('',(1.,0.,0.));
#510=DIRECTION('',(0.,0.,1.));
#511=DIRECTION('',(-1.,0.,0.));
#512=DIRECTION('',(0.,0.,1.));
#513=DIRECTION('',(-1.,0.,0.));
#514=DIRECTION('',(0.,0.,1.));
#515=DIRECTION('',(1.,0.,0.));
#516=DIRECTION('',(0.,0.,1.));
#517=DIRECTION('',(-1.,0.,0.));
#518=DIRECTION('',(0.,0.,1.));
#519=DIRECTION('',(-1.,0.,0.));
#520=DIRECTION('',(0.,0.,1.));
#521=DIRECTION('',(1.,0.,0.));
#522=DIRECTION('',(0.,0.,1.));
#523=DIRECTION('',(-1.,0.,0.));
#524=DIRECTION('',(0.,0.,1.));
#525=DIRECTION('',(-1.,0.,0.));
#526=DIRECTION('',(0.,0.,1.));
#527=DIRECTION('',(1.,0.,0.));
#528=DIRECTION('',(0.,0.,1.));
#529=DIRECTION('',(-1.,0.,0.));
#530=DIRECTION('',(0.,0.,-1.));
#531=DIRECTION('',(1.,0.,0.));
#532=DIRECTION('',(0.,0.,-1.));
#533=DIRECTION('',(1.,0.,0.));
#534=DIRECTION('',(1.33440267382831E-16,-1.,0.));
#535=DIRECTION('',(-1.,-1.33440267382831E-16,0.));
#536=DIRECTION('',(0.,1.,0.));
#537=DIRECTION('',(0.,0.,-1.));
#538=DIRECTION('',(0.,1.,0.));
#539=DIRECTION('',(0.,-1.,0.));
#540=DIRECTION('',(0.,0.,-1.));
#541=DIRECTION('',(0.,1.,0.));
#542=DIRECTION('',(1.33440267382831E-16,-1.,0.));
#543=DIRECTION('',(1.,1.33440267382831E-16,0.));
#544=DIRECTION('',(-0.93921678384067,0.,-0.343324675710891));
#545=DIRECTION('',(-0.343324675710891,0.,0.93921678384067));
#546=DIRECTION('',(0.93921678384067,0.,0.343324675710891));
#547=DIRECTION('',(0.343324675710891,0.,-0.93921678384067));
#548=DIRECTION('',(0.343324675710891,0.,-0.93921678384067));
#549=DIRECTION('',(0.343324675710891,4.58133365259851E-17,-0.93921678384067));
#550=DIRECTION('',(-0.93921678384067,0.,0.343324675710891));
#551=DIRECTION('',(0.343324675710891,0.,0.93921678384067));
#552=DIRECTION('',(-0.343324675710891,0.,-0.93921678384067));
#553=DIRECTION('',(0.93921678384067,0.,-0.343324675710891));
#554=DIRECTION('',(-0.343324675710891,0.,-0.93921678384067));
#555=DIRECTION('',(-0.343324675710891,-4.58133365259851E-17,-0.93921678384067));
#556=DIRECTION('',(0.,0.,-1.));
#557=DIRECTION('',(-1.,0.,0.));
#558=DIRECTION('',(-0.954256100697518,0.,0.298990458512589));
#559=DIRECTION('',(-0.298990458512589,0.,-0.954256100697518));
#560=DIRECTION('',(0.,0.,1.));
#561=DIRECTION('',(-1.,0.,0.));
#562=DIRECTION('',(0.,0.,1.));
#563=DIRECTION('',(-1.,0.,0.));
#564=DIRECTION('',(0.,0.,-1.));
#565=DIRECTION('',(1.,0.,0.));
#566=DIRECTION('',(0.,0.,-1.));
#567=DIRECTION('',(-1.,0.,0.));
#568=DIRECTION('',(-0.954256100697518,0.,-0.298990458512589));
#569=DIRECTION('',(0.298990458512589,0.,-0.954256100697518));
#570=DIRECTION('',(0.,0.,-1.));
#571=DIRECTION('',(1.,0.,0.));
#572=DIRECTION('',(0.,0.,1.));
#573=DIRECTION('',(-1.,0.,0.));
#574=DIRECTION('',(0.,0.,-1.));
#575=DIRECTION('',(1.,0.,0.));
#576=DIRECTION('',(0.343324675710891,0.,-0.93921678384067));
#577=DIRECTION('',(-0.93921678384067,0.,-0.343324675710891));
#578=DIRECTION('',(-0.343324675710892,0.,0.93921678384067));
#579=DIRECTION('',(-0.93921678384067,0.,-0.343324675710892));
#580=DIRECTION('',(0.,0.,1.));
#581=DIRECTION('',(1.,0.,0.));
#582=DIRECTION('',(0.,1.,0.));
#583=DIRECTION('',(0.,0.,-1.));
#584=DIRECTION('',(-0.343324675710889,0.,-0.939216783840671));
#585=DIRECTION('',(0.939216783840671,0.,-0.343324675710889));
#586=DIRECTION('',(0.,0.,-1.));
#587=DIRECTION('',(-1.,0.,0.));
#588=DIRECTION('',(0.343324675710891,0.,0.93921678384067));
#589=DIRECTION('',(0.93921678384067,0.,-0.343324675710891));
#590=DIRECTION('',(-0.343324675710891,-4.58133365259851E-17,0.93921678384067));
#591=DIRECTION('',(0.93921678384067,0.,0.343324675710891));
#592=DIRECTION('',(-0.343324675710893,-4.76458699870248E-16,0.939216783840669));
#593=DIRECTION('',(-0.939216783840669,0.,-0.343324675710893));
#594=DIRECTION('',(-1.33440267382831E-16,1.,0.));
#595=DIRECTION('',(1.,1.33440267382831E-16,0.));
#596=DIRECTION('',(-0.343324675710893,4.73724179280126E-15,-0.939216783840669));
#597=DIRECTION('',(0.939216783840669,0.,-0.343324675710893));
#598=DIRECTION('',(-0.343324675710891,-4.58133365259851E-17,-0.93921678384067));
#599=DIRECTION('',(-0.93921678384067,0.,0.343324675710891));
#600=CARTESIAN_POINT('',(0.,0.,0.));
#601=CARTESIAN_POINT('',(-0.0065,0.011,-0.04));
#602=CARTESIAN_POINT('',(0.013,0.011,-0.04));
#603=CARTESIAN_POINT('',(0.013,0.011,-0.00317956574573072));
#604=CARTESIAN_POINT('',(0.013,0.011,0.));
#605=CARTESIAN_POINT('',(-0.0065,0.011,0.));
#606=CARTESIAN_POINT('',(-0.013,0.011,0.));
#607=CARTESIAN_POINT('',(-0.013,0.011,-0.04));
#608=CARTESIAN_POINT('',(-0.013,0.011,-0.00317956574573071));
#609=CARTESIAN_POINT('',(-0.0124129895100996,0.011,-0.00478542207768072));
#610=CARTESIAN_POINT('',(-0.00410907342930292,0.011,-0.0275020454562351));
#611=CARTESIAN_POINT('',(3.11916625007368E-18,0.011,-0.026));
#612=CARTESIAN_POINT('',(0.00410907342930293,0.011,-0.0275020454562352));
#613=CARTESIAN_POINT('',(-0.00117148165316551,0.011,-0.0419478057301804));
#614=CARTESIAN_POINT('',(-4.33680868994202E-19,0.011,-0.026));
#615=CARTESIAN_POINT('',(-0.00225,0.011,-0.026));
#616=CARTESIAN_POINT('',(-0.0065,0.021,-0.04));
#617=CARTESIAN_POINT('',(3.03576608295941E-18,0.021,-0.026));
#618=CARTESIAN_POINT('',(-0.00410907342930292,0.021,-0.0275020454562351));
#619=CARTESIAN_POINT('',(0.00410907342930293,0.021,-0.0275020454562352));
#620=CARTESIAN_POINT('',(-0.000360852175210323,0.021,-0.0377558738596342));
#621=CARTESIAN_POINT('',(-0.013,0.021,-0.00317956574573071));
#622=CARTESIAN_POINT('',(-0.013,0.021,-0.04));
#623=CARTESIAN_POINT('',(-0.013,0.021,0.));
#624=CARTESIAN_POINT('',(-0.0065,0.021,0.));
#625=CARTESIAN_POINT('',(0.013,0.021,0.));
#626=CARTESIAN_POINT('',(0.013,0.021,-0.04));
#627=CARTESIAN_POINT('',(0.013,0.021,-0.00317956574573071));
#628=CARTESIAN_POINT('',(0.0124129895100996,0.021,-0.00478542207768074));
#629=CARTESIAN_POINT('',(-1.76808354282251E-18,0.021,-0.026));
#630=CARTESIAN_POINT('',(-1.76808354282251E-18,0.021,-0.02825));
#631=CARTESIAN_POINT('',(-0.013,0.016,-0.04));
#632=CARTESIAN_POINT('',(-0.013,0.016,0.));
#633=CARTESIAN_POINT('',(-0.01525,0.016,0.));
#634=CARTESIAN_POINT('',(-0.013,0.016,-0.004));
#635=CARTESIAN_POINT('',(-0.01525,0.016,-0.004));
#636=CARTESIAN_POINT('',(0.013,0.016,-0.04));
#637=CARTESIAN_POINT('',(0.013,0.016,0.));
#638=CARTESIAN_POINT('',(0.01075,0.016,0.));
#639=CARTESIAN_POINT('',(0.013,0.016,-0.004));
#640=CARTESIAN_POINT('',(0.01075,0.016,-0.004));
#641=CARTESIAN_POINT('',(0.013,0.016,-0.04));
#642=CARTESIAN_POINT('',(0.0126822167529627,0.0209898911619295,-0.004375));
#643=CARTESIAN_POINT('',(0.0127883305318303,0.020996649061072,-0.00397660047390443));
#644=CARTESIAN_POINT('',(0.0128941645201189,0.021,-0.00357808304128687));
#645=CARTESIAN_POINT('',(0.013,0.021,-0.0031795657457307));
#646=CARTESIAN_POINT('',(0.0126822167529627,0.0209898911619295,-0.004375));
#647=CARTESIAN_POINT('',(0.013,0.016,0.));
#648=CARTESIAN_POINT('',(0.0126822167529627,0.0110101088380705,-0.004375));
#649=CARTESIAN_POINT('',(0.0127883305318303,0.0110033509389281,-0.00397660047390448));
#650=CARTESIAN_POINT('',(0.01289416452012,0.011,-0.00357808304128727));
#651=CARTESIAN_POINT('',(0.013,0.011,-0.00317956574573085));
#652=CARTESIAN_POINT('',(0.0126822167529627,0.0110101088380705,-0.004375));
#653=CARTESIAN_POINT('',(0.013,0.016,-0.004375));
#654=CARTESIAN_POINT('',(-0.013,0.016,-0.04));
#655=CARTESIAN_POINT('',(-0.0126822167529627,0.0110101088380705,-0.004375));
#656=CARTESIAN_POINT('',(-0.0127883305318303,0.0110033509389281,-0.00397660047390447));
#657=CARTESIAN_POINT('',(-0.0128941645201242,0.011,-0.00357808304128836));
#658=CARTESIAN_POINT('',(-0.013,0.011,-0.00317956574573081));
#659=CARTESIAN_POINT('',(-0.0126822167529627,0.0110101088380705,-0.004375));
#660=CARTESIAN_POINT('',(-0.013,0.016,0.));
#661=CARTESIAN_POINT('',(-0.0126822167529627,0.0209898911619295,-0.004375));
#662=CARTESIAN_POINT('',(-0.0127883305318303,0.020996649061072,-0.00397660047390466));
#663=CARTESIAN_POINT('',(-0.0128941645201193,0.021,-0.00357808304128746));
#664=CARTESIAN_POINT('',(-0.0129999999999997,0.021,-0.00317956574573134));
#665=CARTESIAN_POINT('',(-0.0126822167529627,0.0209898911619295,-0.004375));
#666=CARTESIAN_POINT('',(-0.013,0.016,-0.004375));
#667=CARTESIAN_POINT('',(0.,-3.46944695195361E-18,0.));
#668=CARTESIAN_POINT('',(-3.76968755356499E-18,0.036,-0.026));
#669=CARTESIAN_POINT('',(3.03576608295941E-18,-0.004,-0.026));
#670=CARTESIAN_POINT('',(-0.00469608391920335,-0.004,-0.0277166233785545));
#671=CARTESIAN_POINT('',(-0.00469608391920335,0.011625,-0.0277166233785545));
#672=CARTESIAN_POINT('',(-0.00469608391920335,0.020375,-0.0277166233785545));
#673=CARTESIAN_POINT('',(3.03576608295941E-18,0.020375,-0.026));
#674=CARTESIAN_POINT('',(0.00469608391920335,0.020375,-0.0277166233785545));
#675=CARTESIAN_POINT('',(0.00469608391920335,-0.004,-0.0277166233785545));
#676=CARTESIAN_POINT('',(0.00469608391920335,0.011625,-0.0277166233785545));
#677=CARTESIAN_POINT('',(3.03576608295941E-18,0.011625,-0.026));
#678=CARTESIAN_POINT('',(-0.00884804195960167,-0.004,-0.0163583116892773));
#679=CARTESIAN_POINT('',(-0.0135870104899004,0.016,-0.00339414366805002));
#680=CARTESIAN_POINT('',(-0.0130004566757618,0.0203355022342422,-0.00499875069410793));
#681=CARTESIAN_POINT('',(-0.0130004566757618,0.0116644977657578,-0.00499875069410793));
#682=CARTESIAN_POINT('',(-0.013,0.020375,-0.005));
#683=CARTESIAN_POINT('',(-0.013,0.0203618191462829,-0.005));
#684=CARTESIAN_POINT('',(-0.0130001522664587,0.0203486532284054,-0.00499958345198087));
#685=CARTESIAN_POINT('',(-0.0130004566757618,0.0203355022342422,-0.00499875069410793));
#686=CARTESIAN_POINT('',(-0.013,0.020375,-0.005));
#687=CARTESIAN_POINT('',(-0.00884804195960167,0.020375,-0.0163583116892773));
#688=CARTESIAN_POINT('',(-0.00469608391920334,0.011625,-0.0277166233785545));
#689=CARTESIAN_POINT('',(-0.013,0.011625,-0.005));
#690=CARTESIAN_POINT('',(-0.0130004566757618,0.0116644977657578,-0.00499875069410793));
#691=CARTESIAN_POINT('',(-0.0130001522664587,0.0116513467715946,-0.00499958345198087));
#692=CARTESIAN_POINT('',(-0.013,0.0116381808537171,-0.005));
#693=CARTESIAN_POINT('',(-0.013,0.011625,-0.005));
#694=CARTESIAN_POINT('',(0.00884804195960168,-0.004,-0.0163583116892773));
#695=CARTESIAN_POINT('',(0.00469608391920335,0.020375,-0.0277166233785545));
#696=CARTESIAN_POINT('',(0.013,0.020375,-0.005));
#697=CARTESIAN_POINT('',(0.0130004566757618,0.0203355022342422,-0.00499875069410793));
#698=CARTESIAN_POINT('',(0.0130001522664587,0.0203486532284054,-0.00499958345198087));
#699=CARTESIAN_POINT('',(0.013,0.0203618191462829,-0.005));
#700=CARTESIAN_POINT('',(0.013,0.020375,-0.005));
#701=CARTESIAN_POINT('',(0.0130004566757618,0.0203355022342422,-0.00499875069410793));
#702=CARTESIAN_POINT('',(0.0135870104899004,0.016,-0.00339414366805002));
#703=CARTESIAN_POINT('',(0.0130004566757618,0.0116644977657578,-0.00499875069410793));
#704=CARTESIAN_POINT('',(0.013,0.011625,-0.005));
#705=CARTESIAN_POINT('',(0.013,0.0116381808537171,-0.005));
#706=CARTESIAN_POINT('',(0.0130001522664587,0.0116513467715946,-0.00499958345198087));
#707=CARTESIAN_POINT('',(0.0130004566757618,0.0116644977657578,-0.00499875069410793));
#708=CARTESIAN_POINT('',(0.013,0.011625,-0.005));
#709=CARTESIAN_POINT('',(0.00884804195960168,0.011625,-0.0163583116892773));
#710=CARTESIAN_POINT('',(0.013,0.016,-0.004));
#711=CARTESIAN_POINT('',(0.013,0.016,-0.00317956574573071));
#712=CARTESIAN_POINT('',(0.0126254428601039,0.019731247371718,-0.004375));
#713=CARTESIAN_POINT('',(0.0126254428601039,0.0122687526282819,-0.004375));
#714=CARTESIAN_POINT('',(0.013,0.016,-0.004375));
#715=CARTESIAN_POINT('',(0.013,0.016,-0.004));
#716=CARTESIAN_POINT('',(0.00925,0.016,-0.004));
#717=CARTESIAN_POINT('',(0.,0.016,-0.004));
#718=CARTESIAN_POINT('',(-0.013,0.016,-0.004));
#719=CARTESIAN_POINT('',(-0.013,0.016,-0.00317956574573071));
#720=CARTESIAN_POINT('',(-0.0126254428601039,0.0122687526282819,-0.004375));
#721=CARTESIAN_POINT('',(-0.0126254428601039,0.019731247371718,-0.004375));
#722=CARTESIAN_POINT('',(-0.013,0.016,-0.004375));
#723=CARTESIAN_POINT('',(-0.013,0.016,-0.004));
#724=CARTESIAN_POINT('',(-0.01675,0.016,-0.004));
#725=CARTESIAN_POINT('',(0.,0.016,-0.004));
#726=CARTESIAN_POINT('',(-0.0126913504518499,0.0122627235242189,-0.0041646497372566));
#727=CARTESIAN_POINT('',(-0.0132325477676359,0.0122180277924314,-0.00436383026953693));
#728=CARTESIAN_POINT('',(-0.013226919350392,0.0116398441115887,-0.0043792276595759));
#729=CARTESIAN_POINT('',(-0.0117642588704931,0.0123392890123582,-0.00712354950221387));
#730=CARTESIAN_POINT('',(-0.0122703299956315,0.0121754755393322,-0.00699612309645478));
#731=CARTESIAN_POINT('',(-0.012145312505473,0.0117291705144185,-0.00733812742453286));
#732=CARTESIAN_POINT('',(-0.0104264499238179,0.0129966892038157,-0.0113932922735404));
#733=CARTESIAN_POINT('',(-0.0106716669358779,0.0127203431759583,-0.011369508651443));
#734=CARTESIAN_POINT('',(-0.0105845354010219,0.0124961374044515,-0.0116078701958598));
#735=CARTESIAN_POINT('',(-0.00942531275519303,0.014605204558288,-0.0145885154774799));
#736=CARTESIAN_POINT('',(-0.00945892001456579,0.0144769450149491,-0.0146871620088349));
#737=CARTESIAN_POINT('',(-0.00941654203762549,0.0143727386513361,-0.0148030933997992));
#738=CARTESIAN_POINT('',(-0.00916234362240348,0.016,-0.0154278061374821));
#739=CARTESIAN_POINT('',(-0.00914728862236338,0.0159999999999996,-0.0155396770030516));
#740=CARTESIAN_POINT('',(-0.00910974471603789,0.016,-0.0156423840598014));
#741=CARTESIAN_POINT('',(-0.00942531275519304,0.017394795441712,-0.01458851547748));
#742=CARTESIAN_POINT('',(-0.00945892001456659,0.0175230549850521,-0.0146871620088323));
#743=CARTESIAN_POINT('',(-0.00941654203762546,0.017627261348664,-0.0148030933997993));
#744=CARTESIAN_POINT('',(-0.0104264499238178,0.0190033107961843,-0.0113932922735396));
#745=CARTESIAN_POINT('',(-0.0106716669358748,0.0192796568240382,-0.0113695086514539));
#746=CARTESIAN_POINT('',(-0.0105845354010221,0.0195038625955485,-0.0116078701958591));
#747=CARTESIAN_POINT('',(-0.0117642588704931,0.0196607109876418,-0.00712354950221793));
#748=CARTESIAN_POINT('',(-0.0122703299956352,0.0198245244606808,-0.00699612309643197));
#749=CARTESIAN_POINT('',(-0.0121453125054717,0.0202708294855815,-0.00733812742453644));
#750=CARTESIAN_POINT('',(-0.0126913504518499,0.0197372764757811,-0.00416464973725656));
#751=CARTESIAN_POINT('',(-0.0132325477676359,0.0197819722075686,-0.0043638302695369));
#752=CARTESIAN_POINT('',(-0.013226919350392,0.0203601558884113,-0.00437922765957586));
#753=CARTESIAN_POINT('',(-0.0130004566757618,0.0116644977657578,-0.00499875069410793));
#754=CARTESIAN_POINT('',(-0.0130044831484019,0.0118384481596557,-0.00498773566678585));
#755=CARTESIAN_POINT('',(-0.0129048046155427,0.0121525827647751,-0.00481189682438334));
#756=CARTESIAN_POINT('',(-0.0127197945483927,0.0122592812384251,-0.00451802370676241));
#757=CARTESIAN_POINT('',(-0.0126254428601039,0.0122687526282819,-0.004375));
#758=CARTESIAN_POINT('',(-0.0130004566757618,0.0203355022342422,-0.00499875069410793));
#759=CARTESIAN_POINT('',(-0.0130044831484019,0.0201615518403443,-0.00498773566678585));
#760=CARTESIAN_POINT('',(-0.0129048046155375,0.0198474172352243,-0.00481189682438678));
#761=CARTESIAN_POINT('',(-0.012719794548403,0.0197407187615759,-0.00451802370675553));
#762=CARTESIAN_POINT('',(-0.0126254428601039,0.019731247371718,-0.004375));
#763=CARTESIAN_POINT('',(-0.000360852175210324,0.020375,-0.0377558738596342));
#764=CARTESIAN_POINT('',(-0.013,0.020375,-0.005));
#765=CARTESIAN_POINT('',(-0.013,0.0205503548739169,-0.005));
#766=CARTESIAN_POINT('',(-0.012914491752187,0.0207951077283429,-0.00488222097103137));
#767=CARTESIAN_POINT('',(-0.0127497118418374,0.0209575140841975,-0.00462614480598735));
#768=CARTESIAN_POINT('',(-0.0126594947552012,0.0209884441022656,-0.00446030874347106));
#769=CARTESIAN_POINT('',(-0.0126822167529628,0.0209898911619295,-0.004375));
#770=CARTESIAN_POINT('',(-0.00410907342930292,0.020375,-0.0275020454562351));
#771=CARTESIAN_POINT('',(-0.013,0.016,-0.004375));
#772=CARTESIAN_POINT('',(-0.0126822167529627,0.0110101088380705,-0.004375));
#773=CARTESIAN_POINT('',(-0.0126594542387152,0.0110115584780433,-0.00446046086083943));
#774=CARTESIAN_POINT('',(-0.012749715557725,0.0110424866306521,-0.0046260418675378));
#775=CARTESIAN_POINT('',(-0.0129143767763408,0.0112047596193799,-0.00488211471723551));
#776=CARTESIAN_POINT('',(-0.013,0.0114495073124042,-0.005));
#777=CARTESIAN_POINT('',(-0.013,0.011625,-0.005));
#778=CARTESIAN_POINT('',(0.013226919350392,0.0116398441115887,-0.0043792276595759));
#779=CARTESIAN_POINT('',(0.0132325477676359,0.0122180277924314,-0.00436383026953694));
#780=CARTESIAN_POINT('',(0.0126913504518499,0.0122627235242189,-0.0041646497372566));
#781=CARTESIAN_POINT('',(0.012145312505473,0.0117291705144185,-0.00733812742453286));
#782=CARTESIAN_POINT('',(0.0122703299956318,0.0121754755393372,-0.00699612309641171));
#783=CARTESIAN_POINT('',(0.0117642588704931,0.0123392890123582,-0.00712354950221387));
#784=CARTESIAN_POINT('',(0.0105845354010219,0.0124961374044515,-0.0116078701958598));
#785=CARTESIAN_POINT('',(0.0106716669358736,0.0127203431759587,-0.0113695086514633));
#786=CARTESIAN_POINT('',(0.0104264499238179,0.0129966892038157,-0.0113932922735404));
#787=CARTESIAN_POINT('',(0.0094165420376255,0.014372738651336,-0.0148030933997992));
#788=CARTESIAN_POINT('',(0.00945892001456711,0.0144769450149482,-0.0146871620088299));
#789=CARTESIAN_POINT('',(0.00942531275519302,0.014605204558288,-0.0145885154774799));
#790=CARTESIAN_POINT('',(0.00910974471603787,0.0160000000000003,-0.0156423840598014));
#791=CARTESIAN_POINT('',(0.00914728862236299,0.0160000000000002,-0.0155396770030531));
#792=CARTESIAN_POINT('',(0.0091623436224035,0.016,-0.0154278061374821));
#793=CARTESIAN_POINT('',(0.00941654203762552,0.017627261348663,-0.0148030933997991));
#794=CARTESIAN_POINT('',(0.00945892001456668,0.0175230549850514,-0.014687162008832));
#795=CARTESIAN_POINT('',(0.00942531275519297,0.017394795441712,-0.0145885154774798));
#796=CARTESIAN_POINT('',(0.0105845354010218,0.0195038625955534,-0.0116078701958599));
#797=CARTESIAN_POINT('',(0.0106716669358748,0.019279656824041,-0.0113695086514544));
#798=CARTESIAN_POINT('',(0.0104264499238182,0.0190033107961843,-0.0113932922735405));
#799=CARTESIAN_POINT('',(0.012145312505473,0.0202708294855596,-0.00733812742453282));
#800=CARTESIAN_POINT('',(0.0122703299956352,0.0198245244606674,-0.00699612309643029));
#801=CARTESIAN_POINT('',(0.0117642588704913,0.0196607109876417,-0.00712354950221383));
#802=CARTESIAN_POINT('',(0.013226919350392,0.0203601558884113,-0.00437922765957586));
#803=CARTESIAN_POINT('',(0.0132325477676359,0.0197819722075686,-0.0043638302695369));
#804=CARTESIAN_POINT('',(0.0126913504518499,0.0197372764757811,-0.00416464973725656));
#805=CARTESIAN_POINT('',(0.0130004566757618,0.0203355022342422,-0.00499875069410793));
#806=CARTESIAN_POINT('',(0.013004483148402,0.0201615518403443,-0.00498773566678585));
#807=CARTESIAN_POINT('',(0.0129048046155396,0.0198474172352246,-0.0048118968243854));
#808=CARTESIAN_POINT('',(0.0127197945483989,0.0197407187615755,-0.00451802370675829));
#809=CARTESIAN_POINT('',(0.0126254428601039,0.019731247371718,-0.004375));
#810=CARTESIAN_POINT('',(0.0130004566757618,0.0116644977657578,-0.00499875069410793));
#811=CARTESIAN_POINT('',(0.0130044831484019,0.0118384481596557,-0.00498773566678585));
#812=CARTESIAN_POINT('',(0.0129048046155385,0.0121525827647756,-0.00481189682438608));
#813=CARTESIAN_POINT('',(0.0127197945484009,0.0122592812384243,-0.00451802370675692));
#814=CARTESIAN_POINT('',(0.0126254428601039,0.0122687526282819,-0.004375));
#815=CARTESIAN_POINT('',(3.03576608295941E-18,0.020375,-0.026));
#816=CARTESIAN_POINT('',(0.00410907342930293,0.020375,-0.0275020454562352));
#817=CARTESIAN_POINT('',(0.013,0.016,-0.004375));
#818=CARTESIAN_POINT('',(0.0126822167529627,0.0209898911619295,-0.004375));
#819=CARTESIAN_POINT('',(0.0126594542387152,0.0209884415219567,-0.00446046086083944));
#820=CARTESIAN_POINT('',(0.0127497155577251,0.0209575133693479,-0.0046260418675378));
#821=CARTESIAN_POINT('',(0.0129143767763408,0.0207952403806201,-0.00488211471723551));
#822=CARTESIAN_POINT('',(0.013,0.0205504926875958,-0.005));
#823=CARTESIAN_POINT('',(0.013,0.020375,-0.005));
#824=CARTESIAN_POINT('',(0.013,0.011625,-0.005));
#825=CARTESIAN_POINT('',(0.013,0.0114496451260831,-0.005));
#826=CARTESIAN_POINT('',(0.012914491752187,0.0112048922716571,-0.00488222097103137));
#827=CARTESIAN_POINT('',(0.0127497118418374,0.0110424859158025,-0.00462614480598736));
#828=CARTESIAN_POINT('',(0.0126594947552012,0.0110115558977344,-0.00446030874347106));
#829=CARTESIAN_POINT('',(0.0126822167529628,0.0110101088380705,-0.004375));
#830=CARTESIAN_POINT('',(0.00826103146970126,0.020375,-0.016143733766958));
#831=CARTESIAN_POINT('',(-0.00826103146970125,0.011625,-0.016143733766958));
#832=CARTESIAN_POINT('',(-0.00410907342930292,0.011625,-0.0275020454562351));
#833=CARTESIAN_POINT('',(3.03576608295941E-18,0.011625,-0.026));
#834=CARTESIAN_POINT('',(0.00410907342930293,0.011625,-0.0275020454562351));
#835=CARTESIAN_POINT('',(-0.00117148165316551,0.011625,-0.0419478057301804));
#836=MECHANICAL_DESIGN_GEOMETRIC_PRESENTATION_REPRESENTATION('',(#423),
#837);
#837=(
GEOMETRIC_REPRESENTATION_CONTEXT(3)
GLOBAL_UNCERTAINTY_ASSIGNED_CONTEXT((#838))
GLOBAL_UNIT_ASSIGNED_CONTEXT((#841,#840,#839))
REPRESENTATION_CONTEXT('Normal Bracket','TOP_LEVEL_ASSEMBLY_PART')
);
#838=UNCERTAINTY_MEASURE_WITH_UNIT(LENGTH_MEASURE(2.E-5),#841,
'DISTANCE_ACCURACY_VALUE','Maximum Tolerance applied to model');
#839=(
NAMED_UNIT(*)
SI_UNIT($,.STERADIAN.)
SOLID_ANGLE_UNIT()
);
#840=(
NAMED_UNIT(*)
PLANE_ANGLE_UNIT()
SI_UNIT($,.RADIAN.)
);
#841=(
LENGTH_UNIT()
NAMED_UNIT(*)
SI_UNIT($,.METRE.)
);
#842=PRODUCT_DEFINITION_SHAPE('','',#843);
#843=PRODUCT_DEFINITION('','',#845,#844);
#844=PRODUCT_DEFINITION_CONTEXT('',#851,'design');
#845=PRODUCT_DEFINITION_FORMATION_WITH_SPECIFIED_SOURCE('','',#847,
 .NOT_KNOWN.);
#846=PRODUCT_RELATED_PRODUCT_CATEGORY('','',(#847));
#847=PRODUCT('Normal Bracket','Normal Bracket','Normal Bracket',(#849));
#848=PRODUCT_CATEGORY('','');
#849=PRODUCT_CONTEXT('',#851,'mechanical');
#850=APPLICATION_PROTOCOL_DEFINITION('international standard',
'ap242_managed_model_based_3d_engineering',2020,#851);
#851=APPLICATION_CONTEXT('managed model based 3d engineering');
ENDSEC;
END-ISO-10303-21;
