ISO-10303-21;
HEADER;
/* Generated by software containing ST-Developer
 * from STEP Tools, Inc. (www.steptools.com) 
 */
/* OPTION: using custom renumber hook */

FILE_DESCRIPTION(
/* description */ ('STEP AP242 Edition 2',
'CAx-IF Rec.Pracs.---Representation and Presentation of Product Manufa
cturing Information (PMI)---4.0---2014-10-13',
'CAx-IF Rec.Pracs.---3D Tessellated Geometry---0.4---2014-09-14','2;1',
'CAx-IF Rec.Pracs.---User Defined Attributes---1.5---2016-08-15'),
/* implementation_level */ '2;1');

FILE_NAME(
/* name */ 'Assembly 1 - Wheel',
/* time_stamp */ '2026-08-06T04:34:45Z',
/* author */ (''),
/* organization */ (''),
/* preprocessor_version */ 'ST-DEVELOPER v20',
/* originating_system */ 'ONSHAPE BY PTC INC, 1.218',
/* authorisation */ '  ');

FILE_SCHEMA (('AP242_MANAGED_MODEL_BASED_3D_ENGINEERING_MIM_LF { 1 0 10303 442 3 1 4 }'));
ENDSEC;

DATA;
#10=SHAPE_REPRESENTATION_RELATIONSHIP('','',#1165,#11);
#11=ADVANCED_BREP_SHAPE_REPRESENTATION('',(#1163),#2021);
#12=CYLINDRICAL_SURFACE('',#1253,0.023);
#13=CYLINDRICAL_SURFACE('',#1254,0.023);
#14=CYLINDRICAL_SURFACE('',#1255,0.023);
#15=CYLINDRICAL_SURFACE('',#1256,0.023);
#16=CYLINDRICAL_SURFACE('',#1257,0.023);
#17=CYLINDRICAL_SURFACE('',#1273,0.004);
#18=CYLINDRICAL_SURFACE('',#1274,0.00199999999999997);
#19=CYLINDRICAL_SURFACE('',#1275,0.016408516124683);
#20=CYLINDRICAL_SURFACE('',#1276,0.002);
#21=CYLINDRICAL_SURFACE('',#1277,0.00400000000000012);
#22=CYLINDRICAL_SURFACE('',#1278,0.0019999999999999);
#23=CYLINDRICAL_SURFACE('',#1279,0.01);
#24=CYLINDRICAL_SURFACE('',#1280,0.00200000000000006);
#25=CYLINDRICAL_SURFACE('',#1281,0.00400000000000005);
#26=CYLINDRICAL_SURFACE('',#1282,0.00199999999999997);
#27=CYLINDRICAL_SURFACE('',#1283,0.0164085161246829);
#28=CYLINDRICAL_SURFACE('',#1284,0.002);
#29=CYLINDRICAL_SURFACE('',#1285,0.004);
#30=CYLINDRICAL_SURFACE('',#1286,0.0019999999999999);
#31=CYLINDRICAL_SURFACE('',#1287,0.01);
#32=CYLINDRICAL_SURFACE('',#1288,0.00200000000000006);
#33=CYLINDRICAL_SURFACE('',#1289,0.004);
#34=CYLINDRICAL_SURFACE('',#1290,0.00199999999999997);
#35=CYLINDRICAL_SURFACE('',#1291,0.016408516124683);
#36=CYLINDRICAL_SURFACE('',#1292,0.002);
#37=CYLINDRICAL_SURFACE('',#1293,0.00400000000000006);
#38=CYLINDRICAL_SURFACE('',#1294,0.00199999999999991);
#39=CYLINDRICAL_SURFACE('',#1295,0.01);
#40=CYLINDRICAL_SURFACE('',#1296,0.00200000000000006);
#41=CYLINDRICAL_SURFACE('',#1297,0.004);
#42=CYLINDRICAL_SURFACE('',#1298,0.00199999999999997);
#43=CYLINDRICAL_SURFACE('',#1299,0.016408516124683);
#44=CYLINDRICAL_SURFACE('',#1300,0.002);
#45=CYLINDRICAL_SURFACE('',#1301,0.00400000000000006);
#46=CYLINDRICAL_SURFACE('',#1302,0.00199999999999991);
#47=CYLINDRICAL_SURFACE('',#1303,0.01);
#48=CYLINDRICAL_SURFACE('',#1304,0.00200000000000005);
#49=CYLINDRICAL_SURFACE('',#1305,0.0071);
#50=CYLINDRICAL_SURFACE('',#1306,0.002);
#51=CYLINDRICAL_SURFACE('',#1307,0.002);
#52=CYLINDRICAL_SURFACE('',#1308,0.002);
#53=CYLINDRICAL_SURFACE('',#1309,0.002);
#54=LINE('',#1692,#136);
#55=LINE('',#1695,#137);
#56=LINE('',#1699,#138);
#57=LINE('',#1701,#139);
#58=LINE('',#1703,#140);
#59=LINE('',#1707,#141);
#60=LINE('',#1709,#142);
#61=LINE('',#1711,#143);
#62=LINE('',#1715,#144);
#63=LINE('',#1717,#145);
#64=LINE('',#1719,#146);
#65=LINE('',#1723,#147);
#66=LINE('',#1725,#148);
#67=LINE('',#1727,#149);
#68=LINE('',#1731,#150);
#69=LINE('',#1839,#151);
#70=LINE('',#1842,#152);
#71=LINE('',#1844,#153);
#72=LINE('',#1848,#154);
#73=LINE('',#1850,#155);
#74=LINE('',#1852,#156);
#75=LINE('',#1856,#157);
#76=LINE('',#1858,#158);
#77=LINE('',#1860,#159);
#78=LINE('',#1864,#160);
#79=LINE('',#1866,#161);
#80=LINE('',#1868,#162);
#81=LINE('',#1872,#163);
#82=LINE('',#1874,#164);
#83=LINE('',#1876,#165);
#84=LINE('',#1912,#166);
#85=LINE('',#1913,#167);
#86=LINE('',#1915,#168);
#87=LINE('',#1916,#169);
#88=LINE('',#1918,#170);
#89=LINE('',#1919,#171);
#90=LINE('',#1921,#172);
#91=LINE('',#1922,#173);
#92=LINE('',#1924,#174);
#93=LINE('',#1925,#175);
#94=LINE('',#1927,#176);
#95=LINE('',#1928,#177);
#96=LINE('',#1932,#178);
#97=LINE('',#1933,#179);
#98=LINE('',#1937,#180);
#99=LINE('',#1939,#181);
#100=LINE('',#1942,#182);
#101=LINE('',#1944,#183);
#102=LINE('',#1947,#184);
#103=LINE('',#1949,#185);
#104=LINE('',#1952,#186);
#105=LINE('',#1953,#187);
#106=LINE('',#1955,#188);
#107=LINE('',#1957,#189);
#108=LINE('',#1959,#190);
#109=LINE('',#1961,#191);
#110=LINE('',#1963,#192);
#111=LINE('',#1965,#193);
#112=LINE('',#1968,#194);
#113=LINE('',#1969,#195);
#114=LINE('',#1971,#196);
#115=LINE('',#1973,#197);
#116=LINE('',#1975,#198);
#117=LINE('',#1977,#199);
#118=LINE('',#1979,#200);
#119=LINE('',#1981,#201);
#120=LINE('',#1984,#202);
#121=LINE('',#1985,#203);
#122=LINE('',#1987,#204);
#123=LINE('',#1989,#205);
#124=LINE('',#1991,#206);
#125=LINE('',#1993,#207);
#126=LINE('',#1995,#208);
#127=LINE('',#1997,#209);
#128=LINE('',#2000,#210);
#129=LINE('',#2001,#211);
#130=LINE('',#2003,#212);
#131=LINE('',#2005,#213);
#132=LINE('',#2007,#214);
#133=LINE('',#2009,#215);
#134=LINE('',#2011,#216);
#135=LINE('',#2013,#217);
#136=VECTOR('',#1324,1.);
#137=VECTOR('',#1325,1.);
#138=VECTOR('',#1328,1.);
#139=VECTOR('',#1329,1.);
#140=VECTOR('',#1330,1.);
#141=VECTOR('',#1333,1.);
#142=VECTOR('',#1334,1.);
#143=VECTOR('',#1335,1.);
#144=VECTOR('',#1338,1.);
#145=VECTOR('',#1339,1.);
#146=VECTOR('',#1340,1.);
#147=VECTOR('',#1343,1.);
#148=VECTOR('',#1344,1.);
#149=VECTOR('',#1345,1.);
#150=VECTOR('',#1348,1.);
#151=VECTOR('',#1457,1.);
#152=VECTOR('',#1458,1.);
#153=VECTOR('',#1459,1.);
#154=VECTOR('',#1462,1.);
#155=VECTOR('',#1463,1.);
#156=VECTOR('',#1464,1.);
#157=VECTOR('',#1467,1.);
#158=VECTOR('',#1468,1.);
#159=VECTOR('',#1469,1.);
#160=VECTOR('',#1472,1.);
#161=VECTOR('',#1473,1.);
#162=VECTOR('',#1474,1.);
#163=VECTOR('',#1477,1.);
#164=VECTOR('',#1478,1.);
#165=VECTOR('',#1479,1.);
#166=VECTOR('',#1516,1.);
#167=VECTOR('',#1517,1.);
#168=VECTOR('',#1520,1.);
#169=VECTOR('',#1521,1.);
#170=VECTOR('',#1524,1.);
#171=VECTOR('',#1525,1.);
#172=VECTOR('',#1528,1.);
#173=VECTOR('',#1529,1.);
#174=VECTOR('',#1532,1.);
#175=VECTOR('',#1533,1.);
#176=VECTOR('',#1536,1.);
#177=VECTOR('',#1537,1.);
#178=VECTOR('',#1544,1.);
#179=VECTOR('',#1545,1.);
#180=VECTOR('',#1552,1.);
#181=VECTOR('',#1555,1.);
#182=VECTOR('',#1560,1.);
#183=VECTOR('',#1563,1.);
#184=VECTOR('',#1568,1.);
#185=VECTOR('',#1571,1.);
#186=VECTOR('',#1576,1.);
#187=VECTOR('',#1577,1.);
#188=VECTOR('',#1580,1.);
#189=VECTOR('',#1583,1.);
#190=VECTOR('',#1586,1.);
#191=VECTOR('',#1589,1.);
#192=VECTOR('',#1592,1.);
#193=VECTOR('',#1595,1.);
#194=VECTOR('',#1600,1.);
#195=VECTOR('',#1601,1.);
#196=VECTOR('',#1604,1.);
#197=VECTOR('',#1607,1.);
#198=VECTOR('',#1610,1.);
#199=VECTOR('',#1613,1.);
#200=VECTOR('',#1616,1.);
#201=VECTOR('',#1619,1.);
#202=VECTOR('',#1624,1.);
#203=VECTOR('',#1625,1.);
#204=VECTOR('',#1628,1.);
#205=VECTOR('',#1631,1.);
#206=VECTOR('',#1634,1.);
#207=VECTOR('',#1637,1.);
#208=VECTOR('',#1640,1.);
#209=VECTOR('',#1643,1.);
#210=VECTOR('',#1648,1.);
#211=VECTOR('',#1649,1.);
#212=VECTOR('',#1652,1.);
#213=VECTOR('',#1655,1.);
#214=VECTOR('',#1658,1.);
#215=VECTOR('',#1661,1.);
#216=VECTOR('',#1664,1.);
#217=VECTOR('',#1667,1.);
#218=ORIENTED_EDGE('',*,*,#550,.F.);
#219=ORIENTED_EDGE('',*,*,#551,.F.);
#220=ORIENTED_EDGE('',*,*,#552,.F.);
#221=ORIENTED_EDGE('',*,*,#553,.F.);
#222=ORIENTED_EDGE('',*,*,#554,.F.);
#223=ORIENTED_EDGE('',*,*,#555,.F.);
#224=ORIENTED_EDGE('',*,*,#556,.T.);
#225=ORIENTED_EDGE('',*,*,#557,.T.);
#226=ORIENTED_EDGE('',*,*,#558,.F.);
#227=ORIENTED_EDGE('',*,*,#559,.F.);
#228=ORIENTED_EDGE('',*,*,#560,.T.);
#229=ORIENTED_EDGE('',*,*,#561,.T.);
#230=ORIENTED_EDGE('',*,*,#562,.F.);
#231=ORIENTED_EDGE('',*,*,#563,.F.);
#232=ORIENTED_EDGE('',*,*,#564,.T.);
#233=ORIENTED_EDGE('',*,*,#565,.T.);
#234=ORIENTED_EDGE('',*,*,#566,.F.);
#235=ORIENTED_EDGE('',*,*,#567,.T.);
#236=ORIENTED_EDGE('',*,*,#568,.T.);
#237=ORIENTED_EDGE('',*,*,#569,.T.);
#238=ORIENTED_EDGE('',*,*,#570,.F.);
#239=ORIENTED_EDGE('',*,*,#571,.T.);
#240=ORIENTED_EDGE('',*,*,#572,.T.);
#241=ORIENTED_EDGE('',*,*,#573,.T.);
#242=ORIENTED_EDGE('',*,*,#574,.F.);
#243=ORIENTED_EDGE('',*,*,#575,.F.);
#244=ORIENTED_EDGE('',*,*,#576,.T.);
#245=ORIENTED_EDGE('',*,*,#577,.F.);
#246=ORIENTED_EDGE('',*,*,#578,.T.);
#247=ORIENTED_EDGE('',*,*,#579,.F.);
#248=ORIENTED_EDGE('',*,*,#580,.T.);
#249=ORIENTED_EDGE('',*,*,#581,.F.);
#250=ORIENTED_EDGE('',*,*,#582,.T.);
#251=ORIENTED_EDGE('',*,*,#583,.F.);
#252=ORIENTED_EDGE('',*,*,#584,.T.);
#253=ORIENTED_EDGE('',*,*,#585,.F.);
#254=ORIENTED_EDGE('',*,*,#586,.T.);
#255=ORIENTED_EDGE('',*,*,#587,.F.);
#256=ORIENTED_EDGE('',*,*,#588,.T.);
#257=ORIENTED_EDGE('',*,*,#589,.F.);
#258=ORIENTED_EDGE('',*,*,#590,.T.);
#259=ORIENTED_EDGE('',*,*,#591,.F.);
#260=ORIENTED_EDGE('',*,*,#592,.T.);
#261=ORIENTED_EDGE('',*,*,#593,.F.);
#262=ORIENTED_EDGE('',*,*,#594,.T.);
#263=ORIENTED_EDGE('',*,*,#595,.F.);
#264=ORIENTED_EDGE('',*,*,#596,.T.);
#265=ORIENTED_EDGE('',*,*,#597,.F.);
#266=ORIENTED_EDGE('',*,*,#598,.T.);
#267=ORIENTED_EDGE('',*,*,#599,.F.);
#268=ORIENTED_EDGE('',*,*,#600,.T.);
#269=ORIENTED_EDGE('',*,*,#601,.F.);
#270=ORIENTED_EDGE('',*,*,#602,.T.);
#271=ORIENTED_EDGE('',*,*,#603,.F.);
#272=ORIENTED_EDGE('',*,*,#604,.T.);
#273=ORIENTED_EDGE('',*,*,#605,.F.);
#274=ORIENTED_EDGE('',*,*,#606,.T.);
#275=ORIENTED_EDGE('',*,*,#607,.T.);
#276=ORIENTED_EDGE('',*,*,#608,.T.);
#277=ORIENTED_EDGE('',*,*,#609,.T.);
#278=ORIENTED_EDGE('',*,*,#610,.T.);
#279=ORIENTED_EDGE('',*,*,#611,.T.);
#280=ORIENTED_EDGE('',*,*,#612,.F.);
#281=ORIENTED_EDGE('',*,*,#613,.T.);
#282=ORIENTED_EDGE('',*,*,#614,.F.);
#283=ORIENTED_EDGE('',*,*,#615,.T.);
#284=ORIENTED_EDGE('',*,*,#616,.F.);
#285=ORIENTED_EDGE('',*,*,#617,.T.);
#286=ORIENTED_EDGE('',*,*,#618,.F.);
#287=ORIENTED_EDGE('',*,*,#619,.T.);
#288=ORIENTED_EDGE('',*,*,#620,.F.);
#289=ORIENTED_EDGE('',*,*,#621,.T.);
#290=ORIENTED_EDGE('',*,*,#622,.F.);
#291=ORIENTED_EDGE('',*,*,#623,.T.);
#292=ORIENTED_EDGE('',*,*,#624,.F.);
#293=ORIENTED_EDGE('',*,*,#625,.T.);
#294=ORIENTED_EDGE('',*,*,#626,.F.);
#295=ORIENTED_EDGE('',*,*,#627,.T.);
#296=ORIENTED_EDGE('',*,*,#628,.F.);
#297=ORIENTED_EDGE('',*,*,#629,.T.);
#298=ORIENTED_EDGE('',*,*,#630,.T.);
#299=ORIENTED_EDGE('',*,*,#631,.F.);
#300=ORIENTED_EDGE('',*,*,#632,.F.);
#301=ORIENTED_EDGE('',*,*,#633,.F.);
#302=ORIENTED_EDGE('',*,*,#634,.T.);
#303=ORIENTED_EDGE('',*,*,#635,.F.);
#304=ORIENTED_EDGE('',*,*,#636,.F.);
#305=ORIENTED_EDGE('',*,*,#637,.F.);
#306=ORIENTED_EDGE('',*,*,#638,.T.);
#307=ORIENTED_EDGE('',*,*,#639,.F.);
#308=ORIENTED_EDGE('',*,*,#640,.F.);
#309=ORIENTED_EDGE('',*,*,#641,.T.);
#310=ORIENTED_EDGE('',*,*,#642,.T.);
#311=ORIENTED_EDGE('',*,*,#643,.F.);
#312=ORIENTED_EDGE('',*,*,#644,.F.);
#313=ORIENTED_EDGE('',*,*,#645,.T.);
#314=ORIENTED_EDGE('',*,*,#646,.T.);
#315=ORIENTED_EDGE('',*,*,#647,.F.);
#316=ORIENTED_EDGE('',*,*,#648,.F.);
#317=ORIENTED_EDGE('',*,*,#649,.T.);
#318=ORIENTED_EDGE('',*,*,#650,.F.);
#319=ORIENTED_EDGE('',*,*,#651,.T.);
#320=ORIENTED_EDGE('',*,*,#652,.F.);
#321=ORIENTED_EDGE('',*,*,#653,.T.);
#322=ORIENTED_EDGE('',*,*,#654,.F.);
#323=ORIENTED_EDGE('',*,*,#655,.T.);
#324=ORIENTED_EDGE('',*,*,#656,.F.);
#325=ORIENTED_EDGE('',*,*,#657,.T.);
#326=ORIENTED_EDGE('',*,*,#658,.F.);
#327=ORIENTED_EDGE('',*,*,#659,.T.);
#328=ORIENTED_EDGE('',*,*,#660,.F.);
#329=ORIENTED_EDGE('',*,*,#661,.T.);
#330=ORIENTED_EDGE('',*,*,#662,.F.);
#331=ORIENTED_EDGE('',*,*,#663,.T.);
#332=ORIENTED_EDGE('',*,*,#664,.F.);
#333=ORIENTED_EDGE('',*,*,#647,.T.);
#334=ORIENTED_EDGE('',*,*,#665,.T.);
#335=ORIENTED_EDGE('',*,*,#557,.F.);
#336=ORIENTED_EDGE('',*,*,#666,.F.);
#337=ORIENTED_EDGE('',*,*,#643,.T.);
#338=ORIENTED_EDGE('',*,*,#667,.T.);
#339=ORIENTED_EDGE('',*,*,#561,.F.);
#340=ORIENTED_EDGE('',*,*,#668,.F.);
#341=ORIENTED_EDGE('',*,*,#639,.T.);
#342=ORIENTED_EDGE('',*,*,#669,.T.);
#343=ORIENTED_EDGE('',*,*,#565,.F.);
#344=ORIENTED_EDGE('',*,*,#670,.F.);
#345=ORIENTED_EDGE('',*,*,#635,.T.);
#346=ORIENTED_EDGE('',*,*,#671,.T.);
#347=ORIENTED_EDGE('',*,*,#569,.F.);
#348=ORIENTED_EDGE('',*,*,#631,.T.);
#349=ORIENTED_EDGE('',*,*,#672,.T.);
#350=ORIENTED_EDGE('',*,*,#573,.F.);
#351=ORIENTED_EDGE('',*,*,#673,.F.);
#352=ORIENTED_EDGE('',*,*,#633,.T.);
#353=ORIENTED_EDGE('',*,*,#674,.T.);
#354=ORIENTED_EDGE('',*,*,#571,.F.);
#355=ORIENTED_EDGE('',*,*,#675,.F.);
#356=ORIENTED_EDGE('',*,*,#675,.T.);
#357=ORIENTED_EDGE('',*,*,#570,.T.);
#358=ORIENTED_EDGE('',*,*,#671,.F.);
#359=ORIENTED_EDGE('',*,*,#634,.F.);
#360=ORIENTED_EDGE('',*,*,#632,.T.);
#361=ORIENTED_EDGE('',*,*,#673,.T.);
#362=ORIENTED_EDGE('',*,*,#572,.F.);
#363=ORIENTED_EDGE('',*,*,#674,.F.);
#364=ORIENTED_EDGE('',*,*,#637,.T.);
#365=ORIENTED_EDGE('',*,*,#676,.T.);
#366=ORIENTED_EDGE('',*,*,#567,.F.);
#367=ORIENTED_EDGE('',*,*,#677,.F.);
#368=ORIENTED_EDGE('',*,*,#677,.T.);
#369=ORIENTED_EDGE('',*,*,#566,.T.);
#370=ORIENTED_EDGE('',*,*,#669,.F.);
#371=ORIENTED_EDGE('',*,*,#638,.F.);
#372=ORIENTED_EDGE('',*,*,#636,.T.);
#373=ORIENTED_EDGE('',*,*,#670,.T.);
#374=ORIENTED_EDGE('',*,*,#568,.F.);
#375=ORIENTED_EDGE('',*,*,#676,.F.);
#376=ORIENTED_EDGE('',*,*,#640,.T.);
#377=ORIENTED_EDGE('',*,*,#668,.T.);
#378=ORIENTED_EDGE('',*,*,#564,.F.);
#379=ORIENTED_EDGE('',*,*,#678,.F.);
#380=ORIENTED_EDGE('',*,*,#678,.T.);
#381=ORIENTED_EDGE('',*,*,#563,.T.);
#382=ORIENTED_EDGE('',*,*,#679,.F.);
#383=ORIENTED_EDGE('',*,*,#641,.F.);
#384=ORIENTED_EDGE('',*,*,#679,.T.);
#385=ORIENTED_EDGE('',*,*,#562,.T.);
#386=ORIENTED_EDGE('',*,*,#667,.F.);
#387=ORIENTED_EDGE('',*,*,#642,.F.);
#388=ORIENTED_EDGE('',*,*,#644,.T.);
#389=ORIENTED_EDGE('',*,*,#666,.T.);
#390=ORIENTED_EDGE('',*,*,#560,.F.);
#391=ORIENTED_EDGE('',*,*,#680,.F.);
#392=ORIENTED_EDGE('',*,*,#680,.T.);
#393=ORIENTED_EDGE('',*,*,#559,.T.);
#394=ORIENTED_EDGE('',*,*,#681,.F.);
#395=ORIENTED_EDGE('',*,*,#645,.F.);
#396=ORIENTED_EDGE('',*,*,#681,.T.);
#397=ORIENTED_EDGE('',*,*,#558,.T.);
#398=ORIENTED_EDGE('',*,*,#665,.F.);
#399=ORIENTED_EDGE('',*,*,#646,.F.);
#400=ORIENTED_EDGE('',*,*,#628,.T.);
#401=ORIENTED_EDGE('',*,*,#664,.T.);
#402=ORIENTED_EDGE('',*,*,#556,.F.);
#403=ORIENTED_EDGE('',*,*,#682,.F.);
#404=ORIENTED_EDGE('',*,*,#682,.T.);
#405=ORIENTED_EDGE('',*,*,#555,.T.);
#406=ORIENTED_EDGE('',*,*,#683,.F.);
#407=ORIENTED_EDGE('',*,*,#629,.F.);
#408=ORIENTED_EDGE('',*,*,#683,.T.);
#409=ORIENTED_EDGE('',*,*,#574,.T.);
#410=ORIENTED_EDGE('',*,*,#672,.F.);
#411=ORIENTED_EDGE('',*,*,#630,.F.);
#412=ORIENTED_EDGE('',*,*,#620,.T.);
#413=ORIENTED_EDGE('',*,*,#684,.T.);
#414=ORIENTED_EDGE('',*,*,#576,.F.);
#415=ORIENTED_EDGE('',*,*,#685,.F.);
#416=ORIENTED_EDGE('',*,*,#685,.T.);
#417=ORIENTED_EDGE('',*,*,#575,.T.);
#418=ORIENTED_EDGE('',*,*,#686,.F.);
#419=ORIENTED_EDGE('',*,*,#621,.F.);
#420=ORIENTED_EDGE('',*,*,#622,.T.);
#421=ORIENTED_EDGE('',*,*,#686,.T.);
#422=ORIENTED_EDGE('',*,*,#582,.F.);
#423=ORIENTED_EDGE('',*,*,#687,.F.);
#424=ORIENTED_EDGE('',*,*,#687,.T.);
#425=ORIENTED_EDGE('',*,*,#581,.T.);
#426=ORIENTED_EDGE('',*,*,#688,.F.);
#427=ORIENTED_EDGE('',*,*,#623,.F.);
#428=ORIENTED_EDGE('',*,*,#624,.T.);
#429=ORIENTED_EDGE('',*,*,#688,.T.);
#430=ORIENTED_EDGE('',*,*,#580,.F.);
#431=ORIENTED_EDGE('',*,*,#689,.F.);
#432=ORIENTED_EDGE('',*,*,#689,.T.);
#433=ORIENTED_EDGE('',*,*,#579,.T.);
#434=ORIENTED_EDGE('',*,*,#690,.F.);
#435=ORIENTED_EDGE('',*,*,#625,.F.);
#436=ORIENTED_EDGE('',*,*,#626,.T.);
#437=ORIENTED_EDGE('',*,*,#690,.T.);
#438=ORIENTED_EDGE('',*,*,#578,.F.);
#439=ORIENTED_EDGE('',*,*,#691,.F.);
#440=ORIENTED_EDGE('',*,*,#691,.T.);
#441=ORIENTED_EDGE('',*,*,#577,.T.);
#442=ORIENTED_EDGE('',*,*,#684,.F.);
#443=ORIENTED_EDGE('',*,*,#627,.F.);
#444=ORIENTED_EDGE('',*,*,#648,.T.);
#445=ORIENTED_EDGE('',*,*,#692,.T.);
#446=ORIENTED_EDGE('',*,*,#584,.F.);
#447=ORIENTED_EDGE('',*,*,#693,.F.);
#448=ORIENTED_EDGE('',*,*,#693,.T.);
#449=ORIENTED_EDGE('',*,*,#583,.T.);
#450=ORIENTED_EDGE('',*,*,#694,.F.);
#451=ORIENTED_EDGE('',*,*,#649,.F.);
#452=ORIENTED_EDGE('',*,*,#650,.T.);
#453=ORIENTED_EDGE('',*,*,#694,.T.);
#454=ORIENTED_EDGE('',*,*,#590,.F.);
#455=ORIENTED_EDGE('',*,*,#695,.F.);
#456=ORIENTED_EDGE('',*,*,#695,.T.);
#457=ORIENTED_EDGE('',*,*,#589,.T.);
#458=ORIENTED_EDGE('',*,*,#696,.F.);
#459=ORIENTED_EDGE('',*,*,#651,.F.);
#460=ORIENTED_EDGE('',*,*,#652,.T.);
#461=ORIENTED_EDGE('',*,*,#696,.T.);
#462=ORIENTED_EDGE('',*,*,#588,.F.);
#463=ORIENTED_EDGE('',*,*,#697,.F.);
#464=ORIENTED_EDGE('',*,*,#697,.T.);
#465=ORIENTED_EDGE('',*,*,#587,.T.);
#466=ORIENTED_EDGE('',*,*,#698,.F.);
#467=ORIENTED_EDGE('',*,*,#653,.F.);
#468=ORIENTED_EDGE('',*,*,#654,.T.);
#469=ORIENTED_EDGE('',*,*,#698,.T.);
#470=ORIENTED_EDGE('',*,*,#586,.F.);
#471=ORIENTED_EDGE('',*,*,#699,.F.);
#472=ORIENTED_EDGE('',*,*,#699,.T.);
#473=ORIENTED_EDGE('',*,*,#585,.T.);
#474=ORIENTED_EDGE('',*,*,#692,.F.);
#475=ORIENTED_EDGE('',*,*,#655,.F.);
#476=ORIENTED_EDGE('',*,*,#612,.T.);
#477=ORIENTED_EDGE('',*,*,#700,.T.);
#478=ORIENTED_EDGE('',*,*,#592,.F.);
#479=ORIENTED_EDGE('',*,*,#701,.F.);
#480=ORIENTED_EDGE('',*,*,#701,.T.);
#481=ORIENTED_EDGE('',*,*,#591,.T.);
#482=ORIENTED_EDGE('',*,*,#702,.F.);
#483=ORIENTED_EDGE('',*,*,#613,.F.);
#484=ORIENTED_EDGE('',*,*,#614,.T.);
#485=ORIENTED_EDGE('',*,*,#702,.T.);
#486=ORIENTED_EDGE('',*,*,#598,.F.);
#487=ORIENTED_EDGE('',*,*,#703,.F.);
#488=ORIENTED_EDGE('',*,*,#703,.T.);
#489=ORIENTED_EDGE('',*,*,#597,.T.);
#490=ORIENTED_EDGE('',*,*,#704,.F.);
#491=ORIENTED_EDGE('',*,*,#615,.F.);
#492=ORIENTED_EDGE('',*,*,#616,.T.);
#493=ORIENTED_EDGE('',*,*,#704,.T.);
#494=ORIENTED_EDGE('',*,*,#596,.F.);
#495=ORIENTED_EDGE('',*,*,#705,.F.);
#496=ORIENTED_EDGE('',*,*,#705,.T.);
#497=ORIENTED_EDGE('',*,*,#595,.T.);
#498=ORIENTED_EDGE('',*,*,#706,.F.);
#499=ORIENTED_EDGE('',*,*,#617,.F.);
#500=ORIENTED_EDGE('',*,*,#618,.T.);
#501=ORIENTED_EDGE('',*,*,#706,.T.);
#502=ORIENTED_EDGE('',*,*,#594,.F.);
#503=ORIENTED_EDGE('',*,*,#707,.F.);
#504=ORIENTED_EDGE('',*,*,#707,.T.);
#505=ORIENTED_EDGE('',*,*,#593,.T.);
#506=ORIENTED_EDGE('',*,*,#700,.F.);
#507=ORIENTED_EDGE('',*,*,#619,.F.);
#508=ORIENTED_EDGE('',*,*,#656,.T.);
#509=ORIENTED_EDGE('',*,*,#708,.T.);
#510=ORIENTED_EDGE('',*,*,#600,.F.);
#511=ORIENTED_EDGE('',*,*,#709,.F.);
#512=ORIENTED_EDGE('',*,*,#709,.T.);
#513=ORIENTED_EDGE('',*,*,#599,.T.);
#514=ORIENTED_EDGE('',*,*,#710,.F.);
#515=ORIENTED_EDGE('',*,*,#657,.F.);
#516=ORIENTED_EDGE('',*,*,#658,.T.);
#517=ORIENTED_EDGE('',*,*,#710,.T.);
#518=ORIENTED_EDGE('',*,*,#606,.F.);
#519=ORIENTED_EDGE('',*,*,#711,.F.);
#520=ORIENTED_EDGE('',*,*,#711,.T.);
#521=ORIENTED_EDGE('',*,*,#605,.T.);
#522=ORIENTED_EDGE('',*,*,#712,.F.);
#523=ORIENTED_EDGE('',*,*,#659,.F.);
#524=ORIENTED_EDGE('',*,*,#660,.T.);
#525=ORIENTED_EDGE('',*,*,#712,.T.);
#526=ORIENTED_EDGE('',*,*,#604,.F.);
#527=ORIENTED_EDGE('',*,*,#713,.F.);
#528=ORIENTED_EDGE('',*,*,#713,.T.);
#529=ORIENTED_EDGE('',*,*,#603,.T.);
#530=ORIENTED_EDGE('',*,*,#714,.F.);
#531=ORIENTED_EDGE('',*,*,#661,.F.);
#532=ORIENTED_EDGE('',*,*,#662,.T.);
#533=ORIENTED_EDGE('',*,*,#714,.T.);
#534=ORIENTED_EDGE('',*,*,#602,.F.);
#535=ORIENTED_EDGE('',*,*,#715,.F.);
#536=ORIENTED_EDGE('',*,*,#715,.T.);
#537=ORIENTED_EDGE('',*,*,#601,.T.);
#538=ORIENTED_EDGE('',*,*,#708,.F.);
#539=ORIENTED_EDGE('',*,*,#663,.F.);
#540=ORIENTED_EDGE('',*,*,#554,.T.);
#541=ORIENTED_EDGE('',*,*,#611,.F.);
#542=ORIENTED_EDGE('',*,*,#553,.T.);
#543=ORIENTED_EDGE('',*,*,#610,.F.);
#544=ORIENTED_EDGE('',*,*,#552,.T.);
#545=ORIENTED_EDGE('',*,*,#609,.F.);
#546=ORIENTED_EDGE('',*,*,#551,.T.);
#547=ORIENTED_EDGE('',*,*,#608,.F.);
#548=ORIENTED_EDGE('',*,*,#550,.T.);
#549=ORIENTED_EDGE('',*,*,#607,.F.);
#550=EDGE_CURVE('',#716,#716,#830,.T.);
#551=EDGE_CURVE('',#717,#717,#831,.T.);
#552=EDGE_CURVE('',#718,#718,#832,.T.);
#553=EDGE_CURVE('',#719,#719,#833,.T.);
#554=EDGE_CURVE('',#720,#720,#834,.T.);
#555=EDGE_CURVE('',#721,#722,#54,.T.);
#556=EDGE_CURVE('',#721,#723,#55,.T.);
#557=EDGE_CURVE('',#723,#724,#835,.T.);
#558=EDGE_CURVE('',#725,#724,#56,.T.);
#559=EDGE_CURVE('',#726,#725,#57,.T.);
#560=EDGE_CURVE('',#726,#727,#58,.T.);
#561=EDGE_CURVE('',#727,#728,#836,.T.);
#562=EDGE_CURVE('',#729,#728,#59,.T.);
#563=EDGE_CURVE('',#730,#729,#60,.T.);
#564=EDGE_CURVE('',#730,#731,#61,.T.);
#565=EDGE_CURVE('',#731,#732,#837,.T.);
#566=EDGE_CURVE('',#733,#732,#62,.T.);
#567=EDGE_CURVE('',#733,#734,#63,.T.);
#568=EDGE_CURVE('',#734,#735,#64,.T.);
#569=EDGE_CURVE('',#735,#736,#838,.T.);
#570=EDGE_CURVE('',#737,#736,#65,.T.);
#571=EDGE_CURVE('',#737,#738,#66,.T.);
#572=EDGE_CURVE('',#738,#739,#67,.T.);
#573=EDGE_CURVE('',#739,#740,#839,.T.);
#574=EDGE_CURVE('',#722,#740,#68,.T.);
#575=EDGE_CURVE('',#741,#742,#840,.T.);
#576=EDGE_CURVE('',#741,#743,#841,.T.);
#577=EDGE_CURVE('',#744,#743,#842,.T.);
#578=EDGE_CURVE('',#744,#745,#843,.T.);
#579=EDGE_CURVE('',#746,#745,#844,.T.);
#580=EDGE_CURVE('',#746,#747,#845,.T.);
#581=EDGE_CURVE('',#748,#747,#846,.T.);
#582=EDGE_CURVE('',#748,#742,#847,.T.);
#583=EDGE_CURVE('',#749,#750,#848,.T.);
#584=EDGE_CURVE('',#749,#751,#849,.T.);
#585=EDGE_CURVE('',#752,#751,#850,.T.);
#586=EDGE_CURVE('',#752,#753,#851,.T.);
#587=EDGE_CURVE('',#754,#753,#852,.T.);
#588=EDGE_CURVE('',#754,#755,#853,.T.);
#589=EDGE_CURVE('',#756,#755,#854,.T.);
#590=EDGE_CURVE('',#756,#750,#855,.T.);
#591=EDGE_CURVE('',#757,#758,#856,.T.);
#592=EDGE_CURVE('',#757,#759,#857,.T.);
#593=EDGE_CURVE('',#760,#759,#858,.T.);
#594=EDGE_CURVE('',#760,#761,#859,.T.);
#595=EDGE_CURVE('',#762,#761,#860,.T.);
#596=EDGE_CURVE('',#762,#763,#861,.T.);
#597=EDGE_CURVE('',#764,#763,#862,.T.);
#598=EDGE_CURVE('',#764,#758,#863,.T.);
#599=EDGE_CURVE('',#765,#766,#864,.T.);
#600=EDGE_CURVE('',#765,#767,#865,.T.);
#601=EDGE_CURVE('',#768,#767,#866,.T.);
#602=EDGE_CURVE('',#768,#769,#867,.T.);
#603=EDGE_CURVE('',#770,#769,#868,.T.);
#604=EDGE_CURVE('',#770,#771,#869,.T.);
#605=EDGE_CURVE('',#772,#771,#870,.T.);
#606=EDGE_CURVE('',#772,#766,#871,.T.);
#607=EDGE_CURVE('',#773,#773,#872,.T.);
#608=EDGE_CURVE('',#774,#774,#873,.T.);
#609=EDGE_CURVE('',#775,#775,#874,.T.);
#610=EDGE_CURVE('',#776,#776,#875,.T.);
#611=EDGE_CURVE('',#777,#777,#876,.T.);
#612=EDGE_CURVE('',#778,#779,#877,.T.);
#613=EDGE_CURVE('',#778,#780,#878,.T.);
#614=EDGE_CURVE('',#781,#780,#879,.F.);
#615=EDGE_CURVE('',#781,#782,#880,.T.);
#616=EDGE_CURVE('',#783,#782,#881,.T.);
#617=EDGE_CURVE('',#783,#784,#882,.T.);
#618=EDGE_CURVE('',#785,#784,#883,.T.);
#619=EDGE_CURVE('',#785,#779,#884,.T.);
#620=EDGE_CURVE('',#786,#787,#885,.T.);
#621=EDGE_CURVE('',#786,#788,#886,.T.);
#622=EDGE_CURVE('',#789,#788,#887,.F.);
#623=EDGE_CURVE('',#789,#790,#888,.T.);
#624=EDGE_CURVE('',#791,#790,#889,.T.);
#625=EDGE_CURVE('',#791,#792,#890,.T.);
#626=EDGE_CURVE('',#793,#792,#891,.T.);
#627=EDGE_CURVE('',#793,#787,#892,.T.);
#628=EDGE_CURVE('',#794,#795,#69,.T.);
#629=EDGE_CURVE('',#794,#796,#70,.T.);
#630=EDGE_CURVE('',#796,#797,#71,.T.);
#631=EDGE_CURVE('',#798,#797,#893,.T.);
#632=EDGE_CURVE('',#799,#798,#72,.T.);
#633=EDGE_CURVE('',#800,#799,#73,.T.);
#634=EDGE_CURVE('',#800,#801,#74,.T.);
#635=EDGE_CURVE('',#802,#801,#894,.T.);
#636=EDGE_CURVE('',#803,#802,#75,.T.);
#637=EDGE_CURVE('',#804,#803,#76,.T.);
#638=EDGE_CURVE('',#804,#805,#77,.T.);
#639=EDGE_CURVE('',#806,#805,#895,.T.);
#640=EDGE_CURVE('',#807,#806,#78,.T.);
#641=EDGE_CURVE('',#807,#808,#79,.T.);
#642=EDGE_CURVE('',#808,#809,#80,.T.);
#643=EDGE_CURVE('',#810,#809,#896,.T.);
#644=EDGE_CURVE('',#811,#810,#81,.T.);
#645=EDGE_CURVE('',#811,#812,#82,.T.);
#646=EDGE_CURVE('',#812,#813,#83,.T.);
#647=EDGE_CURVE('',#795,#813,#897,.T.);
#648=EDGE_CURVE('',#814,#815,#898,.T.);
#649=EDGE_CURVE('',#814,#816,#899,.T.);
#650=EDGE_CURVE('',#817,#816,#900,.F.);
#651=EDGE_CURVE('',#817,#818,#901,.T.);
#652=EDGE_CURVE('',#819,#818,#902,.T.);
#653=EDGE_CURVE('',#819,#820,#903,.T.);
#654=EDGE_CURVE('',#821,#820,#904,.T.);
#655=EDGE_CURVE('',#821,#815,#905,.T.);
#656=EDGE_CURVE('',#822,#823,#906,.T.);
#657=EDGE_CURVE('',#822,#824,#907,.T.);
#658=EDGE_CURVE('',#825,#824,#908,.F.);
#659=EDGE_CURVE('',#825,#826,#909,.T.);
#660=EDGE_CURVE('',#827,#826,#910,.T.);
#661=EDGE_CURVE('',#827,#828,#911,.T.);
#662=EDGE_CURVE('',#829,#828,#912,.T.);
#663=EDGE_CURVE('',#829,#823,#913,.T.);
#664=EDGE_CURVE('',#795,#723,#84,.T.);
#665=EDGE_CURVE('',#813,#724,#85,.T.);
#666=EDGE_CURVE('',#810,#727,#86,.T.);
#667=EDGE_CURVE('',#809,#728,#87,.T.);
#668=EDGE_CURVE('',#806,#731,#88,.T.);
#669=EDGE_CURVE('',#805,#732,#89,.T.);
#670=EDGE_CURVE('',#802,#735,#90,.T.);
#671=EDGE_CURVE('',#801,#736,#91,.T.);
#672=EDGE_CURVE('',#797,#740,#92,.T.);
#673=EDGE_CURVE('',#798,#739,#93,.T.);
#674=EDGE_CURVE('',#799,#738,#94,.T.);
#675=EDGE_CURVE('',#800,#737,#95,.T.);
#676=EDGE_CURVE('',#803,#734,#96,.T.);
#677=EDGE_CURVE('',#804,#733,#97,.T.);
#678=EDGE_CURVE('',#807,#730,#98,.T.);
#679=EDGE_CURVE('',#808,#729,#99,.T.);
#680=EDGE_CURVE('',#811,#726,#100,.T.);
#681=EDGE_CURVE('',#812,#725,#101,.T.);
#682=EDGE_CURVE('',#794,#721,#102,.T.);
#683=EDGE_CURVE('',#796,#722,#103,.T.);
#684=EDGE_CURVE('',#787,#743,#104,.T.);
#685=EDGE_CURVE('',#786,#741,#105,.T.);
#686=EDGE_CURVE('',#788,#742,#106,.T.);
#687=EDGE_CURVE('',#789,#748,#107,.T.);
#688=EDGE_CURVE('',#790,#747,#108,.T.);
#689=EDGE_CURVE('',#791,#746,#109,.T.);
#690=EDGE_CURVE('',#792,#745,#110,.T.);
#691=EDGE_CURVE('',#793,#744,#111,.T.);
#692=EDGE_CURVE('',#815,#751,#112,.T.);
#693=EDGE_CURVE('',#814,#749,#113,.T.);
#694=EDGE_CURVE('',#816,#750,#114,.T.);
#695=EDGE_CURVE('',#817,#756,#115,.T.);
#696=EDGE_CURVE('',#818,#755,#116,.T.);
#697=EDGE_CURVE('',#819,#754,#117,.T.);
#698=EDGE_CURVE('',#820,#753,#118,.T.);
#699=EDGE_CURVE('',#821,#752,#119,.T.);
#700=EDGE_CURVE('',#779,#759,#120,.T.);
#701=EDGE_CURVE('',#778,#757,#121,.T.);
#702=EDGE_CURVE('',#780,#758,#122,.T.);
#703=EDGE_CURVE('',#781,#764,#123,.T.);
#704=EDGE_CURVE('',#782,#763,#124,.T.);
#705=EDGE_CURVE('',#783,#762,#125,.T.);
#706=EDGE_CURVE('',#784,#761,#126,.T.);
#707=EDGE_CURVE('',#785,#760,#127,.T.);
#708=EDGE_CURVE('',#823,#767,#128,.T.);
#709=EDGE_CURVE('',#822,#765,#129,.T.);
#710=EDGE_CURVE('',#824,#766,#130,.T.);
#711=EDGE_CURVE('',#825,#772,#131,.T.);
#712=EDGE_CURVE('',#826,#771,#132,.T.);
#713=EDGE_CURVE('',#827,#770,#133,.T.);
#714=EDGE_CURVE('',#828,#769,#134,.T.);
#715=EDGE_CURVE('',#829,#768,#135,.T.);
#716=VERTEX_POINT('',#1683);
#717=VERTEX_POINT('',#1685);
#718=VERTEX_POINT('',#1687);
#719=VERTEX_POINT('',#1689);
#720=VERTEX_POINT('',#1691);
#721=VERTEX_POINT('',#1693);
#722=VERTEX_POINT('',#1694);
#723=VERTEX_POINT('',#1696);
#724=VERTEX_POINT('',#1698);
#725=VERTEX_POINT('',#1700);
#726=VERTEX_POINT('',#1702);
#727=VERTEX_POINT('',#1704);
#728=VERTEX_POINT('',#1706);
#729=VERTEX_POINT('',#1708);
#730=VERTEX_POINT('',#1710);
#731=VERTEX_POINT('',#1712);
#732=VERTEX_POINT('',#1714);
#733=VERTEX_POINT('',#1716);
#734=VERTEX_POINT('',#1718);
#735=VERTEX_POINT('',#1720);
#736=VERTEX_POINT('',#1722);
#737=VERTEX_POINT('',#1724);
#738=VERTEX_POINT('',#1726);
#739=VERTEX_POINT('',#1728);
#740=VERTEX_POINT('',#1730);
#741=VERTEX_POINT('',#1733);
#742=VERTEX_POINT('',#1734);
#743=VERTEX_POINT('',#1736);
#744=VERTEX_POINT('',#1738);
#745=VERTEX_POINT('',#1740);
#746=VERTEX_POINT('',#1742);
#747=VERTEX_POINT('',#1744);
#748=VERTEX_POINT('',#1746);
#749=VERTEX_POINT('',#1749);
#750=VERTEX_POINT('',#1750);
#751=VERTEX_POINT('',#1752);
#752=VERTEX_POINT('',#1754);
#753=VERTEX_POINT('',#1756);
#754=VERTEX_POINT('',#1758);
#755=VERTEX_POINT('',#1760);
#756=VERTEX_POINT('',#1762);
#757=VERTEX_POINT('',#1765);
#758=VERTEX_POINT('',#1766);
#759=VERTEX_POINT('',#1768);
#760=VERTEX_POINT('',#1770);
#761=VERTEX_POINT('',#1772);
#762=VERTEX_POINT('',#1774);
#763=VERTEX_POINT('',#1776);
#764=VERTEX_POINT('',#1778);
#765=VERTEX_POINT('',#1781);
#766=VERTEX_POINT('',#1782);
#767=VERTEX_POINT('',#1784);
#768=VERTEX_POINT('',#1786);
#769=VERTEX_POINT('',#1788);
#770=VERTEX_POINT('',#1790);
#771=VERTEX_POINT('',#1792);
#772=VERTEX_POINT('',#1794);
#773=VERTEX_POINT('',#1798);
#774=VERTEX_POINT('',#1800);
#775=VERTEX_POINT('',#1802);
#776=VERTEX_POINT('',#1804);
#777=VERTEX_POINT('',#1806);
#778=VERTEX_POINT('',#1808);
#779=VERTEX_POINT('',#1809);
#780=VERTEX_POINT('',#1811);
#781=VERTEX_POINT('',#1813);
#782=VERTEX_POINT('',#1815);
#783=VERTEX_POINT('',#1817);
#784=VERTEX_POINT('',#1819);
#785=VERTEX_POINT('',#1821);
#786=VERTEX_POINT('',#1824);
#787=VERTEX_POINT('',#1825);
#788=VERTEX_POINT('',#1827);
#789=VERTEX_POINT('',#1829);
#790=VERTEX_POINT('',#1831);
#791=VERTEX_POINT('',#1833);
#792=VERTEX_POINT('',#1835);
#793=VERTEX_POINT('',#1837);
#794=VERTEX_POINT('',#1840);
#795=VERTEX_POINT('',#1841);
#796=VERTEX_POINT('',#1843);
#797=VERTEX_POINT('',#1845);
#798=VERTEX_POINT('',#1847);
#799=VERTEX_POINT('',#1849);
#800=VERTEX_POINT('',#1851);
#801=VERTEX_POINT('',#1853);
#802=VERTEX_POINT('',#1855);
#803=VERTEX_POINT('',#1857);
#804=VERTEX_POINT('',#1859);
#805=VERTEX_POINT('',#1861);
#806=VERTEX_POINT('',#1863);
#807=VERTEX_POINT('',#1865);
#808=VERTEX_POINT('',#1867);
#809=VERTEX_POINT('',#1869);
#810=VERTEX_POINT('',#1871);
#811=VERTEX_POINT('',#1873);
#812=VERTEX_POINT('',#1875);
#813=VERTEX_POINT('',#1877);
#814=VERTEX_POINT('',#1880);
#815=VERTEX_POINT('',#1881);
#816=VERTEX_POINT('',#1883);
#817=VERTEX_POINT('',#1885);
#818=VERTEX_POINT('',#1887);
#819=VERTEX_POINT('',#1889);
#820=VERTEX_POINT('',#1891);
#821=VERTEX_POINT('',#1893);
#822=VERTEX_POINT('',#1896);
#823=VERTEX_POINT('',#1897);
#824=VERTEX_POINT('',#1899);
#825=VERTEX_POINT('',#1901);
#826=VERTEX_POINT('',#1903);
#827=VERTEX_POINT('',#1905);
#828=VERTEX_POINT('',#1907);
#829=VERTEX_POINT('',#1909);
#830=CIRCLE('',#1168,0.002);
#831=CIRCLE('',#1169,0.002);
#832=CIRCLE('',#1170,0.002);
#833=CIRCLE('',#1171,0.002);
#834=CIRCLE('',#1172,0.0071);
#835=CIRCLE('',#1173,0.023);
#836=CIRCLE('',#1174,0.023);
#837=CIRCLE('',#1175,0.023);
#838=CIRCLE('',#1176,0.023);
#839=CIRCLE('',#1177,0.023);
#840=CIRCLE('',#1178,0.00199999999999997);
#841=CIRCLE('',#1179,0.004);
#842=CIRCLE('',#1180,0.00200000000000006);
#843=CIRCLE('',#1181,0.01);
#844=CIRCLE('',#1182,0.0019999999999999);
#845=CIRCLE('',#1183,0.00400000000000012);
#846=CIRCLE('',#1184,0.002);
#847=CIRCLE('',#1185,0.016408516124683);
#848=CIRCLE('',#1186,0.00199999999999997);
#849=CIRCLE('',#1187,0.00400000000000005);
#850=CIRCLE('',#1188,0.00200000000000006);
#851=CIRCLE('',#1189,0.01);
#852=CIRCLE('',#1190,0.0019999999999999);
#853=CIRCLE('',#1191,0.004);
#854=CIRCLE('',#1192,0.002);
#855=CIRCLE('',#1193,0.0164085161246829);
#856=CIRCLE('',#1194,0.00199999999999997);
#857=CIRCLE('',#1195,0.004);
#858=CIRCLE('',#1196,0.00200000000000006);
#859=CIRCLE('',#1197,0.01);
#860=CIRCLE('',#1198,0.00199999999999991);
#861=CIRCLE('',#1199,0.00400000000000006);
#862=CIRCLE('',#1200,0.002);
#863=CIRCLE('',#1201,0.016408516124683);
#864=CIRCLE('',#1202,0.00199999999999997);
#865=CIRCLE('',#1203,0.004);
#866=CIRCLE('',#1204,0.00200000000000005);
#867=CIRCLE('',#1205,0.01);
#868=CIRCLE('',#1206,0.00199999999999991);
#869=CIRCLE('',#1207,0.00400000000000006);
#870=CIRCLE('',#1208,0.002);
#871=CIRCLE('',#1209,0.016408516124683);
#872=CIRCLE('',#1211,0.002);
#873=CIRCLE('',#1212,0.002);
#874=CIRCLE('',#1213,0.002);
#875=CIRCLE('',#1214,0.002);
#876=CIRCLE('',#1215,0.0071);
#877=CIRCLE('',#1216,0.004);
#878=CIRCLE('',#1217,0.00199999999999997);
#879=CIRCLE('',#1218,0.016408516124683);
#880=CIRCLE('',#1219,0.002);
#881=CIRCLE('',#1220,0.00400000000000006);
#882=CIRCLE('',#1221,0.00199999999999991);
#883=CIRCLE('',#1222,0.01);
#884=CIRCLE('',#1223,0.00200000000000006);
#885=CIRCLE('',#1224,0.004);
#886=CIRCLE('',#1225,0.00199999999999997);
#887=CIRCLE('',#1226,0.016408516124683);
#888=CIRCLE('',#1227,0.002);
#889=CIRCLE('',#1228,0.00400000000000012);
#890=CIRCLE('',#1229,0.0019999999999999);
#891=CIRCLE('',#1230,0.01);
#892=CIRCLE('',#1231,0.00200000000000006);
#893=CIRCLE('',#1232,0.023);
#894=CIRCLE('',#1233,0.023);
#895=CIRCLE('',#1234,0.023);
#896=CIRCLE('',#1235,0.023);
#897=CIRCLE('',#1236,0.023);
#898=CIRCLE('',#1237,0.00400000000000005);
#899=CIRCLE('',#1238,0.00199999999999997);
#900=CIRCLE('',#1239,0.0164085161246829);
#901=CIRCLE('',#1240,0.002);
#902=CIRCLE('',#1241,0.004);
#903=CIRCLE('',#1242,0.0019999999999999);
#904=CIRCLE('',#1243,0.01);
#905=CIRCLE('',#1244,0.00200000000000006);
#906=CIRCLE('',#1245,0.004);
#907=CIRCLE('',#1246,0.00199999999999997);
#908=CIRCLE('',#1247,0.016408516124683);
#909=CIRCLE('',#1248,0.002);
#910=CIRCLE('',#1249,0.00400000000000006);
#911=CIRCLE('',#1250,0.00199999999999991);
#912=CIRCLE('',#1251,0.01);
#913=CIRCLE('',#1252,0.00200000000000005);
#914=EDGE_LOOP('',(#218));
#915=EDGE_LOOP('',(#219));
#916=EDGE_LOOP('',(#220));
#917=EDGE_LOOP('',(#221));
#918=EDGE_LOOP('',(#222));
#919=EDGE_LOOP('',(#223,#224,#225,#226,#227,#228,#229,#230,#231,#232,#233,
#234,#235,#236,#237,#238,#239,#240,#241,#242));
#920=EDGE_LOOP('',(#243,#244,#245,#246,#247,#248,#249,#250));
#921=EDGE_LOOP('',(#251,#252,#253,#254,#255,#256,#257,#258));
#922=EDGE_LOOP('',(#259,#260,#261,#262,#263,#264,#265,#266));
#923=EDGE_LOOP('',(#267,#268,#269,#270,#271,#272,#273,#274));
#924=EDGE_LOOP('',(#275));
#925=EDGE_LOOP('',(#276));
#926=EDGE_LOOP('',(#277));
#927=EDGE_LOOP('',(#278));
#928=EDGE_LOOP('',(#279));
#929=EDGE_LOOP('',(#280,#281,#282,#283,#284,#285,#286,#287));
#930=EDGE_LOOP('',(#288,#289,#290,#291,#292,#293,#294,#295));
#931=EDGE_LOOP('',(#296,#297,#298,#299,#300,#301,#302,#303,#304,#305,#306,
#307,#308,#309,#310,#311,#312,#313,#314,#315));
#932=EDGE_LOOP('',(#316,#317,#318,#319,#320,#321,#322,#323));
#933=EDGE_LOOP('',(#324,#325,#326,#327,#328,#329,#330,#331));
#934=EDGE_LOOP('',(#332,#333,#334,#335));
#935=EDGE_LOOP('',(#336,#337,#338,#339));
#936=EDGE_LOOP('',(#340,#341,#342,#343));
#937=EDGE_LOOP('',(#344,#345,#346,#347));
#938=EDGE_LOOP('',(#348,#349,#350,#351));
#939=EDGE_LOOP('',(#352,#353,#354,#355));
#940=EDGE_LOOP('',(#356,#357,#358,#359));
#941=EDGE_LOOP('',(#360,#361,#362,#363));
#942=EDGE_LOOP('',(#364,#365,#366,#367));
#943=EDGE_LOOP('',(#368,#369,#370,#371));
#944=EDGE_LOOP('',(#372,#373,#374,#375));
#945=EDGE_LOOP('',(#376,#377,#378,#379));
#946=EDGE_LOOP('',(#380,#381,#382,#383));
#947=EDGE_LOOP('',(#384,#385,#386,#387));
#948=EDGE_LOOP('',(#388,#389,#390,#391));
#949=EDGE_LOOP('',(#392,#393,#394,#395));
#950=EDGE_LOOP('',(#396,#397,#398,#399));
#951=EDGE_LOOP('',(#400,#401,#402,#403));
#952=EDGE_LOOP('',(#404,#405,#406,#407));
#953=EDGE_LOOP('',(#408,#409,#410,#411));
#954=EDGE_LOOP('',(#412,#413,#414,#415));
#955=EDGE_LOOP('',(#416,#417,#418,#419));
#956=EDGE_LOOP('',(#420,#421,#422,#423));
#957=EDGE_LOOP('',(#424,#425,#426,#427));
#958=EDGE_LOOP('',(#428,#429,#430,#431));
#959=EDGE_LOOP('',(#432,#433,#434,#435));
#960=EDGE_LOOP('',(#436,#437,#438,#439));
#961=EDGE_LOOP('',(#440,#441,#442,#443));
#962=EDGE_LOOP('',(#444,#445,#446,#447));
#963=EDGE_LOOP('',(#448,#449,#450,#451));
#964=EDGE_LOOP('',(#452,#453,#454,#455));
#965=EDGE_LOOP('',(#456,#457,#458,#459));
#966=EDGE_LOOP('',(#460,#461,#462,#463));
#967=EDGE_LOOP('',(#464,#465,#466,#467));
#968=EDGE_LOOP('',(#468,#469,#470,#471));
#969=EDGE_LOOP('',(#472,#473,#474,#475));
#970=EDGE_LOOP('',(#476,#477,#478,#479));
#971=EDGE_LOOP('',(#480,#481,#482,#483));
#972=EDGE_LOOP('',(#484,#485,#486,#487));
#973=EDGE_LOOP('',(#488,#489,#490,#491));
#974=EDGE_LOOP('',(#492,#493,#494,#495));
#975=EDGE_LOOP('',(#496,#497,#498,#499));
#976=EDGE_LOOP('',(#500,#501,#502,#503));
#977=EDGE_LOOP('',(#504,#505,#506,#507));
#978=EDGE_LOOP('',(#508,#509,#510,#511));
#979=EDGE_LOOP('',(#512,#513,#514,#515));
#980=EDGE_LOOP('',(#516,#517,#518,#519));
#981=EDGE_LOOP('',(#520,#521,#522,#523));
#982=EDGE_LOOP('',(#524,#525,#526,#527));
#983=EDGE_LOOP('',(#528,#529,#530,#531));
#984=EDGE_LOOP('',(#532,#533,#534,#535));
#985=EDGE_LOOP('',(#536,#537,#538,#539));
#986=EDGE_LOOP('',(#540));
#987=EDGE_LOOP('',(#541));
#988=EDGE_LOOP('',(#542));
#989=EDGE_LOOP('',(#543));
#990=EDGE_LOOP('',(#544));
#991=EDGE_LOOP('',(#545));
#992=EDGE_LOOP('',(#546));
#993=EDGE_LOOP('',(#547));
#994=EDGE_LOOP('',(#548));
#995=EDGE_LOOP('',(#549));
#996=FACE_BOUND('',#914,.T.);
#997=FACE_BOUND('',#915,.T.);
#998=FACE_BOUND('',#916,.T.);
#999=FACE_BOUND('',#917,.T.);
#1000=FACE_BOUND('',#918,.T.);
#1001=FACE_BOUND('',#919,.T.);
#1002=FACE_BOUND('',#920,.T.);
#1003=FACE_BOUND('',#921,.T.);
#1004=FACE_BOUND('',#922,.T.);
#1005=FACE_BOUND('',#923,.T.);
#1006=FACE_BOUND('',#924,.T.);
#1007=FACE_BOUND('',#925,.T.);
#1008=FACE_BOUND('',#926,.T.);
#1009=FACE_BOUND('',#927,.T.);
#1010=FACE_BOUND('',#928,.T.);
#1011=FACE_BOUND('',#929,.T.);
#1012=FACE_BOUND('',#930,.T.);
#1013=FACE_BOUND('',#931,.T.);
#1014=FACE_BOUND('',#932,.T.);
#1015=FACE_BOUND('',#933,.T.);
#1016=FACE_BOUND('',#934,.T.);
#1017=FACE_BOUND('',#935,.T.);
#1018=FACE_BOUND('',#936,.T.);
#1019=FACE_BOUND('',#937,.T.);
#1020=FACE_BOUND('',#938,.T.);
#1021=FACE_BOUND('',#939,.T.);
#1022=FACE_BOUND('',#940,.T.);
#1023=FACE_BOUND('',#941,.T.);
#1024=FACE_BOUND('',#942,.T.);
#1025=FACE_BOUND('',#943,.T.);
#1026=FACE_BOUND('',#944,.T.);
#1027=FACE_BOUND('',#945,.T.);
#1028=FACE_BOUND('',#946,.T.);
#1029=FACE_BOUND('',#947,.T.);
#1030=FACE_BOUND('',#948,.T.);
#1031=FACE_BOUND('',#949,.T.);
#1032=FACE_BOUND('',#950,.T.);
#1033=FACE_BOUND('',#951,.T.);
#1034=FACE_BOUND('',#952,.T.);
#1035=FACE_BOUND('',#953,.T.);
#1036=FACE_BOUND('',#954,.T.);
#1037=FACE_BOUND('',#955,.T.);
#1038=FACE_BOUND('',#956,.T.);
#1039=FACE_BOUND('',#957,.T.);
#1040=FACE_BOUND('',#958,.T.);
#1041=FACE_BOUND('',#959,.T.);
#1042=FACE_BOUND('',#960,.T.);
#1043=FACE_BOUND('',#961,.T.);
#1044=FACE_BOUND('',#962,.T.);
#1045=FACE_BOUND('',#963,.T.);
#1046=FACE_BOUND('',#964,.T.);
#1047=FACE_BOUND('',#965,.T.);
#1048=FACE_BOUND('',#966,.T.);
#1049=FACE_BOUND('',#967,.T.);
#1050=FACE_BOUND('',#968,.T.);
#1051=FACE_BOUND('',#969,.T.);
#1052=FACE_BOUND('',#970,.T.);
#1053=FACE_BOUND('',#971,.T.);
#1054=FACE_BOUND('',#972,.T.);
#1055=FACE_BOUND('',#973,.T.);
#1056=FACE_BOUND('',#974,.T.);
#1057=FACE_BOUND('',#975,.T.);
#1058=FACE_BOUND('',#976,.T.);
#1059=FACE_BOUND('',#977,.T.);
#1060=FACE_BOUND('',#978,.T.);
#1061=FACE_BOUND('',#979,.T.);
#1062=FACE_BOUND('',#980,.T.);
#1063=FACE_BOUND('',#981,.T.);
#1064=FACE_BOUND('',#982,.T.);
#1065=FACE_BOUND('',#983,.T.);
#1066=FACE_BOUND('',#984,.T.);
#1067=FACE_BOUND('',#985,.T.);
#1068=FACE_BOUND('',#986,.T.);
#1069=FACE_BOUND('',#987,.T.);
#1070=FACE_BOUND('',#988,.T.);
#1071=FACE_BOUND('',#989,.T.);
#1072=FACE_BOUND('',#990,.T.);
#1073=FACE_BOUND('',#991,.T.);
#1074=FACE_BOUND('',#992,.T.);
#1075=FACE_BOUND('',#993,.T.);
#1076=FACE_BOUND('',#994,.T.);
#1077=FACE_BOUND('',#995,.T.);
#1078=PLANE('',#1167);
#1079=PLANE('',#1210);
#1080=PLANE('',#1258);
#1081=PLANE('',#1259);
#1082=PLANE('',#1260);
#1083=PLANE('',#1261);
#1084=PLANE('',#1262);
#1085=PLANE('',#1263);
#1086=PLANE('',#1264);
#1087=PLANE('',#1265);
#1088=PLANE('',#1266);
#1089=PLANE('',#1267);
#1090=PLANE('',#1268);
#1091=PLANE('',#1269);
#1092=PLANE('',#1270);
#1093=PLANE('',#1271);
#1094=PLANE('',#1272);
#1095=ADVANCED_FACE('',(#996,#997,#998,#999,#1000,#1001,#1002,#1003,#1004,
#1005),#1078,.T.);
#1096=ADVANCED_FACE('',(#1006,#1007,#1008,#1009,#1010,#1011,#1012,#1013,
#1014,#1015),#1079,.F.);
#1097=ADVANCED_FACE('',(#1016),#12,.T.);
#1098=ADVANCED_FACE('',(#1017),#13,.T.);
#1099=ADVANCED_FACE('',(#1018),#14,.T.);
#1100=ADVANCED_FACE('',(#1019),#15,.T.);
#1101=ADVANCED_FACE('',(#1020),#16,.T.);
#1102=ADVANCED_FACE('',(#1021),#1080,.T.);
#1103=ADVANCED_FACE('',(#1022),#1081,.F.);
#1104=ADVANCED_FACE('',(#1023),#1082,.T.);
#1105=ADVANCED_FACE('',(#1024),#1083,.T.);
#1106=ADVANCED_FACE('',(#1025),#1084,.F.);
#1107=ADVANCED_FACE('',(#1026),#1085,.T.);
#1108=ADVANCED_FACE('',(#1027),#1086,.T.);
#1109=ADVANCED_FACE('',(#1028),#1087,.F.);
#1110=ADVANCED_FACE('',(#1029),#1088,.F.);
#1111=ADVANCED_FACE('',(#1030),#1089,.T.);
#1112=ADVANCED_FACE('',(#1031),#1090,.F.);
#1113=ADVANCED_FACE('',(#1032),#1091,.F.);
#1114=ADVANCED_FACE('',(#1033),#1092,.T.);
#1115=ADVANCED_FACE('',(#1034),#1093,.F.);
#1116=ADVANCED_FACE('',(#1035),#1094,.F.);
#1117=ADVANCED_FACE('',(#1036),#17,.T.);
#1118=ADVANCED_FACE('',(#1037),#18,.F.);
#1119=ADVANCED_FACE('',(#1038),#19,.F.);
#1120=ADVANCED_FACE('',(#1039),#20,.F.);
#1121=ADVANCED_FACE('',(#1040),#21,.T.);
#1122=ADVANCED_FACE('',(#1041),#22,.F.);
#1123=ADVANCED_FACE('',(#1042),#23,.T.);
#1124=ADVANCED_FACE('',(#1043),#24,.F.);
#1125=ADVANCED_FACE('',(#1044),#25,.T.);
#1126=ADVANCED_FACE('',(#1045),#26,.F.);
#1127=ADVANCED_FACE('',(#1046),#27,.F.);
#1128=ADVANCED_FACE('',(#1047),#28,.F.);
#1129=ADVANCED_FACE('',(#1048),#29,.T.);
#1130=ADVANCED_FACE('',(#1049),#30,.F.);
#1131=ADVANCED_FACE('',(#1050),#31,.T.);
#1132=ADVANCED_FACE('',(#1051),#32,.F.);
#1133=ADVANCED_FACE('',(#1052),#33,.T.);
#1134=ADVANCED_FACE('',(#1053),#34,.F.);
#1135=ADVANCED_FACE('',(#1054),#35,.F.);
#1136=ADVANCED_FACE('',(#1055),#36,.F.);
#1137=ADVANCED_FACE('',(#1056),#37,.T.);
#1138=ADVANCED_FACE('',(#1057),#38,.F.);
#1139=ADVANCED_FACE('',(#1058),#39,.T.);
#1140=ADVANCED_FACE('',(#1059),#40,.F.);
#1141=ADVANCED_FACE('',(#1060),#41,.T.);
#1142=ADVANCED_FACE('',(#1061),#42,.F.);
#1143=ADVANCED_FACE('',(#1062),#43,.F.);
#1144=ADVANCED_FACE('',(#1063),#44,.F.);
#1145=ADVANCED_FACE('',(#1064),#45,.T.);
#1146=ADVANCED_FACE('',(#1065),#46,.F.);
#1147=ADVANCED_FACE('',(#1066),#47,.T.);
#1148=ADVANCED_FACE('',(#1067),#48,.F.);
#1149=ADVANCED_FACE('',(#1068,#1069),#49,.F.);
#1150=ADVANCED_FACE('',(#1070,#1071),#50,.F.);
#1151=ADVANCED_FACE('',(#1072,#1073),#51,.F.);
#1152=ADVANCED_FACE('',(#1074,#1075),#52,.F.);
#1153=ADVANCED_FACE('',(#1076,#1077),#53,.F.);
#1154=CLOSED_SHELL('',(#1095,#1096,#1097,#1098,#1099,#1100,#1101,#1102,
#1103,#1104,#1105,#1106,#1107,#1108,#1109,#1110,#1111,#1112,#1113,#1114,
#1115,#1116,#1117,#1118,#1119,#1120,#1121,#1122,#1123,#1124,#1125,#1126,
#1127,#1128,#1129,#1130,#1131,#1132,#1133,#1134,#1135,#1136,#1137,#1138,
#1139,#1140,#1141,#1142,#1143,#1144,#1145,#1146,#1147,#1148,#1149,#1150,
#1151,#1152,#1153));
#1155=STYLED_ITEM('',(#1156),#1163);
#1156=PRESENTATION_STYLE_ASSIGNMENT((#1157));
#1157=SURFACE_STYLE_USAGE(.BOTH.,#1158);
#1158=SURFACE_SIDE_STYLE('',(#1159));
#1159=SURFACE_STYLE_FILL_AREA(#1160);
#1160=FILL_AREA_STYLE('',(#1161));
#1161=FILL_AREA_STYLE_COLOUR('',#1162);
#1162=COLOUR_RGB('',0.0862745098039216,0.31764705882353,0.690196078431373);
#1163=MANIFOLD_SOLID_BREP('Wheel',#1154);
#1164=SHAPE_DEFINITION_REPRESENTATION(#2026,#1165);
#1165=SHAPE_REPRESENTATION('Wheel',(#1166),#2021);
#1166=AXIS2_PLACEMENT_3D('',#1680,#1310,#1311);
#1167=AXIS2_PLACEMENT_3D('',#1681,#1312,#1313);
#1168=AXIS2_PLACEMENT_3D('',#1682,#1314,#1315);
#1169=AXIS2_PLACEMENT_3D('',#1684,#1316,#1317);
#1170=AXIS2_PLACEMENT_3D('',#1686,#1318,#1319);
#1171=AXIS2_PLACEMENT_3D('',#1688,#1320,#1321);
#1172=AXIS2_PLACEMENT_3D('',#1690,#1322,#1323);
#1173=AXIS2_PLACEMENT_3D('',#1697,#1326,#1327);
#1174=AXIS2_PLACEMENT_3D('',#1705,#1331,#1332);
#1175=AXIS2_PLACEMENT_3D('',#1713,#1336,#1337);
#1176=AXIS2_PLACEMENT_3D('',#1721,#1341,#1342);
#1177=AXIS2_PLACEMENT_3D('',#1729,#1346,#1347);
#1178=AXIS2_PLACEMENT_3D('',#1732,#1349,#1350);
#1179=AXIS2_PLACEMENT_3D('',#1735,#1351,#1352);
#1180=AXIS2_PLACEMENT_3D('',#1737,#1353,#1354);
#1181=AXIS2_PLACEMENT_3D('',#1739,#1355,#1356);
#1182=AXIS2_PLACEMENT_3D('',#1741,#1357,#1358);
#1183=AXIS2_PLACEMENT_3D('',#1743,#1359,#1360);
#1184=AXIS2_PLACEMENT_3D('',#1745,#1361,#1362);
#1185=AXIS2_PLACEMENT_3D('',#1747,#1363,#1364);
#1186=AXIS2_PLACEMENT_3D('',#1748,#1365,#1366);
#1187=AXIS2_PLACEMENT_3D('',#1751,#1367,#1368);
#1188=AXIS2_PLACEMENT_3D('',#1753,#1369,#1370);
#1189=AXIS2_PLACEMENT_3D('',#1755,#1371,#1372);
#1190=AXIS2_PLACEMENT_3D('',#1757,#1373,#1374);
#1191=AXIS2_PLACEMENT_3D('',#1759,#1375,#1376);
#1192=AXIS2_PLACEMENT_3D('',#1761,#1377,#1378);
#1193=AXIS2_PLACEMENT_3D('',#1763,#1379,#1380);
#1194=AXIS2_PLACEMENT_3D('',#1764,#1381,#1382);
#1195=AXIS2_PLACEMENT_3D('',#1767,#1383,#1384);
#1196=AXIS2_PLACEMENT_3D('',#1769,#1385,#1386);
#1197=AXIS2_PLACEMENT_3D('',#1771,#1387,#1388);
#1198=AXIS2_PLACEMENT_3D('',#1773,#1389,#1390);
#1199=AXIS2_PLACEMENT_3D('',#1775,#1391,#1392);
#1200=AXIS2_PLACEMENT_3D('',#1777,#1393,#1394);
#1201=AXIS2_PLACEMENT_3D('',#1779,#1395,#1396);
#1202=AXIS2_PLACEMENT_3D('',#1780,#1397,#1398);
#1203=AXIS2_PLACEMENT_3D('',#1783,#1399,#1400);
#1204=AXIS2_PLACEMENT_3D('',#1785,#1401,#1402);
#1205=AXIS2_PLACEMENT_3D('',#1787,#1403,#1404);
#1206=AXIS2_PLACEMENT_3D('',#1789,#1405,#1406);
#1207=AXIS2_PLACEMENT_3D('',#1791,#1407,#1408);
#1208=AXIS2_PLACEMENT_3D('',#1793,#1409,#1410);
#1209=AXIS2_PLACEMENT_3D('',#1795,#1411,#1412);
#1210=AXIS2_PLACEMENT_3D('',#1796,#1413,#1414);
#1211=AXIS2_PLACEMENT_3D('',#1797,#1415,#1416);
#1212=AXIS2_PLACEMENT_3D('',#1799,#1417,#1418);
#1213=AXIS2_PLACEMENT_3D('',#1801,#1419,#1420);
#1214=AXIS2_PLACEMENT_3D('',#1803,#1421,#1422);
#1215=AXIS2_PLACEMENT_3D('',#1805,#1423,#1424);
#1216=AXIS2_PLACEMENT_3D('',#1807,#1425,#1426);
#1217=AXIS2_PLACEMENT_3D('',#1810,#1427,#1428);
#1218=AXIS2_PLACEMENT_3D('',#1812,#1429,#1430);
#1219=AXIS2_PLACEMENT_3D('',#1814,#1431,#1432);
#1220=AXIS2_PLACEMENT_3D('',#1816,#1433,#1434);
#1221=AXIS2_PLACEMENT_3D('',#1818,#1435,#1436);
#1222=AXIS2_PLACEMENT_3D('',#1820,#1437,#1438);
#1223=AXIS2_PLACEMENT_3D('',#1822,#1439,#1440);
#1224=AXIS2_PLACEMENT_3D('',#1823,#1441,#1442);
#1225=AXIS2_PLACEMENT_3D('',#1826,#1443,#1444);
#1226=AXIS2_PLACEMENT_3D('',#1828,#1445,#1446);
#1227=AXIS2_PLACEMENT_3D('',#1830,#1447,#1448);
#1228=AXIS2_PLACEMENT_3D('',#1832,#1449,#1450);
#1229=AXIS2_PLACEMENT_3D('',#1834,#1451,#1452);
#1230=AXIS2_PLACEMENT_3D('',#1836,#1453,#1454);
#1231=AXIS2_PLACEMENT_3D('',#1838,#1455,#1456);
#1232=AXIS2_PLACEMENT_3D('',#1846,#1460,#1461);
#1233=AXIS2_PLACEMENT_3D('',#1854,#1465,#1466);
#1234=AXIS2_PLACEMENT_3D('',#1862,#1470,#1471);
#1235=AXIS2_PLACEMENT_3D('',#1870,#1475,#1476);
#1236=AXIS2_PLACEMENT_3D('',#1878,#1480,#1481);
#1237=AXIS2_PLACEMENT_3D('',#1879,#1482,#1483);
#1238=AXIS2_PLACEMENT_3D('',#1882,#1484,#1485);
#1239=AXIS2_PLACEMENT_3D('',#1884,#1486,#1487);
#1240=AXIS2_PLACEMENT_3D('',#1886,#1488,#1489);
#1241=AXIS2_PLACEMENT_3D('',#1888,#1490,#1491);
#1242=AXIS2_PLACEMENT_3D('',#1890,#1492,#1493);
#1243=AXIS2_PLACEMENT_3D('',#1892,#1494,#1495);
#1244=AXIS2_PLACEMENT_3D('',#1894,#1496,#1497);
#1245=AXIS2_PLACEMENT_3D('',#1895,#1498,#1499);
#1246=AXIS2_PLACEMENT_3D('',#1898,#1500,#1501);
#1247=AXIS2_PLACEMENT_3D('',#1900,#1502,#1503);
#1248=AXIS2_PLACEMENT_3D('',#1902,#1504,#1505);
#1249=AXIS2_PLACEMENT_3D('',#1904,#1506,#1507);
#1250=AXIS2_PLACEMENT_3D('',#1906,#1508,#1509);
#1251=AXIS2_PLACEMENT_3D('',#1908,#1510,#1511);
#1252=AXIS2_PLACEMENT_3D('',#1910,#1512,#1513);
#1253=AXIS2_PLACEMENT_3D('',#1911,#1514,#1515);
#1254=AXIS2_PLACEMENT_3D('',#1914,#1518,#1519);
#1255=AXIS2_PLACEMENT_3D('',#1917,#1522,#1523);
#1256=AXIS2_PLACEMENT_3D('',#1920,#1526,#1527);
#1257=AXIS2_PLACEMENT_3D('',#1923,#1530,#1531);
#1258=AXIS2_PLACEMENT_3D('',#1926,#1534,#1535);
#1259=AXIS2_PLACEMENT_3D('',#1929,#1538,#1539);
#1260=AXIS2_PLACEMENT_3D('',#1930,#1540,#1541);
#1261=AXIS2_PLACEMENT_3D('',#1931,#1542,#1543);
#1262=AXIS2_PLACEMENT_3D('',#1934,#1546,#1547);
#1263=AXIS2_PLACEMENT_3D('',#1935,#1548,#1549);
#1264=AXIS2_PLACEMENT_3D('',#1936,#1550,#1551);
#1265=AXIS2_PLACEMENT_3D('',#1938,#1553,#1554);
#1266=AXIS2_PLACEMENT_3D('',#1940,#1556,#1557);
#1267=AXIS2_PLACEMENT_3D('',#1941,#1558,#1559);
#1268=AXIS2_PLACEMENT_3D('',#1943,#1561,#1562);
#1269=AXIS2_PLACEMENT_3D('',#1945,#1564,#1565);
#1270=AXIS2_PLACEMENT_3D('',#1946,#1566,#1567);
#1271=AXIS2_PLACEMENT_3D('',#1948,#1569,#1570);
#1272=AXIS2_PLACEMENT_3D('',#1950,#1572,#1573);
#1273=AXIS2_PLACEMENT_3D('',#1951,#1574,#1575);
#1274=AXIS2_PLACEMENT_3D('',#1954,#1578,#1579);
#1275=AXIS2_PLACEMENT_3D('',#1956,#1581,#1582);
#1276=AXIS2_PLACEMENT_3D('',#1958,#1584,#1585);
#1277=AXIS2_PLACEMENT_3D('',#1960,#1587,#1588);
#1278=AXIS2_PLACEMENT_3D('',#1962,#1590,#1591);
#1279=AXIS2_PLACEMENT_3D('',#1964,#1593,#1594);
#1280=AXIS2_PLACEMENT_3D('',#1966,#1596,#1597);
#1281=AXIS2_PLACEMENT_3D('',#1967,#1598,#1599);
#1282=AXIS2_PLACEMENT_3D('',#1970,#1602,#1603);
#1283=AXIS2_PLACEMENT_3D('',#1972,#1605,#1606);
#1284=AXIS2_PLACEMENT_3D('',#1974,#1608,#1609);
#1285=AXIS2_PLACEMENT_3D('',#1976,#1611,#1612);
#1286=AXIS2_PLACEMENT_3D('',#1978,#1614,#1615);
#1287=AXIS2_PLACEMENT_3D('',#1980,#1617,#1618);
#1288=AXIS2_PLACEMENT_3D('',#1982,#1620,#1621);
#1289=AXIS2_PLACEMENT_3D('',#1983,#1622,#1623);
#1290=AXIS2_PLACEMENT_3D('',#1986,#1626,#1627);
#1291=AXIS2_PLACEMENT_3D('',#1988,#1629,#1630);
#1292=AXIS2_PLACEMENT_3D('',#1990,#1632,#1633);
#1293=AXIS2_PLACEMENT_3D('',#1992,#1635,#1636);
#1294=AXIS2_PLACEMENT_3D('',#1994,#1638,#1639);
#1295=AXIS2_PLACEMENT_3D('',#1996,#1641,#1642);
#1296=AXIS2_PLACEMENT_3D('',#1998,#1644,#1645);
#1297=AXIS2_PLACEMENT_3D('',#1999,#1646,#1647);
#1298=AXIS2_PLACEMENT_3D('',#2002,#1650,#1651);
#1299=AXIS2_PLACEMENT_3D('',#2004,#1653,#1654);
#1300=AXIS2_PLACEMENT_3D('',#2006,#1656,#1657);
#1301=AXIS2_PLACEMENT_3D('',#2008,#1659,#1660);
#1302=AXIS2_PLACEMENT_3D('',#2010,#1662,#1663);
#1303=AXIS2_PLACEMENT_3D('',#2012,#1665,#1666);
#1304=AXIS2_PLACEMENT_3D('',#2014,#1668,#1669);
#1305=AXIS2_PLACEMENT_3D('',#2015,#1670,#1671);
#1306=AXIS2_PLACEMENT_3D('',#2016,#1672,#1673);
#1307=AXIS2_PLACEMENT_3D('',#2017,#1674,#1675);
#1308=AXIS2_PLACEMENT_3D('',#2018,#1676,#1677);
#1309=AXIS2_PLACEMENT_3D('',#2019,#1678,#1679);
#1310=DIRECTION('',(0.,0.,1.));
#1311=DIRECTION('',(1.,0.,0.));
#1312=DIRECTION('',(0.,-1.,0.));
#1313=DIRECTION('',(1.,0.,0.));
#1314=DIRECTION('',(0.,-1.,0.));
#1315=DIRECTION('',(0.,0.,-1.));
#1316=DIRECTION('',(0.,-1.,0.));
#1317=DIRECTION('',(0.,0.,-1.));
#1318=DIRECTION('',(0.,-1.,0.));
#1319=DIRECTION('',(0.,0.,-1.));
#1320=DIRECTION('',(0.,-1.,0.));
#1321=DIRECTION('',(0.,0.,-1.));
#1322=DIRECTION('',(0.,-1.,0.));
#1323=DIRECTION('',(0.,0.,-1.));
#1324=DIRECTION('',(0.309016994374947,0.,0.951056516295154));
#1325=DIRECTION('',(-0.951056516295154,0.,-0.309016994374948));
#1326=DIRECTION('',(0.,-1.,0.));
#1327=DIRECTION('',(0.,0.,-1.));
#1328=DIRECTION('',(-0.951056516295154,0.,-0.309016994374948));
#1329=DIRECTION('',(-0.809016994374948,0.,0.587785252292473));
#1330=DIRECTION('',(0.,0.,-1.));
#1331=DIRECTION('',(0.,-1.,0.));
#1332=DIRECTION('',(0.,0.,-1.));
#1333=DIRECTION('',(0.,0.,-1.));
#1334=DIRECTION('',(-0.809016994374947,0.,-0.587785252292473));
#1335=DIRECTION('',(0.951056516295154,0.,-0.309016994374948));
#1336=DIRECTION('',(0.,-1.,0.));
#1337=DIRECTION('',(0.,0.,-1.));
#1338=DIRECTION('',(0.951056516295153,0.,-0.309016994374949));
#1339=DIRECTION('',(-0.309016994374947,0.,0.951056516295154));
#1340=DIRECTION('',(0.587785252292473,0.,0.809016994374948));
#1341=DIRECTION('',(0.,-1.,0.));
#1342=DIRECTION('',(0.,0.,-1.));
#1343=DIRECTION('',(0.587785252292474,0.,0.809016994374947));
#1344=DIRECTION('',(-1.,0.,1.15648231731787E-15));
#1345=DIRECTION('',(-0.587785252292473,0.,0.809016994374948));
#1346=DIRECTION('',(0.,-1.,0.));
#1347=DIRECTION('',(0.,0.,-1.));
#1348=DIRECTION('',(-0.587785252292473,0.,0.809016994374948));
#1349=DIRECTION('',(0.,-1.,0.));
#1350=DIRECTION('',(0.,0.,-1.));
#1351=DIRECTION('',(0.,-1.,0.));
#1352=DIRECTION('',(0.,0.,-1.));
#1353=DIRECTION('',(0.,-1.,0.));
#1354=DIRECTION('',(0.,0.,-1.));
#1355=DIRECTION('',(0.,-1.,0.));
#1356=DIRECTION('',(0.,0.,-1.));
#1357=DIRECTION('',(0.,-1.,0.));
#1358=DIRECTION('',(0.,0.,-1.));
#1359=DIRECTION('',(0.,-1.,0.));
#1360=DIRECTION('',(0.,0.,-1.));
#1361=DIRECTION('',(0.,-1.,0.));
#1362=DIRECTION('',(0.,0.,-1.));
#1363=DIRECTION('',(0.,1.,0.));
#1364=DIRECTION('',(0.,0.,-1.));
#1365=DIRECTION('',(0.,-1.,0.));
#1366=DIRECTION('',(0.,0.,-1.));
#1367=DIRECTION('',(0.,-1.,0.));
#1368=DIRECTION('',(0.,0.,-1.));
#1369=DIRECTION('',(0.,-1.,0.));
#1370=DIRECTION('',(0.,0.,-1.));
#1371=DIRECTION('',(0.,-1.,0.));
#1372=DIRECTION('',(0.,0.,-1.));
#1373=DIRECTION('',(0.,-1.,0.));
#1374=DIRECTION('',(0.,0.,-1.));
#1375=DIRECTION('',(0.,-1.,0.));
#1376=DIRECTION('',(0.,0.,-1.));
#1377=DIRECTION('',(0.,-1.,0.));
#1378=DIRECTION('',(0.,0.,-1.));
#1379=DIRECTION('',(0.,1.,0.));
#1380=DIRECTION('',(0.,0.,-1.));
#1381=DIRECTION('',(0.,-1.,0.));
#1382=DIRECTION('',(0.,0.,-1.));
#1383=DIRECTION('',(0.,-1.,0.));
#1384=DIRECTION('',(0.,0.,-1.));
#1385=DIRECTION('',(0.,-1.,0.));
#1386=DIRECTION('',(0.,0.,-1.));
#1387=DIRECTION('',(0.,-1.,0.));
#1388=DIRECTION('',(0.,0.,-1.));
#1389=DIRECTION('',(0.,-1.,0.));
#1390=DIRECTION('',(0.,0.,-1.));
#1391=DIRECTION('',(0.,-1.,0.));
#1392=DIRECTION('',(0.,0.,-1.));
#1393=DIRECTION('',(0.,-1.,0.));
#1394=DIRECTION('',(0.,0.,-1.));
#1395=DIRECTION('',(0.,1.,0.));
#1396=DIRECTION('',(0.,0.,-1.));
#1397=DIRECTION('',(0.,-1.,0.));
#1398=DIRECTION('',(0.,0.,-1.));
#1399=DIRECTION('',(0.,-1.,0.));
#1400=DIRECTION('',(0.,0.,-1.));
#1401=DIRECTION('',(0.,-1.,0.));
#1402=DIRECTION('',(0.,0.,-1.));
#1403=DIRECTION('',(0.,-1.,0.));
#1404=DIRECTION('',(0.,0.,-1.));
#1405=DIRECTION('',(0.,-1.,0.));
#1406=DIRECTION('',(0.,0.,-1.));
#1407=DIRECTION('',(0.,-1.,0.));
#1408=DIRECTION('',(0.,0.,-1.));
#1409=DIRECTION('',(0.,-1.,0.));
#1410=DIRECTION('',(0.,0.,-1.));
#1411=DIRECTION('',(0.,1.,0.));
#1412=DIRECTION('',(0.,0.,-1.));
#1413=DIRECTION('',(0.,-1.,0.));
#1414=DIRECTION('',(1.,0.,0.));
#1415=DIRECTION('',(0.,-1.,0.));
#1416=DIRECTION('',(0.,0.,-1.));
#1417=DIRECTION('',(0.,-1.,0.));
#1418=DIRECTION('',(0.,0.,-1.));
#1419=DIRECTION('',(0.,-1.,0.));
#1420=DIRECTION('',(0.,0.,-1.));
#1421=DIRECTION('',(0.,-1.,0.));
#1422=DIRECTION('',(0.,0.,-1.));
#1423=DIRECTION('',(0.,-1.,0.));
#1424=DIRECTION('',(0.,0.,-1.));
#1425=DIRECTION('',(0.,-1.,0.));
#1426=DIRECTION('',(0.,0.,-1.));
#1427=DIRECTION('',(0.,-1.,0.));
#1428=DIRECTION('',(0.,0.,-1.));
#1429=DIRECTION('',(0.,-1.,0.));
#1430=DIRECTION('',(0.,0.,-1.));
#1431=DIRECTION('',(0.,-1.,0.));
#1432=DIRECTION('',(0.,0.,-1.));
#1433=DIRECTION('',(0.,-1.,0.));
#1434=DIRECTION('',(0.,0.,-1.));
#1435=DIRECTION('',(0.,-1.,0.));
#1436=DIRECTION('',(0.,0.,-1.));
#1437=DIRECTION('',(0.,-1.,0.));
#1438=DIRECTION('',(0.,0.,-1.));
#1439=DIRECTION('',(0.,-1.,0.));
#1440=DIRECTION('',(0.,0.,-1.));
#1441=DIRECTION('',(0.,-1.,0.));
#1442=DIRECTION('',(0.,0.,-1.));
#1443=DIRECTION('',(0.,-1.,0.));
#1444=DIRECTION('',(0.,0.,-1.));
#1445=DIRECTION('',(0.,-1.,0.));
#1446=DIRECTION('',(0.,0.,-1.));
#1447=DIRECTION('',(0.,-1.,0.));
#1448=DIRECTION('',(0.,0.,-1.));
#1449=DIRECTION('',(0.,-1.,0.));
#1450=DIRECTION('',(0.,0.,-1.));
#1451=DIRECTION('',(0.,-1.,0.));
#1452=DIRECTION('',(0.,0.,-1.));
#1453=DIRECTION('',(0.,-1.,0.));
#1454=DIRECTION('',(0.,0.,-1.));
#1455=DIRECTION('',(0.,-1.,0.));
#1456=DIRECTION('',(0.,0.,-1.));
#1457=DIRECTION('',(-0.951056516295154,0.,-0.309016994374948));
#1458=DIRECTION('',(0.309016994374947,0.,0.951056516295154));
#1459=DIRECTION('',(-0.587785252292473,0.,0.809016994374948));
#1460=DIRECTION('',(0.,-1.,0.));
#1461=DIRECTION('',(0.,0.,-1.));
#1462=DIRECTION('',(-0.587785252292473,0.,0.809016994374948));
#1463=DIRECTION('',(-1.,0.,1.15648231731787E-15));
#1464=DIRECTION('',(0.587785252292474,0.,0.809016994374947));
#1465=DIRECTION('',(0.,-1.,0.));
#1466=DIRECTION('',(0.,0.,-1.));
#1467=DIRECTION('',(0.587785252292473,0.,0.809016994374948));
#1468=DIRECTION('',(-0.309016994374947,0.,0.951056516295154));
#1469=DIRECTION('',(0.951056516295153,0.,-0.30901699437495));
#1470=DIRECTION('',(0.,-1.,0.));
#1471=DIRECTION('',(0.,0.,-1.));
#1472=DIRECTION('',(0.951056516295154,0.,-0.309016994374948));
#1473=DIRECTION('',(-0.809016994374947,0.,-0.587785252292473));
#1474=DIRECTION('',(0.,0.,-1.));
#1475=DIRECTION('',(0.,-1.,0.));
#1476=DIRECTION('',(0.,0.,-1.));
#1477=DIRECTION('',(0.,0.,-1.));
#1478=DIRECTION('',(-0.809016994374948,0.,0.587785252292473));
#1479=DIRECTION('',(-0.951056516295154,0.,-0.309016994374948));
#1480=DIRECTION('',(0.,-1.,0.));
#1481=DIRECTION('',(0.,0.,-1.));
#1482=DIRECTION('',(0.,-1.,0.));
#1483=DIRECTION('',(0.,0.,-1.));
#1484=DIRECTION('',(0.,-1.,0.));
#1485=DIRECTION('',(0.,0.,-1.));
#1486=DIRECTION('',(0.,-1.,0.));
#1487=DIRECTION('',(0.,0.,-1.));
#1488=DIRECTION('',(0.,-1.,0.));
#1489=DIRECTION('',(0.,0.,-1.));
#1490=DIRECTION('',(0.,-1.,0.));
#1491=DIRECTION('',(0.,0.,-1.));
#1492=DIRECTION('',(0.,-1.,0.));
#1493=DIRECTION('',(0.,0.,-1.));
#1494=DIRECTION('',(0.,-1.,0.));
#1495=DIRECTION('',(0.,0.,-1.));
#1496=DIRECTION('',(0.,-1.,0.));
#1497=DIRECTION('',(0.,0.,-1.));
#1498=DIRECTION('',(0.,-1.,0.));
#1499=DIRECTION('',(0.,0.,-1.));
#1500=DIRECTION('',(0.,-1.,0.));
#1501=DIRECTION('',(0.,0.,-1.));
#1502=DIRECTION('',(0.,-1.,0.));
#1503=DIRECTION('',(0.,0.,-1.));
#1504=DIRECTION('',(0.,-1.,0.));
#1505=DIRECTION('',(0.,0.,-1.));
#1506=DIRECTION('',(0.,-1.,0.));
#1507=DIRECTION('',(0.,0.,-1.));
#1508=DIRECTION('',(0.,-1.,0.));
#1509=DIRECTION('',(0.,0.,-1.));
#1510=DIRECTION('',(0.,-1.,0.));
#1511=DIRECTION('',(0.,0.,-1.));
#1512=DIRECTION('',(0.,-1.,0.));
#1513=DIRECTION('',(0.,0.,-1.));
#1514=DIRECTION('',(0.,1.,0.));
#1515=DIRECTION('',(0.,0.,1.));
#1516=DIRECTION('',(0.,-1.,0.));
#1517=DIRECTION('',(0.,-1.,0.));
#1518=DIRECTION('',(0.,1.,0.));
#1519=DIRECTION('',(0.,0.,1.));
#1520=DIRECTION('',(0.,-1.,0.));
#1521=DIRECTION('',(0.,-1.,0.));
#1522=DIRECTION('',(0.,1.,0.));
#1523=DIRECTION('',(0.,0.,1.));
#1524=DIRECTION('',(0.,-1.,0.));
#1525=DIRECTION('',(0.,-1.,0.));
#1526=DIRECTION('',(0.,1.,0.));
#1527=DIRECTION('',(0.,0.,1.));
#1528=DIRECTION('',(0.,-1.,0.));
#1529=DIRECTION('',(0.,-1.,0.));
#1530=DIRECTION('',(0.,1.,0.));
#1531=DIRECTION('',(0.,0.,1.));
#1532=DIRECTION('',(0.,-1.,0.));
#1533=DIRECTION('',(0.,-1.,0.));
#1534=DIRECTION('',(1.15648231731787E-15,0.,1.));
#1535=DIRECTION('',(1.,0.,-1.15648231731787E-15));
#1536=DIRECTION('',(0.,-1.,0.));
#1537=DIRECTION('',(0.,-1.,0.));
#1538=DIRECTION('',(0.809016994374947,0.,-0.587785252292474));
#1539=DIRECTION('',(-0.587785252292474,0.,-0.809016994374947));
#1540=DIRECTION('',(0.809016994374948,0.,0.587785252292473));
#1541=DIRECTION('',(0.587785252292473,0.,-0.809016994374948));
#1542=DIRECTION('',(0.951056516295154,0.,0.309016994374947));
#1543=DIRECTION('',(0.309016994374947,0.,-0.951056516295154));
#1544=DIRECTION('',(0.,-1.,0.));
#1545=DIRECTION('',(0.,-1.,0.));
#1546=DIRECTION('',(-0.30901699437495,0.,-0.951056516295153));
#1547=DIRECTION('',(-0.951056516295153,0.,0.30901699437495));
#1548=DIRECTION('',(0.809016994374948,0.,-0.587785252292473));
#1549=DIRECTION('',(-0.587785252292473,0.,-0.809016994374948));
#1550=DIRECTION('',(-0.309016994374948,0.,-0.951056516295154));
#1551=DIRECTION('',(-0.951056516295154,0.,0.309016994374948));
#1552=DIRECTION('',(0.,-1.,0.));
#1553=DIRECTION('',(-0.587785252292473,0.,0.809016994374947));
#1554=DIRECTION('',(0.809016994374947,0.,0.587785252292473));
#1555=DIRECTION('',(0.,-1.,0.));
#1556=DIRECTION('',(-1.,0.,0.));
#1557=DIRECTION('',(0.,0.,1.));
#1558=DIRECTION('',(-1.,0.,0.));
#1559=DIRECTION('',(0.,0.,1.));
#1560=DIRECTION('',(0.,-1.,0.));
#1561=DIRECTION('',(0.587785252292473,0.,0.809016994374948));
#1562=DIRECTION('',(0.809016994374948,0.,-0.587785252292473));
#1563=DIRECTION('',(0.,-1.,0.));
#1564=DIRECTION('',(-0.309016994374948,0.,0.951056516295154));
#1565=DIRECTION('',(0.951056516295154,0.,0.309016994374948));
#1566=DIRECTION('',(-0.309016994374948,0.,0.951056516295154));
#1567=DIRECTION('',(0.951056516295154,0.,0.309016994374948));
#1568=DIRECTION('',(0.,-1.,0.));
#1569=DIRECTION('',(0.951056516295154,0.,-0.309016994374947));
#1570=DIRECTION('',(-0.309016994374947,0.,-0.951056516295154));
#1571=DIRECTION('',(0.,-1.,0.));
#1572=DIRECTION('',(0.809016994374948,0.,0.587785252292473));
#1573=DIRECTION('',(0.587785252292473,0.,-0.809016994374948));
#1574=DIRECTION('',(0.,-1.,0.));
#1575=DIRECTION('',(0.,0.,-1.));
#1576=DIRECTION('',(0.,-1.,0.));
#1577=DIRECTION('',(0.,-1.,0.));
#1578=DIRECTION('',(0.,-1.,0.));
#1579=DIRECTION('',(0.,0.,-1.));
#1580=DIRECTION('',(0.,-1.,0.));
#1581=DIRECTION('',(0.,-1.,0.));
#1582=DIRECTION('',(0.,0.,-1.));
#1583=DIRECTION('',(0.,-1.,0.));
#1584=DIRECTION('',(0.,-1.,0.));
#1585=DIRECTION('',(0.,0.,-1.));
#1586=DIRECTION('',(0.,-1.,0.));
#1587=DIRECTION('',(0.,-1.,0.));
#1588=DIRECTION('',(0.,0.,-1.));
#1589=DIRECTION('',(0.,-1.,0.));
#1590=DIRECTION('',(0.,-1.,0.));
#1591=DIRECTION('',(0.,0.,-1.));
#1592=DIRECTION('',(0.,-1.,0.));
#1593=DIRECTION('',(0.,-1.,0.));
#1594=DIRECTION('',(0.,0.,-1.));
#1595=DIRECTION('',(0.,-1.,0.));
#1596=DIRECTION('',(0.,-1.,0.));
#1597=DIRECTION('',(0.,0.,-1.));
#1598=DIRECTION('',(0.,-1.,0.));
#1599=DIRECTION('',(0.,0.,-1.));
#1600=DIRECTION('',(0.,-1.,0.));
#1601=DIRECTION('',(0.,-1.,0.));
#1602=DIRECTION('',(0.,-1.,0.));
#1603=DIRECTION('',(0.,0.,-1.));
#1604=DIRECTION('',(0.,-1.,0.));
#1605=DIRECTION('',(0.,-1.,0.));
#1606=DIRECTION('',(0.,0.,-1.));
#1607=DIRECTION('',(0.,-1.,0.));
#1608=DIRECTION('',(0.,-1.,0.));
#1609=DIRECTION('',(0.,0.,-1.));
#1610=DIRECTION('',(0.,-1.,0.));
#1611=DIRECTION('',(0.,-1.,0.));
#1612=DIRECTION('',(0.,0.,-1.));
#1613=DIRECTION('',(0.,-1.,0.));
#1614=DIRECTION('',(0.,-1.,0.));
#1615=DIRECTION('',(0.,0.,-1.));
#1616=DIRECTION('',(0.,-1.,0.));
#1617=DIRECTION('',(0.,-1.,0.));
#1618=DIRECTION('',(0.,0.,-1.));
#1619=DIRECTION('',(0.,-1.,0.));
#1620=DIRECTION('',(0.,-1.,0.));
#1621=DIRECTION('',(0.,0.,-1.));
#1622=DIRECTION('',(0.,-1.,0.));
#1623=DIRECTION('',(0.,0.,-1.));
#1624=DIRECTION('',(0.,-1.,0.));
#1625=DIRECTION('',(0.,-1.,0.));
#1626=DIRECTION('',(0.,-1.,0.));
#1627=DIRECTION('',(0.,0.,-1.));
#1628=DIRECTION('',(0.,-1.,0.));
#1629=DIRECTION('',(0.,-1.,0.));
#1630=DIRECTION('',(0.,0.,-1.));
#1631=DIRECTION('',(0.,-1.,0.));
#1632=DIRECTION('',(0.,-1.,0.));
#1633=DIRECTION('',(0.,0.,-1.));
#1634=DIRECTION('',(0.,-1.,0.));
#1635=DIRECTION('',(0.,-1.,0.));
#1636=DIRECTION('',(0.,0.,-1.));
#1637=DIRECTION('',(0.,-1.,0.));
#1638=DIRECTION('',(0.,-1.,0.));
#1639=DIRECTION('',(0.,0.,-1.));
#1640=DIRECTION('',(0.,-1.,0.));
#1641=DIRECTION('',(0.,-1.,0.));
#1642=DIRECTION('',(0.,0.,-1.));
#1643=DIRECTION('',(0.,-1.,0.));
#1644=DIRECTION('',(0.,-1.,0.));
#1645=DIRECTION('',(0.,0.,-1.));
#1646=DIRECTION('',(0.,-1.,0.));
#1647=DIRECTION('',(0.,0.,-1.));
#1648=DIRECTION('',(0.,-1.,0.));
#1649=DIRECTION('',(0.,-1.,0.));
#1650=DIRECTION('',(0.,-1.,0.));
#1651=DIRECTION('',(0.,0.,-1.));
#1652=DIRECTION('',(0.,-1.,0.));
#1653=DIRECTION('',(0.,-1.,0.));
#1654=DIRECTION('',(0.,0.,-1.));
#1655=DIRECTION('',(0.,-1.,0.));
#1656=DIRECTION('',(0.,-1.,0.));
#1657=DIRECTION('',(0.,0.,-1.));
#1658=DIRECTION('',(0.,-1.,0.));
#1659=DIRECTION('',(0.,-1.,0.));
#1660=DIRECTION('',(0.,0.,-1.));
#1661=DIRECTION('',(0.,-1.,0.));
#1662=DIRECTION('',(0.,-1.,0.));
#1663=DIRECTION('',(0.,0.,-1.));
#1664=DIRECTION('',(0.,-1.,0.));
#1665=DIRECTION('',(0.,-1.,0.));
#1666=DIRECTION('',(0.,0.,-1.));
#1667=DIRECTION('',(0.,-1.,0.));
#1668=DIRECTION('',(0.,-1.,0.));
#1669=DIRECTION('',(0.,0.,-1.));
#1670=DIRECTION('',(0.,-1.,0.));
#1671=DIRECTION('',(0.,0.,-1.));
#1672=DIRECTION('',(0.,-1.,0.));
#1673=DIRECTION('',(0.,0.,-1.));
#1674=DIRECTION('',(0.,-1.,0.));
#1675=DIRECTION('',(0.,0.,-1.));
#1676=DIRECTION('',(0.,-1.,0.));
#1677=DIRECTION('',(0.,0.,-1.));
#1678=DIRECTION('',(0.,-1.,0.));
#1679=DIRECTION('',(0.,0.,-1.));
#1680=CARTESIAN_POINT('',(0.,0.,0.));
#1681=CARTESIAN_POINT('',(0.,-0.007,-0.026));
#1682=CARTESIAN_POINT('',(0.0112959099426814,-0.007,-0.0266343646954493));
#1683=CARTESIAN_POINT('',(0.0112959099426814,-0.007,-0.0286343646954493));
#1684=CARTESIAN_POINT('',(0.000634364695449285,-0.007,-0.0147040900573186));
#1685=CARTESIAN_POINT('',(0.000634364695449285,-0.007,-0.0167040900573186));
#1686=CARTESIAN_POINT('',(-0.0112959099426814,-0.007,-0.0253656353045508));
#1687=CARTESIAN_POINT('',(-0.0112959099426814,-0.007,-0.0273656353045508));
#1688=CARTESIAN_POINT('',(-0.00063436469544933,-0.007,-0.0372959099426814));
#1689=CARTESIAN_POINT('',(-0.00063436469544933,-0.007,-0.0392959099426814));
#1690=CARTESIAN_POINT('',(0.,-0.007,-0.026));
#1691=CARTESIAN_POINT('',(0.,-0.007,-0.0331));
#1692=CARTESIAN_POINT('',(-0.0195086613506358,-0.007,-0.0180840583436833));
#1693=CARTESIAN_POINT('',(-0.0208992378253231,-0.007,-0.0223638126670116));
#1694=CARTESIAN_POINT('',(-0.0190451358590733,-0.007,-0.0166574735692406));
#1695=CARTESIAN_POINT('',(-0.0218501700258694,-0.007,-0.0226727892687512));
#1696=CARTESIAN_POINT('',(-0.0228011022264158,-0.007,-0.0229817658704908));
#1697=CARTESIAN_POINT('',(0.,-0.007,-0.026));
#1698=CARTESIAN_POINT('',(-0.0166724056823595,-0.007,-0.0418439543284757));
#1699=CARTESIAN_POINT('',(-0.0157214734818132,-0.007,-0.0415349777267361));
#1700=CARTESIAN_POINT('',(-0.0147705412812668,-0.007,-0.0412260011249964));
#1701=CARTESIAN_POINT('',(-0.0135570157897044,-0.007,-0.0421076790034352));
#1702=CARTESIAN_POINT('',(-0.00991643931501709,-0.007,-0.0447527126387513));
#1703=CARTESIAN_POINT('',(-0.00991643931501709,-0.007,-0.0457525819254376));
#1704=CARTESIAN_POINT('',(-0.00991643931501709,-0.007,-0.0467524512121239));
#1705=CARTESIAN_POINT('',(0.,-0.007,-0.026));
#1706=CARTESIAN_POINT('',(0.00991643931501709,-0.007,-0.0467524512121239));
#1707=CARTESIAN_POINT('',(0.00991643931501709,-0.007,-0.0457525819254376));
#1708=CARTESIAN_POINT('',(0.00991643931501709,-0.007,-0.0447527126387514));
#1709=CARTESIAN_POINT('',(0.0111299648065795,-0.007,-0.0438710347603126));
#1710=CARTESIAN_POINT('',(0.0147705412812668,-0.007,-0.0412260011249964));
#1711=CARTESIAN_POINT('',(0.0157214734818132,-0.007,-0.0415349777267361));
#1712=CARTESIAN_POINT('',(0.0166724056823595,-0.007,-0.0418439543284757));
#1713=CARTESIAN_POINT('',(0.,-0.007,-0.026));
#1714=CARTESIAN_POINT('',(0.0228011022264158,-0.007,-0.0229817658704909));
#1715=CARTESIAN_POINT('',(0.0218501700258694,-0.007,-0.0226727892687512));
#1716=CARTESIAN_POINT('',(0.0208992378253231,-0.007,-0.0223638126670116));
#1717=CARTESIAN_POINT('',(0.0195086613506358,-0.007,-0.0180840583436834));
#1718=CARTESIAN_POINT('',(0.0190451358590734,-0.007,-0.0166574735692407));
#1719=CARTESIAN_POINT('',(0.0196328442800078,-0.007,-0.0158485623241579));
#1720=CARTESIAN_POINT('',(0.0202205527009422,-0.007,-0.0150396510790751));
#1721=CARTESIAN_POINT('',(0.,-0.007,-0.026));
#1722=CARTESIAN_POINT('',(0.00417541684186881,-0.007,-0.00338217750983445));
#1723=CARTESIAN_POINT('',(0.00358770842093441,-0.007,-0.00419108875491723));
#1724=CARTESIAN_POINT('',(0.003,-0.007,-0.005));
#1725=CARTESIAN_POINT('',(-0.0015,-0.007,-0.005));
#1726=CARTESIAN_POINT('',(-0.003,-0.007,-0.005));
#1727=CARTESIAN_POINT('',(-0.0035877084209344,-0.007,-0.00419108875491723));
#1728=CARTESIAN_POINT('',(-0.0041754168418688,-0.007,-0.00338217750983445));
#1729=CARTESIAN_POINT('',(0.,-0.007,-0.026));
#1730=CARTESIAN_POINT('',(-0.0202205527009422,-0.007,-0.015039651079075));
#1731=CARTESIAN_POINT('',(-0.0196328442800077,-0.007,-0.0158485623241578));
#1732=CARTESIAN_POINT('',(-0.00493074443758627,-0.007,-0.0124614219281911));
#1733=CARTESIAN_POINT('',(-0.00307570805990776,-0.007,-0.0132089779712336));
#1734=CARTESIAN_POINT('',(-0.00561516528910466,-0.007,-0.0105821752445419));
#1735=CARTESIAN_POINT('',(0.000634364695449303,-0.007,-0.0147040900573186));
#1736=CARTESIAN_POINT('',(-0.00334881020445208,-0.007,-0.0150705838728126));
#1737=CARTESIAN_POINT('',(-0.00534039765440285,-0.007,-0.0152538307805596));
#1738=CARTESIAN_POINT('',(-0.00445033137866901,-0.007,-0.0170448589837997));
#1739=CARTESIAN_POINT('',(1.82145964977565E-17,-0.007,-0.026));
#1740=CARTESIAN_POINT('',(-0.00840055394781534,-0.007,-0.0205749936986354));
#1741=CARTESIAN_POINT('',(-0.0100806647373783,-0.007,-0.0194899924383625));
#1742=CARTESIAN_POINT('',(-0.0104857464724793,-0.007,-0.0214485400604253));
#1743=CARTESIAN_POINT('',(-0.0112959099426814,-0.007,-0.0253656353045508));
#1744=CARTESIAN_POINT('',(-0.0123662247254243,-0.007,-0.0215114912665259));
#1745=CARTESIAN_POINT('',(-0.0129013821167957,-0.007,-0.0195844192475136));
#1746=CARTESIAN_POINT('',(-0.0146921816696649,-0.007,-0.0186938930202505));
#1747=CARTESIAN_POINT('',(-5.20417042793042E-18,-0.007,-0.026));
#1748=CARTESIAN_POINT('',(0.00493074443758626,-0.007,-0.0395385780718089));
#1749=CARTESIAN_POINT('',(0.00307570805990776,-0.007,-0.0387910220287664));
#1750=CARTESIAN_POINT('',(0.00561516528910466,-0.007,-0.0414178247554581));
#1751=CARTESIAN_POINT('',(-0.00063436469544933,-0.007,-0.0372959099426814));
#1752=CARTESIAN_POINT('',(0.00334881020445208,-0.007,-0.0369294161271874));
#1753=CARTESIAN_POINT('',(0.00534039765440285,-0.007,-0.0367461692194404));
#1754=CARTESIAN_POINT('',(0.00445033137866901,-0.007,-0.0349551410162003));
#1755=CARTESIAN_POINT('',(7.80625564189563E-18,-0.007,-0.026));
#1756=CARTESIAN_POINT('',(0.00840055394781534,-0.007,-0.0314250063013646));
#1757=CARTESIAN_POINT('',(0.0100806647373783,-0.007,-0.0325100075616375));
#1758=CARTESIAN_POINT('',(0.0104857464724793,-0.007,-0.0305514599395748));
#1759=CARTESIAN_POINT('',(0.0112959099426814,-0.007,-0.0266343646954494));
#1760=CARTESIAN_POINT('',(0.0123662247254243,-0.007,-0.0304885087334741));
#1761=CARTESIAN_POINT('',(0.0129013821167957,-0.007,-0.0324155807524865));
#1762=CARTESIAN_POINT('',(0.0146921816696649,-0.007,-0.0333061069797495));
#1763=CARTESIAN_POINT('',(3.25260651745651E-17,-0.007,-0.026));
#1764=CARTESIAN_POINT('',(-0.0135385780718089,-0.007,-0.0309307444375863));
#1765=CARTESIAN_POINT('',(-0.0127910220287664,-0.007,-0.0290757080599077));
#1766=CARTESIAN_POINT('',(-0.0154178247554581,-0.007,-0.0316151652891047));
#1767=CARTESIAN_POINT('',(-0.0112959099426814,-0.007,-0.0253656353045507));
#1768=CARTESIAN_POINT('',(-0.0109294161271874,-0.007,-0.0293488102044521));
#1769=CARTESIAN_POINT('',(-0.0107461692194404,-0.007,-0.0313403976544029));
#1770=CARTESIAN_POINT('',(-0.00895514101620028,-0.007,-0.030450331378669));
#1771=CARTESIAN_POINT('',(-1.0842021724855E-17,-0.007,-0.026));
#1772=CARTESIAN_POINT('',(-0.00542500630136461,-0.007,-0.0344005539478153));
#1773=CARTESIAN_POINT('',(-0.00651000756163749,-0.007,-0.0360806647373783));
#1774=CARTESIAN_POINT('',(-0.00455145993957477,-0.007,-0.0364857464724793));
#1775=CARTESIAN_POINT('',(-0.000634364695449275,-0.007,-0.0372959099426814));
#1776=CARTESIAN_POINT('',(-0.00448850873347409,-0.007,-0.0383662247254243));
#1777=CARTESIAN_POINT('',(-0.00641558075248647,-0.007,-0.0389013821167957));
#1778=CARTESIAN_POINT('',(-0.00730610697974953,-0.007,-0.0406921816696649));
#1779=CARTESIAN_POINT('',(-2.60208521396521E-17,-0.007,-0.026));
#1780=CARTESIAN_POINT('',(0.0135385780718089,-0.007,-0.0210692555624137));
#1781=CARTESIAN_POINT('',(0.0127910220287664,-0.007,-0.0229242919400922));
#1782=CARTESIAN_POINT('',(0.0154178247554581,-0.007,-0.0203848347108954));
#1783=CARTESIAN_POINT('',(0.0112959099426814,-0.007,-0.0266343646954493));
#1784=CARTESIAN_POINT('',(0.0109294161271874,-0.007,-0.0226511897955479));
#1785=CARTESIAN_POINT('',(0.0107461692194404,-0.007,-0.0206596023455972));
#1786=CARTESIAN_POINT('',(0.00895514101620028,-0.007,-0.021549668621331));
#1787=CARTESIAN_POINT('',(-1.7347234759768E-17,-0.007,-0.026));
#1788=CARTESIAN_POINT('',(0.00542500630136461,-0.007,-0.0175994460521846));
#1789=CARTESIAN_POINT('',(0.00651000756163749,-0.007,-0.0159193352626217));
#1790=CARTESIAN_POINT('',(0.00455145993957478,-0.007,-0.0155142535275207));
#1791=CARTESIAN_POINT('',(0.000634364695449285,-0.007,-0.0147040900573186));
#1792=CARTESIAN_POINT('',(0.00448850873347409,-0.007,-0.0136337752745757));
#1793=CARTESIAN_POINT('',(0.00641558075248647,-0.007,-0.0130986178832043));
#1794=CARTESIAN_POINT('',(0.00730610697974953,-0.007,-0.0113078183303351));
#1795=CARTESIAN_POINT('',(3.46944695195361E-18,-0.007,-0.026));
#1796=CARTESIAN_POINT('',(0.,0.007,-0.026));
#1797=CARTESIAN_POINT('',(0.0112959099426814,0.007,-0.0266343646954493));
#1798=CARTESIAN_POINT('',(0.0112959099426814,0.007,-0.0286343646954493));
#1799=CARTESIAN_POINT('',(0.000634364695449285,0.007,-0.0147040900573186));
#1800=CARTESIAN_POINT('',(0.000634364695449285,0.007,-0.0167040900573186));
#1801=CARTESIAN_POINT('',(-0.0112959099426814,0.007,-0.0253656353045508));
#1802=CARTESIAN_POINT('',(-0.0112959099426814,0.007,-0.0273656353045508));
#1803=CARTESIAN_POINT('',(-0.00063436469544933,0.007,-0.0372959099426814));
#1804=CARTESIAN_POINT('',(-0.00063436469544933,0.007,-0.0392959099426814));
#1805=CARTESIAN_POINT('',(0.,0.007,-0.026));
#1806=CARTESIAN_POINT('',(0.,0.007,-0.0331));
#1807=CARTESIAN_POINT('',(-0.0112959099426814,0.007,-0.0253656353045507));
#1808=CARTESIAN_POINT('',(-0.0127910220287664,0.007,-0.0290757080599077));
#1809=CARTESIAN_POINT('',(-0.0109294161271874,0.007,-0.0293488102044521));
#1810=CARTESIAN_POINT('',(-0.0135385780718089,0.007,-0.0309307444375863));
#1811=CARTESIAN_POINT('',(-0.0154178247554581,0.007,-0.0316151652891047));
#1812=CARTESIAN_POINT('',(-2.60208521396521E-17,0.007,-0.026));
#1813=CARTESIAN_POINT('',(-0.00730610697974953,0.007,-0.0406921816696649));
#1814=CARTESIAN_POINT('',(-0.00641558075248647,0.007,-0.0389013821167957));
#1815=CARTESIAN_POINT('',(-0.00448850873347409,0.007,-0.0383662247254243));
#1816=CARTESIAN_POINT('',(-0.000634364695449275,0.007,-0.0372959099426814));
#1817=CARTESIAN_POINT('',(-0.00455145993957477,0.007,-0.0364857464724793));
#1818=CARTESIAN_POINT('',(-0.00651000756163749,0.007,-0.0360806647373783));
#1819=CARTESIAN_POINT('',(-0.00542500630136461,0.007,-0.0344005539478153));
#1820=CARTESIAN_POINT('',(-1.0842021724855E-17,0.007,-0.026));
#1821=CARTESIAN_POINT('',(-0.00895514101620032,0.007,-0.0304503313786691));
#1822=CARTESIAN_POINT('',(-0.0107461692194404,0.007,-0.0313403976544029));
#1823=CARTESIAN_POINT('',(0.000634364695449303,0.007,-0.0147040900573186));
#1824=CARTESIAN_POINT('',(-0.00307570805990776,0.007,-0.0132089779712336));
#1825=CARTESIAN_POINT('',(-0.00334881020445208,0.007,-0.0150705838728126));
#1826=CARTESIAN_POINT('',(-0.00493074443758627,0.007,-0.0124614219281911));
#1827=CARTESIAN_POINT('',(-0.00561516528910466,0.007,-0.0105821752445419));
#1828=CARTESIAN_POINT('',(-5.20417042793042E-18,0.007,-0.026));
#1829=CARTESIAN_POINT('',(-0.0146921816696649,0.007,-0.0186938930202505));
#1830=CARTESIAN_POINT('',(-0.0129013821167957,0.007,-0.0195844192475136));
#1831=CARTESIAN_POINT('',(-0.0123662247254243,0.007,-0.0215114912665259));
#1832=CARTESIAN_POINT('',(-0.0112959099426814,0.007,-0.0253656353045508));
#1833=CARTESIAN_POINT('',(-0.0104857464724793,0.007,-0.0214485400604253));
#1834=CARTESIAN_POINT('',(-0.0100806647373783,0.007,-0.0194899924383625));
#1835=CARTESIAN_POINT('',(-0.00840055394781534,0.007,-0.0205749936986354));
#1836=CARTESIAN_POINT('',(1.82145964977565E-17,0.007,-0.026));
#1837=CARTESIAN_POINT('',(-0.00445033137866903,0.007,-0.0170448589837997));
#1838=CARTESIAN_POINT('',(-0.00534039765440285,0.007,-0.0152538307805596));
#1839=CARTESIAN_POINT('',(-0.00306434827202815,0.007,-0.0165689057710076));
#1840=CARTESIAN_POINT('',(-0.0208992378253231,0.007,-0.0223638126670116));
#1841=CARTESIAN_POINT('',(-0.0228011022264158,0.007,-0.0229817658704908));
#1842=CARTESIAN_POINT('',(-0.0199721868421982,0.007,-0.0195106431181261));
#1843=CARTESIAN_POINT('',(-0.0190451358590733,0.007,-0.0166574735692406));
#1844=CARTESIAN_POINT('',(-0.00802256792953669,0.007,-0.0318287367846203));
#1845=CARTESIAN_POINT('',(-0.0202205527009422,0.007,-0.015039651079075));
#1846=CARTESIAN_POINT('',(0.,0.007,-0.026));
#1847=CARTESIAN_POINT('',(-0.0041754168418688,0.007,-0.00338217750983445));
#1848=CARTESIAN_POINT('',(0.00802256792953669,0.007,-0.0201712632153797));
#1849=CARTESIAN_POINT('',(-0.003,0.007,-0.005));
#1850=CARTESIAN_POINT('',(2.42861286636752E-17,0.007,-0.005));
#1851=CARTESIAN_POINT('',(0.003,0.007,-0.005));
#1852=CARTESIAN_POINT('',(-0.00802256792953669,0.007,-0.0201712632153797));
#1853=CARTESIAN_POINT('',(0.00417541684186881,0.007,-0.00338217750983445));
#1854=CARTESIAN_POINT('',(0.,0.007,-0.026));
#1855=CARTESIAN_POINT('',(0.0202205527009422,0.007,-0.0150396510790751));
#1856=CARTESIAN_POINT('',(0.0080225679295367,0.007,-0.0318287367846204));
#1857=CARTESIAN_POINT('',(0.0190451358590734,0.007,-0.0166574735692407));
#1858=CARTESIAN_POINT('',(0.0199721868421982,0.007,-0.0195106431181261));
#1859=CARTESIAN_POINT('',(0.0208992378253231,0.007,-0.0223638126670116));
#1860=CARTESIAN_POINT('',(0.00306434827202816,0.007,-0.0165689057710076));
#1861=CARTESIAN_POINT('',(0.0228011022264158,0.007,-0.0229817658704909));
#1862=CARTESIAN_POINT('',(0.,0.007,-0.026));
#1863=CARTESIAN_POINT('',(0.0166724056823595,0.007,-0.0418439543284757));
#1864=CARTESIAN_POINT('',(-0.00306434827202815,0.007,-0.0354310942289924));
#1865=CARTESIAN_POINT('',(0.0147705412812668,0.007,-0.0412260011249964));
#1866=CARTESIAN_POINT('',(0.0123434902981419,0.007,-0.0429893568818739));
#1867=CARTESIAN_POINT('',(0.00991643931501709,0.007,-0.0447527126387514));
#1868=CARTESIAN_POINT('',(0.00991643931501709,0.007,-0.026));
#1869=CARTESIAN_POINT('',(0.00991643931501709,0.007,-0.0467524512121239));
#1870=CARTESIAN_POINT('',(0.,0.007,-0.026));
#1871=CARTESIAN_POINT('',(-0.00991643931501709,0.007,-0.0467524512121239));
#1872=CARTESIAN_POINT('',(-0.00991643931501709,0.007,-0.026));
#1873=CARTESIAN_POINT('',(-0.00991643931501709,0.007,-0.0447527126387513));
#1874=CARTESIAN_POINT('',(-0.0123434902981419,0.007,-0.0429893568818739));
#1875=CARTESIAN_POINT('',(-0.0147705412812668,0.007,-0.0412260011249964));
#1876=CARTESIAN_POINT('',(0.00306434827202814,0.007,-0.0354310942289924));
#1877=CARTESIAN_POINT('',(-0.0166724056823595,0.007,-0.0418439543284757));
#1878=CARTESIAN_POINT('',(0.,0.007,-0.026));
#1879=CARTESIAN_POINT('',(-0.00063436469544933,0.007,-0.0372959099426814));
#1880=CARTESIAN_POINT('',(0.00307570805990776,0.007,-0.0387910220287664));
#1881=CARTESIAN_POINT('',(0.00334881020445208,0.007,-0.0369294161271874));
#1882=CARTESIAN_POINT('',(0.00493074443758626,0.007,-0.0395385780718089));
#1883=CARTESIAN_POINT('',(0.00561516528910466,0.007,-0.0414178247554581));
#1884=CARTESIAN_POINT('',(3.25260651745651E-17,0.007,-0.026));
#1885=CARTESIAN_POINT('',(0.0146921816696649,0.007,-0.0333061069797495));
#1886=CARTESIAN_POINT('',(0.0129013821167957,0.007,-0.0324155807524865));
#1887=CARTESIAN_POINT('',(0.0123662247254243,0.007,-0.0304885087334741));
#1888=CARTESIAN_POINT('',(0.0112959099426814,0.007,-0.0266343646954494));
#1889=CARTESIAN_POINT('',(0.0104857464724793,0.007,-0.0305514599395748));
#1890=CARTESIAN_POINT('',(0.0100806647373783,0.007,-0.0325100075616375));
#1891=CARTESIAN_POINT('',(0.00840055394781534,0.007,-0.0314250063013646));
#1892=CARTESIAN_POINT('',(7.80625564189563E-18,0.007,-0.026));
#1893=CARTESIAN_POINT('',(0.00445033137866903,0.007,-0.0349551410162003));
#1894=CARTESIAN_POINT('',(0.00534039765440285,0.007,-0.0367461692194404));
#1895=CARTESIAN_POINT('',(0.0112959099426814,0.007,-0.0266343646954493));
#1896=CARTESIAN_POINT('',(0.0127910220287664,0.007,-0.0229242919400922));
#1897=CARTESIAN_POINT('',(0.0109294161271874,0.007,-0.0226511897955479));
#1898=CARTESIAN_POINT('',(0.0135385780718089,0.007,-0.0210692555624137));
#1899=CARTESIAN_POINT('',(0.0154178247554581,0.007,-0.0203848347108954));
#1900=CARTESIAN_POINT('',(3.46944695195361E-18,0.007,-0.026));
#1901=CARTESIAN_POINT('',(0.00730610697974953,0.007,-0.0113078183303351));
#1902=CARTESIAN_POINT('',(0.00641558075248647,0.007,-0.0130986178832043));
#1903=CARTESIAN_POINT('',(0.00448850873347409,0.007,-0.0136337752745757));
#1904=CARTESIAN_POINT('',(0.000634364695449285,0.007,-0.0147040900573186));
#1905=CARTESIAN_POINT('',(0.00455145993957478,0.007,-0.0155142535275207));
#1906=CARTESIAN_POINT('',(0.00651000756163749,0.007,-0.0159193352626217));
#1907=CARTESIAN_POINT('',(0.00542500630136461,0.007,-0.0175994460521846));
#1908=CARTESIAN_POINT('',(-1.7347234759768E-17,0.007,-0.026));
#1909=CARTESIAN_POINT('',(0.00895514101620032,0.007,-0.0215496686213309));
#1910=CARTESIAN_POINT('',(0.0107461692194404,0.007,-0.0206596023455972));
#1911=CARTESIAN_POINT('',(0.,-0.007,-0.026));
#1912=CARTESIAN_POINT('',(-0.0228011022264158,0.018,-0.0229817658704908));
#1913=CARTESIAN_POINT('',(-0.0166724056823595,0.018,-0.0418439543284757));
#1914=CARTESIAN_POINT('',(0.,-0.007,-0.026));
#1915=CARTESIAN_POINT('',(-0.00991643931501709,0.018,-0.0467524512121239));
#1916=CARTESIAN_POINT('',(0.00991643931501709,0.018,-0.0467524512121239));
#1917=CARTESIAN_POINT('',(0.,-0.007,-0.026));
#1918=CARTESIAN_POINT('',(0.0166724056823595,0.018,-0.0418439543284757));
#1919=CARTESIAN_POINT('',(0.0228011022264158,0.018,-0.0229817658704909));
#1920=CARTESIAN_POINT('',(0.,-0.007,-0.026));
#1921=CARTESIAN_POINT('',(0.0202205527009422,0.018,-0.0150396510790751));
#1922=CARTESIAN_POINT('',(0.00417541684186881,0.018,-0.00338217750983445));
#1923=CARTESIAN_POINT('',(0.,-0.007,-0.026));
#1924=CARTESIAN_POINT('',(-0.0202205527009422,0.018,-0.015039651079075));
#1925=CARTESIAN_POINT('',(-0.0041754168418688,0.018,-0.00338217750983445));
#1926=CARTESIAN_POINT('',(-0.0015,0.018,-0.005));
#1927=CARTESIAN_POINT('',(-0.003,0.018,-0.005));
#1928=CARTESIAN_POINT('',(0.003,0.018,-0.005));
#1929=CARTESIAN_POINT('',(0.00358770842093441,0.018,-0.00419108875491723));
#1930=CARTESIAN_POINT('',(-0.0035877084209344,0.018,-0.00419108875491723));
#1931=CARTESIAN_POINT('',(0.0195086613506358,0.018,-0.0180840583436834));
#1932=CARTESIAN_POINT('',(0.0190451358590734,0.018,-0.0166574735692407));
#1933=CARTESIAN_POINT('',(0.0208992378253231,0.018,-0.0223638126670116));
#1934=CARTESIAN_POINT('',(0.0218501700258694,0.018,-0.0226727892687512));
#1935=CARTESIAN_POINT('',(0.0196328442800078,0.018,-0.0158485623241579));
#1936=CARTESIAN_POINT('',(0.0157214734818132,0.018,-0.0415349777267361));
#1937=CARTESIAN_POINT('',(0.0147705412812668,0.018,-0.0412260011249964));
#1938=CARTESIAN_POINT('',(0.0111299648065795,0.018,-0.0438710347603126));
#1939=CARTESIAN_POINT('',(0.00991643931501709,0.018,-0.0447527126387514));
#1940=CARTESIAN_POINT('',(0.00991643931501709,0.018,-0.0457525819254376));
#1941=CARTESIAN_POINT('',(-0.00991643931501709,0.018,-0.0457525819254376));
#1942=CARTESIAN_POINT('',(-0.00991643931501709,0.018,-0.0447527126387513));
#1943=CARTESIAN_POINT('',(-0.0135570157897044,0.018,-0.0421076790034352));
#1944=CARTESIAN_POINT('',(-0.0147705412812668,0.018,-0.0412260011249964));
#1945=CARTESIAN_POINT('',(-0.0157214734818132,0.018,-0.0415349777267361));
#1946=CARTESIAN_POINT('',(-0.0218501700258694,0.018,-0.0226727892687512));
#1947=CARTESIAN_POINT('',(-0.0208992378253231,0.018,-0.0223638126670116));
#1948=CARTESIAN_POINT('',(-0.0195086613506358,0.018,-0.0180840583436833));
#1949=CARTESIAN_POINT('',(-0.0190451358590733,0.018,-0.0166574735692406));
#1950=CARTESIAN_POINT('',(-0.0196328442800077,0.018,-0.0158485623241578));
#1951=CARTESIAN_POINT('',(0.000634364695449303,0.018,-0.0147040900573186));
#1952=CARTESIAN_POINT('',(-0.00334881020445208,0.018,-0.0150705838728126));
#1953=CARTESIAN_POINT('',(-0.00307570805990776,0.018,-0.0132089779712336));
#1954=CARTESIAN_POINT('',(-0.00493074443758627,0.018,-0.0124614219281911));
#1955=CARTESIAN_POINT('',(-0.00561516528910466,0.018,-0.0105821752445419));
#1956=CARTESIAN_POINT('',(-5.20417042793042E-18,0.018,-0.026));
#1957=CARTESIAN_POINT('',(-0.0146921816696649,0.018,-0.0186938930202505));
#1958=CARTESIAN_POINT('',(-0.0129013821167957,0.018,-0.0195844192475136));
#1959=CARTESIAN_POINT('',(-0.0123662247254243,0.018,-0.0215114912665259));
#1960=CARTESIAN_POINT('',(-0.0112959099426814,0.018,-0.0253656353045508));
#1961=CARTESIAN_POINT('',(-0.0104857464724793,0.018,-0.0214485400604253));
#1962=CARTESIAN_POINT('',(-0.0100806647373783,0.018,-0.0194899924383625));
#1963=CARTESIAN_POINT('',(-0.00840055394781534,0.018,-0.0205749936986354));
#1964=CARTESIAN_POINT('',(1.82145964977565E-17,0.018,-0.026));
#1965=CARTESIAN_POINT('',(-0.00445033137866903,0.018,-0.0170448589837997));
#1966=CARTESIAN_POINT('',(-0.00534039765440285,0.018,-0.0152538307805596));
#1967=CARTESIAN_POINT('',(-0.00063436469544933,0.018,-0.0372959099426814));
#1968=CARTESIAN_POINT('',(0.00334881020445208,0.018,-0.0369294161271874));
#1969=CARTESIAN_POINT('',(0.00307570805990776,0.018,-0.0387910220287664));
#1970=CARTESIAN_POINT('',(0.00493074443758626,0.018,-0.0395385780718089));
#1971=CARTESIAN_POINT('',(0.00561516528910466,0.018,-0.0414178247554581));
#1972=CARTESIAN_POINT('',(3.25260651745651E-17,0.018,-0.026));
#1973=CARTESIAN_POINT('',(0.0146921816696649,0.018,-0.0333061069797495));
#1974=CARTESIAN_POINT('',(0.0129013821167957,0.018,-0.0324155807524865));
#1975=CARTESIAN_POINT('',(0.0123662247254243,0.018,-0.0304885087334741));
#1976=CARTESIAN_POINT('',(0.0112959099426814,0.018,-0.0266343646954494));
#1977=CARTESIAN_POINT('',(0.0104857464724793,0.018,-0.0305514599395748));
#1978=CARTESIAN_POINT('',(0.0100806647373783,0.018,-0.0325100075616375));
#1979=CARTESIAN_POINT('',(0.00840055394781534,0.018,-0.0314250063013646));
#1980=CARTESIAN_POINT('',(7.80625564189563E-18,0.018,-0.026));
#1981=CARTESIAN_POINT('',(0.00445033137866903,0.018,-0.0349551410162003));
#1982=CARTESIAN_POINT('',(0.00534039765440285,0.018,-0.0367461692194404));
#1983=CARTESIAN_POINT('',(-0.0112959099426814,0.018,-0.0253656353045507));
#1984=CARTESIAN_POINT('',(-0.0109294161271874,0.018,-0.0293488102044521));
#1985=CARTESIAN_POINT('',(-0.0127910220287664,0.018,-0.0290757080599077));
#1986=CARTESIAN_POINT('',(-0.0135385780718089,0.018,-0.0309307444375863));
#1987=CARTESIAN_POINT('',(-0.0154178247554581,0.018,-0.0316151652891047));
#1988=CARTESIAN_POINT('',(-2.60208521396521E-17,0.018,-0.026));
#1989=CARTESIAN_POINT('',(-0.00730610697974953,0.018,-0.0406921816696649));
#1990=CARTESIAN_POINT('',(-0.00641558075248647,0.018,-0.0389013821167957));
#1991=CARTESIAN_POINT('',(-0.00448850873347409,0.018,-0.0383662247254243));
#1992=CARTESIAN_POINT('',(-0.000634364695449275,0.018,-0.0372959099426814));
#1993=CARTESIAN_POINT('',(-0.00455145993957477,0.018,-0.0364857464724793));
#1994=CARTESIAN_POINT('',(-0.00651000756163749,0.018,-0.0360806647373783));
#1995=CARTESIAN_POINT('',(-0.00542500630136461,0.018,-0.0344005539478153));
#1996=CARTESIAN_POINT('',(-1.0842021724855E-17,0.018,-0.026));
#1997=CARTESIAN_POINT('',(-0.00895514101620032,0.018,-0.0304503313786691));
#1998=CARTESIAN_POINT('',(-0.0107461692194404,0.018,-0.0313403976544029));
#1999=CARTESIAN_POINT('',(0.0112959099426814,0.018,-0.0266343646954493));
#2000=CARTESIAN_POINT('',(0.0109294161271874,0.018,-0.0226511897955479));
#2001=CARTESIAN_POINT('',(0.0127910220287664,0.018,-0.0229242919400922));
#2002=CARTESIAN_POINT('',(0.0135385780718089,0.018,-0.0210692555624137));
#2003=CARTESIAN_POINT('',(0.0154178247554581,0.018,-0.0203848347108954));
#2004=CARTESIAN_POINT('',(3.46944695195361E-18,0.018,-0.026));
#2005=CARTESIAN_POINT('',(0.00730610697974953,0.018,-0.0113078183303351));
#2006=CARTESIAN_POINT('',(0.00641558075248647,0.018,-0.0130986178832043));
#2007=CARTESIAN_POINT('',(0.00448850873347409,0.018,-0.0136337752745757));
#2008=CARTESIAN_POINT('',(0.000634364695449285,0.018,-0.0147040900573186));
#2009=CARTESIAN_POINT('',(0.00455145993957478,0.018,-0.0155142535275207));
#2010=CARTESIAN_POINT('',(0.00651000756163749,0.018,-0.0159193352626217));
#2011=CARTESIAN_POINT('',(0.00542500630136461,0.018,-0.0175994460521846));
#2012=CARTESIAN_POINT('',(-1.7347234759768E-17,0.018,-0.026));
#2013=CARTESIAN_POINT('',(0.00895514101620032,0.018,-0.0215496686213309));
#2014=CARTESIAN_POINT('',(0.0107461692194404,0.018,-0.0206596023455972));
#2015=CARTESIAN_POINT('',(0.,0.018,-0.026));
#2016=CARTESIAN_POINT('',(-0.00063436469544933,0.018,-0.0372959099426814));
#2017=CARTESIAN_POINT('',(-0.0112959099426814,0.018,-0.0253656353045508));
#2018=CARTESIAN_POINT('',(0.000634364695449285,0.018,-0.0147040900573186));
#2019=CARTESIAN_POINT('',(0.0112959099426814,0.018,-0.0266343646954493));
#2020=MECHANICAL_DESIGN_GEOMETRIC_PRESENTATION_REPRESENTATION('',(#1155),
#2021);
#2021=(
GEOMETRIC_REPRESENTATION_CONTEXT(3)
GLOBAL_UNCERTAINTY_ASSIGNED_CONTEXT((#2022))
GLOBAL_UNIT_ASSIGNED_CONTEXT((#2025,#2024,#2023))
REPRESENTATION_CONTEXT('Wheel','TOP_LEVEL_ASSEMBLY_PART')
);
#2022=UNCERTAINTY_MEASURE_WITH_UNIT(LENGTH_MEASURE(1.E-8),#2025,
'DISTANCE_ACCURACY_VALUE','Maximum Tolerance applied to model');
#2023=(
NAMED_UNIT(*)
SI_UNIT($,.STERADIAN.)
SOLID_ANGLE_UNIT()
);
#2024=(
NAMED_UNIT(*)
PLANE_ANGLE_UNIT()
SI_UNIT($,.RADIAN.)
);
#2025=(
LENGTH_UNIT()
NAMED_UNIT(*)
SI_UNIT($,.METRE.)
);
#2026=PRODUCT_DEFINITION_SHAPE('','',#2027);
#2027=PRODUCT_DEFINITION('','',#2029,#2028);
#2028=PRODUCT_DEFINITION_CONTEXT('',#2035,'design');
#2029=PRODUCT_DEFINITION_FORMATION_WITH_SPECIFIED_SOURCE('','',#2031,
 .NOT_KNOWN.);
#2030=PRODUCT_RELATED_PRODUCT_CATEGORY('','',(#2031));
#2031=PRODUCT('Wheel','Wheel','Wheel',(#2033));
#2032=PRODUCT_CATEGORY('','');
#2033=PRODUCT_CONTEXT('',#2035,'mechanical');
#2034=APPLICATION_PROTOCOL_DEFINITION('international standard',
'ap242_managed_model_based_3d_engineering',2020,#2035);
#2035=APPLICATION_CONTEXT('managed model based 3d engineering');
ENDSEC;
END-ISO-10303-21;
