ISO-10303-21;
HEADER;
/* Generated by software containing ST-Developer
 * from STEP Tools, Inc. (www.steptools.com) 
 */
/* OPTION: using custom renumber hook */

FILE_DESCRIPTION(
/* description */ ('STEP AP242 Edition 2',
'CAx-IF Rec.Pracs.---Representation and Presentation of Product Manufa
cturing Information (PMI)---4.0---2014-10-13',
'CAx-IF Rec.Pracs.---3D Tessellated Geometry---0.4---2014-09-14','2;1',
'CAx-IF Rec.Pracs.---User Defined Attributes---1.5---2016-08-15'),
/* implementation_level */ '2;1');

FILE_NAME(
/* name */ 'Assembly 1 - (POD) (AXLE) Drive Input gear 1',
/* time_stamp */ '2026-08-06T04:32:38Z',
/* author */ (''),
/* organization */ (''),
/* preprocessor_version */ 'ST-DEVELOPER v20',
/* originating_system */ 'ONSHAPE BY PTC INC, 1.218',
/* authorisation */ '  ');

FILE_SCHEMA (('AP242_MANAGED_MODEL_BASED_3D_ENGINEERING_MIM_LF { 1 0 10303 442 3 1 4 }'));
ENDSEC;

DATA;
#10=SHAPE_REPRESENTATION_RELATIONSHIP('','',#179,#11);
#11=ADVANCED_BREP_SHAPE_REPRESENTATION('',(#177),#283);
#12=LINE('',#245,#30);
#13=LINE('',#248,#31);
#14=LINE('',#250,#32);
#15=LINE('',#252,#33);
#16=LINE('',#254,#34);
#17=LINE('',#256,#35);
#18=LINE('',#258,#36);
#19=LINE('',#260,#37);
#20=LINE('',#262,#38);
#21=LINE('',#264,#39);
#22=LINE('',#266,#40);
#23=LINE('',#268,#41);
#24=LINE('',#270,#42);
#25=LINE('',#272,#43);
#26=LINE('',#274,#44);
#27=LINE('',#276,#45);
#28=LINE('',#278,#46);
#29=LINE('',#280,#47);
#30=VECTOR('',#205,1.);
#31=VECTOR('',#206,1.);
#32=VECTOR('',#207,1.);
#33=VECTOR('',#208,1.);
#34=VECTOR('',#209,1.);
#35=VECTOR('',#210,1.);
#36=VECTOR('',#213,1.);
#37=VECTOR('',#214,1.);
#38=VECTOR('',#215,1.);
#39=VECTOR('',#218,1.);
#40=VECTOR('',#219,1.);
#41=VECTOR('',#222,1.);
#42=VECTOR('',#223,1.);
#43=VECTOR('',#226,1.);
#44=VECTOR('',#227,1.);
#45=VECTOR('',#230,1.);
#46=VECTOR('',#231,1.);
#47=VECTOR('',#234,1.);
#48=CYLINDRICAL_SURFACE('',#183,0.00205);
#49=ORIENTED_EDGE('',*,*,#89,.T.);
#50=ORIENTED_EDGE('',*,*,#89,.F.);
#51=ORIENTED_EDGE('',*,*,#90,.T.);
#52=ORIENTED_EDGE('',*,*,#90,.F.);
#53=ORIENTED_EDGE('',*,*,#91,.T.);
#54=ORIENTED_EDGE('',*,*,#92,.T.);
#55=ORIENTED_EDGE('',*,*,#93,.T.);
#56=ORIENTED_EDGE('',*,*,#94,.T.);
#57=ORIENTED_EDGE('',*,*,#95,.T.);
#58=ORIENTED_EDGE('',*,*,#96,.T.);
#59=ORIENTED_EDGE('',*,*,#96,.F.);
#60=ORIENTED_EDGE('',*,*,#97,.T.);
#61=ORIENTED_EDGE('',*,*,#98,.F.);
#62=ORIENTED_EDGE('',*,*,#99,.F.);
#63=ORIENTED_EDGE('',*,*,#95,.F.);
#64=ORIENTED_EDGE('',*,*,#100,.T.);
#65=ORIENTED_EDGE('',*,*,#101,.F.);
#66=ORIENTED_EDGE('',*,*,#97,.F.);
#67=ORIENTED_EDGE('',*,*,#94,.F.);
#68=ORIENTED_EDGE('',*,*,#102,.T.);
#69=ORIENTED_EDGE('',*,*,#103,.F.);
#70=ORIENTED_EDGE('',*,*,#100,.F.);
#71=ORIENTED_EDGE('',*,*,#93,.F.);
#72=ORIENTED_EDGE('',*,*,#104,.T.);
#73=ORIENTED_EDGE('',*,*,#105,.F.);
#74=ORIENTED_EDGE('',*,*,#102,.F.);
#75=ORIENTED_EDGE('',*,*,#92,.F.);
#76=ORIENTED_EDGE('',*,*,#106,.T.);
#77=ORIENTED_EDGE('',*,*,#107,.F.);
#78=ORIENTED_EDGE('',*,*,#104,.F.);
#79=ORIENTED_EDGE('',*,*,#91,.F.);
#80=ORIENTED_EDGE('',*,*,#99,.T.);
#81=ORIENTED_EDGE('',*,*,#108,.F.);
#82=ORIENTED_EDGE('',*,*,#106,.F.);
#83=ORIENTED_EDGE('',*,*,#107,.T.);
#84=ORIENTED_EDGE('',*,*,#108,.T.);
#85=ORIENTED_EDGE('',*,*,#98,.T.);
#86=ORIENTED_EDGE('',*,*,#101,.T.);
#87=ORIENTED_EDGE('',*,*,#103,.T.);
#88=ORIENTED_EDGE('',*,*,#105,.T.);
#89=EDGE_CURVE('',#109,#109,#123,.T.);
#90=EDGE_CURVE('',#110,#110,#124,.T.);
#91=EDGE_CURVE('',#111,#112,#12,.T.);
#92=EDGE_CURVE('',#112,#113,#13,.T.);
#93=EDGE_CURVE('',#113,#114,#14,.T.);
#94=EDGE_CURVE('',#114,#115,#15,.T.);
#95=EDGE_CURVE('',#115,#116,#16,.T.);
#96=EDGE_CURVE('',#116,#111,#17,.T.);
#97=EDGE_CURVE('',#116,#117,#18,.T.);
#98=EDGE_CURVE('',#118,#117,#19,.T.);
#99=EDGE_CURVE('',#111,#118,#20,.T.);
#100=EDGE_CURVE('',#115,#119,#21,.T.);
#101=EDGE_CURVE('',#117,#119,#22,.T.);
#102=EDGE_CURVE('',#114,#120,#23,.T.);
#103=EDGE_CURVE('',#119,#120,#24,.T.);
#104=EDGE_CURVE('',#113,#121,#25,.T.);
#105=EDGE_CURVE('',#120,#121,#26,.T.);
#106=EDGE_CURVE('',#112,#122,#27,.T.);
#107=EDGE_CURVE('',#121,#122,#28,.T.);
#108=EDGE_CURVE('',#122,#118,#29,.T.);
#109=VERTEX_POINT('',#240);
#110=VERTEX_POINT('',#243);
#111=VERTEX_POINT('',#246);
#112=VERTEX_POINT('',#247);
#113=VERTEX_POINT('',#249);
#114=VERTEX_POINT('',#251);
#115=VERTEX_POINT('',#253);
#116=VERTEX_POINT('',#255);
#117=VERTEX_POINT('',#259);
#118=VERTEX_POINT('',#261);
#119=VERTEX_POINT('',#265);
#120=VERTEX_POINT('',#269);
#121=VERTEX_POINT('',#273);
#122=VERTEX_POINT('',#277);
#123=CIRCLE('',#182,0.00205);
#124=CIRCLE('',#184,0.00205);
#125=EDGE_LOOP('',(#49));
#126=EDGE_LOOP('',(#50));
#127=EDGE_LOOP('',(#51));
#128=EDGE_LOOP('',(#52));
#129=EDGE_LOOP('',(#53,#54,#55,#56,#57,#58));
#130=EDGE_LOOP('',(#59,#60,#61,#62));
#131=EDGE_LOOP('',(#63,#64,#65,#66));
#132=EDGE_LOOP('',(#67,#68,#69,#70));
#133=EDGE_LOOP('',(#71,#72,#73,#74));
#134=EDGE_LOOP('',(#75,#76,#77,#78));
#135=EDGE_LOOP('',(#79,#80,#81,#82));
#136=EDGE_LOOP('',(#83,#84,#85,#86,#87,#88));
#137=FACE_BOUND('',#125,.T.);
#138=FACE_BOUND('',#126,.T.);
#139=FACE_BOUND('',#127,.T.);
#140=FACE_BOUND('',#128,.T.);
#141=FACE_BOUND('',#129,.T.);
#142=FACE_BOUND('',#130,.T.);
#143=FACE_BOUND('',#131,.T.);
#144=FACE_BOUND('',#132,.T.);
#145=FACE_BOUND('',#133,.T.);
#146=FACE_BOUND('',#134,.T.);
#147=FACE_BOUND('',#135,.T.);
#148=FACE_BOUND('',#136,.T.);
#149=PLANE('',#181);
#150=PLANE('',#185);
#151=PLANE('',#186);
#152=PLANE('',#187);
#153=PLANE('',#188);
#154=PLANE('',#189);
#155=PLANE('',#190);
#156=PLANE('',#191);
#157=PLANE('',#192);
#158=ADVANCED_FACE('',(#137),#149,.T.);
#159=ADVANCED_FACE('',(#138,#139),#48,.F.);
#160=ADVANCED_FACE('',(#140,#141),#150,.T.);
#161=ADVANCED_FACE('',(#142),#151,.F.);
#162=ADVANCED_FACE('',(#143),#152,.F.);
#163=ADVANCED_FACE('',(#144),#153,.F.);
#164=ADVANCED_FACE('',(#145),#154,.F.);
#165=ADVANCED_FACE('',(#146),#155,.F.);
#166=ADVANCED_FACE('',(#147),#156,.F.);
#167=ADVANCED_FACE('',(#148),#157,.T.);
#168=CLOSED_SHELL('',(#158,#159,#160,#161,#162,#163,#164,#165,#166,#167));
#169=STYLED_ITEM('',(#170),#177);
#170=PRESENTATION_STYLE_ASSIGNMENT((#171));
#171=SURFACE_STYLE_USAGE(.BOTH.,#172);
#172=SURFACE_SIDE_STYLE('',(#173));
#173=SURFACE_STYLE_FILL_AREA(#174);
#174=FILL_AREA_STYLE('',(#175));
#175=FILL_AREA_STYLE_COLOUR('',#176);
#176=COLOUR_RGB('',0.301960784313725,0.301960784313725,0.301960784313725);
#177=MANIFOLD_SOLID_BREP('(POD) (AXLE) Drive Input gear 1',#168);
#178=SHAPE_DEFINITION_REPRESENTATION(#288,#179);
#179=SHAPE_REPRESENTATION('(POD) (AXLE) Drive Input gear 1',(#180),#283);
#180=AXIS2_PLACEMENT_3D('',#237,#193,#194);
#181=AXIS2_PLACEMENT_3D('',#238,#195,#196);
#182=AXIS2_PLACEMENT_3D('',#239,#197,#198);
#183=AXIS2_PLACEMENT_3D('',#241,#199,#200);
#184=AXIS2_PLACEMENT_3D('',#242,#201,#202);
#185=AXIS2_PLACEMENT_3D('',#244,#203,#204);
#186=AXIS2_PLACEMENT_3D('',#257,#211,#212);
#187=AXIS2_PLACEMENT_3D('',#263,#216,#217);
#188=AXIS2_PLACEMENT_3D('',#267,#220,#221);
#189=AXIS2_PLACEMENT_3D('',#271,#224,#225);
#190=AXIS2_PLACEMENT_3D('',#275,#228,#229);
#191=AXIS2_PLACEMENT_3D('',#279,#232,#233);
#192=AXIS2_PLACEMENT_3D('',#281,#235,#236);
#193=DIRECTION('',(0.,0.,1.));
#194=DIRECTION('',(1.,0.,0.));
#195=DIRECTION('',(0.,0.,1.));
#196=DIRECTION('',(1.,0.,0.));
#197=DIRECTION('',(0.,0.,1.));
#198=DIRECTION('',(1.,0.,0.));
#199=DIRECTION('',(0.,0.,1.));
#200=DIRECTION('',(1.,0.,0.));
#201=DIRECTION('',(0.,0.,1.));
#202=DIRECTION('',(1.,0.,0.));
#203=DIRECTION('',(0.,0.,1.));
#204=DIRECTION('',(1.,0.,0.));
#205=DIRECTION('',(0.5,-0.866025403784439,0.));
#206=DIRECTION('',(1.,2.20928617461347E-16,0.));
#207=DIRECTION('',(0.5,0.866025403784439,0.));
#208=DIRECTION('',(-0.5,0.866025403784439,0.));
#209=DIRECTION('',(-1.,-2.20928617461347E-16,0.));
#210=DIRECTION('',(-0.5,-0.866025403784439,0.));
#211=DIRECTION('',(0.866025403784439,-0.5,0.));
#212=DIRECTION('',(0.5,0.866025403784439,0.));
#213=DIRECTION('',(0.,0.,-1.));
#214=DIRECTION('',(0.5,0.866025403784439,0.));
#215=DIRECTION('',(0.,0.,-1.));
#216=DIRECTION('',(2.20928617461347E-16,-1.,0.));
#217=DIRECTION('',(1.,2.20928617461347E-16,0.));
#218=DIRECTION('',(0.,0.,-1.));
#219=DIRECTION('',(1.,2.20928617461347E-16,0.));
#220=DIRECTION('',(-0.866025403784439,-0.5,0.));
#221=DIRECTION('',(0.5,-0.866025403784439,0.));
#222=DIRECTION('',(0.,0.,-1.));
#223=DIRECTION('',(0.5,-0.866025403784439,0.));
#224=DIRECTION('',(-0.866025403784439,0.5,0.));
#225=DIRECTION('',(-0.5,-0.866025403784439,0.));
#226=DIRECTION('',(0.,0.,-1.));
#227=DIRECTION('',(-0.5,-0.866025403784439,0.));
#228=DIRECTION('',(-2.20928617461347E-16,1.,0.));
#229=DIRECTION('',(-1.,-2.20928617461347E-16,0.));
#230=DIRECTION('',(0.,0.,-1.));
#231=DIRECTION('',(-1.,-2.20928617461347E-16,0.));
#232=DIRECTION('',(0.866025403784439,0.5,0.));
#233=DIRECTION('',(-0.5,0.866025403784439,0.));
#234=DIRECTION('',(-0.5,0.866025403784439,0.));
#235=DIRECTION('',(0.,0.,-1.));
#236=DIRECTION('',(0.987688340595138,0.156434465040232,0.));
#237=CARTESIAN_POINT('',(0.,0.,0.));
#238=CARTESIAN_POINT('',(0.,8.67361737988404E-19,0.01034775));
#239=CARTESIAN_POINT('',(-4.33680868994202E-19,1.25526296912604E-19,0.01034775));
#240=CARTESIAN_POINT('',(0.00205,1.25526296912604E-19,0.01034775));
#241=CARTESIAN_POINT('',(-4.33680868994202E-19,1.25526296912604E-19,0.01034775));
#242=CARTESIAN_POINT('',(-4.33680868994202E-19,1.25526296912604E-19,0.01484775));
#243=CARTESIAN_POINT('',(0.00205,1.25526296912604E-19,0.01484775));
#244=CARTESIAN_POINT('',(0.,-0.0072,0.01484775));
#245=CARTESIAN_POINT('',(-0.00294448637286709,-0.0017,0.01484775));
#246=CARTESIAN_POINT('',(-0.00392598183048946,-4.33680868994202E-19,0.01484775));
#247=CARTESIAN_POINT('',(-0.00196299091524473,-0.0034,0.01484775));
#248=CARTESIAN_POINT('',(0.,-0.0034,0.01484775));
#249=CARTESIAN_POINT('',(0.00196299091524473,-0.0034,0.01484775));
#250=CARTESIAN_POINT('',(0.00294448637286709,-0.0017,0.01484775));
#251=CARTESIAN_POINT('',(0.00392598183048946,2.16840434497101E-19,0.01484775));
#252=CARTESIAN_POINT('',(0.00294448637286709,0.0017,0.01484775));
#253=CARTESIAN_POINT('',(0.00196299091524473,0.0034,0.01484775));
#254=CARTESIAN_POINT('',(4.33680868994202E-19,0.0034,0.01484775));
#255=CARTESIAN_POINT('',(-0.00196299091524473,0.0034,0.01484775));
#256=CARTESIAN_POINT('',(-0.00294448637286709,0.0017,0.01484775));
#257=CARTESIAN_POINT('',(-0.00294448637286709,0.0017,0.01634775));
#258=CARTESIAN_POINT('',(-0.00196299091524473,0.0034,0.01634775));
#259=CARTESIAN_POINT('',(-0.00196299091524473,0.0034,0.001));
#260=CARTESIAN_POINT('',(-0.00294448637286709,0.0017,0.001));
#261=CARTESIAN_POINT('',(-0.00392598183048946,-4.33680868994202E-19,0.001));
#262=CARTESIAN_POINT('',(-0.00392598183048946,-4.33680868994202E-19,0.01634775));
#263=CARTESIAN_POINT('',(4.33680868994202E-19,0.0034,0.01634775));
#264=CARTESIAN_POINT('',(0.00196299091524473,0.0034,0.01634775));
#265=CARTESIAN_POINT('',(0.00196299091524473,0.0034,0.001));
#266=CARTESIAN_POINT('',(-7.5115729936858E-19,0.0034,0.001));
#267=CARTESIAN_POINT('',(0.00294448637286709,0.0017,0.01634775));
#268=CARTESIAN_POINT('',(0.00392598183048946,2.16840434497101E-19,0.01634775));
#269=CARTESIAN_POINT('',(0.00392598183048946,2.16840434497101E-19,0.001));
#270=CARTESIAN_POINT('',(0.00294448637286709,0.0017,0.001));
#271=CARTESIAN_POINT('',(0.00294448637286709,-0.0017,0.01634775));
#272=CARTESIAN_POINT('',(0.00196299091524473,-0.0034,0.01634775));
#273=CARTESIAN_POINT('',(0.00196299091524473,-0.0034,0.001));
#274=CARTESIAN_POINT('',(0.00294448637286709,-0.0017,0.001));
#275=CARTESIAN_POINT('',(0.,-0.0034,0.01634775));
#276=CARTESIAN_POINT('',(-0.00196299091524473,-0.0034,0.01634775));
#277=CARTESIAN_POINT('',(-0.00196299091524473,-0.0034,0.001));
#278=CARTESIAN_POINT('',(7.5115729936858E-19,-0.0034,0.001));
#279=CARTESIAN_POINT('',(-0.00294448637286709,-0.0017,0.01634775));
#280=CARTESIAN_POINT('',(-0.00294448637286709,-0.0017,0.001));
#281=CARTESIAN_POINT('',(0.,0.,0.001));
#282=MECHANICAL_DESIGN_GEOMETRIC_PRESENTATION_REPRESENTATION('',(#169),
#283);
#283=(
GEOMETRIC_REPRESENTATION_CONTEXT(3)
GLOBAL_UNCERTAINTY_ASSIGNED_CONTEXT((#284))
GLOBAL_UNIT_ASSIGNED_CONTEXT((#287,#286,#285))
REPRESENTATION_CONTEXT('(POD) (AXLE) Drive Input gear 1',
'TOP_LEVEL_ASSEMBLY_PART')
);
#284=UNCERTAINTY_MEASURE_WITH_UNIT(LENGTH_MEASURE(1.E-8),#287,
'DISTANCE_ACCURACY_VALUE','Maximum Tolerance applied to model');
#285=(
NAMED_UNIT(*)
SI_UNIT($,.STERADIAN.)
SOLID_ANGLE_UNIT()
);
#286=(
NAMED_UNIT(*)
PLANE_ANGLE_UNIT()
SI_UNIT($,.RADIAN.)
);
#287=(
LENGTH_UNIT()
NAMED_UNIT(*)
SI_UNIT($,.METRE.)
);
#288=PRODUCT_DEFINITION_SHAPE('','',#289);
#289=PRODUCT_DEFINITION('','',#291,#290);
#290=PRODUCT_DEFINITION_CONTEXT('',#297,'design');
#291=PRODUCT_DEFINITION_FORMATION_WITH_SPECIFIED_SOURCE('','',#293,
 .NOT_KNOWN.);
#292=PRODUCT_RELATED_PRODUCT_CATEGORY('','',(#293));
#293=PRODUCT('(POD) (AXLE) Drive Input gear 1',
'(POD) (AXLE) Drive Input gear 1','(POD) (AXLE) Drive Input gear 1',(#295));
#294=PRODUCT_CATEGORY('','');
#295=PRODUCT_CONTEXT('',#297,'mechanical');
#296=APPLICATION_PROTOCOL_DEFINITION('international standard',
'ap242_managed_model_based_3d_engineering',2020,#297);
#297=APPLICATION_CONTEXT('managed model based 3d engineering');
ENDSEC;
END-ISO-10303-21;
